M48
; DRILL file {KiCad (6.0.7)} date Sun Dec 11 16:43:52 2022
; FORMAT={-:-/ absolute / metric / decimal}
; #@! TF.CreationDate,2022-12-11T16:43:52+01:00
; #@! TF.GenerationSoftware,Kicad,Pcbnew,(6.0.7)
; #@! TF.FileFunction,Plated,1,4,PTH
FMAT,2
METRIC
; #@! TA.AperFunction,Plated,PTH,ViaDrill
T1C0.400
; #@! TA.AperFunction,Plated,PTH,ComponentDrill
T2C0.950
; #@! TA.AperFunction,Plated,PTH,ComponentDrill
T3C1.000
; #@! TA.AperFunction,Plated,PTH,ComponentDrill
T4C1.020
; #@! TA.AperFunction,Plated,PTH,ComponentDrill
T5C1.092
; #@! TA.AperFunction,Plated,PTH,ComponentDrill
T6C1.100
%
G90
G05
T1
X115.316Y-75.692
X123.698Y-74.676
X127.762Y-54.864
X127.762Y-79.121
X130.658Y-65.659
X132.334Y-50.546
X134.239Y-54.102
X134.366Y-58.42
X136.017Y-60.452
X137.93Y-55.967
T2
X116.448Y-41.885
X118.948Y-41.885
X121.448Y-41.885
X123.948Y-41.885
X130.997Y-41.923
X133.497Y-41.923
X135.997Y-41.923
X138.497Y-41.923
X140.97Y-53.467
X140.97Y-55.967
X140.97Y-58.467
X140.97Y-60.967
T3
X107.437Y-41.893
X109.937Y-41.893
T4
X107.061Y-69.596
X107.061Y-72.596
X107.061Y-75.596
X139.92Y-70.001
X139.92Y-73.001
T5
X105.535Y-48.185
X105.535Y-63.425
X108.075Y-48.185
X108.075Y-63.425
X110.615Y-48.185
X110.615Y-63.425
X113.155Y-48.185
X113.155Y-63.425
X115.695Y-48.185
X115.695Y-63.425
X118.235Y-48.185
X118.235Y-63.425
X120.775Y-48.185
X120.775Y-63.425
X123.315Y-48.185
X123.315Y-63.425
X125.855Y-48.185
X125.855Y-63.425
T6
X113.323Y-67.577
X113.323Y-72.277
X124.823Y-72.277
X131.823Y-72.277
T0
M30
