G04 #@! TF.GenerationSoftware,KiCad,Pcbnew,(6.0.7)*
G04 #@! TF.CreationDate,2022-12-11T16:42:54+01:00*
G04 #@! TF.ProjectId,StartStop_PCB,53746172-7453-4746-9f70-5f5043422e6b,rev?*
G04 #@! TF.SameCoordinates,Original*
G04 #@! TF.FileFunction,Copper,L2,Inr*
G04 #@! TF.FilePolarity,Positive*
%FSLAX46Y46*%
G04 Gerber Fmt 4.6, Leading zero omitted, Abs format (unit mm)*
G04 Created by KiCad (PCBNEW (6.0.7)) date 2022-12-11 16:42:54*
%MOMM*%
%LPD*%
G01*
G04 APERTURE LIST*
G04 Aperture macros list*
%AMRoundRect*
0 Rectangle with rounded corners*
0 $1 Rounding radius*
0 $2 $3 $4 $5 $6 $7 $8 $9 X,Y pos of 4 corners*
0 Add a 4 corners polygon primitive as box body*
4,1,4,$2,$3,$4,$5,$6,$7,$8,$9,$2,$3,0*
0 Add four circle primitives for the rounded corners*
1,1,$1+$1,$2,$3*
1,1,$1+$1,$4,$5*
1,1,$1+$1,$6,$7*
1,1,$1+$1,$8,$9*
0 Add four rect primitives between the rounded corners*
20,1,$1+$1,$2,$3,$4,$5,0*
20,1,$1+$1,$4,$5,$6,$7,0*
20,1,$1+$1,$6,$7,$8,$9,0*
20,1,$1+$1,$8,$9,$2,$3,0*%
G04 Aperture macros list end*
G04 #@! TA.AperFunction,Profile*
%ADD10C,0.100000*%
G04 #@! TD*
G04 #@! TA.AperFunction,ComponentPad*
%ADD11RoundRect,0.250000X-0.600000X-0.750000X0.600000X-0.750000X0.600000X0.750000X-0.600000X0.750000X0*%
G04 #@! TD*
G04 #@! TA.AperFunction,ComponentPad*
%ADD12O,1.700000X2.000000*%
G04 #@! TD*
G04 #@! TA.AperFunction,ComponentPad*
%ADD13RoundRect,0.250001X-0.759999X0.499999X-0.759999X-0.499999X0.759999X-0.499999X0.759999X0.499999X0*%
G04 #@! TD*
G04 #@! TA.AperFunction,ComponentPad*
%ADD14O,2.020000X1.500000*%
G04 #@! TD*
G04 #@! TA.AperFunction,ComponentPad*
%ADD15RoundRect,0.250000X-0.725000X0.600000X-0.725000X-0.600000X0.725000X-0.600000X0.725000X0.600000X0*%
G04 #@! TD*
G04 #@! TA.AperFunction,ComponentPad*
%ADD16O,1.950000X1.700000*%
G04 #@! TD*
G04 #@! TA.AperFunction,ComponentPad*
%ADD17C,1.752600*%
G04 #@! TD*
G04 #@! TA.AperFunction,ComponentPad*
%ADD18RoundRect,0.250000X-0.600000X-0.725000X0.600000X-0.725000X0.600000X0.725000X-0.600000X0.725000X0*%
G04 #@! TD*
G04 #@! TA.AperFunction,ComponentPad*
%ADD19O,1.700000X1.950000*%
G04 #@! TD*
G04 #@! TA.AperFunction,ComponentPad*
%ADD20C,1.650000*%
G04 #@! TD*
G04 #@! TA.AperFunction,ComponentPad*
%ADD21RoundRect,0.250001X0.759999X-0.499999X0.759999X0.499999X-0.759999X0.499999X-0.759999X-0.499999X0*%
G04 #@! TD*
G04 #@! TA.AperFunction,ViaPad*
%ADD22C,0.800000*%
G04 #@! TD*
G04 APERTURE END LIST*
D10*
X144000000Y-81000000D02*
G75*
G03*
X146000000Y-79000000I0J2000000D01*
G01*
X103000000Y-37000000D02*
G75*
G03*
X101000000Y-39000000I0J-2000000D01*
G01*
X146000000Y-79000000D02*
X146000000Y-39000000D01*
X144000000Y-37000000D02*
X103000000Y-37000000D01*
X101000000Y-39000000D02*
X101000000Y-79000000D01*
X146000000Y-39000000D02*
G75*
G03*
X144000000Y-37000000I-2000000J0D01*
G01*
X101000000Y-79000000D02*
G75*
G03*
X103000000Y-81000000I2000000J0D01*
G01*
X103000000Y-81000000D02*
X144000000Y-81000000D01*
D11*
X107436600Y-41893000D03*
D12*
X109936600Y-41893000D03*
D13*
X107061000Y-69596000D03*
D14*
X107061000Y-72596000D03*
X107061000Y-75596000D03*
D15*
X140970000Y-53467000D03*
D16*
X140970000Y-55967000D03*
X140970000Y-58467000D03*
X140970000Y-60967000D03*
D17*
X105535191Y-48185000D03*
X108075191Y-48185000D03*
X110615191Y-48185000D03*
X113155191Y-48185000D03*
X115695191Y-48185000D03*
X118235191Y-48185000D03*
X120775191Y-48185000D03*
X123315191Y-48185000D03*
X125855191Y-48185000D03*
X125855191Y-63425000D03*
X123315191Y-63425000D03*
X120775191Y-63425000D03*
X118235191Y-63425000D03*
X115695191Y-63425000D03*
X113155191Y-63425000D03*
X110615191Y-63425000D03*
X108075191Y-63425000D03*
X105535191Y-63425000D03*
D18*
X116448200Y-41884600D03*
D19*
X118948200Y-41884600D03*
X121448200Y-41884600D03*
X123948200Y-41884600D03*
D18*
X130997000Y-41923000D03*
D19*
X133497000Y-41923000D03*
X135997000Y-41923000D03*
X138497000Y-41923000D03*
D20*
X113323000Y-67576600D03*
X113323000Y-72276600D03*
X124823000Y-72276600D03*
X131823000Y-72276600D03*
D21*
X139920000Y-73001000D03*
D14*
X139920000Y-70001000D03*
D22*
X130658000Y-65659000D03*
X115316000Y-75692000D03*
X134366000Y-58420000D03*
X123698000Y-74676000D03*
X127762000Y-79121000D03*
X134239000Y-54102000D03*
X132334000Y-50546000D03*
X127762000Y-54864000D03*
X136017000Y-60452000D03*
X137930500Y-55967000D03*
G04 #@! TA.AperFunction,Conductor*
G36*
X143970018Y-37510000D02*
G01*
X143984851Y-37512310D01*
X143984855Y-37512310D01*
X143993724Y-37513691D01*
X144008981Y-37511696D01*
X144034302Y-37510953D01*
X144203285Y-37523039D01*
X144221064Y-37525596D01*
X144411392Y-37566999D01*
X144428641Y-37572063D01*
X144611150Y-37640136D01*
X144627502Y-37647604D01*
X144798458Y-37740952D01*
X144813582Y-37750672D01*
X144969514Y-37867402D01*
X144983100Y-37879175D01*
X145120825Y-38016900D01*
X145132598Y-38030486D01*
X145249328Y-38186418D01*
X145259048Y-38201542D01*
X145352396Y-38372498D01*
X145359864Y-38388850D01*
X145427937Y-38571359D01*
X145433001Y-38588607D01*
X145474404Y-38778936D01*
X145476962Y-38796721D01*
X145488540Y-38958601D01*
X145487793Y-38976565D01*
X145487692Y-38984845D01*
X145486309Y-38993724D01*
X145487474Y-39002630D01*
X145490436Y-39025283D01*
X145491500Y-39041621D01*
X145491500Y-78950633D01*
X145490000Y-78970018D01*
X145487690Y-78984851D01*
X145487690Y-78984855D01*
X145486309Y-78993724D01*
X145488136Y-79007693D01*
X145488304Y-79008976D01*
X145489047Y-79034302D01*
X145482758Y-79122245D01*
X145476962Y-79203279D01*
X145474404Y-79221064D01*
X145454856Y-79310928D01*
X145433001Y-79411392D01*
X145427937Y-79428641D01*
X145359864Y-79611150D01*
X145352396Y-79627502D01*
X145259048Y-79798458D01*
X145249328Y-79813582D01*
X145132598Y-79969514D01*
X145120825Y-79983100D01*
X144983100Y-80120825D01*
X144969514Y-80132598D01*
X144813582Y-80249328D01*
X144798458Y-80259048D01*
X144627502Y-80352396D01*
X144611150Y-80359864D01*
X144428641Y-80427937D01*
X144411393Y-80433001D01*
X144221064Y-80474404D01*
X144203285Y-80476961D01*
X144041395Y-80488540D01*
X144023435Y-80487793D01*
X144015155Y-80487692D01*
X144006276Y-80486309D01*
X143974714Y-80490436D01*
X143958379Y-80491500D01*
X103049367Y-80491500D01*
X103029982Y-80490000D01*
X103015149Y-80487690D01*
X103015145Y-80487690D01*
X103006276Y-80486309D01*
X102991019Y-80488304D01*
X102965698Y-80489047D01*
X102796715Y-80476961D01*
X102778936Y-80474404D01*
X102588607Y-80433001D01*
X102571359Y-80427937D01*
X102388850Y-80359864D01*
X102372498Y-80352396D01*
X102201542Y-80259048D01*
X102186418Y-80249328D01*
X102030486Y-80132598D01*
X102016900Y-80120825D01*
X101879175Y-79983100D01*
X101867402Y-79969514D01*
X101750672Y-79813582D01*
X101740952Y-79798458D01*
X101647604Y-79627502D01*
X101640136Y-79611150D01*
X101572063Y-79428641D01*
X101566999Y-79411392D01*
X101545144Y-79310928D01*
X101525596Y-79221064D01*
X101523038Y-79203278D01*
X101516894Y-79117362D01*
X101511719Y-79045011D01*
X101512805Y-79022245D01*
X101512334Y-79022203D01*
X101512770Y-79017345D01*
X101513576Y-79012552D01*
X101513729Y-79000000D01*
X101509773Y-78972376D01*
X101508500Y-78954514D01*
X101508500Y-78686102D01*
X107876141Y-78686102D01*
X107911732Y-78893228D01*
X107984472Y-79090399D01*
X107987424Y-79095360D01*
X107987424Y-79095361D01*
X108006584Y-79127565D01*
X108091926Y-79271012D01*
X108230494Y-79429019D01*
X108395537Y-79559128D01*
X108400653Y-79561819D01*
X108400655Y-79561821D01*
X108572487Y-79652226D01*
X108581527Y-79656982D01*
X108782234Y-79719304D01*
X108787969Y-79719983D01*
X108787970Y-79719983D01*
X108818532Y-79723600D01*
X108952874Y-79739500D01*
X109074316Y-79739500D01*
X109230279Y-79725169D01*
X109235841Y-79723600D01*
X109235843Y-79723600D01*
X109331414Y-79696646D01*
X109432549Y-79668123D01*
X109621037Y-79575171D01*
X109789429Y-79449427D01*
X109808294Y-79429019D01*
X109928167Y-79299341D01*
X109928169Y-79299338D01*
X109932086Y-79295101D01*
X110041936Y-79121000D01*
X126848496Y-79121000D01*
X126849186Y-79127565D01*
X126866795Y-79295101D01*
X126868458Y-79310928D01*
X126927473Y-79492556D01*
X127022960Y-79657944D01*
X127027378Y-79662851D01*
X127027379Y-79662852D01*
X127083966Y-79725698D01*
X127150747Y-79799866D01*
X127305248Y-79912118D01*
X127311276Y-79914802D01*
X127311278Y-79914803D01*
X127434162Y-79969514D01*
X127479712Y-79989794D01*
X127573113Y-80009647D01*
X127660056Y-80028128D01*
X127660061Y-80028128D01*
X127666513Y-80029500D01*
X127857487Y-80029500D01*
X127863939Y-80028128D01*
X127863944Y-80028128D01*
X127950887Y-80009647D01*
X128044288Y-79989794D01*
X128089838Y-79969514D01*
X128212722Y-79914803D01*
X128212724Y-79914802D01*
X128218752Y-79912118D01*
X128373253Y-79799866D01*
X128440034Y-79725698D01*
X128496621Y-79662852D01*
X128496622Y-79662851D01*
X128501040Y-79657944D01*
X128596527Y-79492556D01*
X128655542Y-79310928D01*
X128657206Y-79295101D01*
X128674814Y-79127565D01*
X128675504Y-79121000D01*
X128671719Y-79084983D01*
X128656232Y-78937635D01*
X128656232Y-78937633D01*
X128655542Y-78931072D01*
X128596527Y-78749444D01*
X128501040Y-78584056D01*
X128435873Y-78511680D01*
X128377675Y-78447045D01*
X128377674Y-78447044D01*
X128373253Y-78442134D01*
X128218752Y-78329882D01*
X128212724Y-78327198D01*
X128212722Y-78327197D01*
X128050319Y-78254891D01*
X128050318Y-78254891D01*
X128044288Y-78252206D01*
X127950887Y-78232353D01*
X127863944Y-78213872D01*
X127863939Y-78213872D01*
X127857487Y-78212500D01*
X127666513Y-78212500D01*
X127660061Y-78213872D01*
X127660056Y-78213872D01*
X127573113Y-78232353D01*
X127479712Y-78252206D01*
X127473682Y-78254891D01*
X127473681Y-78254891D01*
X127311278Y-78327197D01*
X127311276Y-78327198D01*
X127305248Y-78329882D01*
X127150747Y-78442134D01*
X127146326Y-78447044D01*
X127146325Y-78447045D01*
X127088128Y-78511680D01*
X127022960Y-78584056D01*
X126927473Y-78749444D01*
X126868458Y-78931072D01*
X126867768Y-78937633D01*
X126867768Y-78937635D01*
X126852281Y-79084983D01*
X126848496Y-79121000D01*
X110041936Y-79121000D01*
X110044231Y-79117362D01*
X110122108Y-78922163D01*
X110123233Y-78916506D01*
X110123235Y-78916500D01*
X110161981Y-78721707D01*
X110161981Y-78721705D01*
X110163108Y-78716040D01*
X110163426Y-78691800D01*
X110165783Y-78511680D01*
X110165859Y-78505898D01*
X110130268Y-78298772D01*
X110057528Y-78101601D01*
X109950074Y-77920988D01*
X109811506Y-77762981D01*
X109646463Y-77632872D01*
X109641347Y-77630181D01*
X109641345Y-77630179D01*
X109465590Y-77537710D01*
X109465588Y-77537709D01*
X109460473Y-77535018D01*
X109259766Y-77472696D01*
X109254031Y-77472017D01*
X109254030Y-77472017D01*
X109205742Y-77466302D01*
X109089126Y-77452500D01*
X108967684Y-77452500D01*
X108811721Y-77466831D01*
X108806159Y-77468400D01*
X108806157Y-77468400D01*
X108710586Y-77495354D01*
X108609451Y-77523877D01*
X108420963Y-77616829D01*
X108252571Y-77742573D01*
X108109914Y-77896899D01*
X107997769Y-78074638D01*
X107919892Y-78269837D01*
X107918767Y-78275494D01*
X107918765Y-78275500D01*
X107885620Y-78442134D01*
X107878892Y-78475960D01*
X107878816Y-78481735D01*
X107878816Y-78481739D01*
X107878500Y-78505898D01*
X107876141Y-78686102D01*
X101508500Y-78686102D01*
X101508500Y-75635690D01*
X105538037Y-75635690D01*
X105565025Y-75858715D01*
X105631082Y-76073435D01*
X105633652Y-76078415D01*
X105633654Y-76078419D01*
X105698852Y-76204738D01*
X105734118Y-76273064D01*
X105870877Y-76451292D01*
X106037036Y-76602485D01*
X106041783Y-76605463D01*
X106041786Y-76605465D01*
X106199410Y-76704341D01*
X106227344Y-76721864D01*
X106435783Y-76805656D01*
X106655767Y-76851213D01*
X106660378Y-76851479D01*
X106660379Y-76851479D01*
X106710952Y-76854395D01*
X106710956Y-76854395D01*
X106712775Y-76854500D01*
X107377999Y-76854500D01*
X107380786Y-76854251D01*
X107380792Y-76854251D01*
X107450929Y-76847991D01*
X107544762Y-76839617D01*
X107550176Y-76838136D01*
X107550181Y-76838135D01*
X107677912Y-76803191D01*
X107761451Y-76780337D01*
X107766509Y-76777925D01*
X107766513Y-76777923D01*
X107884042Y-76721864D01*
X107964218Y-76683622D01*
X108146654Y-76552529D01*
X108302992Y-76391201D01*
X108428290Y-76204738D01*
X108478173Y-76091102D01*
X136815141Y-76091102D01*
X136850732Y-76298228D01*
X136923472Y-76495399D01*
X137030926Y-76676012D01*
X137169494Y-76834019D01*
X137334537Y-76964128D01*
X137339653Y-76966819D01*
X137339655Y-76966821D01*
X137515410Y-77059290D01*
X137520527Y-77061982D01*
X137721234Y-77124304D01*
X137726969Y-77124983D01*
X137726970Y-77124983D01*
X137757532Y-77128600D01*
X137891874Y-77144500D01*
X138013316Y-77144500D01*
X138169279Y-77130169D01*
X138174841Y-77128600D01*
X138174843Y-77128600D01*
X138270414Y-77101646D01*
X138371549Y-77073123D01*
X138560037Y-76980171D01*
X138728429Y-76854427D01*
X138751305Y-76829680D01*
X138867167Y-76704341D01*
X138867169Y-76704338D01*
X138871086Y-76700101D01*
X138983231Y-76522362D01*
X139061108Y-76327163D01*
X139062233Y-76321506D01*
X139062235Y-76321500D01*
X139100981Y-76126707D01*
X139100981Y-76126705D01*
X139102108Y-76121040D01*
X139102426Y-76096800D01*
X139104783Y-75916680D01*
X139104859Y-75910898D01*
X139069268Y-75703772D01*
X138996528Y-75506601D01*
X138889074Y-75325988D01*
X138750506Y-75167981D01*
X138585463Y-75037872D01*
X138580347Y-75035181D01*
X138580345Y-75035179D01*
X138404590Y-74942710D01*
X138404588Y-74942709D01*
X138399473Y-74940018D01*
X138198766Y-74877696D01*
X138193031Y-74877017D01*
X138193030Y-74877017D01*
X138144742Y-74871302D01*
X138028126Y-74857500D01*
X137906684Y-74857500D01*
X137750721Y-74871831D01*
X137745159Y-74873400D01*
X137745157Y-74873400D01*
X137649586Y-74900354D01*
X137548451Y-74928877D01*
X137359963Y-75021829D01*
X137355337Y-75025283D01*
X137355336Y-75025284D01*
X137223237Y-75123927D01*
X137191571Y-75147573D01*
X137187657Y-75151807D01*
X137187655Y-75151809D01*
X137136429Y-75207226D01*
X137048914Y-75301899D01*
X136936769Y-75479638D01*
X136858892Y-75674837D01*
X136857767Y-75680494D01*
X136857765Y-75680500D01*
X136836771Y-75786046D01*
X136817892Y-75880960D01*
X136817816Y-75886735D01*
X136817816Y-75886739D01*
X136817500Y-75910898D01*
X136815141Y-76091102D01*
X108478173Y-76091102D01*
X108518588Y-75999033D01*
X108538360Y-75916680D01*
X108569722Y-75786046D01*
X108569722Y-75786045D01*
X108571032Y-75780589D01*
X108583963Y-75556310D01*
X108556975Y-75333285D01*
X108490918Y-75118565D01*
X108457222Y-75053279D01*
X108390454Y-74923919D01*
X108390454Y-74923918D01*
X108387882Y-74918936D01*
X108251123Y-74740708D01*
X108180010Y-74676000D01*
X122784496Y-74676000D01*
X122804458Y-74865928D01*
X122863473Y-75047556D01*
X122958960Y-75212944D01*
X122963378Y-75217851D01*
X122963379Y-75217852D01*
X123039055Y-75301899D01*
X123086747Y-75354866D01*
X123241248Y-75467118D01*
X123247276Y-75469802D01*
X123247278Y-75469803D01*
X123342093Y-75512017D01*
X123415712Y-75544794D01*
X123496269Y-75561917D01*
X123596056Y-75583128D01*
X123596061Y-75583128D01*
X123602513Y-75584500D01*
X123793487Y-75584500D01*
X123799939Y-75583128D01*
X123799944Y-75583128D01*
X123899731Y-75561917D01*
X123980288Y-75544794D01*
X124053907Y-75512017D01*
X124148722Y-75469803D01*
X124148724Y-75469802D01*
X124154752Y-75467118D01*
X124309253Y-75354866D01*
X124356945Y-75301899D01*
X124432621Y-75217852D01*
X124432622Y-75217851D01*
X124437040Y-75212944D01*
X124532527Y-75047556D01*
X124591542Y-74865928D01*
X124611504Y-74676000D01*
X124602101Y-74586535D01*
X124592232Y-74492635D01*
X124592232Y-74492633D01*
X124591542Y-74486072D01*
X124532527Y-74304444D01*
X124506101Y-74258672D01*
X124440341Y-74144774D01*
X124437040Y-74139056D01*
X124404519Y-74102937D01*
X124313675Y-74002045D01*
X124313674Y-74002044D01*
X124309253Y-73997134D01*
X124154752Y-73884882D01*
X124148724Y-73882198D01*
X124148722Y-73882197D01*
X123986319Y-73809891D01*
X123986318Y-73809891D01*
X123980288Y-73807206D01*
X123860843Y-73781817D01*
X123799944Y-73768872D01*
X123799939Y-73768872D01*
X123793487Y-73767500D01*
X123602513Y-73767500D01*
X123596061Y-73768872D01*
X123596056Y-73768872D01*
X123535157Y-73781817D01*
X123415712Y-73807206D01*
X123409682Y-73809891D01*
X123409681Y-73809891D01*
X123247278Y-73882197D01*
X123247276Y-73882198D01*
X123241248Y-73884882D01*
X123086747Y-73997134D01*
X123082326Y-74002044D01*
X123082325Y-74002045D01*
X122991482Y-74102937D01*
X122958960Y-74139056D01*
X122955659Y-74144774D01*
X122889900Y-74258672D01*
X122863473Y-74304444D01*
X122804458Y-74486072D01*
X122803768Y-74492633D01*
X122803768Y-74492635D01*
X122793899Y-74586535D01*
X122784496Y-74676000D01*
X108180010Y-74676000D01*
X108084964Y-74589515D01*
X108080217Y-74586537D01*
X108080214Y-74586535D01*
X107899405Y-74473115D01*
X107894656Y-74470136D01*
X107686217Y-74386344D01*
X107466233Y-74340787D01*
X107461622Y-74340521D01*
X107461621Y-74340521D01*
X107411048Y-74337605D01*
X107411044Y-74337605D01*
X107409225Y-74337500D01*
X106744001Y-74337500D01*
X106741214Y-74337749D01*
X106741208Y-74337749D01*
X106671071Y-74344009D01*
X106577238Y-74352383D01*
X106571824Y-74353864D01*
X106571819Y-74353865D01*
X106457262Y-74385205D01*
X106360549Y-74411663D01*
X106355491Y-74414075D01*
X106355487Y-74414077D01*
X106259166Y-74460020D01*
X106157782Y-74508378D01*
X105975346Y-74639471D01*
X105819008Y-74800799D01*
X105693710Y-74987262D01*
X105603412Y-75192967D01*
X105602103Y-75198418D01*
X105602102Y-75198422D01*
X105576087Y-75306784D01*
X105550968Y-75411411D01*
X105550645Y-75417016D01*
X105541068Y-75583128D01*
X105538037Y-75635690D01*
X101508500Y-75635690D01*
X101508500Y-72635690D01*
X105538037Y-72635690D01*
X105565025Y-72858715D01*
X105631082Y-73073435D01*
X105633652Y-73078415D01*
X105633654Y-73078419D01*
X105698852Y-73204738D01*
X105734118Y-73273064D01*
X105870877Y-73451292D01*
X106037036Y-73602485D01*
X106041783Y-73605463D01*
X106041786Y-73605465D01*
X106170229Y-73686036D01*
X106227344Y-73721864D01*
X106435783Y-73805656D01*
X106655767Y-73851213D01*
X106660378Y-73851479D01*
X106660379Y-73851479D01*
X106710952Y-73854395D01*
X106710956Y-73854395D01*
X106712775Y-73854500D01*
X107377999Y-73854500D01*
X107380786Y-73854251D01*
X107380792Y-73854251D01*
X107450929Y-73847991D01*
X107544762Y-73839617D01*
X107550176Y-73838136D01*
X107550181Y-73838135D01*
X107677912Y-73803191D01*
X107761451Y-73780337D01*
X107766509Y-73777925D01*
X107766513Y-73777923D01*
X107884042Y-73721864D01*
X107964218Y-73683622D01*
X108146654Y-73552529D01*
X108302992Y-73391201D01*
X108428290Y-73204738D01*
X108518588Y-72999033D01*
X108530263Y-72950406D01*
X108569722Y-72786046D01*
X108569722Y-72786045D01*
X108571032Y-72780589D01*
X108583963Y-72556310D01*
X108556975Y-72333285D01*
X108539536Y-72276600D01*
X111984406Y-72276600D01*
X112004742Y-72509044D01*
X112065133Y-72734426D01*
X112067455Y-72739406D01*
X112067456Y-72739408D01*
X112161418Y-72940910D01*
X112161421Y-72940915D01*
X112163744Y-72945897D01*
X112166900Y-72950404D01*
X112166901Y-72950406D01*
X112256537Y-73078419D01*
X112297578Y-73137032D01*
X112462568Y-73302022D01*
X112467076Y-73305179D01*
X112467079Y-73305181D01*
X112649194Y-73432699D01*
X112653703Y-73435856D01*
X112658685Y-73438179D01*
X112658690Y-73438182D01*
X112859180Y-73531672D01*
X112865174Y-73534467D01*
X112870482Y-73535889D01*
X112870484Y-73535890D01*
X113085241Y-73593434D01*
X113085243Y-73593434D01*
X113090556Y-73594858D01*
X113323000Y-73615194D01*
X113555444Y-73594858D01*
X113560757Y-73593434D01*
X113560759Y-73593434D01*
X113775516Y-73535890D01*
X113775518Y-73535889D01*
X113780826Y-73534467D01*
X113786820Y-73531672D01*
X113987310Y-73438182D01*
X113987315Y-73438179D01*
X113992297Y-73435856D01*
X113996806Y-73432699D01*
X114071193Y-73380613D01*
X124083542Y-73380613D01*
X124092838Y-73392628D01*
X124149446Y-73432265D01*
X124158941Y-73437748D01*
X124360364Y-73531672D01*
X124370656Y-73535418D01*
X124585328Y-73592939D01*
X124596123Y-73594842D01*
X124817525Y-73614213D01*
X124828475Y-73614213D01*
X125049877Y-73594842D01*
X125060672Y-73592939D01*
X125275344Y-73535418D01*
X125285636Y-73531672D01*
X125487059Y-73437748D01*
X125496554Y-73432265D01*
X125554000Y-73392041D01*
X125562375Y-73381564D01*
X125555307Y-73368117D01*
X124835812Y-72648622D01*
X124821868Y-72641008D01*
X124820035Y-72641139D01*
X124813420Y-72645390D01*
X124089972Y-73368838D01*
X124083542Y-73380613D01*
X114071193Y-73380613D01*
X114178921Y-73305181D01*
X114178924Y-73305179D01*
X114183432Y-73302022D01*
X114348422Y-73137032D01*
X114389464Y-73078419D01*
X114479099Y-72950406D01*
X114479100Y-72950404D01*
X114482256Y-72945897D01*
X114484579Y-72940915D01*
X114484582Y-72940910D01*
X114578544Y-72739408D01*
X114578545Y-72739406D01*
X114580867Y-72734426D01*
X114641258Y-72509044D01*
X114661115Y-72282075D01*
X123485387Y-72282075D01*
X123504758Y-72503477D01*
X123506661Y-72514272D01*
X123564182Y-72728944D01*
X123567928Y-72739236D01*
X123661852Y-72940659D01*
X123667335Y-72950154D01*
X123707559Y-73007600D01*
X123718036Y-73015975D01*
X123731483Y-73008907D01*
X124450978Y-72289412D01*
X124457356Y-72277732D01*
X125187408Y-72277732D01*
X125187539Y-72279565D01*
X125191790Y-72286180D01*
X125915238Y-73009628D01*
X125927013Y-73016058D01*
X125939028Y-73006762D01*
X125978665Y-72950154D01*
X125984148Y-72940659D01*
X126078072Y-72739236D01*
X126081818Y-72728944D01*
X126139339Y-72514272D01*
X126141242Y-72503477D01*
X126160613Y-72282075D01*
X126160613Y-72276600D01*
X130484406Y-72276600D01*
X130504742Y-72509044D01*
X130565133Y-72734426D01*
X130567455Y-72739406D01*
X130567456Y-72739408D01*
X130661418Y-72940910D01*
X130661421Y-72940915D01*
X130663744Y-72945897D01*
X130666900Y-72950404D01*
X130666901Y-72950406D01*
X130756537Y-73078419D01*
X130797578Y-73137032D01*
X130962568Y-73302022D01*
X130967076Y-73305179D01*
X130967079Y-73305181D01*
X131149194Y-73432699D01*
X131153703Y-73435856D01*
X131158685Y-73438179D01*
X131158690Y-73438182D01*
X131359180Y-73531672D01*
X131365174Y-73534467D01*
X131370482Y-73535889D01*
X131370484Y-73535890D01*
X131585241Y-73593434D01*
X131585243Y-73593434D01*
X131590556Y-73594858D01*
X131823000Y-73615194D01*
X132055444Y-73594858D01*
X132060757Y-73593434D01*
X132060759Y-73593434D01*
X132229963Y-73548096D01*
X138402000Y-73548096D01*
X138402337Y-73554611D01*
X138412256Y-73650203D01*
X138415150Y-73663602D01*
X138466588Y-73817783D01*
X138472762Y-73830962D01*
X138558063Y-73968807D01*
X138567099Y-73980208D01*
X138681830Y-74094739D01*
X138693241Y-74103751D01*
X138831245Y-74188818D01*
X138844423Y-74194962D01*
X138998716Y-74246139D01*
X139012081Y-74249005D01*
X139106439Y-74258672D01*
X139112855Y-74259000D01*
X139647885Y-74259000D01*
X139663124Y-74254525D01*
X139664329Y-74253135D01*
X139666000Y-74245452D01*
X139666000Y-74240885D01*
X140174000Y-74240885D01*
X140178475Y-74256124D01*
X140179865Y-74257329D01*
X140187548Y-74259000D01*
X140727096Y-74259000D01*
X140733611Y-74258663D01*
X140829203Y-74248744D01*
X140842602Y-74245850D01*
X140996783Y-74194412D01*
X141009962Y-74188238D01*
X141147807Y-74102937D01*
X141159208Y-74093901D01*
X141273739Y-73979170D01*
X141282751Y-73967759D01*
X141367818Y-73829755D01*
X141373962Y-73816577D01*
X141425139Y-73662284D01*
X141428005Y-73648919D01*
X141437672Y-73554561D01*
X141438000Y-73548145D01*
X141438000Y-73273115D01*
X141433525Y-73257876D01*
X141432135Y-73256671D01*
X141424452Y-73255000D01*
X140192115Y-73255000D01*
X140176876Y-73259475D01*
X140175671Y-73260865D01*
X140174000Y-73268548D01*
X140174000Y-74240885D01*
X139666000Y-74240885D01*
X139666000Y-73273115D01*
X139661525Y-73257876D01*
X139660135Y-73256671D01*
X139652452Y-73255000D01*
X138420115Y-73255000D01*
X138404876Y-73259475D01*
X138403671Y-73260865D01*
X138402000Y-73268548D01*
X138402000Y-73548096D01*
X132229963Y-73548096D01*
X132275516Y-73535890D01*
X132275518Y-73535889D01*
X132280826Y-73534467D01*
X132286820Y-73531672D01*
X132487310Y-73438182D01*
X132487315Y-73438179D01*
X132492297Y-73435856D01*
X132496806Y-73432699D01*
X132678921Y-73305181D01*
X132678924Y-73305179D01*
X132683432Y-73302022D01*
X132848422Y-73137032D01*
X132889464Y-73078419D01*
X132979099Y-72950406D01*
X132979100Y-72950404D01*
X132982256Y-72945897D01*
X132984579Y-72940915D01*
X132984582Y-72940910D01*
X133078544Y-72739408D01*
X133078545Y-72739406D01*
X133080867Y-72734426D01*
X133082352Y-72728885D01*
X138402000Y-72728885D01*
X138406475Y-72744124D01*
X138407865Y-72745329D01*
X138415548Y-72747000D01*
X139647885Y-72747000D01*
X139663124Y-72742525D01*
X139664329Y-72741135D01*
X139666000Y-72733452D01*
X139666000Y-72728885D01*
X140174000Y-72728885D01*
X140178475Y-72744124D01*
X140179865Y-72745329D01*
X140187548Y-72747000D01*
X141419885Y-72747000D01*
X141435124Y-72742525D01*
X141436329Y-72741135D01*
X141438000Y-72733452D01*
X141438000Y-72453904D01*
X141437663Y-72447389D01*
X141427744Y-72351797D01*
X141424850Y-72338398D01*
X141373412Y-72184217D01*
X141367238Y-72171038D01*
X141281937Y-72033193D01*
X141272901Y-72021792D01*
X141158170Y-71907261D01*
X141146759Y-71898249D01*
X141008755Y-71813182D01*
X140995577Y-71807038D01*
X140841284Y-71755861D01*
X140827919Y-71752995D01*
X140733561Y-71743328D01*
X140727144Y-71743000D01*
X140192115Y-71743000D01*
X140176876Y-71747475D01*
X140175671Y-71748865D01*
X140174000Y-71756548D01*
X140174000Y-72728885D01*
X139666000Y-72728885D01*
X139666000Y-71761115D01*
X139661525Y-71745876D01*
X139660135Y-71744671D01*
X139652452Y-71743000D01*
X139112904Y-71743000D01*
X139106389Y-71743337D01*
X139010797Y-71753256D01*
X138997398Y-71756150D01*
X138843217Y-71807588D01*
X138830038Y-71813762D01*
X138692193Y-71899063D01*
X138680792Y-71908099D01*
X138566261Y-72022830D01*
X138557249Y-72034241D01*
X138472182Y-72172245D01*
X138466038Y-72185423D01*
X138414861Y-72339716D01*
X138411995Y-72353081D01*
X138402328Y-72447439D01*
X138402000Y-72453856D01*
X138402000Y-72728885D01*
X133082352Y-72728885D01*
X133141258Y-72509044D01*
X133161594Y-72276600D01*
X133141258Y-72044156D01*
X133138601Y-72034241D01*
X133082290Y-71824084D01*
X133082289Y-71824082D01*
X133080867Y-71818774D01*
X133078530Y-71813762D01*
X132984582Y-71612290D01*
X132984579Y-71612285D01*
X132982256Y-71607303D01*
X132886211Y-71470136D01*
X132851581Y-71420679D01*
X132851579Y-71420676D01*
X132848422Y-71416168D01*
X132683432Y-71251178D01*
X132678924Y-71248021D01*
X132678921Y-71248019D01*
X132496806Y-71120501D01*
X132496804Y-71120500D01*
X132492297Y-71117344D01*
X132487315Y-71115021D01*
X132487310Y-71115018D01*
X132285808Y-71021056D01*
X132285806Y-71021055D01*
X132280826Y-71018733D01*
X132275518Y-71017311D01*
X132275516Y-71017310D01*
X132060759Y-70959766D01*
X132060757Y-70959766D01*
X132055444Y-70958342D01*
X131823000Y-70938006D01*
X131590556Y-70958342D01*
X131585243Y-70959766D01*
X131585241Y-70959766D01*
X131370484Y-71017310D01*
X131370482Y-71017311D01*
X131365174Y-71018733D01*
X131360194Y-71021055D01*
X131360192Y-71021056D01*
X131158690Y-71115018D01*
X131158685Y-71115021D01*
X131153703Y-71117344D01*
X131149196Y-71120500D01*
X131149194Y-71120501D01*
X130967079Y-71248019D01*
X130967076Y-71248021D01*
X130962568Y-71251178D01*
X130797578Y-71416168D01*
X130794421Y-71420676D01*
X130794419Y-71420679D01*
X130759789Y-71470136D01*
X130663744Y-71607303D01*
X130661421Y-71612285D01*
X130661418Y-71612290D01*
X130567470Y-71813762D01*
X130565133Y-71818774D01*
X130563711Y-71824082D01*
X130563710Y-71824084D01*
X130507399Y-72034241D01*
X130504742Y-72044156D01*
X130484406Y-72276600D01*
X126160613Y-72276600D01*
X126160613Y-72271125D01*
X126141242Y-72049723D01*
X126139338Y-72038925D01*
X126081818Y-71824256D01*
X126078072Y-71813964D01*
X125984148Y-71612541D01*
X125978665Y-71603046D01*
X125938441Y-71545600D01*
X125927964Y-71537225D01*
X125914517Y-71544293D01*
X125195022Y-72263788D01*
X125187408Y-72277732D01*
X124457356Y-72277732D01*
X124458592Y-72275468D01*
X124458461Y-72273635D01*
X124454210Y-72267020D01*
X123730762Y-71543572D01*
X123718987Y-71537142D01*
X123706972Y-71546438D01*
X123667335Y-71603046D01*
X123661852Y-71612541D01*
X123567928Y-71813964D01*
X123564182Y-71824256D01*
X123506662Y-72038925D01*
X123504758Y-72049723D01*
X123485387Y-72271125D01*
X123485387Y-72282075D01*
X114661115Y-72282075D01*
X114661594Y-72276600D01*
X114641258Y-72044156D01*
X114638601Y-72034241D01*
X114582290Y-71824084D01*
X114582289Y-71824082D01*
X114580867Y-71818774D01*
X114578530Y-71813762D01*
X114484582Y-71612290D01*
X114484579Y-71612285D01*
X114482256Y-71607303D01*
X114386211Y-71470136D01*
X114351581Y-71420679D01*
X114351579Y-71420676D01*
X114348422Y-71416168D01*
X114183432Y-71251178D01*
X114178924Y-71248021D01*
X114178921Y-71248019D01*
X114069835Y-71171636D01*
X124083625Y-71171636D01*
X124090693Y-71185083D01*
X124810188Y-71904578D01*
X124824132Y-71912192D01*
X124825965Y-71912061D01*
X124832580Y-71907810D01*
X125556028Y-71184362D01*
X125562458Y-71172587D01*
X125553162Y-71160572D01*
X125496554Y-71120935D01*
X125487059Y-71115452D01*
X125285636Y-71021528D01*
X125275344Y-71017782D01*
X125060672Y-70960261D01*
X125049877Y-70958358D01*
X124828475Y-70938987D01*
X124817525Y-70938987D01*
X124596123Y-70958358D01*
X124585328Y-70960261D01*
X124370656Y-71017782D01*
X124360364Y-71021528D01*
X124158941Y-71115452D01*
X124149446Y-71120935D01*
X124092000Y-71161159D01*
X124083625Y-71171636D01*
X114069835Y-71171636D01*
X113996806Y-71120501D01*
X113996804Y-71120500D01*
X113992297Y-71117344D01*
X113987315Y-71115021D01*
X113987310Y-71115018D01*
X113785808Y-71021056D01*
X113785806Y-71021055D01*
X113780826Y-71018733D01*
X113775518Y-71017311D01*
X113775516Y-71017310D01*
X113560759Y-70959766D01*
X113560757Y-70959766D01*
X113555444Y-70958342D01*
X113323000Y-70938006D01*
X113090556Y-70958342D01*
X113085243Y-70959766D01*
X113085241Y-70959766D01*
X112870484Y-71017310D01*
X112870482Y-71017311D01*
X112865174Y-71018733D01*
X112860194Y-71021055D01*
X112860192Y-71021056D01*
X112658690Y-71115018D01*
X112658685Y-71115021D01*
X112653703Y-71117344D01*
X112649196Y-71120500D01*
X112649194Y-71120501D01*
X112467079Y-71248019D01*
X112467076Y-71248021D01*
X112462568Y-71251178D01*
X112297578Y-71416168D01*
X112294421Y-71420676D01*
X112294419Y-71420679D01*
X112259789Y-71470136D01*
X112163744Y-71607303D01*
X112161421Y-71612285D01*
X112161418Y-71612290D01*
X112067470Y-71813762D01*
X112065133Y-71818774D01*
X112063711Y-71824082D01*
X112063710Y-71824084D01*
X112007399Y-72034241D01*
X112004742Y-72044156D01*
X111984406Y-72276600D01*
X108539536Y-72276600D01*
X108490918Y-72118565D01*
X108449770Y-72038841D01*
X108390454Y-71923919D01*
X108390454Y-71923918D01*
X108387882Y-71918936D01*
X108379567Y-71908099D01*
X108372008Y-71898249D01*
X108251123Y-71740708D01*
X108084964Y-71589515D01*
X108080217Y-71586537D01*
X108080214Y-71586535D01*
X107899405Y-71473115D01*
X107894656Y-71470136D01*
X107686217Y-71386344D01*
X107466233Y-71340787D01*
X107461622Y-71340521D01*
X107461621Y-71340521D01*
X107411048Y-71337605D01*
X107411044Y-71337605D01*
X107409225Y-71337500D01*
X106744001Y-71337500D01*
X106741214Y-71337749D01*
X106741208Y-71337749D01*
X106671071Y-71344009D01*
X106577238Y-71352383D01*
X106571824Y-71353864D01*
X106571819Y-71353865D01*
X106457262Y-71385205D01*
X106360549Y-71411663D01*
X106355491Y-71414075D01*
X106355487Y-71414077D01*
X106259165Y-71460021D01*
X106157782Y-71508378D01*
X105975346Y-71639471D01*
X105971439Y-71643503D01*
X105857465Y-71761115D01*
X105819008Y-71800799D01*
X105693710Y-71987262D01*
X105603412Y-72192967D01*
X105602103Y-72198418D01*
X105602102Y-72198422D01*
X105565280Y-72351797D01*
X105550968Y-72411411D01*
X105538037Y-72635690D01*
X101508500Y-72635690D01*
X101508500Y-70146400D01*
X105542500Y-70146400D01*
X105542837Y-70149646D01*
X105542837Y-70149650D01*
X105545985Y-70179984D01*
X105553474Y-70252165D01*
X105609450Y-70419945D01*
X105702522Y-70570348D01*
X105827697Y-70695305D01*
X105833927Y-70699145D01*
X105833928Y-70699146D01*
X105971090Y-70783694D01*
X105978262Y-70788115D01*
X106002641Y-70796201D01*
X106139611Y-70841632D01*
X106139613Y-70841632D01*
X106146139Y-70843797D01*
X106152975Y-70844497D01*
X106152978Y-70844498D01*
X106196031Y-70848909D01*
X106250600Y-70854500D01*
X107871400Y-70854500D01*
X107874646Y-70854163D01*
X107874650Y-70854163D01*
X107970307Y-70844238D01*
X107970311Y-70844237D01*
X107977165Y-70843526D01*
X107983701Y-70841345D01*
X107983703Y-70841345D01*
X108119015Y-70796201D01*
X108144945Y-70787550D01*
X108295348Y-70694478D01*
X108420305Y-70569303D01*
X108513115Y-70418738D01*
X108568797Y-70250861D01*
X108579500Y-70146400D01*
X108579500Y-70040690D01*
X138397037Y-70040690D01*
X138424025Y-70263715D01*
X138490082Y-70478435D01*
X138492652Y-70483415D01*
X138492654Y-70483419D01*
X138557852Y-70609738D01*
X138593118Y-70678064D01*
X138729877Y-70856292D01*
X138896036Y-71007485D01*
X138900783Y-71010463D01*
X138900786Y-71010465D01*
X139071168Y-71117344D01*
X139086344Y-71126864D01*
X139294783Y-71210656D01*
X139514767Y-71256213D01*
X139519378Y-71256479D01*
X139519379Y-71256479D01*
X139569952Y-71259395D01*
X139569956Y-71259395D01*
X139571775Y-71259500D01*
X140236999Y-71259500D01*
X140239786Y-71259251D01*
X140239792Y-71259251D01*
X140330246Y-71251178D01*
X140403762Y-71244617D01*
X140409176Y-71243136D01*
X140409181Y-71243135D01*
X140536912Y-71208191D01*
X140620451Y-71185337D01*
X140625509Y-71182925D01*
X140625513Y-71182923D01*
X140743042Y-71126864D01*
X140823218Y-71088622D01*
X141005654Y-70957529D01*
X141117966Y-70841632D01*
X141158089Y-70800229D01*
X141158091Y-70800226D01*
X141161992Y-70796201D01*
X141287290Y-70609738D01*
X141377588Y-70404033D01*
X141414049Y-70252165D01*
X141428722Y-70191046D01*
X141428722Y-70191045D01*
X141430032Y-70185589D01*
X141442963Y-69961310D01*
X141415975Y-69738285D01*
X141349918Y-69523565D01*
X141284798Y-69397396D01*
X141249454Y-69328919D01*
X141249454Y-69328918D01*
X141246882Y-69323936D01*
X141110123Y-69145708D01*
X140943964Y-68994515D01*
X140939217Y-68991537D01*
X140939214Y-68991535D01*
X140758405Y-68878115D01*
X140753656Y-68875136D01*
X140545217Y-68791344D01*
X140325233Y-68745787D01*
X140320622Y-68745521D01*
X140320621Y-68745521D01*
X140270048Y-68742605D01*
X140270044Y-68742605D01*
X140268225Y-68742500D01*
X139603001Y-68742500D01*
X139600214Y-68742749D01*
X139600208Y-68742749D01*
X139530071Y-68749009D01*
X139436238Y-68757383D01*
X139430824Y-68758864D01*
X139430819Y-68758865D01*
X139316262Y-68790205D01*
X139219549Y-68816663D01*
X139214491Y-68819075D01*
X139214487Y-68819077D01*
X139180228Y-68835418D01*
X139016782Y-68913378D01*
X138834346Y-69044471D01*
X138678008Y-69205799D01*
X138552710Y-69392262D01*
X138462412Y-69597967D01*
X138409968Y-69816411D01*
X138397037Y-70040690D01*
X108579500Y-70040690D01*
X108579500Y-69045600D01*
X108574200Y-68994515D01*
X108569238Y-68946693D01*
X108569237Y-68946689D01*
X108568526Y-68939835D01*
X108512550Y-68772055D01*
X108455964Y-68680613D01*
X112583542Y-68680613D01*
X112592838Y-68692628D01*
X112649446Y-68732265D01*
X112658941Y-68737748D01*
X112860364Y-68831672D01*
X112870656Y-68835418D01*
X113085328Y-68892939D01*
X113096123Y-68894842D01*
X113317525Y-68914213D01*
X113328475Y-68914213D01*
X113549877Y-68894842D01*
X113560672Y-68892939D01*
X113775344Y-68835418D01*
X113785636Y-68831672D01*
X113987059Y-68737748D01*
X113996554Y-68732265D01*
X114054000Y-68692041D01*
X114062375Y-68681564D01*
X114055307Y-68668117D01*
X113335812Y-67948622D01*
X113321868Y-67941008D01*
X113320035Y-67941139D01*
X113313420Y-67945390D01*
X112589972Y-68668838D01*
X112583542Y-68680613D01*
X108455964Y-68680613D01*
X108419478Y-68621652D01*
X108294303Y-68496695D01*
X108288072Y-68492854D01*
X108149968Y-68407725D01*
X108149966Y-68407724D01*
X108143738Y-68403885D01*
X107983254Y-68350655D01*
X107982389Y-68350368D01*
X107982387Y-68350368D01*
X107975861Y-68348203D01*
X107969025Y-68347503D01*
X107969022Y-68347502D01*
X107925969Y-68343091D01*
X107871400Y-68337500D01*
X106250600Y-68337500D01*
X106247354Y-68337837D01*
X106247350Y-68337837D01*
X106151693Y-68347762D01*
X106151689Y-68347763D01*
X106144835Y-68348474D01*
X106138299Y-68350655D01*
X106138297Y-68350655D01*
X106006195Y-68394728D01*
X105977055Y-68404450D01*
X105826652Y-68497522D01*
X105701695Y-68622697D01*
X105697855Y-68628927D01*
X105697854Y-68628928D01*
X105618981Y-68756884D01*
X105608885Y-68773262D01*
X105606581Y-68780209D01*
X105561326Y-68916650D01*
X105553203Y-68941139D01*
X105542500Y-69045600D01*
X105542500Y-70146400D01*
X101508500Y-70146400D01*
X101508500Y-66686102D01*
X107876141Y-66686102D01*
X107911732Y-66893228D01*
X107984472Y-67090399D01*
X107987424Y-67095360D01*
X107987424Y-67095361D01*
X108056932Y-67212192D01*
X108091926Y-67271012D01*
X108230494Y-67429019D01*
X108395537Y-67559128D01*
X108400653Y-67561819D01*
X108400655Y-67561821D01*
X108430897Y-67577732D01*
X108581527Y-67656982D01*
X108782234Y-67719304D01*
X108787969Y-67719983D01*
X108787970Y-67719983D01*
X108818532Y-67723600D01*
X108952874Y-67739500D01*
X109074316Y-67739500D01*
X109230279Y-67725169D01*
X109235841Y-67723600D01*
X109235843Y-67723600D01*
X109389174Y-67680356D01*
X109432549Y-67668123D01*
X109607037Y-67582075D01*
X111985387Y-67582075D01*
X112004758Y-67803477D01*
X112006661Y-67814272D01*
X112064182Y-68028944D01*
X112067928Y-68039236D01*
X112161852Y-68240659D01*
X112167335Y-68250154D01*
X112207559Y-68307600D01*
X112218036Y-68315975D01*
X112231483Y-68308907D01*
X112950978Y-67589412D01*
X112957356Y-67577732D01*
X113687408Y-67577732D01*
X113687539Y-67579565D01*
X113691790Y-67586180D01*
X114415238Y-68309628D01*
X114427013Y-68316058D01*
X114439028Y-68306762D01*
X114478665Y-68250154D01*
X114484148Y-68240659D01*
X114578072Y-68039236D01*
X114581818Y-68028944D01*
X114639339Y-67814272D01*
X114641242Y-67803477D01*
X114660613Y-67582075D01*
X114660613Y-67571125D01*
X114641242Y-67349723D01*
X114639339Y-67338928D01*
X114581818Y-67124256D01*
X114578072Y-67113964D01*
X114567411Y-67091102D01*
X136815141Y-67091102D01*
X136850732Y-67298228D01*
X136923472Y-67495399D01*
X136926424Y-67500360D01*
X136926424Y-67500361D01*
X137026233Y-67668123D01*
X137030926Y-67676012D01*
X137169494Y-67834019D01*
X137174024Y-67837590D01*
X137314868Y-67948622D01*
X137334537Y-67964128D01*
X137339653Y-67966819D01*
X137339655Y-67966821D01*
X137457732Y-68028944D01*
X137520527Y-68061982D01*
X137721234Y-68124304D01*
X137726969Y-68124983D01*
X137726970Y-68124983D01*
X137757532Y-68128600D01*
X137891874Y-68144500D01*
X138013316Y-68144500D01*
X138169279Y-68130169D01*
X138174841Y-68128600D01*
X138174843Y-68128600D01*
X138270414Y-68101646D01*
X138371549Y-68073123D01*
X138560037Y-67980171D01*
X138728429Y-67854427D01*
X138835070Y-67739063D01*
X138867167Y-67704341D01*
X138867169Y-67704338D01*
X138871086Y-67700101D01*
X138983231Y-67522362D01*
X139061108Y-67327163D01*
X139062233Y-67321506D01*
X139062235Y-67321500D01*
X139100981Y-67126707D01*
X139100981Y-67126705D01*
X139102108Y-67121040D01*
X139102227Y-67111998D01*
X139104641Y-66927526D01*
X139104859Y-66910898D01*
X139069268Y-66703772D01*
X138996528Y-66506601D01*
X138980487Y-66479638D01*
X138892028Y-66330953D01*
X138892027Y-66330952D01*
X138889074Y-66325988D01*
X138750506Y-66167981D01*
X138585463Y-66037872D01*
X138580347Y-66035181D01*
X138580345Y-66035179D01*
X138404590Y-65942710D01*
X138404588Y-65942709D01*
X138399473Y-65940018D01*
X138198766Y-65877696D01*
X138193031Y-65877017D01*
X138193030Y-65877017D01*
X138144742Y-65871302D01*
X138028126Y-65857500D01*
X137906684Y-65857500D01*
X137750721Y-65871831D01*
X137745159Y-65873400D01*
X137745157Y-65873400D01*
X137649586Y-65900354D01*
X137548451Y-65928877D01*
X137359963Y-66021829D01*
X137191571Y-66147573D01*
X137187657Y-66151807D01*
X137187655Y-66151809D01*
X137056818Y-66293349D01*
X137048914Y-66301899D01*
X136936769Y-66479638D01*
X136858892Y-66674837D01*
X136857767Y-66680494D01*
X136857765Y-66680500D01*
X136850696Y-66716040D01*
X136817892Y-66880960D01*
X136817816Y-66886735D01*
X136817816Y-66886739D01*
X136817282Y-66927526D01*
X136815141Y-67091102D01*
X114567411Y-67091102D01*
X114484148Y-66912541D01*
X114478665Y-66903046D01*
X114438441Y-66845600D01*
X114427964Y-66837225D01*
X114414517Y-66844293D01*
X113695022Y-67563788D01*
X113687408Y-67577732D01*
X112957356Y-67577732D01*
X112958592Y-67575468D01*
X112958461Y-67573635D01*
X112954210Y-67567020D01*
X112230762Y-66843572D01*
X112218987Y-66837142D01*
X112206972Y-66846438D01*
X112167335Y-66903046D01*
X112161852Y-66912541D01*
X112067928Y-67113964D01*
X112064182Y-67124256D01*
X112006661Y-67338928D01*
X112004758Y-67349723D01*
X111985387Y-67571125D01*
X111985387Y-67582075D01*
X109607037Y-67582075D01*
X109621037Y-67575171D01*
X109789429Y-67449427D01*
X109897491Y-67332526D01*
X109928167Y-67299341D01*
X109928169Y-67299338D01*
X109932086Y-67295101D01*
X110044231Y-67117362D01*
X110122108Y-66922163D01*
X110123233Y-66916506D01*
X110123235Y-66916500D01*
X110161981Y-66721707D01*
X110161981Y-66721705D01*
X110163108Y-66716040D01*
X110163426Y-66691800D01*
X110165783Y-66511680D01*
X110165859Y-66505898D01*
X110162159Y-66484362D01*
X110159972Y-66471636D01*
X112583625Y-66471636D01*
X112590693Y-66485083D01*
X113310188Y-67204578D01*
X113324132Y-67212192D01*
X113325965Y-67212061D01*
X113332580Y-67207810D01*
X114056028Y-66484362D01*
X114062458Y-66472587D01*
X114053162Y-66460572D01*
X113996554Y-66420935D01*
X113987059Y-66415452D01*
X113785636Y-66321528D01*
X113775344Y-66317782D01*
X113560672Y-66260261D01*
X113549877Y-66258358D01*
X113328475Y-66238987D01*
X113317525Y-66238987D01*
X113096123Y-66258358D01*
X113085328Y-66260261D01*
X112870656Y-66317782D01*
X112860364Y-66321528D01*
X112658941Y-66415452D01*
X112649446Y-66420935D01*
X112592000Y-66461159D01*
X112583625Y-66471636D01*
X110159972Y-66471636D01*
X110131247Y-66304469D01*
X110131247Y-66304468D01*
X110130268Y-66298772D01*
X110057528Y-66101601D01*
X110012124Y-66025284D01*
X109953028Y-65925953D01*
X109953027Y-65925952D01*
X109950074Y-65920988D01*
X109811506Y-65762981D01*
X109646463Y-65632872D01*
X109641347Y-65630181D01*
X109641345Y-65630179D01*
X109465590Y-65537710D01*
X109465588Y-65537709D01*
X109460473Y-65535018D01*
X109259766Y-65472696D01*
X109254031Y-65472017D01*
X109254030Y-65472017D01*
X109205742Y-65466302D01*
X109089126Y-65452500D01*
X108967684Y-65452500D01*
X108811721Y-65466831D01*
X108806159Y-65468400D01*
X108806157Y-65468400D01*
X108710586Y-65495354D01*
X108609451Y-65523877D01*
X108420963Y-65616829D01*
X108252571Y-65742573D01*
X108248657Y-65746807D01*
X108248655Y-65746809D01*
X108126081Y-65879410D01*
X108109914Y-65896899D01*
X107997769Y-66074638D01*
X107919892Y-66269837D01*
X107918767Y-66275494D01*
X107918765Y-66275500D01*
X107889837Y-66420935D01*
X107878892Y-66475960D01*
X107878816Y-66481735D01*
X107878816Y-66481739D01*
X107878556Y-66501639D01*
X107876141Y-66686102D01*
X101508500Y-66686102D01*
X101508500Y-64569080D01*
X104755941Y-64569080D01*
X104761222Y-64576134D01*
X104930544Y-64675078D01*
X104939831Y-64679528D01*
X105142829Y-64757045D01*
X105152731Y-64759922D01*
X105365647Y-64803240D01*
X105375899Y-64804463D01*
X105593038Y-64812425D01*
X105603324Y-64811958D01*
X105818861Y-64784347D01*
X105828939Y-64782205D01*
X106037068Y-64719763D01*
X106046666Y-64716002D01*
X106241806Y-64620404D01*
X106250645Y-64615135D01*
X106303295Y-64577580D01*
X106311695Y-64566881D01*
X106304706Y-64553725D01*
X105548003Y-63797022D01*
X105534059Y-63789408D01*
X105532226Y-63789539D01*
X105525611Y-63793790D01*
X104762701Y-64556700D01*
X104755941Y-64569080D01*
X101508500Y-64569080D01*
X101508500Y-63396219D01*
X104146859Y-63396219D01*
X104159367Y-63613150D01*
X104160803Y-63623370D01*
X104208573Y-63835339D01*
X104211652Y-63845167D01*
X104293406Y-64046502D01*
X104298049Y-64055693D01*
X104382525Y-64193546D01*
X104392981Y-64203006D01*
X104401759Y-64199222D01*
X105163169Y-63437812D01*
X105169547Y-63426132D01*
X105899599Y-63426132D01*
X105899730Y-63427965D01*
X105903981Y-63434580D01*
X106664511Y-64195110D01*
X106676521Y-64201669D01*
X106688262Y-64192700D01*
X106703436Y-64171582D01*
X106759430Y-64127934D01*
X106830133Y-64121487D01*
X106893098Y-64154289D01*
X106913191Y-64179271D01*
X106921939Y-64193546D01*
X106951181Y-64241264D01*
X106953883Y-64245674D01*
X107102977Y-64417793D01*
X107278180Y-64563249D01*
X107282632Y-64565851D01*
X107282637Y-64565854D01*
X107376731Y-64620838D01*
X107474788Y-64678138D01*
X107687520Y-64759372D01*
X107692586Y-64760403D01*
X107692587Y-64760403D01*
X107744821Y-64771030D01*
X107910663Y-64804771D01*
X108038479Y-64809458D01*
X108133061Y-64812927D01*
X108133066Y-64812927D01*
X108138225Y-64813116D01*
X108143345Y-64812460D01*
X108143347Y-64812460D01*
X108215535Y-64803212D01*
X108364094Y-64784181D01*
X108369043Y-64782696D01*
X108369049Y-64782695D01*
X108495395Y-64744789D01*
X108582204Y-64718745D01*
X108786698Y-64618564D01*
X108790902Y-64615566D01*
X108790906Y-64615563D01*
X108877599Y-64553725D01*
X108972084Y-64486330D01*
X109133384Y-64325592D01*
X109243719Y-64172044D01*
X109299714Y-64128396D01*
X109370417Y-64121950D01*
X109433382Y-64154753D01*
X109453474Y-64179735D01*
X109491180Y-64241264D01*
X109491183Y-64241269D01*
X109493883Y-64245674D01*
X109642977Y-64417793D01*
X109818180Y-64563249D01*
X109822632Y-64565851D01*
X109822637Y-64565854D01*
X109916731Y-64620838D01*
X110014788Y-64678138D01*
X110227520Y-64759372D01*
X110232586Y-64760403D01*
X110232587Y-64760403D01*
X110284821Y-64771030D01*
X110450663Y-64804771D01*
X110578479Y-64809458D01*
X110673061Y-64812927D01*
X110673066Y-64812927D01*
X110678225Y-64813116D01*
X110683345Y-64812460D01*
X110683347Y-64812460D01*
X110755535Y-64803212D01*
X110904094Y-64784181D01*
X110909043Y-64782696D01*
X110909049Y-64782695D01*
X111035395Y-64744789D01*
X111122204Y-64718745D01*
X111326698Y-64618564D01*
X111330902Y-64615566D01*
X111330906Y-64615563D01*
X111417599Y-64553725D01*
X111512084Y-64486330D01*
X111673384Y-64325592D01*
X111783719Y-64172044D01*
X111839714Y-64128396D01*
X111910417Y-64121950D01*
X111973382Y-64154753D01*
X111993474Y-64179735D01*
X112031180Y-64241264D01*
X112031183Y-64241269D01*
X112033883Y-64245674D01*
X112182977Y-64417793D01*
X112358180Y-64563249D01*
X112362632Y-64565851D01*
X112362637Y-64565854D01*
X112456731Y-64620838D01*
X112554788Y-64678138D01*
X112767520Y-64759372D01*
X112772586Y-64760403D01*
X112772587Y-64760403D01*
X112824821Y-64771030D01*
X112990663Y-64804771D01*
X113118479Y-64809458D01*
X113213061Y-64812927D01*
X113213066Y-64812927D01*
X113218225Y-64813116D01*
X113223345Y-64812460D01*
X113223347Y-64812460D01*
X113295535Y-64803212D01*
X113444094Y-64784181D01*
X113449043Y-64782696D01*
X113449049Y-64782695D01*
X113575395Y-64744789D01*
X113662204Y-64718745D01*
X113866698Y-64618564D01*
X113870902Y-64615566D01*
X113870906Y-64615563D01*
X113957599Y-64553725D01*
X114052084Y-64486330D01*
X114213384Y-64325592D01*
X114323719Y-64172044D01*
X114379714Y-64128396D01*
X114450417Y-64121950D01*
X114513382Y-64154753D01*
X114533474Y-64179735D01*
X114571180Y-64241264D01*
X114571183Y-64241269D01*
X114573883Y-64245674D01*
X114722977Y-64417793D01*
X114898180Y-64563249D01*
X114902632Y-64565851D01*
X114902637Y-64565854D01*
X114996731Y-64620838D01*
X115094788Y-64678138D01*
X115307520Y-64759372D01*
X115312586Y-64760403D01*
X115312587Y-64760403D01*
X115364821Y-64771030D01*
X115530663Y-64804771D01*
X115658479Y-64809458D01*
X115753061Y-64812927D01*
X115753066Y-64812927D01*
X115758225Y-64813116D01*
X115763345Y-64812460D01*
X115763347Y-64812460D01*
X115835535Y-64803212D01*
X115984094Y-64784181D01*
X115989043Y-64782696D01*
X115989049Y-64782695D01*
X116115395Y-64744789D01*
X116202204Y-64718745D01*
X116406698Y-64618564D01*
X116410902Y-64615566D01*
X116410906Y-64615563D01*
X116497599Y-64553725D01*
X116592084Y-64486330D01*
X116753384Y-64325592D01*
X116863719Y-64172044D01*
X116919714Y-64128396D01*
X116990417Y-64121950D01*
X117053382Y-64154753D01*
X117073474Y-64179735D01*
X117111180Y-64241264D01*
X117111183Y-64241269D01*
X117113883Y-64245674D01*
X117262977Y-64417793D01*
X117438180Y-64563249D01*
X117442632Y-64565851D01*
X117442637Y-64565854D01*
X117536731Y-64620838D01*
X117634788Y-64678138D01*
X117847520Y-64759372D01*
X117852586Y-64760403D01*
X117852587Y-64760403D01*
X117904821Y-64771030D01*
X118070663Y-64804771D01*
X118198479Y-64809458D01*
X118293061Y-64812927D01*
X118293066Y-64812927D01*
X118298225Y-64813116D01*
X118303345Y-64812460D01*
X118303347Y-64812460D01*
X118375535Y-64803212D01*
X118524094Y-64784181D01*
X118529043Y-64782696D01*
X118529049Y-64782695D01*
X118655395Y-64744789D01*
X118742204Y-64718745D01*
X118946698Y-64618564D01*
X118950902Y-64615566D01*
X118950906Y-64615563D01*
X119037599Y-64553725D01*
X119132084Y-64486330D01*
X119293384Y-64325592D01*
X119403719Y-64172044D01*
X119459714Y-64128396D01*
X119530417Y-64121950D01*
X119593382Y-64154753D01*
X119613474Y-64179735D01*
X119651180Y-64241264D01*
X119651183Y-64241269D01*
X119653883Y-64245674D01*
X119802977Y-64417793D01*
X119978180Y-64563249D01*
X119982632Y-64565851D01*
X119982637Y-64565854D01*
X120076731Y-64620838D01*
X120174788Y-64678138D01*
X120387520Y-64759372D01*
X120392586Y-64760403D01*
X120392587Y-64760403D01*
X120444821Y-64771030D01*
X120610663Y-64804771D01*
X120738479Y-64809458D01*
X120833061Y-64812927D01*
X120833066Y-64812927D01*
X120838225Y-64813116D01*
X120843345Y-64812460D01*
X120843347Y-64812460D01*
X120915535Y-64803212D01*
X121064094Y-64784181D01*
X121069043Y-64782696D01*
X121069049Y-64782695D01*
X121195395Y-64744789D01*
X121282204Y-64718745D01*
X121486698Y-64618564D01*
X121490902Y-64615566D01*
X121490906Y-64615563D01*
X121577599Y-64553725D01*
X121672084Y-64486330D01*
X121833384Y-64325592D01*
X121943719Y-64172044D01*
X121999714Y-64128396D01*
X122070417Y-64121950D01*
X122133382Y-64154753D01*
X122153474Y-64179735D01*
X122191180Y-64241264D01*
X122191183Y-64241269D01*
X122193883Y-64245674D01*
X122342977Y-64417793D01*
X122518180Y-64563249D01*
X122522632Y-64565851D01*
X122522637Y-64565854D01*
X122616731Y-64620838D01*
X122714788Y-64678138D01*
X122927520Y-64759372D01*
X122932586Y-64760403D01*
X122932587Y-64760403D01*
X122984821Y-64771030D01*
X123150663Y-64804771D01*
X123278479Y-64809458D01*
X123373061Y-64812927D01*
X123373066Y-64812927D01*
X123378225Y-64813116D01*
X123383345Y-64812460D01*
X123383347Y-64812460D01*
X123455535Y-64803212D01*
X123604094Y-64784181D01*
X123609043Y-64782696D01*
X123609049Y-64782695D01*
X123735395Y-64744789D01*
X123822204Y-64718745D01*
X124026698Y-64618564D01*
X124030902Y-64615566D01*
X124030906Y-64615563D01*
X124117599Y-64553725D01*
X124212084Y-64486330D01*
X124373384Y-64325592D01*
X124483719Y-64172044D01*
X124539714Y-64128396D01*
X124610417Y-64121950D01*
X124673382Y-64154753D01*
X124693474Y-64179735D01*
X124731180Y-64241264D01*
X124731183Y-64241269D01*
X124733883Y-64245674D01*
X124882977Y-64417793D01*
X125058180Y-64563249D01*
X125062632Y-64565851D01*
X125062637Y-64565854D01*
X125156731Y-64620838D01*
X125254788Y-64678138D01*
X125467520Y-64759372D01*
X125472586Y-64760403D01*
X125472587Y-64760403D01*
X125524821Y-64771030D01*
X125690663Y-64804771D01*
X125818479Y-64809458D01*
X125913061Y-64812927D01*
X125913066Y-64812927D01*
X125918225Y-64813116D01*
X125923345Y-64812460D01*
X125923347Y-64812460D01*
X125995535Y-64803212D01*
X126144094Y-64784181D01*
X126149043Y-64782696D01*
X126149049Y-64782695D01*
X126275395Y-64744789D01*
X126362204Y-64718745D01*
X126566698Y-64618564D01*
X126570902Y-64615566D01*
X126570906Y-64615563D01*
X126657599Y-64553725D01*
X126752084Y-64486330D01*
X126913384Y-64325592D01*
X127046264Y-64140669D01*
X127055745Y-64121487D01*
X127144864Y-63941168D01*
X127144865Y-63941166D01*
X127147158Y-63936526D01*
X127213355Y-63718646D01*
X127214030Y-63713520D01*
X127242641Y-63496201D01*
X127242642Y-63496194D01*
X127243078Y-63492879D01*
X127244737Y-63425000D01*
X127237370Y-63335393D01*
X127226502Y-63203202D01*
X127226501Y-63203196D01*
X127226078Y-63198051D01*
X127191518Y-63060461D01*
X127171863Y-62982208D01*
X127171862Y-62982204D01*
X127170604Y-62977197D01*
X127154722Y-62940671D01*
X127081863Y-62773106D01*
X127081861Y-62773103D01*
X127079803Y-62768369D01*
X126956114Y-62577175D01*
X126802859Y-62408750D01*
X126624154Y-62267618D01*
X126424798Y-62157567D01*
X126243216Y-62093265D01*
X126215020Y-62083280D01*
X126215016Y-62083279D01*
X126210145Y-62081554D01*
X126205052Y-62080647D01*
X126205049Y-62080646D01*
X125991048Y-62042527D01*
X125991042Y-62042526D01*
X125985959Y-62041621D01*
X125898889Y-62040557D01*
X125763430Y-62038902D01*
X125763428Y-62038902D01*
X125758261Y-62038839D01*
X125533167Y-62073283D01*
X125316720Y-62144029D01*
X125312128Y-62146419D01*
X125312129Y-62146419D01*
X125205298Y-62202032D01*
X125114735Y-62249176D01*
X125110602Y-62252279D01*
X125110599Y-62252281D01*
X124936770Y-62382795D01*
X124932635Y-62385900D01*
X124775311Y-62550530D01*
X124772402Y-62554795D01*
X124772400Y-62554798D01*
X124688975Y-62677094D01*
X124634064Y-62722096D01*
X124563539Y-62730267D01*
X124499792Y-62699013D01*
X124479095Y-62674529D01*
X124418922Y-62581515D01*
X124418920Y-62581512D01*
X124416114Y-62577175D01*
X124262859Y-62408750D01*
X124084154Y-62267618D01*
X123884798Y-62157567D01*
X123703216Y-62093265D01*
X123675020Y-62083280D01*
X123675016Y-62083279D01*
X123670145Y-62081554D01*
X123665052Y-62080647D01*
X123665049Y-62080646D01*
X123451048Y-62042527D01*
X123451042Y-62042526D01*
X123445959Y-62041621D01*
X123358889Y-62040557D01*
X123223430Y-62038902D01*
X123223428Y-62038902D01*
X123218261Y-62038839D01*
X122993167Y-62073283D01*
X122776720Y-62144029D01*
X122772128Y-62146419D01*
X122772129Y-62146419D01*
X122665298Y-62202032D01*
X122574735Y-62249176D01*
X122570602Y-62252279D01*
X122570599Y-62252281D01*
X122396770Y-62382795D01*
X122392635Y-62385900D01*
X122235311Y-62550530D01*
X122232402Y-62554795D01*
X122232400Y-62554798D01*
X122148975Y-62677094D01*
X122094064Y-62722096D01*
X122023539Y-62730267D01*
X121959792Y-62699013D01*
X121939095Y-62674529D01*
X121878922Y-62581515D01*
X121878920Y-62581512D01*
X121876114Y-62577175D01*
X121722859Y-62408750D01*
X121544154Y-62267618D01*
X121344798Y-62157567D01*
X121163216Y-62093265D01*
X121135020Y-62083280D01*
X121135016Y-62083279D01*
X121130145Y-62081554D01*
X121125052Y-62080647D01*
X121125049Y-62080646D01*
X120911048Y-62042527D01*
X120911042Y-62042526D01*
X120905959Y-62041621D01*
X120818889Y-62040557D01*
X120683430Y-62038902D01*
X120683428Y-62038902D01*
X120678261Y-62038839D01*
X120453167Y-62073283D01*
X120236720Y-62144029D01*
X120232128Y-62146419D01*
X120232129Y-62146419D01*
X120125298Y-62202032D01*
X120034735Y-62249176D01*
X120030602Y-62252279D01*
X120030599Y-62252281D01*
X119856770Y-62382795D01*
X119852635Y-62385900D01*
X119695311Y-62550530D01*
X119692402Y-62554795D01*
X119692400Y-62554798D01*
X119608975Y-62677094D01*
X119554064Y-62722096D01*
X119483539Y-62730267D01*
X119419792Y-62699013D01*
X119399095Y-62674529D01*
X119338922Y-62581515D01*
X119338920Y-62581512D01*
X119336114Y-62577175D01*
X119182859Y-62408750D01*
X119004154Y-62267618D01*
X118804798Y-62157567D01*
X118623216Y-62093265D01*
X118595020Y-62083280D01*
X118595016Y-62083279D01*
X118590145Y-62081554D01*
X118585052Y-62080647D01*
X118585049Y-62080646D01*
X118371048Y-62042527D01*
X118371042Y-62042526D01*
X118365959Y-62041621D01*
X118278889Y-62040557D01*
X118143430Y-62038902D01*
X118143428Y-62038902D01*
X118138261Y-62038839D01*
X117913167Y-62073283D01*
X117696720Y-62144029D01*
X117692128Y-62146419D01*
X117692129Y-62146419D01*
X117585298Y-62202032D01*
X117494735Y-62249176D01*
X117490602Y-62252279D01*
X117490599Y-62252281D01*
X117316770Y-62382795D01*
X117312635Y-62385900D01*
X117155311Y-62550530D01*
X117152402Y-62554795D01*
X117152400Y-62554798D01*
X117068975Y-62677094D01*
X117014064Y-62722096D01*
X116943539Y-62730267D01*
X116879792Y-62699013D01*
X116859095Y-62674529D01*
X116798922Y-62581515D01*
X116798920Y-62581512D01*
X116796114Y-62577175D01*
X116642859Y-62408750D01*
X116464154Y-62267618D01*
X116264798Y-62157567D01*
X116083216Y-62093265D01*
X116055020Y-62083280D01*
X116055016Y-62083279D01*
X116050145Y-62081554D01*
X116045052Y-62080647D01*
X116045049Y-62080646D01*
X115831048Y-62042527D01*
X115831042Y-62042526D01*
X115825959Y-62041621D01*
X115738889Y-62040557D01*
X115603430Y-62038902D01*
X115603428Y-62038902D01*
X115598261Y-62038839D01*
X115373167Y-62073283D01*
X115156720Y-62144029D01*
X115152128Y-62146419D01*
X115152129Y-62146419D01*
X115045298Y-62202032D01*
X114954735Y-62249176D01*
X114950602Y-62252279D01*
X114950599Y-62252281D01*
X114776770Y-62382795D01*
X114772635Y-62385900D01*
X114615311Y-62550530D01*
X114612402Y-62554795D01*
X114612400Y-62554798D01*
X114528975Y-62677094D01*
X114474064Y-62722096D01*
X114403539Y-62730267D01*
X114339792Y-62699013D01*
X114319095Y-62674529D01*
X114258922Y-62581515D01*
X114258920Y-62581512D01*
X114256114Y-62577175D01*
X114102859Y-62408750D01*
X113924154Y-62267618D01*
X113724798Y-62157567D01*
X113543216Y-62093265D01*
X113515020Y-62083280D01*
X113515016Y-62083279D01*
X113510145Y-62081554D01*
X113505052Y-62080647D01*
X113505049Y-62080646D01*
X113291048Y-62042527D01*
X113291042Y-62042526D01*
X113285959Y-62041621D01*
X113198889Y-62040557D01*
X113063430Y-62038902D01*
X113063428Y-62038902D01*
X113058261Y-62038839D01*
X112833167Y-62073283D01*
X112616720Y-62144029D01*
X112612128Y-62146419D01*
X112612129Y-62146419D01*
X112505298Y-62202032D01*
X112414735Y-62249176D01*
X112410602Y-62252279D01*
X112410599Y-62252281D01*
X112236770Y-62382795D01*
X112232635Y-62385900D01*
X112075311Y-62550530D01*
X112072402Y-62554795D01*
X112072400Y-62554798D01*
X111988975Y-62677094D01*
X111934064Y-62722096D01*
X111863539Y-62730267D01*
X111799792Y-62699013D01*
X111779095Y-62674529D01*
X111718922Y-62581515D01*
X111718920Y-62581512D01*
X111716114Y-62577175D01*
X111562859Y-62408750D01*
X111384154Y-62267618D01*
X111184798Y-62157567D01*
X111003216Y-62093265D01*
X110975020Y-62083280D01*
X110975016Y-62083279D01*
X110970145Y-62081554D01*
X110965052Y-62080647D01*
X110965049Y-62080646D01*
X110751048Y-62042527D01*
X110751042Y-62042526D01*
X110745959Y-62041621D01*
X110658889Y-62040557D01*
X110523430Y-62038902D01*
X110523428Y-62038902D01*
X110518261Y-62038839D01*
X110293167Y-62073283D01*
X110076720Y-62144029D01*
X110072128Y-62146419D01*
X110072129Y-62146419D01*
X109965298Y-62202032D01*
X109874735Y-62249176D01*
X109870602Y-62252279D01*
X109870599Y-62252281D01*
X109696770Y-62382795D01*
X109692635Y-62385900D01*
X109535311Y-62550530D01*
X109532402Y-62554795D01*
X109532400Y-62554798D01*
X109448975Y-62677094D01*
X109394064Y-62722096D01*
X109323539Y-62730267D01*
X109259792Y-62699013D01*
X109239095Y-62674529D01*
X109178922Y-62581515D01*
X109178920Y-62581512D01*
X109176114Y-62577175D01*
X109022859Y-62408750D01*
X108844154Y-62267618D01*
X108644798Y-62157567D01*
X108463216Y-62093265D01*
X108435020Y-62083280D01*
X108435016Y-62083279D01*
X108430145Y-62081554D01*
X108425052Y-62080647D01*
X108425049Y-62080646D01*
X108211048Y-62042527D01*
X108211042Y-62042526D01*
X108205959Y-62041621D01*
X108118889Y-62040557D01*
X107983430Y-62038902D01*
X107983428Y-62038902D01*
X107978261Y-62038839D01*
X107753167Y-62073283D01*
X107536720Y-62144029D01*
X107532128Y-62146419D01*
X107532129Y-62146419D01*
X107425298Y-62202032D01*
X107334735Y-62249176D01*
X107330602Y-62252279D01*
X107330599Y-62252281D01*
X107156770Y-62382795D01*
X107152635Y-62385900D01*
X106995311Y-62550530D01*
X106908668Y-62677545D01*
X106853759Y-62722545D01*
X106783235Y-62730716D01*
X106719487Y-62699462D01*
X106698790Y-62674978D01*
X106687274Y-62657178D01*
X106676589Y-62647975D01*
X106667022Y-62652379D01*
X105907213Y-63412188D01*
X105899599Y-63426132D01*
X105169547Y-63426132D01*
X105170783Y-63423868D01*
X105170652Y-63422035D01*
X105166401Y-63415420D01*
X104406113Y-62655132D01*
X104394577Y-62648832D01*
X104382295Y-62658455D01*
X104330334Y-62734627D01*
X104325249Y-62743578D01*
X104233762Y-62940671D01*
X104230199Y-62950358D01*
X104172133Y-63159736D01*
X104170202Y-63169856D01*
X104147111Y-63385930D01*
X104146859Y-63396219D01*
X101508500Y-63396219D01*
X101508500Y-62282640D01*
X104757627Y-62282640D01*
X104764371Y-62294970D01*
X105522379Y-63052978D01*
X105536323Y-63060592D01*
X105538156Y-63060461D01*
X105544771Y-63056210D01*
X106307306Y-62293675D01*
X106314327Y-62280819D01*
X106306798Y-62270486D01*
X106299347Y-62265536D01*
X106109123Y-62160526D01*
X106099714Y-62156298D01*
X105894888Y-62083765D01*
X105884925Y-62081133D01*
X105671001Y-62043027D01*
X105660748Y-62042058D01*
X105443465Y-62039403D01*
X105433182Y-62040123D01*
X105218396Y-62072990D01*
X105208368Y-62075379D01*
X105001829Y-62142886D01*
X104992332Y-62146878D01*
X104799591Y-62247211D01*
X104790863Y-62252708D01*
X104766080Y-62271315D01*
X104757627Y-62282640D01*
X101508500Y-62282640D01*
X101508500Y-60452000D01*
X135103496Y-60452000D01*
X135104186Y-60458565D01*
X135116446Y-60575209D01*
X135123458Y-60641928D01*
X135182473Y-60823556D01*
X135277960Y-60988944D01*
X135405747Y-61130866D01*
X135560248Y-61243118D01*
X135566276Y-61245802D01*
X135566278Y-61245803D01*
X135609106Y-61264871D01*
X135734712Y-61320794D01*
X135828113Y-61340647D01*
X135915056Y-61359128D01*
X135915061Y-61359128D01*
X135921513Y-61360500D01*
X136112487Y-61360500D01*
X136118939Y-61359128D01*
X136118944Y-61359128D01*
X136205887Y-61340647D01*
X136299288Y-61320794D01*
X136424894Y-61264871D01*
X136467722Y-61245803D01*
X136467724Y-61245802D01*
X136473752Y-61243118D01*
X136628253Y-61130866D01*
X136756040Y-60988944D01*
X136805790Y-60902774D01*
X139483102Y-60902774D01*
X139491751Y-61133158D01*
X139539093Y-61358791D01*
X139623776Y-61573221D01*
X139743377Y-61770317D01*
X139746874Y-61774347D01*
X139833438Y-61874103D01*
X139894477Y-61944445D01*
X139898608Y-61947832D01*
X140068627Y-62087240D01*
X140068633Y-62087244D01*
X140072755Y-62090624D01*
X140077391Y-62093263D01*
X140077394Y-62093265D01*
X140163751Y-62142422D01*
X140273114Y-62204675D01*
X140489825Y-62283337D01*
X140495074Y-62284286D01*
X140495077Y-62284287D01*
X140712608Y-62323623D01*
X140712615Y-62323624D01*
X140716692Y-62324361D01*
X140734414Y-62325197D01*
X140739356Y-62325430D01*
X140739363Y-62325430D01*
X140740844Y-62325500D01*
X141152890Y-62325500D01*
X141219809Y-62319822D01*
X141319409Y-62311371D01*
X141319413Y-62311370D01*
X141324720Y-62310920D01*
X141329875Y-62309582D01*
X141329881Y-62309581D01*
X141542703Y-62254343D01*
X141542707Y-62254342D01*
X141547872Y-62253001D01*
X141552738Y-62250809D01*
X141552741Y-62250808D01*
X141753202Y-62160507D01*
X141758075Y-62158312D01*
X141949319Y-62029559D01*
X142116135Y-61870424D01*
X142253754Y-61685458D01*
X142358240Y-61479949D01*
X142394321Y-61363752D01*
X142425024Y-61264871D01*
X142426607Y-61259773D01*
X142429329Y-61239237D01*
X142456198Y-61036511D01*
X142456198Y-61036506D01*
X142456898Y-61031226D01*
X142448249Y-60800842D01*
X142400907Y-60575209D01*
X142351181Y-60449296D01*
X142318185Y-60365744D01*
X142318184Y-60365742D01*
X142316224Y-60360779D01*
X142252518Y-60255794D01*
X142199390Y-60168243D01*
X142196623Y-60163683D01*
X142109755Y-60063576D01*
X142049023Y-59993588D01*
X142049021Y-59993586D01*
X142045523Y-59989555D01*
X141954665Y-59915056D01*
X141871373Y-59846760D01*
X141871367Y-59846756D01*
X141867245Y-59843376D01*
X141835750Y-59825448D01*
X141786445Y-59774368D01*
X141772583Y-59704738D01*
X141798566Y-59638667D01*
X141827716Y-59611427D01*
X141871672Y-59581834D01*
X141949319Y-59529559D01*
X142116135Y-59370424D01*
X142253754Y-59185458D01*
X142300277Y-59093955D01*
X142355822Y-58984704D01*
X142358240Y-58979949D01*
X142363860Y-58961852D01*
X142425024Y-58764871D01*
X142426607Y-58759773D01*
X142427308Y-58754484D01*
X142456198Y-58536511D01*
X142456198Y-58536506D01*
X142456898Y-58531226D01*
X142448249Y-58300842D01*
X142400907Y-58075209D01*
X142325022Y-57883056D01*
X142318185Y-57865744D01*
X142318184Y-57865742D01*
X142316224Y-57860779D01*
X142196623Y-57663683D01*
X142166424Y-57628882D01*
X142049023Y-57493588D01*
X142049021Y-57493586D01*
X142045523Y-57489555D01*
X141984607Y-57439607D01*
X141871373Y-57346760D01*
X141871367Y-57346756D01*
X141867245Y-57343376D01*
X141835750Y-57325448D01*
X141786445Y-57274368D01*
X141772583Y-57204738D01*
X141798566Y-57138667D01*
X141827716Y-57111427D01*
X141863642Y-57087240D01*
X141949319Y-57029559D01*
X142116135Y-56870424D01*
X142253754Y-56685458D01*
X142271910Y-56649749D01*
X142346040Y-56503944D01*
X142358240Y-56479949D01*
X142363453Y-56463163D01*
X142425024Y-56264871D01*
X142426607Y-56259773D01*
X142441108Y-56150365D01*
X142456198Y-56036511D01*
X142456198Y-56036506D01*
X142456898Y-56031226D01*
X142453292Y-55935159D01*
X142448449Y-55806173D01*
X142448249Y-55800842D01*
X142400907Y-55575209D01*
X142341645Y-55425148D01*
X142318185Y-55365744D01*
X142318184Y-55365742D01*
X142316224Y-55360779D01*
X142243710Y-55241279D01*
X142206381Y-55179763D01*
X142196623Y-55163683D01*
X142138615Y-55096834D01*
X142049023Y-54993588D01*
X142049021Y-54993586D01*
X142045523Y-54989555D01*
X142009471Y-54959994D01*
X141969476Y-54901334D01*
X141967545Y-54830364D01*
X142004290Y-54769616D01*
X142023059Y-54755416D01*
X142162807Y-54668937D01*
X142174208Y-54659901D01*
X142288739Y-54545171D01*
X142297751Y-54533760D01*
X142382816Y-54395757D01*
X142388963Y-54382576D01*
X142440138Y-54228290D01*
X142443005Y-54214914D01*
X142452672Y-54120562D01*
X142453000Y-54114146D01*
X142453000Y-53739115D01*
X142448525Y-53723876D01*
X142447135Y-53722671D01*
X142439452Y-53721000D01*
X139505116Y-53721000D01*
X139489877Y-53725475D01*
X139488672Y-53726865D01*
X139487001Y-53734548D01*
X139487001Y-54114095D01*
X139487338Y-54120614D01*
X139497257Y-54216206D01*
X139500149Y-54229600D01*
X139551588Y-54383784D01*
X139557761Y-54396962D01*
X139643063Y-54534807D01*
X139652099Y-54546208D01*
X139766829Y-54660739D01*
X139778243Y-54669753D01*
X139917713Y-54755723D01*
X139965207Y-54808495D01*
X139976631Y-54878566D01*
X139948357Y-54943690D01*
X139938574Y-54954149D01*
X139823865Y-55063576D01*
X139686246Y-55248542D01*
X139683830Y-55253293D01*
X139683828Y-55253297D01*
X139639256Y-55340964D01*
X139581760Y-55454051D01*
X139580178Y-55459145D01*
X139580177Y-55459148D01*
X139539633Y-55589721D01*
X139513393Y-55674227D01*
X139512692Y-55679516D01*
X139497304Y-55795623D01*
X139483102Y-55902774D01*
X139491751Y-56133158D01*
X139539093Y-56358791D01*
X139541051Y-56363750D01*
X139541052Y-56363752D01*
X139585069Y-56475208D01*
X139623776Y-56573221D01*
X139743377Y-56770317D01*
X139746874Y-56774347D01*
X139884958Y-56933475D01*
X139894477Y-56944445D01*
X139936030Y-56978516D01*
X140068627Y-57087240D01*
X140068633Y-57087244D01*
X140072755Y-57090624D01*
X140104250Y-57108552D01*
X140153555Y-57159632D01*
X140167417Y-57229262D01*
X140141434Y-57295333D01*
X140112284Y-57322573D01*
X139990681Y-57404441D01*
X139986824Y-57408120D01*
X139986822Y-57408122D01*
X139917464Y-57474287D01*
X139823865Y-57563576D01*
X139820682Y-57567854D01*
X139777274Y-57626197D01*
X139686246Y-57748542D01*
X139581760Y-57954051D01*
X139580178Y-57959145D01*
X139580177Y-57959148D01*
X139518115Y-58159020D01*
X139513393Y-58174227D01*
X139512692Y-58179516D01*
X139497304Y-58295623D01*
X139483102Y-58402774D01*
X139491751Y-58633158D01*
X139539093Y-58858791D01*
X139541051Y-58863750D01*
X139541052Y-58863752D01*
X139575598Y-58951226D01*
X139623776Y-59073221D01*
X139626543Y-59077780D01*
X139626544Y-59077783D01*
X139639338Y-59098866D01*
X139743377Y-59270317D01*
X139746874Y-59274347D01*
X139833438Y-59374103D01*
X139894477Y-59444445D01*
X139898608Y-59447832D01*
X140068627Y-59587240D01*
X140068633Y-59587244D01*
X140072755Y-59590624D01*
X140104250Y-59608552D01*
X140153555Y-59659632D01*
X140167417Y-59729262D01*
X140141434Y-59795333D01*
X140112284Y-59822573D01*
X139990681Y-59904441D01*
X139986824Y-59908120D01*
X139986822Y-59908122D01*
X139917464Y-59974287D01*
X139823865Y-60063576D01*
X139686246Y-60248542D01*
X139683830Y-60253293D01*
X139683828Y-60253297D01*
X139679367Y-60262072D01*
X139581760Y-60454051D01*
X139580178Y-60459145D01*
X139580177Y-60459148D01*
X139525460Y-60635365D01*
X139513393Y-60674227D01*
X139512692Y-60679516D01*
X139497304Y-60795623D01*
X139483102Y-60902774D01*
X136805790Y-60902774D01*
X136851527Y-60823556D01*
X136910542Y-60641928D01*
X136917555Y-60575209D01*
X136929814Y-60458565D01*
X136930504Y-60452000D01*
X136921438Y-60365744D01*
X136911232Y-60268635D01*
X136911232Y-60268633D01*
X136910542Y-60262072D01*
X136851527Y-60080444D01*
X136756040Y-59915056D01*
X136675359Y-59825450D01*
X136632675Y-59778045D01*
X136632674Y-59778044D01*
X136628253Y-59773134D01*
X136473752Y-59660882D01*
X136467724Y-59658198D01*
X136467722Y-59658197D01*
X136305319Y-59585891D01*
X136305318Y-59585891D01*
X136299288Y-59583206D01*
X136205888Y-59563353D01*
X136118944Y-59544872D01*
X136118939Y-59544872D01*
X136112487Y-59543500D01*
X135921513Y-59543500D01*
X135915061Y-59544872D01*
X135915056Y-59544872D01*
X135828112Y-59563353D01*
X135734712Y-59583206D01*
X135728682Y-59585891D01*
X135728681Y-59585891D01*
X135566278Y-59658197D01*
X135566276Y-59658198D01*
X135560248Y-59660882D01*
X135405747Y-59773134D01*
X135401326Y-59778044D01*
X135401325Y-59778045D01*
X135358642Y-59825450D01*
X135277960Y-59915056D01*
X135182473Y-60080444D01*
X135123458Y-60262072D01*
X135122768Y-60268633D01*
X135122768Y-60268635D01*
X135112562Y-60365744D01*
X135103496Y-60452000D01*
X101508500Y-60452000D01*
X101508500Y-58420000D01*
X133452496Y-58420000D01*
X133472458Y-58609928D01*
X133531473Y-58791556D01*
X133626960Y-58956944D01*
X133754747Y-59098866D01*
X133853843Y-59170864D01*
X133867386Y-59180703D01*
X133909248Y-59211118D01*
X133915276Y-59213802D01*
X133915278Y-59213803D01*
X134051263Y-59274347D01*
X134083712Y-59288794D01*
X134177113Y-59308647D01*
X134264056Y-59327128D01*
X134264061Y-59327128D01*
X134270513Y-59328500D01*
X134461487Y-59328500D01*
X134467939Y-59327128D01*
X134467944Y-59327128D01*
X134554887Y-59308647D01*
X134648288Y-59288794D01*
X134680737Y-59274347D01*
X134816722Y-59213803D01*
X134816724Y-59213802D01*
X134822752Y-59211118D01*
X134864615Y-59180703D01*
X134878157Y-59170864D01*
X134977253Y-59098866D01*
X135105040Y-58956944D01*
X135200527Y-58791556D01*
X135259542Y-58609928D01*
X135279504Y-58420000D01*
X135277694Y-58402774D01*
X135260232Y-58236635D01*
X135260232Y-58236633D01*
X135259542Y-58230072D01*
X135200527Y-58048444D01*
X135105040Y-57883056D01*
X134977253Y-57741134D01*
X134870651Y-57663683D01*
X134828094Y-57632763D01*
X134828093Y-57632762D01*
X134822752Y-57628882D01*
X134816724Y-57626198D01*
X134816722Y-57626197D01*
X134654319Y-57553891D01*
X134654318Y-57553891D01*
X134648288Y-57551206D01*
X134546222Y-57529511D01*
X134467944Y-57512872D01*
X134467939Y-57512872D01*
X134461487Y-57511500D01*
X134270513Y-57511500D01*
X134264061Y-57512872D01*
X134264056Y-57512872D01*
X134185778Y-57529511D01*
X134083712Y-57551206D01*
X134077682Y-57553891D01*
X134077681Y-57553891D01*
X133915278Y-57626197D01*
X133915276Y-57626198D01*
X133909248Y-57628882D01*
X133903907Y-57632762D01*
X133903906Y-57632763D01*
X133861349Y-57663683D01*
X133754747Y-57741134D01*
X133626960Y-57883056D01*
X133531473Y-58048444D01*
X133472458Y-58230072D01*
X133471768Y-58236633D01*
X133471768Y-58236635D01*
X133454307Y-58402774D01*
X133452496Y-58420000D01*
X101508500Y-58420000D01*
X101508500Y-55632703D01*
X115390743Y-55632703D01*
X115391302Y-55636947D01*
X115391302Y-55636951D01*
X115396210Y-55674227D01*
X115428268Y-55917734D01*
X115504129Y-56195036D01*
X115616923Y-56459476D01*
X115643537Y-56503944D01*
X115752171Y-56685458D01*
X115764561Y-56706161D01*
X115944313Y-56930528D01*
X116152851Y-57128423D01*
X116386317Y-57296186D01*
X116390112Y-57298195D01*
X116390113Y-57298196D01*
X116411869Y-57309715D01*
X116640392Y-57430712D01*
X116664699Y-57439607D01*
X116861156Y-57511500D01*
X116910373Y-57529511D01*
X117191264Y-57590755D01*
X117219841Y-57593004D01*
X117414282Y-57608307D01*
X117414291Y-57608307D01*
X117416739Y-57608500D01*
X117572271Y-57608500D01*
X117574407Y-57608354D01*
X117574418Y-57608354D01*
X117782548Y-57594165D01*
X117782554Y-57594164D01*
X117786825Y-57593873D01*
X117791020Y-57593004D01*
X117791022Y-57593004D01*
X117992857Y-57551206D01*
X118068342Y-57535574D01*
X118339343Y-57439607D01*
X118594812Y-57307750D01*
X118598313Y-57305289D01*
X118598317Y-57305287D01*
X118741473Y-57204675D01*
X118830023Y-57142441D01*
X118908403Y-57069606D01*
X119037479Y-56949661D01*
X119037481Y-56949658D01*
X119040622Y-56946740D01*
X119222713Y-56724268D01*
X119372927Y-56479142D01*
X119488483Y-56215898D01*
X119510566Y-56138377D01*
X119542607Y-56025895D01*
X119559384Y-55967000D01*
X137016996Y-55967000D01*
X137036958Y-56156928D01*
X137095973Y-56338556D01*
X137099276Y-56344278D01*
X137099277Y-56344279D01*
X137107656Y-56358791D01*
X137191460Y-56503944D01*
X137319247Y-56645866D01*
X137473748Y-56758118D01*
X137479776Y-56760802D01*
X137479778Y-56760803D01*
X137510199Y-56774347D01*
X137648212Y-56835794D01*
X137741613Y-56855647D01*
X137828556Y-56874128D01*
X137828561Y-56874128D01*
X137835013Y-56875500D01*
X138025987Y-56875500D01*
X138032439Y-56874128D01*
X138032444Y-56874128D01*
X138119387Y-56855647D01*
X138212788Y-56835794D01*
X138350801Y-56774347D01*
X138381222Y-56760803D01*
X138381224Y-56760802D01*
X138387252Y-56758118D01*
X138541753Y-56645866D01*
X138669540Y-56503944D01*
X138753344Y-56358791D01*
X138761723Y-56344279D01*
X138761724Y-56344278D01*
X138765027Y-56338556D01*
X138824042Y-56156928D01*
X138844004Y-55967000D01*
X138824042Y-55777072D01*
X138765027Y-55595444D01*
X138756358Y-55580428D01*
X138686336Y-55459148D01*
X138669540Y-55430056D01*
X138643328Y-55400944D01*
X138546175Y-55293045D01*
X138546174Y-55293044D01*
X138541753Y-55288134D01*
X138387252Y-55175882D01*
X138381224Y-55173198D01*
X138381222Y-55173197D01*
X138218819Y-55100891D01*
X138218818Y-55100891D01*
X138212788Y-55098206D01*
X138118310Y-55078124D01*
X138032444Y-55059872D01*
X138032439Y-55059872D01*
X138025987Y-55058500D01*
X137835013Y-55058500D01*
X137828561Y-55059872D01*
X137828556Y-55059872D01*
X137742690Y-55078124D01*
X137648212Y-55098206D01*
X137642182Y-55100891D01*
X137642181Y-55100891D01*
X137479778Y-55173197D01*
X137479776Y-55173198D01*
X137473748Y-55175882D01*
X137319247Y-55288134D01*
X137314826Y-55293044D01*
X137314825Y-55293045D01*
X137217673Y-55400944D01*
X137191460Y-55430056D01*
X137174664Y-55459148D01*
X137104643Y-55580428D01*
X137095973Y-55595444D01*
X137036958Y-55777072D01*
X137016996Y-55967000D01*
X119559384Y-55967000D01*
X119567244Y-55939406D01*
X119604984Y-55674227D01*
X119607146Y-55659036D01*
X119607146Y-55659034D01*
X119607751Y-55654784D01*
X119607845Y-55636951D01*
X119609235Y-55371583D01*
X119609235Y-55371576D01*
X119609257Y-55367297D01*
X119607799Y-55356217D01*
X119574184Y-55100891D01*
X119571732Y-55082266D01*
X119512021Y-54864000D01*
X126848496Y-54864000D01*
X126849186Y-54870565D01*
X126863894Y-55010500D01*
X126868458Y-55053928D01*
X126927473Y-55235556D01*
X127022960Y-55400944D01*
X127027378Y-55405851D01*
X127027379Y-55405852D01*
X127054321Y-55435774D01*
X127150747Y-55542866D01*
X127215237Y-55589721D01*
X127274397Y-55632703D01*
X127305248Y-55655118D01*
X127311276Y-55657802D01*
X127311278Y-55657803D01*
X127360047Y-55679516D01*
X127479712Y-55732794D01*
X127573113Y-55752647D01*
X127660056Y-55771128D01*
X127660061Y-55771128D01*
X127666513Y-55772500D01*
X127857487Y-55772500D01*
X127863939Y-55771128D01*
X127863944Y-55771128D01*
X127950887Y-55752647D01*
X128044288Y-55732794D01*
X128163953Y-55679516D01*
X128212722Y-55657803D01*
X128212724Y-55657802D01*
X128218752Y-55655118D01*
X128249604Y-55632703D01*
X128308763Y-55589721D01*
X128373253Y-55542866D01*
X128469679Y-55435774D01*
X128496621Y-55405852D01*
X128496622Y-55405851D01*
X128501040Y-55400944D01*
X128596527Y-55235556D01*
X128655542Y-55053928D01*
X128660107Y-55010500D01*
X128674814Y-54870565D01*
X128675504Y-54864000D01*
X128667540Y-54788230D01*
X128656232Y-54680635D01*
X128656232Y-54680633D01*
X128655542Y-54674072D01*
X128596527Y-54492444D01*
X128501040Y-54327056D01*
X128475064Y-54298206D01*
X128377675Y-54190045D01*
X128377674Y-54190044D01*
X128373253Y-54185134D01*
X128258829Y-54102000D01*
X133325496Y-54102000D01*
X133326186Y-54108565D01*
X133337364Y-54214914D01*
X133345458Y-54291928D01*
X133404473Y-54473556D01*
X133407776Y-54479278D01*
X133407777Y-54479279D01*
X133431783Y-54520858D01*
X133499960Y-54638944D01*
X133504378Y-54643851D01*
X133504379Y-54643852D01*
X133531589Y-54674072D01*
X133627747Y-54780866D01*
X133637883Y-54788230D01*
X133751207Y-54870565D01*
X133782248Y-54893118D01*
X133788276Y-54895802D01*
X133788278Y-54895803D01*
X133950681Y-54968109D01*
X133956712Y-54970794D01*
X134029041Y-54986168D01*
X134137056Y-55009128D01*
X134137061Y-55009128D01*
X134143513Y-55010500D01*
X134334487Y-55010500D01*
X134340939Y-55009128D01*
X134340944Y-55009128D01*
X134448959Y-54986168D01*
X134521288Y-54970794D01*
X134527319Y-54968109D01*
X134689722Y-54895803D01*
X134689724Y-54895802D01*
X134695752Y-54893118D01*
X134726794Y-54870565D01*
X134840117Y-54788230D01*
X134850253Y-54780866D01*
X134946411Y-54674072D01*
X134973621Y-54643852D01*
X134973622Y-54643851D01*
X134978040Y-54638944D01*
X135046217Y-54520858D01*
X135070223Y-54479279D01*
X135070224Y-54479278D01*
X135073527Y-54473556D01*
X135132542Y-54291928D01*
X135140637Y-54214914D01*
X135151814Y-54108565D01*
X135152504Y-54102000D01*
X135149085Y-54069472D01*
X135133232Y-53918635D01*
X135133232Y-53918633D01*
X135132542Y-53912072D01*
X135073527Y-53730444D01*
X135068075Y-53721000D01*
X134981341Y-53570774D01*
X134978040Y-53565056D01*
X134887433Y-53464426D01*
X134854675Y-53428045D01*
X134854674Y-53428044D01*
X134850253Y-53423134D01*
X134695752Y-53310882D01*
X134689724Y-53308198D01*
X134689722Y-53308197D01*
X134527319Y-53235891D01*
X134527318Y-53235891D01*
X134521288Y-53233206D01*
X134426227Y-53213000D01*
X134341005Y-53194885D01*
X139487000Y-53194885D01*
X139491475Y-53210124D01*
X139492865Y-53211329D01*
X139500548Y-53213000D01*
X140697885Y-53213000D01*
X140713124Y-53208525D01*
X140714329Y-53207135D01*
X140716000Y-53199452D01*
X140716000Y-53194885D01*
X141224000Y-53194885D01*
X141228475Y-53210124D01*
X141229865Y-53211329D01*
X141237548Y-53213000D01*
X142434884Y-53213000D01*
X142450123Y-53208525D01*
X142451328Y-53207135D01*
X142452999Y-53199452D01*
X142452999Y-52819905D01*
X142452662Y-52813386D01*
X142442743Y-52717794D01*
X142439851Y-52704400D01*
X142388412Y-52550216D01*
X142382239Y-52537038D01*
X142296937Y-52399193D01*
X142287901Y-52387792D01*
X142173171Y-52273261D01*
X142161760Y-52264249D01*
X142023757Y-52179184D01*
X142010576Y-52173037D01*
X141856290Y-52121862D01*
X141842914Y-52118995D01*
X141748562Y-52109328D01*
X141742145Y-52109000D01*
X141242115Y-52109000D01*
X141226876Y-52113475D01*
X141225671Y-52114865D01*
X141224000Y-52122548D01*
X141224000Y-53194885D01*
X140716000Y-53194885D01*
X140716000Y-52127116D01*
X140711525Y-52111877D01*
X140710135Y-52110672D01*
X140702452Y-52109001D01*
X140197905Y-52109001D01*
X140191386Y-52109338D01*
X140095794Y-52119257D01*
X140082400Y-52122149D01*
X139928216Y-52173588D01*
X139915038Y-52179761D01*
X139777193Y-52265063D01*
X139765792Y-52274099D01*
X139651261Y-52388829D01*
X139642249Y-52400240D01*
X139557184Y-52538243D01*
X139551037Y-52551424D01*
X139499862Y-52705710D01*
X139496995Y-52719086D01*
X139487328Y-52813438D01*
X139487000Y-52819855D01*
X139487000Y-53194885D01*
X134341005Y-53194885D01*
X134340944Y-53194872D01*
X134340939Y-53194872D01*
X134334487Y-53193500D01*
X134143513Y-53193500D01*
X134137061Y-53194872D01*
X134137056Y-53194872D01*
X134051773Y-53213000D01*
X133956712Y-53233206D01*
X133950682Y-53235891D01*
X133950681Y-53235891D01*
X133788278Y-53308197D01*
X133788276Y-53308198D01*
X133782248Y-53310882D01*
X133627747Y-53423134D01*
X133623326Y-53428044D01*
X133623325Y-53428045D01*
X133590568Y-53464426D01*
X133499960Y-53565056D01*
X133496659Y-53570774D01*
X133409926Y-53721000D01*
X133404473Y-53730444D01*
X133345458Y-53912072D01*
X133344768Y-53918633D01*
X133344768Y-53918635D01*
X133328915Y-54069472D01*
X133325496Y-54102000D01*
X128258829Y-54102000D01*
X128224094Y-54076763D01*
X128224093Y-54076762D01*
X128218752Y-54072882D01*
X128212724Y-54070198D01*
X128212722Y-54070197D01*
X128050319Y-53997891D01*
X128050318Y-53997891D01*
X128044288Y-53995206D01*
X127950888Y-53975353D01*
X127863944Y-53956872D01*
X127863939Y-53956872D01*
X127857487Y-53955500D01*
X127666513Y-53955500D01*
X127660061Y-53956872D01*
X127660056Y-53956872D01*
X127573113Y-53975353D01*
X127479712Y-53995206D01*
X127473682Y-53997891D01*
X127473681Y-53997891D01*
X127311278Y-54070197D01*
X127311276Y-54070198D01*
X127305248Y-54072882D01*
X127299907Y-54076762D01*
X127299906Y-54076763D01*
X127265171Y-54102000D01*
X127150747Y-54185134D01*
X127146326Y-54190044D01*
X127146325Y-54190045D01*
X127048937Y-54298206D01*
X127022960Y-54327056D01*
X126927473Y-54492444D01*
X126868458Y-54674072D01*
X126867768Y-54680633D01*
X126867768Y-54680635D01*
X126856460Y-54788230D01*
X126848496Y-54864000D01*
X119512021Y-54864000D01*
X119495871Y-54804964D01*
X119442840Y-54680635D01*
X119384763Y-54544476D01*
X119384761Y-54544472D01*
X119383077Y-54540524D01*
X119235439Y-54293839D01*
X119055687Y-54069472D01*
X118847149Y-53871577D01*
X118613683Y-53703814D01*
X118591843Y-53692250D01*
X118568654Y-53679972D01*
X118359608Y-53569288D01*
X118089627Y-53470489D01*
X117808736Y-53409245D01*
X117777685Y-53406801D01*
X117585718Y-53391693D01*
X117585709Y-53391693D01*
X117583261Y-53391500D01*
X117427729Y-53391500D01*
X117425593Y-53391646D01*
X117425582Y-53391646D01*
X117217452Y-53405835D01*
X117217446Y-53405836D01*
X117213175Y-53406127D01*
X117208980Y-53406996D01*
X117208978Y-53406996D01*
X117107336Y-53428045D01*
X116931658Y-53464426D01*
X116660657Y-53560393D01*
X116405188Y-53692250D01*
X116401687Y-53694711D01*
X116401683Y-53694713D01*
X116355936Y-53726865D01*
X116169977Y-53857559D01*
X115959378Y-54053260D01*
X115777287Y-54275732D01*
X115627073Y-54520858D01*
X115625347Y-54524791D01*
X115625346Y-54524792D01*
X115517876Y-54769616D01*
X115511517Y-54784102D01*
X115510342Y-54788229D01*
X115510341Y-54788230D01*
X115477237Y-54904441D01*
X115432756Y-55060594D01*
X115392249Y-55345216D01*
X115392227Y-55349505D01*
X115392226Y-55349512D01*
X115390968Y-55589721D01*
X115390743Y-55632703D01*
X101508500Y-55632703D01*
X101508500Y-50546000D01*
X131420496Y-50546000D01*
X131440458Y-50735928D01*
X131499473Y-50917556D01*
X131594960Y-51082944D01*
X131722747Y-51224866D01*
X131877248Y-51337118D01*
X131883276Y-51339802D01*
X131883278Y-51339803D01*
X132045681Y-51412109D01*
X132051712Y-51414794D01*
X132145113Y-51434647D01*
X132232056Y-51453128D01*
X132232061Y-51453128D01*
X132238513Y-51454500D01*
X132429487Y-51454500D01*
X132435939Y-51453128D01*
X132435944Y-51453128D01*
X132522888Y-51434647D01*
X132616288Y-51414794D01*
X132622319Y-51412109D01*
X132784722Y-51339803D01*
X132784724Y-51339802D01*
X132790752Y-51337118D01*
X132945253Y-51224866D01*
X133073040Y-51082944D01*
X133168527Y-50917556D01*
X133227542Y-50735928D01*
X133247504Y-50546000D01*
X133227542Y-50356072D01*
X133168527Y-50174444D01*
X133073040Y-50009056D01*
X132945253Y-49867134D01*
X132790752Y-49754882D01*
X132784724Y-49752198D01*
X132784722Y-49752197D01*
X132622319Y-49679891D01*
X132622318Y-49679891D01*
X132616288Y-49677206D01*
X132522888Y-49657353D01*
X132435944Y-49638872D01*
X132435939Y-49638872D01*
X132429487Y-49637500D01*
X132238513Y-49637500D01*
X132232061Y-49638872D01*
X132232056Y-49638872D01*
X132145113Y-49657353D01*
X132051712Y-49677206D01*
X132045682Y-49679891D01*
X132045681Y-49679891D01*
X131883278Y-49752197D01*
X131883276Y-49752198D01*
X131877248Y-49754882D01*
X131722747Y-49867134D01*
X131594960Y-50009056D01*
X131499473Y-50174444D01*
X131440458Y-50356072D01*
X131420496Y-50546000D01*
X101508500Y-50546000D01*
X101508500Y-48151050D01*
X104146060Y-48151050D01*
X104146357Y-48156202D01*
X104146357Y-48156206D01*
X104151174Y-48239740D01*
X104159168Y-48378387D01*
X104209230Y-48600531D01*
X104211174Y-48605317D01*
X104211175Y-48605322D01*
X104292958Y-48806728D01*
X104294902Y-48811515D01*
X104368762Y-48932044D01*
X104411181Y-49001264D01*
X104413883Y-49005674D01*
X104562977Y-49177793D01*
X104738180Y-49323249D01*
X104742632Y-49325851D01*
X104742637Y-49325854D01*
X104836731Y-49380838D01*
X104934788Y-49438138D01*
X105147520Y-49519372D01*
X105152586Y-49520403D01*
X105152587Y-49520403D01*
X105204821Y-49531030D01*
X105370663Y-49564771D01*
X105498479Y-49569458D01*
X105593061Y-49572927D01*
X105593066Y-49572927D01*
X105598225Y-49573116D01*
X105603345Y-49572460D01*
X105603347Y-49572460D01*
X105675535Y-49563212D01*
X105824094Y-49544181D01*
X105829043Y-49542696D01*
X105829049Y-49542695D01*
X105955395Y-49504789D01*
X106042204Y-49478745D01*
X106246698Y-49378564D01*
X106250902Y-49375566D01*
X106250906Y-49375563D01*
X106328874Y-49319949D01*
X106432084Y-49246330D01*
X106593384Y-49085592D01*
X106703719Y-48932044D01*
X106759714Y-48888396D01*
X106830417Y-48881950D01*
X106893382Y-48914753D01*
X106913474Y-48939735D01*
X106951180Y-49001264D01*
X106951183Y-49001269D01*
X106953883Y-49005674D01*
X107102977Y-49177793D01*
X107278180Y-49323249D01*
X107282632Y-49325851D01*
X107282637Y-49325854D01*
X107376731Y-49380838D01*
X107474788Y-49438138D01*
X107687520Y-49519372D01*
X107692586Y-49520403D01*
X107692587Y-49520403D01*
X107744821Y-49531030D01*
X107910663Y-49564771D01*
X108038479Y-49569458D01*
X108133061Y-49572927D01*
X108133066Y-49572927D01*
X108138225Y-49573116D01*
X108143345Y-49572460D01*
X108143347Y-49572460D01*
X108215535Y-49563212D01*
X108364094Y-49544181D01*
X108369043Y-49542696D01*
X108369049Y-49542695D01*
X108495395Y-49504789D01*
X108582204Y-49478745D01*
X108786698Y-49378564D01*
X108790902Y-49375566D01*
X108790906Y-49375563D01*
X108868874Y-49319949D01*
X108972084Y-49246330D01*
X109133384Y-49085592D01*
X109243719Y-48932044D01*
X109299714Y-48888396D01*
X109370417Y-48881950D01*
X109433382Y-48914753D01*
X109453474Y-48939735D01*
X109491180Y-49001264D01*
X109491183Y-49001269D01*
X109493883Y-49005674D01*
X109642977Y-49177793D01*
X109818180Y-49323249D01*
X109822632Y-49325851D01*
X109822637Y-49325854D01*
X109916731Y-49380838D01*
X110014788Y-49438138D01*
X110227520Y-49519372D01*
X110232586Y-49520403D01*
X110232587Y-49520403D01*
X110284821Y-49531030D01*
X110450663Y-49564771D01*
X110578479Y-49569458D01*
X110673061Y-49572927D01*
X110673066Y-49572927D01*
X110678225Y-49573116D01*
X110683345Y-49572460D01*
X110683347Y-49572460D01*
X110755535Y-49563212D01*
X110904094Y-49544181D01*
X110909043Y-49542696D01*
X110909049Y-49542695D01*
X111035395Y-49504789D01*
X111122204Y-49478745D01*
X111326698Y-49378564D01*
X111330902Y-49375566D01*
X111330906Y-49375563D01*
X111408874Y-49319949D01*
X111512084Y-49246330D01*
X111673384Y-49085592D01*
X111783719Y-48932044D01*
X111839714Y-48888396D01*
X111910417Y-48881950D01*
X111973382Y-48914753D01*
X111993474Y-48939735D01*
X112031180Y-49001264D01*
X112031183Y-49001269D01*
X112033883Y-49005674D01*
X112182977Y-49177793D01*
X112358180Y-49323249D01*
X112362632Y-49325851D01*
X112362637Y-49325854D01*
X112456731Y-49380838D01*
X112554788Y-49438138D01*
X112767520Y-49519372D01*
X112772586Y-49520403D01*
X112772587Y-49520403D01*
X112824821Y-49531030D01*
X112990663Y-49564771D01*
X113118479Y-49569458D01*
X113213061Y-49572927D01*
X113213066Y-49572927D01*
X113218225Y-49573116D01*
X113223345Y-49572460D01*
X113223347Y-49572460D01*
X113295535Y-49563212D01*
X113444094Y-49544181D01*
X113449043Y-49542696D01*
X113449049Y-49542695D01*
X113575395Y-49504789D01*
X113662204Y-49478745D01*
X113866698Y-49378564D01*
X113870902Y-49375566D01*
X113870906Y-49375563D01*
X113948874Y-49319949D01*
X114052084Y-49246330D01*
X114213384Y-49085592D01*
X114323719Y-48932044D01*
X114379714Y-48888396D01*
X114450417Y-48881950D01*
X114513382Y-48914753D01*
X114533474Y-48939735D01*
X114571180Y-49001264D01*
X114571183Y-49001269D01*
X114573883Y-49005674D01*
X114722977Y-49177793D01*
X114898180Y-49323249D01*
X114902632Y-49325851D01*
X114902637Y-49325854D01*
X114996731Y-49380838D01*
X115094788Y-49438138D01*
X115307520Y-49519372D01*
X115312586Y-49520403D01*
X115312587Y-49520403D01*
X115364821Y-49531030D01*
X115530663Y-49564771D01*
X115658479Y-49569458D01*
X115753061Y-49572927D01*
X115753066Y-49572927D01*
X115758225Y-49573116D01*
X115763345Y-49572460D01*
X115763347Y-49572460D01*
X115835535Y-49563212D01*
X115984094Y-49544181D01*
X115989043Y-49542696D01*
X115989049Y-49542695D01*
X116115395Y-49504789D01*
X116202204Y-49478745D01*
X116406698Y-49378564D01*
X116410902Y-49375566D01*
X116410906Y-49375563D01*
X116488874Y-49319949D01*
X116592084Y-49246330D01*
X116753384Y-49085592D01*
X116863719Y-48932044D01*
X116919714Y-48888396D01*
X116990417Y-48881950D01*
X117053382Y-48914753D01*
X117073474Y-48939735D01*
X117111180Y-49001264D01*
X117111183Y-49001269D01*
X117113883Y-49005674D01*
X117262977Y-49177793D01*
X117438180Y-49323249D01*
X117442632Y-49325851D01*
X117442637Y-49325854D01*
X117536731Y-49380838D01*
X117634788Y-49438138D01*
X117847520Y-49519372D01*
X117852586Y-49520403D01*
X117852587Y-49520403D01*
X117904821Y-49531030D01*
X118070663Y-49564771D01*
X118198479Y-49569458D01*
X118293061Y-49572927D01*
X118293066Y-49572927D01*
X118298225Y-49573116D01*
X118303345Y-49572460D01*
X118303347Y-49572460D01*
X118375535Y-49563212D01*
X118524094Y-49544181D01*
X118529043Y-49542696D01*
X118529049Y-49542695D01*
X118655395Y-49504789D01*
X118742204Y-49478745D01*
X118946698Y-49378564D01*
X118950902Y-49375566D01*
X118950906Y-49375563D01*
X119028874Y-49319949D01*
X119132084Y-49246330D01*
X119293384Y-49085592D01*
X119403719Y-48932044D01*
X119459714Y-48888396D01*
X119530417Y-48881950D01*
X119593382Y-48914753D01*
X119613474Y-48939735D01*
X119651180Y-49001264D01*
X119651183Y-49001269D01*
X119653883Y-49005674D01*
X119802977Y-49177793D01*
X119978180Y-49323249D01*
X119982632Y-49325851D01*
X119982637Y-49325854D01*
X120076731Y-49380838D01*
X120174788Y-49438138D01*
X120387520Y-49519372D01*
X120392586Y-49520403D01*
X120392587Y-49520403D01*
X120444821Y-49531030D01*
X120610663Y-49564771D01*
X120738479Y-49569458D01*
X120833061Y-49572927D01*
X120833066Y-49572927D01*
X120838225Y-49573116D01*
X120843345Y-49572460D01*
X120843347Y-49572460D01*
X120915535Y-49563212D01*
X121064094Y-49544181D01*
X121069043Y-49542696D01*
X121069049Y-49542695D01*
X121195395Y-49504789D01*
X121282204Y-49478745D01*
X121486698Y-49378564D01*
X121490902Y-49375566D01*
X121490906Y-49375563D01*
X121568874Y-49319949D01*
X121672084Y-49246330D01*
X121833384Y-49085592D01*
X121943719Y-48932044D01*
X121999714Y-48888396D01*
X122070417Y-48881950D01*
X122133382Y-48914753D01*
X122153474Y-48939735D01*
X122191180Y-49001264D01*
X122191183Y-49001269D01*
X122193883Y-49005674D01*
X122342977Y-49177793D01*
X122518180Y-49323249D01*
X122522632Y-49325851D01*
X122522637Y-49325854D01*
X122616731Y-49380838D01*
X122714788Y-49438138D01*
X122927520Y-49519372D01*
X122932586Y-49520403D01*
X122932587Y-49520403D01*
X122984821Y-49531030D01*
X123150663Y-49564771D01*
X123278479Y-49569458D01*
X123373061Y-49572927D01*
X123373066Y-49572927D01*
X123378225Y-49573116D01*
X123383345Y-49572460D01*
X123383347Y-49572460D01*
X123455535Y-49563212D01*
X123604094Y-49544181D01*
X123609043Y-49542696D01*
X123609049Y-49542695D01*
X123735395Y-49504789D01*
X123822204Y-49478745D01*
X124026698Y-49378564D01*
X124030902Y-49375566D01*
X124030906Y-49375563D01*
X124108874Y-49319949D01*
X124212084Y-49246330D01*
X124373384Y-49085592D01*
X124483719Y-48932044D01*
X124539714Y-48888396D01*
X124610417Y-48881950D01*
X124673382Y-48914753D01*
X124693474Y-48939735D01*
X124731180Y-49001264D01*
X124731183Y-49001269D01*
X124733883Y-49005674D01*
X124882977Y-49177793D01*
X125058180Y-49323249D01*
X125062632Y-49325851D01*
X125062637Y-49325854D01*
X125156731Y-49380838D01*
X125254788Y-49438138D01*
X125467520Y-49519372D01*
X125472586Y-49520403D01*
X125472587Y-49520403D01*
X125524821Y-49531030D01*
X125690663Y-49564771D01*
X125818479Y-49569458D01*
X125913061Y-49572927D01*
X125913066Y-49572927D01*
X125918225Y-49573116D01*
X125923345Y-49572460D01*
X125923347Y-49572460D01*
X125995535Y-49563212D01*
X126144094Y-49544181D01*
X126149043Y-49542696D01*
X126149049Y-49542695D01*
X126275395Y-49504789D01*
X126362204Y-49478745D01*
X126566698Y-49378564D01*
X126570902Y-49375566D01*
X126570906Y-49375563D01*
X126648874Y-49319949D01*
X126752084Y-49246330D01*
X126913384Y-49085592D01*
X127046264Y-48900669D01*
X127147158Y-48696526D01*
X127213355Y-48478646D01*
X127225891Y-48383430D01*
X127242641Y-48256201D01*
X127242642Y-48256194D01*
X127243078Y-48252879D01*
X127244737Y-48185000D01*
X127237370Y-48095393D01*
X127226502Y-47963202D01*
X127226501Y-47963196D01*
X127226078Y-47958051D01*
X127170604Y-47737197D01*
X127168545Y-47732461D01*
X127081863Y-47533106D01*
X127081861Y-47533103D01*
X127079803Y-47528369D01*
X126956114Y-47337175D01*
X126802859Y-47168750D01*
X126624154Y-47027618D01*
X126424798Y-46917567D01*
X126308789Y-46876486D01*
X126215020Y-46843280D01*
X126215016Y-46843279D01*
X126210145Y-46841554D01*
X126205052Y-46840647D01*
X126205049Y-46840646D01*
X125991048Y-46802527D01*
X125991042Y-46802526D01*
X125985959Y-46801621D01*
X125898889Y-46800557D01*
X125763430Y-46798902D01*
X125763428Y-46798902D01*
X125758261Y-46798839D01*
X125533167Y-46833283D01*
X125316720Y-46904029D01*
X125114735Y-47009176D01*
X125110602Y-47012279D01*
X125110599Y-47012281D01*
X124936770Y-47142795D01*
X124932635Y-47145900D01*
X124775311Y-47310530D01*
X124759741Y-47333355D01*
X124688975Y-47437094D01*
X124634064Y-47482096D01*
X124563539Y-47490267D01*
X124499792Y-47459013D01*
X124479095Y-47434529D01*
X124418922Y-47341515D01*
X124418920Y-47341512D01*
X124416114Y-47337175D01*
X124262859Y-47168750D01*
X124084154Y-47027618D01*
X123884798Y-46917567D01*
X123768789Y-46876486D01*
X123675020Y-46843280D01*
X123675016Y-46843279D01*
X123670145Y-46841554D01*
X123665052Y-46840647D01*
X123665049Y-46840646D01*
X123451048Y-46802527D01*
X123451042Y-46802526D01*
X123445959Y-46801621D01*
X123358889Y-46800557D01*
X123223430Y-46798902D01*
X123223428Y-46798902D01*
X123218261Y-46798839D01*
X122993167Y-46833283D01*
X122776720Y-46904029D01*
X122574735Y-47009176D01*
X122570602Y-47012279D01*
X122570599Y-47012281D01*
X122396770Y-47142795D01*
X122392635Y-47145900D01*
X122235311Y-47310530D01*
X122219741Y-47333355D01*
X122148975Y-47437094D01*
X122094064Y-47482096D01*
X122023539Y-47490267D01*
X121959792Y-47459013D01*
X121939095Y-47434529D01*
X121878922Y-47341515D01*
X121878920Y-47341512D01*
X121876114Y-47337175D01*
X121722859Y-47168750D01*
X121544154Y-47027618D01*
X121344798Y-46917567D01*
X121228789Y-46876486D01*
X121135020Y-46843280D01*
X121135016Y-46843279D01*
X121130145Y-46841554D01*
X121125052Y-46840647D01*
X121125049Y-46840646D01*
X120911048Y-46802527D01*
X120911042Y-46802526D01*
X120905959Y-46801621D01*
X120818889Y-46800557D01*
X120683430Y-46798902D01*
X120683428Y-46798902D01*
X120678261Y-46798839D01*
X120453167Y-46833283D01*
X120236720Y-46904029D01*
X120034735Y-47009176D01*
X120030602Y-47012279D01*
X120030599Y-47012281D01*
X119856770Y-47142795D01*
X119852635Y-47145900D01*
X119695311Y-47310530D01*
X119679741Y-47333355D01*
X119608975Y-47437094D01*
X119554064Y-47482096D01*
X119483539Y-47490267D01*
X119419792Y-47459013D01*
X119399095Y-47434529D01*
X119338922Y-47341515D01*
X119338920Y-47341512D01*
X119336114Y-47337175D01*
X119182859Y-47168750D01*
X119004154Y-47027618D01*
X118804798Y-46917567D01*
X118688789Y-46876486D01*
X118595020Y-46843280D01*
X118595016Y-46843279D01*
X118590145Y-46841554D01*
X118585052Y-46840647D01*
X118585049Y-46840646D01*
X118371048Y-46802527D01*
X118371042Y-46802526D01*
X118365959Y-46801621D01*
X118278889Y-46800557D01*
X118143430Y-46798902D01*
X118143428Y-46798902D01*
X118138261Y-46798839D01*
X117913167Y-46833283D01*
X117696720Y-46904029D01*
X117494735Y-47009176D01*
X117490602Y-47012279D01*
X117490599Y-47012281D01*
X117316770Y-47142795D01*
X117312635Y-47145900D01*
X117155311Y-47310530D01*
X117139741Y-47333355D01*
X117068975Y-47437094D01*
X117014064Y-47482096D01*
X116943539Y-47490267D01*
X116879792Y-47459013D01*
X116859095Y-47434529D01*
X116798922Y-47341515D01*
X116798920Y-47341512D01*
X116796114Y-47337175D01*
X116642859Y-47168750D01*
X116464154Y-47027618D01*
X116264798Y-46917567D01*
X116148789Y-46876486D01*
X116055020Y-46843280D01*
X116055016Y-46843279D01*
X116050145Y-46841554D01*
X116045052Y-46840647D01*
X116045049Y-46840646D01*
X115831048Y-46802527D01*
X115831042Y-46802526D01*
X115825959Y-46801621D01*
X115738889Y-46800557D01*
X115603430Y-46798902D01*
X115603428Y-46798902D01*
X115598261Y-46798839D01*
X115373167Y-46833283D01*
X115156720Y-46904029D01*
X114954735Y-47009176D01*
X114950602Y-47012279D01*
X114950599Y-47012281D01*
X114776770Y-47142795D01*
X114772635Y-47145900D01*
X114615311Y-47310530D01*
X114599741Y-47333355D01*
X114528975Y-47437094D01*
X114474064Y-47482096D01*
X114403539Y-47490267D01*
X114339792Y-47459013D01*
X114319095Y-47434529D01*
X114258922Y-47341515D01*
X114258920Y-47341512D01*
X114256114Y-47337175D01*
X114102859Y-47168750D01*
X113924154Y-47027618D01*
X113724798Y-46917567D01*
X113608789Y-46876486D01*
X113515020Y-46843280D01*
X113515016Y-46843279D01*
X113510145Y-46841554D01*
X113505052Y-46840647D01*
X113505049Y-46840646D01*
X113291048Y-46802527D01*
X113291042Y-46802526D01*
X113285959Y-46801621D01*
X113198889Y-46800557D01*
X113063430Y-46798902D01*
X113063428Y-46798902D01*
X113058261Y-46798839D01*
X112833167Y-46833283D01*
X112616720Y-46904029D01*
X112414735Y-47009176D01*
X112410602Y-47012279D01*
X112410599Y-47012281D01*
X112236770Y-47142795D01*
X112232635Y-47145900D01*
X112075311Y-47310530D01*
X112059741Y-47333355D01*
X111988975Y-47437094D01*
X111934064Y-47482096D01*
X111863539Y-47490267D01*
X111799792Y-47459013D01*
X111779095Y-47434529D01*
X111718922Y-47341515D01*
X111718920Y-47341512D01*
X111716114Y-47337175D01*
X111562859Y-47168750D01*
X111384154Y-47027618D01*
X111184798Y-46917567D01*
X111068789Y-46876486D01*
X110975020Y-46843280D01*
X110975016Y-46843279D01*
X110970145Y-46841554D01*
X110965052Y-46840647D01*
X110965049Y-46840646D01*
X110751048Y-46802527D01*
X110751042Y-46802526D01*
X110745959Y-46801621D01*
X110658889Y-46800557D01*
X110523430Y-46798902D01*
X110523428Y-46798902D01*
X110518261Y-46798839D01*
X110293167Y-46833283D01*
X110076720Y-46904029D01*
X109874735Y-47009176D01*
X109870602Y-47012279D01*
X109870599Y-47012281D01*
X109696770Y-47142795D01*
X109692635Y-47145900D01*
X109535311Y-47310530D01*
X109519741Y-47333355D01*
X109448975Y-47437094D01*
X109394064Y-47482096D01*
X109323539Y-47490267D01*
X109259792Y-47459013D01*
X109239095Y-47434529D01*
X109178922Y-47341515D01*
X109178920Y-47341512D01*
X109176114Y-47337175D01*
X109022859Y-47168750D01*
X108844154Y-47027618D01*
X108644798Y-46917567D01*
X108528789Y-46876486D01*
X108435020Y-46843280D01*
X108435016Y-46843279D01*
X108430145Y-46841554D01*
X108425052Y-46840647D01*
X108425049Y-46840646D01*
X108211048Y-46802527D01*
X108211042Y-46802526D01*
X108205959Y-46801621D01*
X108118889Y-46800557D01*
X107983430Y-46798902D01*
X107983428Y-46798902D01*
X107978261Y-46798839D01*
X107753167Y-46833283D01*
X107536720Y-46904029D01*
X107334735Y-47009176D01*
X107330602Y-47012279D01*
X107330599Y-47012281D01*
X107156770Y-47142795D01*
X107152635Y-47145900D01*
X106995311Y-47310530D01*
X106979741Y-47333355D01*
X106908975Y-47437094D01*
X106854064Y-47482096D01*
X106783539Y-47490267D01*
X106719792Y-47459013D01*
X106699095Y-47434529D01*
X106638922Y-47341515D01*
X106638920Y-47341512D01*
X106636114Y-47337175D01*
X106482859Y-47168750D01*
X106304154Y-47027618D01*
X106104798Y-46917567D01*
X105988789Y-46876486D01*
X105895020Y-46843280D01*
X105895016Y-46843279D01*
X105890145Y-46841554D01*
X105885052Y-46840647D01*
X105885049Y-46840646D01*
X105671048Y-46802527D01*
X105671042Y-46802526D01*
X105665959Y-46801621D01*
X105578889Y-46800557D01*
X105443430Y-46798902D01*
X105443428Y-46798902D01*
X105438261Y-46798839D01*
X105213167Y-46833283D01*
X104996720Y-46904029D01*
X104794735Y-47009176D01*
X104790602Y-47012279D01*
X104790599Y-47012281D01*
X104616770Y-47142795D01*
X104612635Y-47145900D01*
X104455311Y-47310530D01*
X104452400Y-47314798D01*
X104452396Y-47314803D01*
X104381119Y-47419292D01*
X104326988Y-47498645D01*
X104231112Y-47705192D01*
X104170258Y-47924625D01*
X104146060Y-48151050D01*
X101508500Y-48151050D01*
X101508500Y-42693400D01*
X106078100Y-42693400D01*
X106078437Y-42696646D01*
X106078437Y-42696650D01*
X106087277Y-42781845D01*
X106089074Y-42799166D01*
X106091255Y-42805702D01*
X106091255Y-42805704D01*
X106121907Y-42897578D01*
X106145050Y-42966946D01*
X106238122Y-43117348D01*
X106363297Y-43242305D01*
X106369527Y-43246145D01*
X106369528Y-43246146D01*
X106506690Y-43330694D01*
X106513862Y-43335115D01*
X106581041Y-43357397D01*
X106675211Y-43388632D01*
X106675213Y-43388632D01*
X106681739Y-43390797D01*
X106688575Y-43391497D01*
X106688578Y-43391498D01*
X106724263Y-43395154D01*
X106786200Y-43401500D01*
X108087000Y-43401500D01*
X108090246Y-43401163D01*
X108090250Y-43401163D01*
X108185908Y-43391238D01*
X108185912Y-43391237D01*
X108192766Y-43390526D01*
X108199302Y-43388345D01*
X108199304Y-43388345D01*
X108345559Y-43339550D01*
X108360546Y-43334550D01*
X108510948Y-43241478D01*
X108635905Y-43116303D01*
X108725681Y-42970660D01*
X108778452Y-42923168D01*
X108848524Y-42911744D01*
X108913648Y-42940018D01*
X108924110Y-42949805D01*
X108965815Y-42993523D01*
X109033176Y-43064135D01*
X109037454Y-43067318D01*
X109065363Y-43088083D01*
X109218142Y-43201754D01*
X109222893Y-43204170D01*
X109222897Y-43204172D01*
X109297900Y-43242305D01*
X109423651Y-43306240D01*
X109428745Y-43307822D01*
X109428748Y-43307823D01*
X109621786Y-43367763D01*
X109643827Y-43374607D01*
X109649116Y-43375308D01*
X109867089Y-43404198D01*
X109867094Y-43404198D01*
X109872374Y-43404898D01*
X109877703Y-43404698D01*
X109877705Y-43404698D01*
X109998740Y-43400154D01*
X110102758Y-43396249D01*
X110125402Y-43391498D01*
X110304561Y-43353907D01*
X110328391Y-43348907D01*
X110333350Y-43346949D01*
X110333352Y-43346948D01*
X110537856Y-43266185D01*
X110537858Y-43266184D01*
X110542821Y-43264224D01*
X110565715Y-43250332D01*
X110735357Y-43147390D01*
X110735356Y-43147390D01*
X110739917Y-43144623D01*
X110818224Y-43076672D01*
X110910012Y-42997023D01*
X110910014Y-42997021D01*
X110914045Y-42993523D01*
X110992715Y-42897578D01*
X111056840Y-42819373D01*
X111056844Y-42819367D01*
X111060224Y-42815245D01*
X111067274Y-42802861D01*
X111148595Y-42660000D01*
X115089700Y-42660000D01*
X115090037Y-42663246D01*
X115090037Y-42663250D01*
X115099153Y-42751103D01*
X115100674Y-42765766D01*
X115102855Y-42772302D01*
X115102855Y-42772304D01*
X115134708Y-42867778D01*
X115156650Y-42933546D01*
X115249722Y-43083948D01*
X115374897Y-43208905D01*
X115381127Y-43212745D01*
X115381128Y-43212746D01*
X115518290Y-43297294D01*
X115525462Y-43301715D01*
X115557547Y-43312357D01*
X115686811Y-43355232D01*
X115686813Y-43355232D01*
X115693339Y-43357397D01*
X115700175Y-43358097D01*
X115700178Y-43358098D01*
X115735863Y-43361754D01*
X115797800Y-43368100D01*
X117098600Y-43368100D01*
X117101846Y-43367763D01*
X117101850Y-43367763D01*
X117197508Y-43357838D01*
X117197512Y-43357837D01*
X117204366Y-43357126D01*
X117210902Y-43354945D01*
X117210904Y-43354945D01*
X117356889Y-43306240D01*
X117372146Y-43301150D01*
X117522548Y-43208078D01*
X117647505Y-43082903D01*
X117737281Y-42937260D01*
X117790052Y-42889768D01*
X117860124Y-42878344D01*
X117925248Y-42906618D01*
X117935710Y-42916405D01*
X117977296Y-42959998D01*
X118044776Y-43030735D01*
X118229742Y-43168354D01*
X118234493Y-43170770D01*
X118234497Y-43170772D01*
X118295435Y-43201754D01*
X118435251Y-43272840D01*
X118440345Y-43274422D01*
X118440348Y-43274423D01*
X118621570Y-43330694D01*
X118655427Y-43341207D01*
X118660716Y-43341908D01*
X118878689Y-43370798D01*
X118878694Y-43370798D01*
X118883974Y-43371498D01*
X118889303Y-43371298D01*
X118889305Y-43371298D01*
X118999166Y-43367173D01*
X119114358Y-43362849D01*
X119137002Y-43358098D01*
X119334772Y-43316602D01*
X119339991Y-43315507D01*
X119344950Y-43313549D01*
X119344952Y-43313548D01*
X119549456Y-43232785D01*
X119549458Y-43232784D01*
X119554421Y-43230824D01*
X119590103Y-43209172D01*
X119726369Y-43126483D01*
X119751517Y-43111223D01*
X119810226Y-43060278D01*
X119921612Y-42963623D01*
X119921614Y-42963621D01*
X119925645Y-42960123D01*
X119992700Y-42878344D01*
X120068440Y-42785973D01*
X120068444Y-42785967D01*
X120071824Y-42781845D01*
X120089752Y-42750350D01*
X120140832Y-42701045D01*
X120210462Y-42687183D01*
X120276533Y-42713166D01*
X120303773Y-42742316D01*
X120385641Y-42863919D01*
X120544776Y-43030735D01*
X120729742Y-43168354D01*
X120734493Y-43170770D01*
X120734497Y-43170772D01*
X120795435Y-43201754D01*
X120935251Y-43272840D01*
X120940345Y-43274422D01*
X120940348Y-43274423D01*
X121121570Y-43330694D01*
X121155427Y-43341207D01*
X121160716Y-43341908D01*
X121378689Y-43370798D01*
X121378694Y-43370798D01*
X121383974Y-43371498D01*
X121389303Y-43371298D01*
X121389305Y-43371298D01*
X121499166Y-43367173D01*
X121614358Y-43362849D01*
X121637002Y-43358098D01*
X121834772Y-43316602D01*
X121839991Y-43315507D01*
X121844950Y-43313549D01*
X121844952Y-43313548D01*
X122049456Y-43232785D01*
X122049458Y-43232784D01*
X122054421Y-43230824D01*
X122090103Y-43209172D01*
X122226369Y-43126483D01*
X122251517Y-43111223D01*
X122310226Y-43060278D01*
X122421612Y-42963623D01*
X122421614Y-42963621D01*
X122425645Y-42960123D01*
X122492700Y-42878344D01*
X122568440Y-42785973D01*
X122568444Y-42785967D01*
X122571824Y-42781845D01*
X122589752Y-42750350D01*
X122640832Y-42701045D01*
X122710462Y-42687183D01*
X122776533Y-42713166D01*
X122803773Y-42742316D01*
X122885641Y-42863919D01*
X123044776Y-43030735D01*
X123229742Y-43168354D01*
X123234493Y-43170770D01*
X123234497Y-43170772D01*
X123295435Y-43201754D01*
X123435251Y-43272840D01*
X123440345Y-43274422D01*
X123440348Y-43274423D01*
X123621570Y-43330694D01*
X123655427Y-43341207D01*
X123660716Y-43341908D01*
X123878689Y-43370798D01*
X123878694Y-43370798D01*
X123883974Y-43371498D01*
X123889303Y-43371298D01*
X123889305Y-43371298D01*
X123999166Y-43367173D01*
X124114358Y-43362849D01*
X124137002Y-43358098D01*
X124334772Y-43316602D01*
X124339991Y-43315507D01*
X124344950Y-43313549D01*
X124344952Y-43313548D01*
X124549456Y-43232785D01*
X124549458Y-43232784D01*
X124554421Y-43230824D01*
X124590103Y-43209172D01*
X124726369Y-43126483D01*
X124751517Y-43111223D01*
X124810226Y-43060278D01*
X124921612Y-42963623D01*
X124921614Y-42963621D01*
X124925645Y-42960123D01*
X124992700Y-42878344D01*
X125068440Y-42785973D01*
X125068444Y-42785967D01*
X125071824Y-42781845D01*
X125076509Y-42773616D01*
X125119324Y-42698400D01*
X129638500Y-42698400D01*
X129638837Y-42701646D01*
X129638837Y-42701650D01*
X129648244Y-42792308D01*
X129649474Y-42804166D01*
X129651655Y-42810702D01*
X129651655Y-42810704D01*
X129683405Y-42905870D01*
X129705450Y-42971946D01*
X129798522Y-43122348D01*
X129923697Y-43247305D01*
X129929927Y-43251145D01*
X129929928Y-43251146D01*
X130067090Y-43335694D01*
X130074262Y-43340115D01*
X130139502Y-43361754D01*
X130235611Y-43393632D01*
X130235613Y-43393632D01*
X130242139Y-43395797D01*
X130248975Y-43396497D01*
X130248978Y-43396498D01*
X130284663Y-43400154D01*
X130346600Y-43406500D01*
X131647400Y-43406500D01*
X131650646Y-43406163D01*
X131650650Y-43406163D01*
X131746308Y-43396238D01*
X131746312Y-43396237D01*
X131753166Y-43395526D01*
X131759702Y-43393345D01*
X131759704Y-43393345D01*
X131898772Y-43346948D01*
X131920946Y-43339550D01*
X132071348Y-43246478D01*
X132196305Y-43121303D01*
X132202519Y-43111223D01*
X132231544Y-43064135D01*
X132286081Y-42975660D01*
X132338852Y-42928168D01*
X132408924Y-42916744D01*
X132474048Y-42945018D01*
X132484510Y-42954805D01*
X132524784Y-42997023D01*
X132593576Y-43069135D01*
X132778542Y-43206754D01*
X132783293Y-43209170D01*
X132783297Y-43209172D01*
X132854419Y-43245332D01*
X132984051Y-43311240D01*
X132989145Y-43312822D01*
X132989148Y-43312823D01*
X133134120Y-43357838D01*
X133204227Y-43379607D01*
X133209516Y-43380308D01*
X133427489Y-43409198D01*
X133427494Y-43409198D01*
X133432774Y-43409898D01*
X133438103Y-43409698D01*
X133438105Y-43409698D01*
X133565959Y-43404898D01*
X133663158Y-43401249D01*
X133685802Y-43396498D01*
X133851392Y-43361754D01*
X133888791Y-43353907D01*
X133893750Y-43351949D01*
X133893752Y-43351948D01*
X134098256Y-43271185D01*
X134098258Y-43271184D01*
X134103221Y-43269224D01*
X134108230Y-43266185D01*
X134295757Y-43152390D01*
X134295756Y-43152390D01*
X134300317Y-43149623D01*
X134326984Y-43126483D01*
X134470412Y-43002023D01*
X134470414Y-43002021D01*
X134474445Y-42998523D01*
X134527723Y-42933546D01*
X134617240Y-42824373D01*
X134617244Y-42824367D01*
X134620624Y-42820245D01*
X134626111Y-42810606D01*
X134638829Y-42788265D01*
X134689912Y-42738959D01*
X134759542Y-42725098D01*
X134825613Y-42751082D01*
X134852851Y-42780232D01*
X134931852Y-42897578D01*
X134938519Y-42905870D01*
X135090228Y-43064900D01*
X135098186Y-43071941D01*
X135274525Y-43203141D01*
X135283562Y-43208745D01*
X135479484Y-43308357D01*
X135489335Y-43312357D01*
X135699240Y-43377534D01*
X135709624Y-43379817D01*
X135725043Y-43381861D01*
X135739207Y-43379665D01*
X135743000Y-43366478D01*
X135743000Y-43364192D01*
X136251000Y-43364192D01*
X136254973Y-43377723D01*
X136265580Y-43379248D01*
X136383421Y-43354523D01*
X136393617Y-43351463D01*
X136598029Y-43270737D01*
X136607561Y-43266006D01*
X136795462Y-43151984D01*
X136804052Y-43145720D01*
X136970052Y-43001673D01*
X136977472Y-42994042D01*
X137116826Y-42824089D01*
X137122848Y-42815326D01*
X137138238Y-42788289D01*
X137189320Y-42738982D01*
X137258951Y-42725120D01*
X137325022Y-42751103D01*
X137352261Y-42780253D01*
X137381773Y-42824089D01*
X137434441Y-42902319D01*
X137438120Y-42906176D01*
X137438122Y-42906178D01*
X137484510Y-42954805D01*
X137593576Y-43069135D01*
X137778542Y-43206754D01*
X137783293Y-43209170D01*
X137783297Y-43209172D01*
X137854419Y-43245332D01*
X137984051Y-43311240D01*
X137989145Y-43312822D01*
X137989148Y-43312823D01*
X138134120Y-43357838D01*
X138204227Y-43379607D01*
X138209516Y-43380308D01*
X138427489Y-43409198D01*
X138427494Y-43409198D01*
X138432774Y-43409898D01*
X138438103Y-43409698D01*
X138438105Y-43409698D01*
X138565959Y-43404898D01*
X138663158Y-43401249D01*
X138685802Y-43396498D01*
X138851392Y-43361754D01*
X138888791Y-43353907D01*
X138893750Y-43351949D01*
X138893752Y-43351948D01*
X139098256Y-43271185D01*
X139098258Y-43271184D01*
X139103221Y-43269224D01*
X139108230Y-43266185D01*
X139295757Y-43152390D01*
X139295756Y-43152390D01*
X139300317Y-43149623D01*
X139326984Y-43126483D01*
X139470412Y-43002023D01*
X139470414Y-43002021D01*
X139474445Y-42998523D01*
X139527723Y-42933546D01*
X139617240Y-42824373D01*
X139617244Y-42824367D01*
X139620624Y-42820245D01*
X139628902Y-42805704D01*
X139732032Y-42624529D01*
X139734675Y-42619886D01*
X139813337Y-42403175D01*
X139836023Y-42277720D01*
X139853623Y-42180392D01*
X139853624Y-42180385D01*
X139854361Y-42176308D01*
X139855500Y-42152156D01*
X139855500Y-41740110D01*
X139840920Y-41568280D01*
X139839582Y-41563125D01*
X139839581Y-41563119D01*
X139784343Y-41350297D01*
X139784342Y-41350293D01*
X139783001Y-41345128D01*
X139758226Y-41290128D01*
X139690507Y-41139798D01*
X139688312Y-41134925D01*
X139559559Y-40943681D01*
X139507092Y-40888681D01*
X139471725Y-40851608D01*
X139400424Y-40776865D01*
X139215458Y-40639246D01*
X139210707Y-40636830D01*
X139210703Y-40636828D01*
X139092588Y-40576776D01*
X139009949Y-40534760D01*
X139004855Y-40533178D01*
X139004852Y-40533177D01*
X138794871Y-40467976D01*
X138789773Y-40466393D01*
X138784484Y-40465692D01*
X138566511Y-40436802D01*
X138566506Y-40436802D01*
X138561226Y-40436102D01*
X138555897Y-40436302D01*
X138555895Y-40436302D01*
X138446034Y-40440427D01*
X138330842Y-40444751D01*
X138325623Y-40445846D01*
X138238438Y-40464139D01*
X138105209Y-40492093D01*
X138100250Y-40494051D01*
X138100248Y-40494052D01*
X137895744Y-40574815D01*
X137895742Y-40574816D01*
X137890779Y-40576776D01*
X137886220Y-40579543D01*
X137886217Y-40579544D01*
X137791113Y-40637255D01*
X137693683Y-40696377D01*
X137689653Y-40699874D01*
X137531788Y-40836862D01*
X137519555Y-40847477D01*
X137516168Y-40851608D01*
X137376760Y-41021627D01*
X137376756Y-41021633D01*
X137373376Y-41025755D01*
X137370733Y-41030398D01*
X137355171Y-41057735D01*
X137304088Y-41107041D01*
X137234458Y-41120902D01*
X137168387Y-41094918D01*
X137141149Y-41065768D01*
X137062148Y-40948422D01*
X137055481Y-40940130D01*
X136903772Y-40781100D01*
X136895814Y-40774059D01*
X136719475Y-40642859D01*
X136710438Y-40637255D01*
X136514516Y-40537643D01*
X136504665Y-40533643D01*
X136294760Y-40468466D01*
X136284376Y-40466183D01*
X136268957Y-40464139D01*
X136254793Y-40466335D01*
X136251000Y-40479522D01*
X136251000Y-43364192D01*
X135743000Y-43364192D01*
X135743000Y-40481808D01*
X135739027Y-40468277D01*
X135728420Y-40466752D01*
X135610579Y-40491477D01*
X135600383Y-40494537D01*
X135395971Y-40575263D01*
X135386439Y-40579994D01*
X135198538Y-40694016D01*
X135189948Y-40700280D01*
X135023948Y-40844327D01*
X135016528Y-40851958D01*
X134877174Y-41021911D01*
X134871152Y-41030674D01*
X134855762Y-41057711D01*
X134804680Y-41107018D01*
X134735049Y-41120880D01*
X134668978Y-41094897D01*
X134641739Y-41065747D01*
X134594094Y-40994978D01*
X134559559Y-40943681D01*
X134507092Y-40888681D01*
X134471725Y-40851608D01*
X134400424Y-40776865D01*
X134215458Y-40639246D01*
X134210707Y-40636830D01*
X134210703Y-40636828D01*
X134092588Y-40576776D01*
X134009949Y-40534760D01*
X134004855Y-40533178D01*
X134004852Y-40533177D01*
X133794871Y-40467976D01*
X133789773Y-40466393D01*
X133784484Y-40465692D01*
X133566511Y-40436802D01*
X133566506Y-40436802D01*
X133561226Y-40436102D01*
X133555897Y-40436302D01*
X133555895Y-40436302D01*
X133446034Y-40440427D01*
X133330842Y-40444751D01*
X133325623Y-40445846D01*
X133238438Y-40464139D01*
X133105209Y-40492093D01*
X133100250Y-40494051D01*
X133100248Y-40494052D01*
X132895744Y-40574815D01*
X132895742Y-40574816D01*
X132890779Y-40576776D01*
X132886220Y-40579543D01*
X132886217Y-40579544D01*
X132791113Y-40637255D01*
X132693683Y-40696377D01*
X132689653Y-40699874D01*
X132531788Y-40836862D01*
X132519555Y-40847477D01*
X132490330Y-40883120D01*
X132431671Y-40923114D01*
X132360701Y-40925046D01*
X132299952Y-40888302D01*
X132285752Y-40869532D01*
X132199332Y-40729880D01*
X132195478Y-40723652D01*
X132070303Y-40598695D01*
X132052031Y-40587432D01*
X131925968Y-40509725D01*
X131925966Y-40509724D01*
X131919738Y-40505885D01*
X131839995Y-40479436D01*
X131758389Y-40452368D01*
X131758387Y-40452368D01*
X131751861Y-40450203D01*
X131745025Y-40449503D01*
X131745022Y-40449502D01*
X131701969Y-40445091D01*
X131647400Y-40439500D01*
X130346600Y-40439500D01*
X130343354Y-40439837D01*
X130343350Y-40439837D01*
X130247692Y-40449762D01*
X130247688Y-40449763D01*
X130240834Y-40450474D01*
X130234298Y-40452655D01*
X130234296Y-40452655D01*
X130108042Y-40494777D01*
X130073054Y-40506450D01*
X129922652Y-40599522D01*
X129797695Y-40724697D01*
X129793855Y-40730927D01*
X129793854Y-40730928D01*
X129719466Y-40851608D01*
X129704885Y-40875262D01*
X129683472Y-40939822D01*
X129654595Y-41026884D01*
X129649203Y-41043139D01*
X129648503Y-41049975D01*
X129648502Y-41049978D01*
X129646884Y-41065768D01*
X129638500Y-41147600D01*
X129638500Y-42698400D01*
X125119324Y-42698400D01*
X125183232Y-42586129D01*
X125185875Y-42581486D01*
X125264537Y-42364775D01*
X125297879Y-42180392D01*
X125304823Y-42141992D01*
X125304824Y-42141985D01*
X125305561Y-42137908D01*
X125306700Y-42113756D01*
X125306700Y-41701710D01*
X125295829Y-41573591D01*
X125292571Y-41535191D01*
X125292570Y-41535187D01*
X125292120Y-41529880D01*
X125290782Y-41524725D01*
X125290781Y-41524719D01*
X125235543Y-41311897D01*
X125235542Y-41311893D01*
X125234201Y-41306728D01*
X125226724Y-41290128D01*
X125141707Y-41101398D01*
X125139512Y-41096525D01*
X125010759Y-40905281D01*
X124994924Y-40888681D01*
X124928502Y-40819054D01*
X124851624Y-40738465D01*
X124666658Y-40600846D01*
X124661907Y-40598430D01*
X124661903Y-40598428D01*
X124533563Y-40533177D01*
X124461149Y-40496360D01*
X124456055Y-40494778D01*
X124456052Y-40494777D01*
X124246071Y-40429576D01*
X124240973Y-40427993D01*
X124235684Y-40427292D01*
X124017711Y-40398402D01*
X124017706Y-40398402D01*
X124012426Y-40397702D01*
X124007097Y-40397902D01*
X124007095Y-40397902D01*
X123897234Y-40402027D01*
X123782042Y-40406351D01*
X123776823Y-40407446D01*
X123754766Y-40412074D01*
X123556409Y-40453693D01*
X123551450Y-40455651D01*
X123551448Y-40455652D01*
X123346944Y-40536415D01*
X123346942Y-40536416D01*
X123341979Y-40538376D01*
X123337420Y-40541143D01*
X123337417Y-40541144D01*
X123241214Y-40599522D01*
X123144883Y-40657977D01*
X123140853Y-40661474D01*
X122985127Y-40796606D01*
X122970755Y-40809077D01*
X122961584Y-40820262D01*
X122827960Y-40983227D01*
X122827956Y-40983233D01*
X122824576Y-40987355D01*
X122806648Y-41018850D01*
X122755568Y-41068155D01*
X122685938Y-41082017D01*
X122619867Y-41056034D01*
X122592627Y-41026884D01*
X122573323Y-40998211D01*
X122510759Y-40905281D01*
X122494924Y-40888681D01*
X122428502Y-40819054D01*
X122351624Y-40738465D01*
X122166658Y-40600846D01*
X122161907Y-40598430D01*
X122161903Y-40598428D01*
X122033563Y-40533177D01*
X121961149Y-40496360D01*
X121956055Y-40494778D01*
X121956052Y-40494777D01*
X121746071Y-40429576D01*
X121740973Y-40427993D01*
X121735684Y-40427292D01*
X121517711Y-40398402D01*
X121517706Y-40398402D01*
X121512426Y-40397702D01*
X121507097Y-40397902D01*
X121507095Y-40397902D01*
X121397234Y-40402027D01*
X121282042Y-40406351D01*
X121276823Y-40407446D01*
X121254766Y-40412074D01*
X121056409Y-40453693D01*
X121051450Y-40455651D01*
X121051448Y-40455652D01*
X120846944Y-40536415D01*
X120846942Y-40536416D01*
X120841979Y-40538376D01*
X120837420Y-40541143D01*
X120837417Y-40541144D01*
X120741214Y-40599522D01*
X120644883Y-40657977D01*
X120640853Y-40661474D01*
X120485127Y-40796606D01*
X120470755Y-40809077D01*
X120461584Y-40820262D01*
X120327960Y-40983227D01*
X120327956Y-40983233D01*
X120324576Y-40987355D01*
X120306648Y-41018850D01*
X120255568Y-41068155D01*
X120185938Y-41082017D01*
X120119867Y-41056034D01*
X120092627Y-41026884D01*
X120073323Y-40998211D01*
X120010759Y-40905281D01*
X119994924Y-40888681D01*
X119928502Y-40819054D01*
X119851624Y-40738465D01*
X119666658Y-40600846D01*
X119661907Y-40598430D01*
X119661903Y-40598428D01*
X119533563Y-40533177D01*
X119461149Y-40496360D01*
X119456055Y-40494778D01*
X119456052Y-40494777D01*
X119246071Y-40429576D01*
X119240973Y-40427993D01*
X119235684Y-40427292D01*
X119017711Y-40398402D01*
X119017706Y-40398402D01*
X119012426Y-40397702D01*
X119007097Y-40397902D01*
X119007095Y-40397902D01*
X118897234Y-40402027D01*
X118782042Y-40406351D01*
X118776823Y-40407446D01*
X118754766Y-40412074D01*
X118556409Y-40453693D01*
X118551450Y-40455651D01*
X118551448Y-40455652D01*
X118346944Y-40536415D01*
X118346942Y-40536416D01*
X118341979Y-40538376D01*
X118337420Y-40541143D01*
X118337417Y-40541144D01*
X118241214Y-40599522D01*
X118144883Y-40657977D01*
X118140853Y-40661474D01*
X117985127Y-40796606D01*
X117970755Y-40809077D01*
X117941530Y-40844720D01*
X117882871Y-40884714D01*
X117811901Y-40886646D01*
X117751152Y-40849902D01*
X117736952Y-40831132D01*
X117650532Y-40691480D01*
X117646678Y-40685252D01*
X117521503Y-40560295D01*
X117515272Y-40556454D01*
X117377168Y-40471325D01*
X117377166Y-40471324D01*
X117370938Y-40467485D01*
X117285215Y-40439052D01*
X117209589Y-40413968D01*
X117209587Y-40413968D01*
X117203061Y-40411803D01*
X117196225Y-40411103D01*
X117196222Y-40411102D01*
X117153169Y-40406691D01*
X117098600Y-40401100D01*
X115797800Y-40401100D01*
X115794554Y-40401437D01*
X115794550Y-40401437D01*
X115698892Y-40411362D01*
X115698888Y-40411363D01*
X115692034Y-40412074D01*
X115685498Y-40414255D01*
X115685496Y-40414255D01*
X115570569Y-40452598D01*
X115524254Y-40468050D01*
X115373852Y-40561122D01*
X115248895Y-40686297D01*
X115245055Y-40692527D01*
X115245054Y-40692528D01*
X115170158Y-40814032D01*
X115156085Y-40836862D01*
X115139023Y-40888302D01*
X115103641Y-40994978D01*
X115100403Y-41004739D01*
X115099703Y-41011575D01*
X115099702Y-41011578D01*
X115095768Y-41049978D01*
X115089700Y-41109200D01*
X115089700Y-42660000D01*
X111148595Y-42660000D01*
X111171632Y-42619529D01*
X111174275Y-42614886D01*
X111252937Y-42398175D01*
X111258977Y-42364775D01*
X111293223Y-42175392D01*
X111293224Y-42175385D01*
X111293961Y-42171308D01*
X111295100Y-42147156D01*
X111295100Y-41685110D01*
X111289422Y-41618191D01*
X111280971Y-41518591D01*
X111280970Y-41518587D01*
X111280520Y-41513280D01*
X111279182Y-41508125D01*
X111279181Y-41508119D01*
X111223943Y-41295297D01*
X111223942Y-41295293D01*
X111222601Y-41290128D01*
X111127912Y-41079925D01*
X110999159Y-40888681D01*
X110985206Y-40874054D01*
X110923220Y-40809077D01*
X110840024Y-40721865D01*
X110655058Y-40584246D01*
X110650307Y-40581830D01*
X110650303Y-40581828D01*
X110528331Y-40519815D01*
X110449549Y-40479760D01*
X110444455Y-40478178D01*
X110444452Y-40478177D01*
X110234471Y-40412976D01*
X110229373Y-40411393D01*
X110189822Y-40406151D01*
X110006111Y-40381802D01*
X110006106Y-40381802D01*
X110000826Y-40381102D01*
X109995497Y-40381302D01*
X109995495Y-40381302D01*
X109885634Y-40385427D01*
X109770442Y-40389751D01*
X109765223Y-40390846D01*
X109667296Y-40411393D01*
X109544809Y-40437093D01*
X109539850Y-40439051D01*
X109539848Y-40439052D01*
X109335344Y-40519815D01*
X109335342Y-40519816D01*
X109330379Y-40521776D01*
X109325820Y-40524543D01*
X109325817Y-40524544D01*
X109193718Y-40604704D01*
X109133283Y-40641377D01*
X109129253Y-40644874D01*
X108972266Y-40781100D01*
X108959155Y-40792477D01*
X108929930Y-40828120D01*
X108871271Y-40868114D01*
X108800301Y-40870046D01*
X108739552Y-40833302D01*
X108725352Y-40814532D01*
X108638932Y-40674880D01*
X108635078Y-40668652D01*
X108627888Y-40661474D01*
X108515083Y-40548866D01*
X108509903Y-40543695D01*
X108492840Y-40533177D01*
X108365568Y-40454725D01*
X108365566Y-40454724D01*
X108359338Y-40450885D01*
X108279595Y-40424436D01*
X108197989Y-40397368D01*
X108197987Y-40397368D01*
X108191461Y-40395203D01*
X108184625Y-40394503D01*
X108184622Y-40394502D01*
X108141569Y-40390091D01*
X108087000Y-40384500D01*
X106786200Y-40384500D01*
X106782954Y-40384837D01*
X106782950Y-40384837D01*
X106687292Y-40394762D01*
X106687288Y-40394763D01*
X106680434Y-40395474D01*
X106673898Y-40397655D01*
X106673896Y-40397655D01*
X106585064Y-40427292D01*
X106512654Y-40451450D01*
X106362252Y-40544522D01*
X106237295Y-40669697D01*
X106233455Y-40675927D01*
X106233454Y-40675928D01*
X106151380Y-40809077D01*
X106144485Y-40820262D01*
X106126643Y-40874054D01*
X106102081Y-40948108D01*
X106088803Y-40988139D01*
X106088103Y-40994975D01*
X106088102Y-40994978D01*
X106085372Y-41021627D01*
X106078100Y-41092600D01*
X106078100Y-42693400D01*
X101508500Y-42693400D01*
X101508500Y-39053250D01*
X101510246Y-39032345D01*
X101512770Y-39017344D01*
X101512770Y-39017341D01*
X101513576Y-39012552D01*
X101513729Y-39000000D01*
X101513040Y-38995186D01*
X101513039Y-38995176D01*
X101512157Y-38989017D01*
X101511206Y-38962172D01*
X101523038Y-38796723D01*
X101525596Y-38778934D01*
X101566999Y-38588607D01*
X101572063Y-38571359D01*
X101640136Y-38388850D01*
X101647604Y-38372498D01*
X101740952Y-38201542D01*
X101750672Y-38186418D01*
X101867402Y-38030486D01*
X101879175Y-38016900D01*
X102016900Y-37879175D01*
X102030486Y-37867402D01*
X102186418Y-37750672D01*
X102201542Y-37740952D01*
X102372498Y-37647604D01*
X102388850Y-37640136D01*
X102571359Y-37572063D01*
X102588608Y-37566999D01*
X102778936Y-37525596D01*
X102796715Y-37523039D01*
X102958605Y-37511460D01*
X102976565Y-37512207D01*
X102984845Y-37512308D01*
X102993724Y-37513691D01*
X103025286Y-37509564D01*
X103041621Y-37508500D01*
X143950633Y-37508500D01*
X143970018Y-37510000D01*
G37*
G04 #@! TD.AperFunction*
M02*
