G04 #@! TF.GenerationSoftware,KiCad,Pcbnew,(6.0.7)*
G04 #@! TF.CreationDate,2022-12-11T16:42:54+01:00*
G04 #@! TF.ProjectId,StartStop_PCB,53746172-7453-4746-9f70-5f5043422e6b,rev?*
G04 #@! TF.SameCoordinates,Original*
G04 #@! TF.FileFunction,Copper,L1,Top*
G04 #@! TF.FilePolarity,Positive*
%FSLAX46Y46*%
G04 Gerber Fmt 4.6, Leading zero omitted, Abs format (unit mm)*
G04 Created by KiCad (PCBNEW (6.0.7)) date 2022-12-11 16:42:54*
%MOMM*%
%LPD*%
G01*
G04 APERTURE LIST*
G04 Aperture macros list*
%AMRoundRect*
0 Rectangle with rounded corners*
0 $1 Rounding radius*
0 $2 $3 $4 $5 $6 $7 $8 $9 X,Y pos of 4 corners*
0 Add a 4 corners polygon primitive as box body*
4,1,4,$2,$3,$4,$5,$6,$7,$8,$9,$2,$3,0*
0 Add four circle primitives for the rounded corners*
1,1,$1+$1,$2,$3*
1,1,$1+$1,$4,$5*
1,1,$1+$1,$6,$7*
1,1,$1+$1,$8,$9*
0 Add four rect primitives between the rounded corners*
20,1,$1+$1,$2,$3,$4,$5,0*
20,1,$1+$1,$4,$5,$6,$7,0*
20,1,$1+$1,$6,$7,$8,$9,0*
20,1,$1+$1,$8,$9,$2,$3,0*%
G04 Aperture macros list end*
G04 #@! TA.AperFunction,Profile*
%ADD10C,0.100000*%
G04 #@! TD*
G04 #@! TA.AperFunction,ComponentPad*
%ADD11RoundRect,0.250000X-0.600000X-0.750000X0.600000X-0.750000X0.600000X0.750000X-0.600000X0.750000X0*%
G04 #@! TD*
G04 #@! TA.AperFunction,ComponentPad*
%ADD12O,1.700000X2.000000*%
G04 #@! TD*
G04 #@! TA.AperFunction,SMDPad,CuDef*
%ADD13RoundRect,0.250000X-0.262500X-0.450000X0.262500X-0.450000X0.262500X0.450000X-0.262500X0.450000X0*%
G04 #@! TD*
G04 #@! TA.AperFunction,ComponentPad*
%ADD14RoundRect,0.250001X-0.759999X0.499999X-0.759999X-0.499999X0.759999X-0.499999X0.759999X0.499999X0*%
G04 #@! TD*
G04 #@! TA.AperFunction,ComponentPad*
%ADD15O,2.020000X1.500000*%
G04 #@! TD*
G04 #@! TA.AperFunction,SMDPad,CuDef*
%ADD16R,2.000000X1.200000*%
G04 #@! TD*
G04 #@! TA.AperFunction,SMDPad,CuDef*
%ADD17RoundRect,0.250000X0.450000X-0.262500X0.450000X0.262500X-0.450000X0.262500X-0.450000X-0.262500X0*%
G04 #@! TD*
G04 #@! TA.AperFunction,ComponentPad*
%ADD18RoundRect,0.250000X-0.725000X0.600000X-0.725000X-0.600000X0.725000X-0.600000X0.725000X0.600000X0*%
G04 #@! TD*
G04 #@! TA.AperFunction,ComponentPad*
%ADD19O,1.950000X1.700000*%
G04 #@! TD*
G04 #@! TA.AperFunction,SMDPad,CuDef*
%ADD20RoundRect,0.150000X-0.587500X-0.150000X0.587500X-0.150000X0.587500X0.150000X-0.587500X0.150000X0*%
G04 #@! TD*
G04 #@! TA.AperFunction,ComponentPad*
%ADD21C,1.752600*%
G04 #@! TD*
G04 #@! TA.AperFunction,ComponentPad*
%ADD22RoundRect,0.250000X-0.600000X-0.725000X0.600000X-0.725000X0.600000X0.725000X-0.600000X0.725000X0*%
G04 #@! TD*
G04 #@! TA.AperFunction,ComponentPad*
%ADD23O,1.700000X1.950000*%
G04 #@! TD*
G04 #@! TA.AperFunction,SMDPad,CuDef*
%ADD24RoundRect,0.243750X-0.456250X0.243750X-0.456250X-0.243750X0.456250X-0.243750X0.456250X0.243750X0*%
G04 #@! TD*
G04 #@! TA.AperFunction,SMDPad,CuDef*
%ADD25RoundRect,0.250000X0.262500X0.450000X-0.262500X0.450000X-0.262500X-0.450000X0.262500X-0.450000X0*%
G04 #@! TD*
G04 #@! TA.AperFunction,SMDPad,CuDef*
%ADD26RoundRect,0.150000X0.587500X0.150000X-0.587500X0.150000X-0.587500X-0.150000X0.587500X-0.150000X0*%
G04 #@! TD*
G04 #@! TA.AperFunction,SMDPad,CuDef*
%ADD27RoundRect,0.243750X0.243750X0.456250X-0.243750X0.456250X-0.243750X-0.456250X0.243750X-0.456250X0*%
G04 #@! TD*
G04 #@! TA.AperFunction,SMDPad,CuDef*
%ADD28R,1.200000X0.900000*%
G04 #@! TD*
G04 #@! TA.AperFunction,ComponentPad*
%ADD29C,1.650000*%
G04 #@! TD*
G04 #@! TA.AperFunction,SMDPad,CuDef*
%ADD30RoundRect,0.243750X-0.243750X-0.456250X0.243750X-0.456250X0.243750X0.456250X-0.243750X0.456250X0*%
G04 #@! TD*
G04 #@! TA.AperFunction,ComponentPad*
%ADD31RoundRect,0.250001X0.759999X-0.499999X0.759999X0.499999X-0.759999X0.499999X-0.759999X-0.499999X0*%
G04 #@! TD*
G04 #@! TA.AperFunction,ViaPad*
%ADD32C,0.800000*%
G04 #@! TD*
G04 #@! TA.AperFunction,Conductor*
%ADD33C,0.600000*%
G04 #@! TD*
G04 #@! TA.AperFunction,Conductor*
%ADD34C,0.400000*%
G04 #@! TD*
G04 APERTURE END LIST*
D10*
X144000000Y-81000000D02*
G75*
G03*
X146000000Y-79000000I0J2000000D01*
G01*
X103000000Y-37000000D02*
G75*
G03*
X101000000Y-39000000I0J-2000000D01*
G01*
X146000000Y-79000000D02*
X146000000Y-39000000D01*
X144000000Y-37000000D02*
X103000000Y-37000000D01*
X101000000Y-39000000D02*
X101000000Y-79000000D01*
X146000000Y-39000000D02*
G75*
G03*
X144000000Y-37000000I-2000000J0D01*
G01*
X101000000Y-79000000D02*
G75*
G03*
X103000000Y-81000000I2000000J0D01*
G01*
X103000000Y-81000000D02*
X144000000Y-81000000D01*
D11*
X107436600Y-41893000D03*
D12*
X109936600Y-41893000D03*
D13*
X129112000Y-51689000D03*
X130937000Y-51689000D03*
D14*
X107061000Y-69596000D03*
D15*
X107061000Y-72596000D03*
X107061000Y-75596000D03*
D16*
X143332200Y-40418000D03*
X143332200Y-44418000D03*
D17*
X132715000Y-64080000D03*
X132715000Y-62255000D03*
D18*
X140970000Y-53467000D03*
D19*
X140970000Y-55967000D03*
X140970000Y-58467000D03*
X140970000Y-60967000D03*
D13*
X125325500Y-77724000D03*
X127150500Y-77724000D03*
D20*
X133960000Y-47183000D03*
X133960000Y-49083000D03*
X135835000Y-48133000D03*
X132787250Y-56073000D03*
X132787250Y-57973000D03*
X134662250Y-57023000D03*
D13*
X137898500Y-49149000D03*
X139723500Y-49149000D03*
D21*
X105535191Y-48185000D03*
X108075191Y-48185000D03*
X110615191Y-48185000D03*
X113155191Y-48185000D03*
X115695191Y-48185000D03*
X118235191Y-48185000D03*
X120775191Y-48185000D03*
X123315191Y-48185000D03*
X125855191Y-48185000D03*
X125855191Y-63425000D03*
X123315191Y-63425000D03*
X120775191Y-63425000D03*
X118235191Y-63425000D03*
X115695191Y-63425000D03*
X113155191Y-63425000D03*
X110615191Y-63425000D03*
X108075191Y-63425000D03*
X105535191Y-63425000D03*
D22*
X116448200Y-41884600D03*
D23*
X118948200Y-41884600D03*
X121448200Y-41884600D03*
X123948200Y-41884600D03*
D24*
X134874000Y-62230000D03*
X134874000Y-64105000D03*
D13*
X129105750Y-58039000D03*
X130930750Y-58039000D03*
X117627000Y-75692000D03*
X119452000Y-75692000D03*
D25*
X132000000Y-49149000D03*
X130175000Y-49149000D03*
X130930750Y-56007000D03*
X129105750Y-56007000D03*
X127150500Y-75692000D03*
X125325500Y-75692000D03*
D26*
X123287000Y-77658000D03*
X123287000Y-75758000D03*
X121412000Y-76708000D03*
D27*
X119405000Y-77724000D03*
X117530000Y-77724000D03*
D22*
X130997000Y-41923000D03*
D23*
X133497000Y-41923000D03*
X135997000Y-41923000D03*
X138497000Y-41923000D03*
D25*
X130937000Y-53721000D03*
X129112000Y-53721000D03*
D28*
X113284000Y-78434600D03*
X113284000Y-75134600D03*
D17*
X130683000Y-64080000D03*
X130683000Y-62255000D03*
D13*
X130175000Y-47117000D03*
X132000000Y-47117000D03*
X111355500Y-59944000D03*
X113180500Y-59944000D03*
D29*
X113323000Y-67576600D03*
X113323000Y-72276600D03*
X124823000Y-72276600D03*
X131823000Y-72276600D03*
D24*
X128524000Y-62230000D03*
X128524000Y-64105000D03*
D20*
X132793500Y-51755000D03*
X132793500Y-53655000D03*
X134668500Y-52705000D03*
D30*
X137848500Y-47117000D03*
X139723500Y-47117000D03*
D31*
X139920000Y-73001000D03*
D15*
X139920000Y-70001000D03*
D13*
X120753500Y-51308000D03*
X122578500Y-51308000D03*
D32*
X130658000Y-65659000D03*
X115316000Y-75692000D03*
X134366000Y-58420000D03*
X123698000Y-74676000D03*
X127762000Y-79121000D03*
X134239000Y-54102000D03*
X132334000Y-50546000D03*
X127762000Y-54864000D03*
X136017000Y-60452000D03*
X137930500Y-55967000D03*
D33*
X135835000Y-46410000D02*
X135835000Y-48133000D01*
D34*
X137848500Y-47117000D02*
X136851000Y-47117000D01*
D33*
X138497000Y-43748000D02*
X135835000Y-46410000D01*
X138497000Y-41923000D02*
X138497000Y-43748000D01*
D34*
X136851000Y-47117000D02*
X135835000Y-48133000D01*
X139723500Y-47117000D02*
X139723500Y-49149000D01*
X130683000Y-65634000D02*
X130658000Y-65659000D01*
X130658000Y-64105000D02*
X130683000Y-64080000D01*
D33*
X137898500Y-50395500D02*
X140970000Y-53467000D01*
D34*
X132715000Y-64080000D02*
X130683000Y-64080000D01*
D33*
X137898500Y-49149000D02*
X137898500Y-50395500D01*
X113284000Y-77724000D02*
X115316000Y-75692000D01*
D34*
X132740000Y-64105000D02*
X132715000Y-64080000D01*
D33*
X113284000Y-78434600D02*
X113284000Y-77724000D01*
D34*
X130683000Y-64080000D02*
X130683000Y-65634000D01*
D33*
X117627000Y-75692000D02*
X115316000Y-75692000D01*
D34*
X121412000Y-76708000D02*
X121183000Y-76708000D01*
X120167000Y-77724000D02*
X119405000Y-77724000D01*
X121183000Y-76708000D02*
X120167000Y-77724000D01*
D33*
X113284000Y-75134600D02*
X113284000Y-72315600D01*
X121412000Y-74422000D02*
X121412000Y-76708000D01*
X113284000Y-72315600D02*
X113323000Y-72276600D01*
X119266600Y-72276600D02*
X121412000Y-74422000D01*
X113323000Y-72276600D02*
X119266600Y-72276600D01*
D34*
X128397000Y-49149000D02*
X130175000Y-49149000D01*
X123287000Y-75758000D02*
X123287000Y-75087000D01*
X134239000Y-54102000D02*
X133792000Y-53655000D01*
X133960000Y-49083000D02*
X133960000Y-49428000D01*
X127150500Y-77724000D02*
X127150500Y-78509500D01*
X109855000Y-59944000D02*
X108075191Y-61723809D01*
X133919000Y-57973000D02*
X134366000Y-58420000D01*
X130175000Y-49149000D02*
X131572000Y-50546000D01*
X133960000Y-49428000D02*
X132842000Y-50546000D01*
X108075191Y-61723809D02*
X108075191Y-63425000D01*
X127150500Y-78509500D02*
X127762000Y-79121000D01*
X131572000Y-50546000D02*
X132334000Y-50546000D01*
X133792000Y-53655000D02*
X132793500Y-53655000D01*
X126238000Y-51308000D02*
X128397000Y-49149000D01*
X128905000Y-56007000D02*
X127762000Y-54864000D01*
X111355500Y-59944000D02*
X109855000Y-59944000D01*
X129112000Y-53721000D02*
X128905000Y-53721000D01*
X129105750Y-56007000D02*
X128905000Y-56007000D01*
X122578500Y-51308000D02*
X126238000Y-51308000D01*
X132842000Y-50546000D02*
X132334000Y-50546000D01*
X128905000Y-53721000D02*
X127762000Y-54864000D01*
X132787250Y-57973000D02*
X133919000Y-57973000D01*
X123287000Y-75087000D02*
X123698000Y-74676000D01*
X142700200Y-39786000D02*
X143332200Y-40418000D01*
X130997000Y-41923000D02*
X133134000Y-39786000D01*
X133134000Y-39786000D02*
X142700200Y-39786000D01*
X139300200Y-40386000D02*
X143332200Y-44418000D01*
X135034000Y-40386000D02*
X139300200Y-40386000D01*
D33*
X120775191Y-48185000D02*
X124002191Y-44958000D01*
X120775191Y-51286309D02*
X120753500Y-51308000D01*
X120775191Y-48185000D02*
X120775191Y-51286309D01*
X120775191Y-51358891D02*
X120777000Y-51360700D01*
X130683000Y-44958000D02*
X133497000Y-42144000D01*
D34*
X133497000Y-41923000D02*
X135034000Y-40386000D01*
D33*
X133497000Y-42144000D02*
X133497000Y-41923000D01*
X124002191Y-44958000D02*
X130683000Y-44958000D01*
X118235191Y-48185000D02*
X118235191Y-45097609D01*
X118235191Y-45097609D02*
X121448200Y-41884600D01*
X115695191Y-48185000D02*
X115695191Y-45137609D01*
X115695191Y-45137609D02*
X118948200Y-41884600D01*
X107744000Y-72596000D02*
X110871000Y-69469000D01*
X107061000Y-72596000D02*
X107744000Y-72596000D01*
X113157000Y-63423191D02*
X113155191Y-63425000D01*
D34*
X113180500Y-59944000D02*
X113180500Y-63399691D01*
X113180500Y-63399691D02*
X113155191Y-63425000D01*
D33*
X110871000Y-69469000D02*
X110871000Y-65709191D01*
X110871000Y-65709191D02*
X113155191Y-63425000D01*
X105535191Y-43794409D02*
X107436600Y-41893000D01*
X105535191Y-48185000D02*
X105535191Y-43794409D01*
X108075191Y-48185000D02*
X108075191Y-43754409D01*
X108075191Y-43754409D02*
X109936600Y-41893000D01*
D34*
X130937000Y-51689000D02*
X132727500Y-51689000D01*
X130937000Y-53721000D02*
X130937000Y-51689000D01*
X132727500Y-51689000D02*
X132793500Y-51755000D01*
X132066000Y-47183000D02*
X132000000Y-47117000D01*
X133960000Y-47183000D02*
X132066000Y-47183000D01*
X132000000Y-47117000D02*
X132000000Y-49149000D01*
X130930750Y-56007000D02*
X132721250Y-56007000D01*
X130930750Y-58039000D02*
X130930750Y-56007000D01*
X132721250Y-56007000D02*
X132787250Y-56073000D01*
X125325500Y-75692000D02*
X125325500Y-77724000D01*
X125259500Y-77658000D02*
X125325500Y-77724000D01*
X123287000Y-77658000D02*
X125259500Y-77658000D01*
X123353000Y-77724000D02*
X123287000Y-77658000D01*
D33*
X125984000Y-55676191D02*
X125984000Y-54737000D01*
X118235191Y-63425000D02*
X125984000Y-55676191D01*
X125984000Y-54737000D02*
X129032000Y-51689000D01*
X129032000Y-51689000D02*
X129112000Y-51689000D01*
X125399191Y-46101000D02*
X129159000Y-46101000D01*
X129159000Y-46101000D02*
X130175000Y-47117000D01*
X123315191Y-48185000D02*
X125399191Y-46101000D01*
X120775191Y-63425000D02*
X126161191Y-58039000D01*
X126161191Y-58039000D02*
X129105750Y-58039000D01*
D34*
X122936000Y-67818000D02*
X127150500Y-72032500D01*
X127150500Y-72032500D02*
X127150500Y-75692000D01*
X120088191Y-67818000D02*
X122936000Y-67818000D01*
X115695191Y-63425000D02*
X120088191Y-67818000D01*
X117530000Y-77711000D02*
X119452000Y-75789000D01*
X119452000Y-75789000D02*
X119452000Y-75692000D01*
X117530000Y-77724000D02*
X117530000Y-77711000D01*
X137930500Y-55967000D02*
X140970000Y-55967000D01*
X134668500Y-52705000D02*
X137930500Y-55967000D01*
X134668500Y-52705000D02*
X134707000Y-52666500D01*
X134874000Y-62230000D02*
X134874000Y-61595000D01*
X134874000Y-61595000D02*
X136017000Y-60452000D01*
X134874000Y-64105000D02*
X134565000Y-64105000D01*
X134565000Y-64105000D02*
X132715000Y-62255000D01*
X136106250Y-58467000D02*
X140970000Y-58467000D01*
X134662250Y-57023000D02*
X136106250Y-58467000D01*
X128524000Y-62230000D02*
X130810000Y-59944000D01*
X130810000Y-59944000D02*
X134629250Y-59944000D01*
X134629250Y-59944000D02*
X136106250Y-58467000D01*
X134662250Y-57023000D02*
X134579250Y-57106000D01*
X134662250Y-57023000D02*
X134579250Y-56940000D01*
X128524000Y-64105000D02*
X128833000Y-64105000D01*
X128833000Y-64105000D02*
X130683000Y-62255000D01*
M02*
