G04 #@! TF.GenerationSoftware,KiCad,Pcbnew,(6.0.7)*
G04 #@! TF.CreationDate,2022-12-11T16:42:55+01:00*
G04 #@! TF.ProjectId,StartStop_PCB,53746172-7453-4746-9f70-5f5043422e6b,rev?*
G04 #@! TF.SameCoordinates,Original*
G04 #@! TF.FileFunction,Legend,Top*
G04 #@! TF.FilePolarity,Positive*
%FSLAX46Y46*%
G04 Gerber Fmt 4.6, Leading zero omitted, Abs format (unit mm)*
G04 Created by KiCad (PCBNEW (6.0.7)) date 2022-12-11 16:42:55*
%MOMM*%
%LPD*%
G01*
G04 APERTURE LIST*
G04 Aperture macros list*
%AMRoundRect*
0 Rectangle with rounded corners*
0 $1 Rounding radius*
0 $2 $3 $4 $5 $6 $7 $8 $9 X,Y pos of 4 corners*
0 Add a 4 corners polygon primitive as box body*
4,1,4,$2,$3,$4,$5,$6,$7,$8,$9,$2,$3,0*
0 Add four circle primitives for the rounded corners*
1,1,$1+$1,$2,$3*
1,1,$1+$1,$4,$5*
1,1,$1+$1,$6,$7*
1,1,$1+$1,$8,$9*
0 Add four rect primitives between the rounded corners*
20,1,$1+$1,$2,$3,$4,$5,0*
20,1,$1+$1,$4,$5,$6,$7,0*
20,1,$1+$1,$6,$7,$8,$9,0*
20,1,$1+$1,$8,$9,$2,$3,0*%
G04 Aperture macros list end*
%ADD10C,0.300000*%
G04 #@! TA.AperFunction,Profile*
%ADD11C,0.100000*%
G04 #@! TD*
%ADD12C,0.150000*%
%ADD13C,0.120000*%
%ADD14C,0.200000*%
%ADD15C,0.254000*%
%ADD16C,0.100000*%
%ADD17RoundRect,0.250000X-0.600000X-0.750000X0.600000X-0.750000X0.600000X0.750000X-0.600000X0.750000X0*%
%ADD18O,1.700000X2.000000*%
%ADD19RoundRect,0.250000X-0.262500X-0.450000X0.262500X-0.450000X0.262500X0.450000X-0.262500X0.450000X0*%
%ADD20C,1.270000*%
%ADD21RoundRect,0.250001X-0.759999X0.499999X-0.759999X-0.499999X0.759999X-0.499999X0.759999X0.499999X0*%
%ADD22O,2.020000X1.500000*%
%ADD23R,2.000000X1.200000*%
%ADD24RoundRect,0.250000X0.450000X-0.262500X0.450000X0.262500X-0.450000X0.262500X-0.450000X-0.262500X0*%
%ADD25RoundRect,0.250000X-0.725000X0.600000X-0.725000X-0.600000X0.725000X-0.600000X0.725000X0.600000X0*%
%ADD26O,1.950000X1.700000*%
%ADD27RoundRect,0.150000X-0.587500X-0.150000X0.587500X-0.150000X0.587500X0.150000X-0.587500X0.150000X0*%
%ADD28C,1.955800*%
%ADD29RoundRect,0.250000X-0.600000X-0.725000X0.600000X-0.725000X0.600000X0.725000X-0.600000X0.725000X0*%
%ADD30O,1.700000X1.950000*%
%ADD31RoundRect,0.243750X-0.456250X0.243750X-0.456250X-0.243750X0.456250X-0.243750X0.456250X0.243750X0*%
%ADD32C,3.200000*%
%ADD33RoundRect,0.250000X0.262500X0.450000X-0.262500X0.450000X-0.262500X-0.450000X0.262500X-0.450000X0*%
%ADD34RoundRect,0.150000X0.587500X0.150000X-0.587500X0.150000X-0.587500X-0.150000X0.587500X-0.150000X0*%
%ADD35RoundRect,0.243750X0.243750X0.456250X-0.243750X0.456250X-0.243750X-0.456250X0.243750X-0.456250X0*%
%ADD36R,1.200000X0.900000*%
%ADD37C,1.650000*%
%ADD38RoundRect,0.243750X-0.243750X-0.456250X0.243750X-0.456250X0.243750X0.456250X-0.243750X0.456250X0*%
%ADD39RoundRect,0.250001X0.759999X-0.499999X0.759999X0.499999X-0.759999X0.499999X-0.759999X-0.499999X0*%
G04 APERTURE END LIST*
D10*
X130769366Y-74464907D02*
X131635391Y-74964907D01*
X130328661Y-75942517D01*
X131994411Y-75914495D02*
X131906408Y-75781207D01*
X131880263Y-75683634D01*
X131889833Y-75524202D01*
X131925547Y-75462343D01*
X132058834Y-75374339D01*
X132156408Y-75348195D01*
X132315840Y-75357764D01*
X132563276Y-75500621D01*
X132651279Y-75633909D01*
X132677424Y-75731482D01*
X132667854Y-75890914D01*
X132632140Y-75952773D01*
X132498853Y-76040777D01*
X132401279Y-76066922D01*
X132241847Y-76057352D01*
X131994411Y-75914495D01*
X131834979Y-75904925D01*
X131737406Y-75931070D01*
X131604118Y-76019074D01*
X131461261Y-76266509D01*
X131451692Y-76425942D01*
X131477836Y-76523515D01*
X131565840Y-76656802D01*
X131813276Y-76799660D01*
X131972708Y-76809229D01*
X132070281Y-76783085D01*
X132203569Y-76695081D01*
X132346426Y-76447645D01*
X132355995Y-76288213D01*
X132329851Y-76190640D01*
X132241847Y-76057352D01*
X132617442Y-77263945D02*
X133367442Y-75964907D01*
X133174173Y-77585374D02*
X133567030Y-76904925D01*
X133576600Y-76745493D01*
X133488596Y-76612206D01*
X133303019Y-76505063D01*
X133143587Y-76495493D01*
X133046014Y-76521638D01*
X133864191Y-77818799D02*
X133890336Y-77916372D01*
X133792762Y-77942517D01*
X133766618Y-77844943D01*
X133864191Y-77818799D01*
X133792762Y-77942517D01*
X134968083Y-78621088D02*
X135718083Y-77322050D01*
X135003797Y-78559229D02*
X134844365Y-78549660D01*
X134596929Y-78406802D01*
X134508925Y-78273515D01*
X134482780Y-78175942D01*
X134492350Y-78016509D01*
X134706636Y-77645356D01*
X134839923Y-77557352D01*
X134937497Y-77531207D01*
X135096929Y-77540777D01*
X135344365Y-77683634D01*
X135432368Y-77816922D01*
X136117258Y-79202086D02*
X135957826Y-79192517D01*
X135710390Y-79049660D01*
X135622386Y-78916372D01*
X135631956Y-78756940D01*
X135917670Y-78262068D01*
X136050958Y-78174065D01*
X136210390Y-78183634D01*
X136457826Y-78326491D01*
X136545829Y-78459779D01*
X136536260Y-78619211D01*
X136464831Y-78742929D01*
X135774813Y-78509504D01*
D11*
X144000000Y-81000000D02*
G75*
G03*
X146000000Y-79000000I0J2000000D01*
G01*
X103000000Y-37000000D02*
G75*
G03*
X101000000Y-39000000I0J-2000000D01*
G01*
X146000000Y-79000000D02*
X146000000Y-39000000D01*
X144000000Y-37000000D02*
X103000000Y-37000000D01*
X101000000Y-39000000D02*
X101000000Y-79000000D01*
X146000000Y-39000000D02*
G75*
G03*
X144000000Y-37000000I-2000000J0D01*
G01*
X101000000Y-79000000D02*
G75*
G03*
X103000000Y-81000000I2000000J0D01*
G01*
X103000000Y-81000000D02*
X144000000Y-81000000D01*
D12*
X143505180Y-74345419D02*
X142505180Y-74345419D01*
X142505180Y-73964466D01*
X142552800Y-73869228D01*
X142600419Y-73821609D01*
X142695657Y-73773990D01*
X142838514Y-73773990D01*
X142933752Y-73821609D01*
X142981371Y-73869228D01*
X143028990Y-73964466D01*
X143028990Y-74345419D01*
X143505180Y-73202561D02*
X143457561Y-73297800D01*
X143409942Y-73345419D01*
X143314704Y-73393038D01*
X143028990Y-73393038D01*
X142933752Y-73345419D01*
X142886133Y-73297800D01*
X142838514Y-73202561D01*
X142838514Y-73059704D01*
X142886133Y-72964466D01*
X142933752Y-72916847D01*
X143028990Y-72869228D01*
X143314704Y-72869228D01*
X143409942Y-72916847D01*
X143457561Y-72964466D01*
X143505180Y-73059704D01*
X143505180Y-73202561D01*
X142838514Y-72535895D02*
X143505180Y-72345419D01*
X143028990Y-72154942D01*
X143505180Y-71964466D01*
X142838514Y-71773990D01*
X143457561Y-71012085D02*
X143505180Y-71107323D01*
X143505180Y-71297800D01*
X143457561Y-71393038D01*
X143362323Y-71440657D01*
X142981371Y-71440657D01*
X142886133Y-71393038D01*
X142838514Y-71297800D01*
X142838514Y-71107323D01*
X142886133Y-71012085D01*
X142981371Y-70964466D01*
X143076609Y-70964466D01*
X143171847Y-71440657D01*
X143505180Y-70535895D02*
X142838514Y-70535895D01*
X143028990Y-70535895D02*
X142933752Y-70488276D01*
X142886133Y-70440657D01*
X142838514Y-70345419D01*
X142838514Y-70250180D01*
X143505180Y-69154942D02*
X142505180Y-69154942D01*
X142838514Y-68678752D02*
X143505180Y-68678752D01*
X142933752Y-68678752D02*
X142886133Y-68631133D01*
X142838514Y-68535895D01*
X142838514Y-68393038D01*
X142886133Y-68297800D01*
X142981371Y-68250180D01*
X143505180Y-68250180D01*
X110976190Y-38095238D02*
X110833333Y-38047619D01*
X110595238Y-38047619D01*
X110500000Y-38095238D01*
X110452380Y-38142857D01*
X110404761Y-38238095D01*
X110404761Y-38333333D01*
X110452380Y-38428571D01*
X110500000Y-38476190D01*
X110595238Y-38523809D01*
X110785714Y-38571428D01*
X110880952Y-38619047D01*
X110928571Y-38666666D01*
X110976190Y-38761904D01*
X110976190Y-38857142D01*
X110928571Y-38952380D01*
X110880952Y-39000000D01*
X110785714Y-39047619D01*
X110547619Y-39047619D01*
X110404761Y-39000000D01*
X109595238Y-38095238D02*
X109690476Y-38047619D01*
X109880952Y-38047619D01*
X109976190Y-38095238D01*
X110023809Y-38190476D01*
X110023809Y-38571428D01*
X109976190Y-38666666D01*
X109880952Y-38714285D01*
X109690476Y-38714285D01*
X109595238Y-38666666D01*
X109547619Y-38571428D01*
X109547619Y-38476190D01*
X110023809Y-38380952D01*
X109119047Y-38047619D02*
X109119047Y-38714285D01*
X109119047Y-38523809D02*
X109071428Y-38619047D01*
X109023809Y-38666666D01*
X108928571Y-38714285D01*
X108833333Y-38714285D01*
X108500000Y-38047619D02*
X108500000Y-38714285D01*
X108500000Y-39047619D02*
X108547619Y-39000000D01*
X108500000Y-38952380D01*
X108452380Y-39000000D01*
X108500000Y-39047619D01*
X108500000Y-38952380D01*
X107595238Y-38047619D02*
X107595238Y-38571428D01*
X107642857Y-38666666D01*
X107738095Y-38714285D01*
X107928571Y-38714285D01*
X108023809Y-38666666D01*
X107595238Y-38095238D02*
X107690476Y-38047619D01*
X107928571Y-38047619D01*
X108023809Y-38095238D01*
X108071428Y-38190476D01*
X108071428Y-38285714D01*
X108023809Y-38380952D01*
X107928571Y-38428571D01*
X107690476Y-38428571D01*
X107595238Y-38476190D01*
X106976190Y-38047619D02*
X107071428Y-38095238D01*
X107119047Y-38190476D01*
X107119047Y-39047619D01*
X120976190Y-38047619D02*
X120976190Y-39047619D01*
X120547619Y-38952380D02*
X120500000Y-39000000D01*
X120404761Y-39047619D01*
X120166666Y-39047619D01*
X120071428Y-39000000D01*
X120023809Y-38952380D01*
X119976190Y-38857142D01*
X119976190Y-38761904D01*
X120023809Y-38619047D01*
X120595238Y-38047619D01*
X119976190Y-38047619D01*
X118976190Y-38142857D02*
X119023809Y-38095238D01*
X119166666Y-38047619D01*
X119261904Y-38047619D01*
X119404761Y-38095238D01*
X119500000Y-38190476D01*
X119547619Y-38285714D01*
X119595238Y-38476190D01*
X119595238Y-38619047D01*
X119547619Y-38809523D01*
X119500000Y-38904761D01*
X119404761Y-39000000D01*
X119261904Y-39047619D01*
X119166666Y-39047619D01*
X119023809Y-39000000D01*
X118976190Y-38952380D01*
X136357142Y-38571428D02*
X136214285Y-38523809D01*
X136166666Y-38476190D01*
X136119047Y-38380952D01*
X136119047Y-38238095D01*
X136166666Y-38142857D01*
X136214285Y-38095238D01*
X136309523Y-38047619D01*
X136690476Y-38047619D01*
X136690476Y-39047619D01*
X136357142Y-39047619D01*
X136261904Y-39000000D01*
X136214285Y-38952380D01*
X136166666Y-38857142D01*
X136166666Y-38761904D01*
X136214285Y-38666666D01*
X136261904Y-38619047D01*
X136357142Y-38571428D01*
X136690476Y-38571428D01*
X135261904Y-38714285D02*
X135261904Y-38047619D01*
X135690476Y-38714285D02*
X135690476Y-38190476D01*
X135642857Y-38095238D01*
X135547619Y-38047619D01*
X135404761Y-38047619D01*
X135309523Y-38095238D01*
X135261904Y-38142857D01*
X134928571Y-38714285D02*
X134547619Y-38714285D01*
X134785714Y-39047619D02*
X134785714Y-38190476D01*
X134738095Y-38095238D01*
X134642857Y-38047619D01*
X134547619Y-38047619D01*
X134357142Y-38714285D02*
X133976190Y-38714285D01*
X134214285Y-39047619D02*
X134214285Y-38190476D01*
X134166666Y-38095238D01*
X134071428Y-38047619D01*
X133976190Y-38047619D01*
X133500000Y-38047619D02*
X133595238Y-38095238D01*
X133642857Y-38142857D01*
X133690476Y-38238095D01*
X133690476Y-38523809D01*
X133642857Y-38619047D01*
X133595238Y-38666666D01*
X133500000Y-38714285D01*
X133357142Y-38714285D01*
X133261904Y-38666666D01*
X133214285Y-38619047D01*
X133166666Y-38523809D01*
X133166666Y-38238095D01*
X133214285Y-38142857D01*
X133261904Y-38095238D01*
X133357142Y-38047619D01*
X133500000Y-38047619D01*
X132738095Y-38714285D02*
X132738095Y-38047619D01*
X132738095Y-38619047D02*
X132690476Y-38666666D01*
X132595238Y-38714285D01*
X132452380Y-38714285D01*
X132357142Y-38666666D01*
X132309523Y-38571428D01*
X132309523Y-38047619D01*
X103230419Y-68567752D02*
X104230419Y-68567752D01*
X104230419Y-68948704D01*
X104182800Y-69043942D01*
X104135180Y-69091561D01*
X104039942Y-69139180D01*
X103897085Y-69139180D01*
X103801847Y-69091561D01*
X103754228Y-69043942D01*
X103706609Y-68948704D01*
X103706609Y-68567752D01*
X103230419Y-69710609D02*
X103278038Y-69615371D01*
X103325657Y-69567752D01*
X103420895Y-69520133D01*
X103706609Y-69520133D01*
X103801847Y-69567752D01*
X103849466Y-69615371D01*
X103897085Y-69710609D01*
X103897085Y-69853466D01*
X103849466Y-69948704D01*
X103801847Y-69996323D01*
X103706609Y-70043942D01*
X103420895Y-70043942D01*
X103325657Y-69996323D01*
X103278038Y-69948704D01*
X103230419Y-69853466D01*
X103230419Y-69710609D01*
X103897085Y-70377276D02*
X103230419Y-70567752D01*
X103706609Y-70758228D01*
X103230419Y-70948704D01*
X103897085Y-71139180D01*
X103278038Y-71901085D02*
X103230419Y-71805847D01*
X103230419Y-71615371D01*
X103278038Y-71520133D01*
X103373276Y-71472514D01*
X103754228Y-71472514D01*
X103849466Y-71520133D01*
X103897085Y-71615371D01*
X103897085Y-71805847D01*
X103849466Y-71901085D01*
X103754228Y-71948704D01*
X103658990Y-71948704D01*
X103563752Y-71472514D01*
X103230419Y-72377276D02*
X103897085Y-72377276D01*
X103706609Y-72377276D02*
X103801847Y-72424895D01*
X103849466Y-72472514D01*
X103897085Y-72567752D01*
X103897085Y-72662990D01*
X104230419Y-73948704D02*
X104230419Y-74139180D01*
X104182800Y-74234419D01*
X104087561Y-74329657D01*
X103897085Y-74377276D01*
X103563752Y-74377276D01*
X103373276Y-74329657D01*
X103278038Y-74234419D01*
X103230419Y-74139180D01*
X103230419Y-73948704D01*
X103278038Y-73853466D01*
X103373276Y-73758228D01*
X103563752Y-73710609D01*
X103897085Y-73710609D01*
X104087561Y-73758228D01*
X104182800Y-73853466D01*
X104230419Y-73948704D01*
X103897085Y-75234419D02*
X103230419Y-75234419D01*
X103897085Y-74805847D02*
X103373276Y-74805847D01*
X103278038Y-74853466D01*
X103230419Y-74948704D01*
X103230419Y-75091561D01*
X103278038Y-75186800D01*
X103325657Y-75234419D01*
X103897085Y-75567752D02*
X103897085Y-75948704D01*
X104230419Y-75710609D02*
X103373276Y-75710609D01*
X103278038Y-75758228D01*
X103230419Y-75853466D01*
X103230419Y-75948704D01*
X110621000Y-43607485D02*
X110621000Y-44143200D01*
X110585285Y-44250342D01*
X110513857Y-44321771D01*
X110406714Y-44357485D01*
X110335285Y-44357485D01*
X111299571Y-43607485D02*
X111156714Y-43607485D01*
X111085285Y-43643200D01*
X111049571Y-43678914D01*
X110978142Y-43786057D01*
X110942428Y-43928914D01*
X110942428Y-44214628D01*
X110978142Y-44286057D01*
X111013857Y-44321771D01*
X111085285Y-44357485D01*
X111228142Y-44357485D01*
X111299571Y-44321771D01*
X111335285Y-44286057D01*
X111371000Y-44214628D01*
X111371000Y-44036057D01*
X111335285Y-43964628D01*
X111299571Y-43928914D01*
X111228142Y-43893200D01*
X111085285Y-43893200D01*
X111013857Y-43928914D01*
X110978142Y-43964628D01*
X110942428Y-44036057D01*
X128101285Y-51814000D02*
X127744142Y-52064000D01*
X128101285Y-52242571D02*
X127351285Y-52242571D01*
X127351285Y-51956857D01*
X127387000Y-51885428D01*
X127422714Y-51849714D01*
X127494142Y-51814000D01*
X127601285Y-51814000D01*
X127672714Y-51849714D01*
X127708428Y-51885428D01*
X127744142Y-51956857D01*
X127744142Y-52242571D01*
X127422714Y-51528285D02*
X127387000Y-51492571D01*
X127351285Y-51421142D01*
X127351285Y-51242571D01*
X127387000Y-51171142D01*
X127422714Y-51135428D01*
X127494142Y-51099714D01*
X127565571Y-51099714D01*
X127672714Y-51135428D01*
X128101285Y-51564000D01*
X128101285Y-51099714D01*
X105668000Y-66467485D02*
X105668000Y-67003200D01*
X105632285Y-67110342D01*
X105560857Y-67181771D01*
X105453714Y-67217485D01*
X105382285Y-67217485D01*
X106382285Y-66467485D02*
X106025142Y-66467485D01*
X105989428Y-66824628D01*
X106025142Y-66788914D01*
X106096571Y-66753200D01*
X106275142Y-66753200D01*
X106346571Y-66788914D01*
X106382285Y-66824628D01*
X106418000Y-66896057D01*
X106418000Y-67074628D01*
X106382285Y-67146057D01*
X106346571Y-67181771D01*
X106275142Y-67217485D01*
X106096571Y-67217485D01*
X106025142Y-67181771D01*
X105989428Y-67146057D01*
X133054285Y-60807142D02*
X132697142Y-61057142D01*
X133054285Y-61235714D02*
X132304285Y-61235714D01*
X132304285Y-60950000D01*
X132340000Y-60878571D01*
X132375714Y-60842857D01*
X132447142Y-60807142D01*
X132554285Y-60807142D01*
X132625714Y-60842857D01*
X132661428Y-60878571D01*
X132697142Y-60950000D01*
X132697142Y-61235714D01*
X133054285Y-60092857D02*
X133054285Y-60521428D01*
X133054285Y-60307142D02*
X132304285Y-60307142D01*
X132411428Y-60378571D01*
X132482857Y-60450000D01*
X132518571Y-60521428D01*
X132304285Y-59842857D02*
X132304285Y-59378571D01*
X132590000Y-59628571D01*
X132590000Y-59521428D01*
X132625714Y-59450000D01*
X132661428Y-59414285D01*
X132732857Y-59378571D01*
X132911428Y-59378571D01*
X132982857Y-59414285D01*
X133018571Y-59450000D01*
X133054285Y-59521428D01*
X133054285Y-59735714D01*
X133018571Y-59807142D01*
X132982857Y-59842857D01*
X138789600Y-52040285D02*
X138789600Y-52576000D01*
X138753885Y-52683142D01*
X138682457Y-52754571D01*
X138575314Y-52790285D01*
X138503885Y-52790285D01*
X139539600Y-52790285D02*
X139111028Y-52790285D01*
X139325314Y-52790285D02*
X139325314Y-52040285D01*
X139253885Y-52147428D01*
X139182457Y-52218857D01*
X139111028Y-52254571D01*
X128966785Y-78206142D02*
X128609642Y-78456142D01*
X128966785Y-78634714D02*
X128216785Y-78634714D01*
X128216785Y-78349000D01*
X128252500Y-78277571D01*
X128288214Y-78241857D01*
X128359642Y-78206142D01*
X128466785Y-78206142D01*
X128538214Y-78241857D01*
X128573928Y-78277571D01*
X128609642Y-78349000D01*
X128609642Y-78634714D01*
X128966785Y-77491857D02*
X128966785Y-77920428D01*
X128966785Y-77706142D02*
X128216785Y-77706142D01*
X128323928Y-77777571D01*
X128395357Y-77849000D01*
X128431071Y-77920428D01*
X128216785Y-77027571D02*
X128216785Y-76956142D01*
X128252500Y-76884714D01*
X128288214Y-76849000D01*
X128359642Y-76813285D01*
X128502500Y-76777571D01*
X128681071Y-76777571D01*
X128823928Y-76813285D01*
X128895357Y-76849000D01*
X128931071Y-76884714D01*
X128966785Y-76956142D01*
X128966785Y-77027571D01*
X128931071Y-77099000D01*
X128895357Y-77134714D01*
X128823928Y-77170428D01*
X128681071Y-77206142D01*
X128502500Y-77206142D01*
X128359642Y-77170428D01*
X128288214Y-77134714D01*
X128252500Y-77099000D01*
X128216785Y-77027571D01*
X134827971Y-50829714D02*
X134756542Y-50794000D01*
X134685114Y-50722571D01*
X134577971Y-50615428D01*
X134506542Y-50579714D01*
X134435114Y-50579714D01*
X134470828Y-50758285D02*
X134399400Y-50722571D01*
X134327971Y-50651142D01*
X134292257Y-50508285D01*
X134292257Y-50258285D01*
X134327971Y-50115428D01*
X134399400Y-50044000D01*
X134470828Y-50008285D01*
X134613685Y-50008285D01*
X134685114Y-50044000D01*
X134756542Y-50115428D01*
X134792257Y-50258285D01*
X134792257Y-50508285D01*
X134756542Y-50651142D01*
X134685114Y-50722571D01*
X134613685Y-50758285D01*
X134470828Y-50758285D01*
X135077971Y-50079714D02*
X135113685Y-50044000D01*
X135185114Y-50008285D01*
X135363685Y-50008285D01*
X135435114Y-50044000D01*
X135470828Y-50079714D01*
X135506542Y-50151142D01*
X135506542Y-50222571D01*
X135470828Y-50329714D01*
X135042257Y-50758285D01*
X135506542Y-50758285D01*
X136630914Y-57094428D02*
X136595200Y-57165857D01*
X136523771Y-57237285D01*
X136416628Y-57344428D01*
X136380914Y-57415857D01*
X136380914Y-57487285D01*
X136559485Y-57451571D02*
X136523771Y-57523000D01*
X136452342Y-57594428D01*
X136309485Y-57630142D01*
X136059485Y-57630142D01*
X135916628Y-57594428D01*
X135845200Y-57523000D01*
X135809485Y-57451571D01*
X135809485Y-57308714D01*
X135845200Y-57237285D01*
X135916628Y-57165857D01*
X136059485Y-57130142D01*
X136309485Y-57130142D01*
X136452342Y-57165857D01*
X136523771Y-57237285D01*
X136559485Y-57308714D01*
X136559485Y-57451571D01*
X135809485Y-56880142D02*
X135809485Y-56415857D01*
X136095200Y-56665857D01*
X136095200Y-56558714D01*
X136130914Y-56487285D01*
X136166628Y-56451571D01*
X136238057Y-56415857D01*
X136416628Y-56415857D01*
X136488057Y-56451571D01*
X136523771Y-56487285D01*
X136559485Y-56558714D01*
X136559485Y-56773000D01*
X136523771Y-56844428D01*
X136488057Y-56880142D01*
X141332785Y-49274000D02*
X140975642Y-49524000D01*
X141332785Y-49702571D02*
X140582785Y-49702571D01*
X140582785Y-49416857D01*
X140618500Y-49345428D01*
X140654214Y-49309714D01*
X140725642Y-49274000D01*
X140832785Y-49274000D01*
X140904214Y-49309714D01*
X140939928Y-49345428D01*
X140975642Y-49416857D01*
X140975642Y-49702571D01*
X140582785Y-49024000D02*
X140582785Y-48559714D01*
X140868500Y-48809714D01*
X140868500Y-48702571D01*
X140904214Y-48631142D01*
X140939928Y-48595428D01*
X141011357Y-48559714D01*
X141189928Y-48559714D01*
X141261357Y-48595428D01*
X141297071Y-48631142D01*
X141332785Y-48702571D01*
X141332785Y-48916857D01*
X141297071Y-48988285D01*
X141261357Y-49024000D01*
X124641800Y-43632885D02*
X124641800Y-44168600D01*
X124606085Y-44275742D01*
X124534657Y-44347171D01*
X124427514Y-44382885D01*
X124356085Y-44382885D01*
X124927514Y-43632885D02*
X125391800Y-43632885D01*
X125141800Y-43918600D01*
X125248942Y-43918600D01*
X125320371Y-43954314D01*
X125356085Y-43990028D01*
X125391800Y-44061457D01*
X125391800Y-44240028D01*
X125356085Y-44311457D01*
X125320371Y-44347171D01*
X125248942Y-44382885D01*
X125034657Y-44382885D01*
X124963228Y-44347171D01*
X124927514Y-44311457D01*
X135213285Y-61132571D02*
X134463285Y-61132571D01*
X134463285Y-60954000D01*
X134499000Y-60846857D01*
X134570428Y-60775428D01*
X134641857Y-60739714D01*
X134784714Y-60704000D01*
X134891857Y-60704000D01*
X135034714Y-60739714D01*
X135106142Y-60775428D01*
X135177571Y-60846857D01*
X135213285Y-60954000D01*
X135213285Y-61132571D01*
X134713285Y-60061142D02*
X135213285Y-60061142D01*
X134427571Y-60239714D02*
X134963285Y-60418285D01*
X134963285Y-59954000D01*
X128101285Y-58164000D02*
X127744142Y-58414000D01*
X128101285Y-58592571D02*
X127351285Y-58592571D01*
X127351285Y-58306857D01*
X127387000Y-58235428D01*
X127422714Y-58199714D01*
X127494142Y-58164000D01*
X127601285Y-58164000D01*
X127672714Y-58199714D01*
X127708428Y-58235428D01*
X127744142Y-58306857D01*
X127744142Y-58592571D01*
X127351285Y-57914000D02*
X127351285Y-57414000D01*
X128101285Y-57735428D01*
X116592785Y-76174142D02*
X116235642Y-76424142D01*
X116592785Y-76602714D02*
X115842785Y-76602714D01*
X115842785Y-76317000D01*
X115878500Y-76245571D01*
X115914214Y-76209857D01*
X115985642Y-76174142D01*
X116092785Y-76174142D01*
X116164214Y-76209857D01*
X116199928Y-76245571D01*
X116235642Y-76317000D01*
X116235642Y-76602714D01*
X116592785Y-75459857D02*
X116592785Y-75888428D01*
X116592785Y-75674142D02*
X115842785Y-75674142D01*
X115949928Y-75745571D01*
X116021357Y-75817000D01*
X116057071Y-75888428D01*
X115914214Y-75174142D02*
X115878500Y-75138428D01*
X115842785Y-75067000D01*
X115842785Y-74888428D01*
X115878500Y-74817000D01*
X115914214Y-74781285D01*
X115985642Y-74745571D01*
X116057071Y-74745571D01*
X116164214Y-74781285D01*
X116592785Y-75209857D01*
X116592785Y-74745571D01*
X129140785Y-49274000D02*
X128783642Y-49524000D01*
X129140785Y-49702571D02*
X128390785Y-49702571D01*
X128390785Y-49416857D01*
X128426500Y-49345428D01*
X128462214Y-49309714D01*
X128533642Y-49274000D01*
X128640785Y-49274000D01*
X128712214Y-49309714D01*
X128747928Y-49345428D01*
X128783642Y-49416857D01*
X128783642Y-49702571D01*
X128390785Y-48631142D02*
X128390785Y-48774000D01*
X128426500Y-48845428D01*
X128462214Y-48881142D01*
X128569357Y-48952571D01*
X128712214Y-48988285D01*
X128997928Y-48988285D01*
X129069357Y-48952571D01*
X129105071Y-48916857D01*
X129140785Y-48845428D01*
X129140785Y-48702571D01*
X129105071Y-48631142D01*
X129069357Y-48595428D01*
X128997928Y-48559714D01*
X128819357Y-48559714D01*
X128747928Y-48595428D01*
X128712214Y-48631142D01*
X128676500Y-48702571D01*
X128676500Y-48845428D01*
X128712214Y-48916857D01*
X128747928Y-48952571D01*
X128819357Y-48988285D01*
X128101285Y-56132000D02*
X127744142Y-56382000D01*
X128101285Y-56560571D02*
X127351285Y-56560571D01*
X127351285Y-56274857D01*
X127387000Y-56203428D01*
X127422714Y-56167714D01*
X127494142Y-56132000D01*
X127601285Y-56132000D01*
X127672714Y-56167714D01*
X127708428Y-56203428D01*
X127744142Y-56274857D01*
X127744142Y-56560571D01*
X128101285Y-55774857D02*
X128101285Y-55632000D01*
X128065571Y-55560571D01*
X128029857Y-55524857D01*
X127922714Y-55453428D01*
X127779857Y-55417714D01*
X127494142Y-55417714D01*
X127422714Y-55453428D01*
X127387000Y-55489142D01*
X127351285Y-55560571D01*
X127351285Y-55703428D01*
X127387000Y-55774857D01*
X127422714Y-55810571D01*
X127494142Y-55846285D01*
X127672714Y-55846285D01*
X127744142Y-55810571D01*
X127779857Y-55774857D01*
X127815571Y-55703428D01*
X127815571Y-55560571D01*
X127779857Y-55489142D01*
X127744142Y-55453428D01*
X127672714Y-55417714D01*
X128966785Y-75817000D02*
X128609642Y-76067000D01*
X128966785Y-76245571D02*
X128216785Y-76245571D01*
X128216785Y-75959857D01*
X128252500Y-75888428D01*
X128288214Y-75852714D01*
X128359642Y-75817000D01*
X128466785Y-75817000D01*
X128538214Y-75852714D01*
X128573928Y-75888428D01*
X128609642Y-75959857D01*
X128609642Y-76245571D01*
X128538214Y-75388428D02*
X128502500Y-75459857D01*
X128466785Y-75495571D01*
X128395357Y-75531285D01*
X128359642Y-75531285D01*
X128288214Y-75495571D01*
X128252500Y-75459857D01*
X128216785Y-75388428D01*
X128216785Y-75245571D01*
X128252500Y-75174142D01*
X128288214Y-75138428D01*
X128359642Y-75102714D01*
X128395357Y-75102714D01*
X128466785Y-75138428D01*
X128502500Y-75174142D01*
X128538214Y-75245571D01*
X128538214Y-75388428D01*
X128573928Y-75459857D01*
X128609642Y-75495571D01*
X128681071Y-75531285D01*
X128823928Y-75531285D01*
X128895357Y-75495571D01*
X128931071Y-75459857D01*
X128966785Y-75388428D01*
X128966785Y-75245571D01*
X128931071Y-75174142D01*
X128895357Y-75138428D01*
X128823928Y-75102714D01*
X128681071Y-75102714D01*
X128609642Y-75138428D01*
X128573928Y-75174142D01*
X128538214Y-75245571D01*
X122254571Y-79658714D02*
X122183142Y-79623000D01*
X122111714Y-79551571D01*
X122004571Y-79444428D01*
X121933142Y-79408714D01*
X121861714Y-79408714D01*
X121897428Y-79587285D02*
X121826000Y-79551571D01*
X121754571Y-79480142D01*
X121718857Y-79337285D01*
X121718857Y-79087285D01*
X121754571Y-78944428D01*
X121826000Y-78873000D01*
X121897428Y-78837285D01*
X122040285Y-78837285D01*
X122111714Y-78873000D01*
X122183142Y-78944428D01*
X122218857Y-79087285D01*
X122218857Y-79337285D01*
X122183142Y-79480142D01*
X122111714Y-79551571D01*
X122040285Y-79587285D01*
X121897428Y-79587285D01*
X122861714Y-79087285D02*
X122861714Y-79587285D01*
X122683142Y-78801571D02*
X122504571Y-79337285D01*
X122968857Y-79337285D01*
X116520785Y-78277571D02*
X115770785Y-78277571D01*
X115770785Y-78099000D01*
X115806500Y-77991857D01*
X115877928Y-77920428D01*
X115949357Y-77884714D01*
X116092214Y-77849000D01*
X116199357Y-77849000D01*
X116342214Y-77884714D01*
X116413642Y-77920428D01*
X116485071Y-77991857D01*
X116520785Y-78099000D01*
X116520785Y-78277571D01*
X115770785Y-77599000D02*
X115770785Y-77134714D01*
X116056500Y-77384714D01*
X116056500Y-77277571D01*
X116092214Y-77206142D01*
X116127928Y-77170428D01*
X116199357Y-77134714D01*
X116377928Y-77134714D01*
X116449357Y-77170428D01*
X116485071Y-77206142D01*
X116520785Y-77277571D01*
X116520785Y-77491857D01*
X116485071Y-77563285D01*
X116449357Y-77599000D01*
X139196000Y-43683685D02*
X139196000Y-44219400D01*
X139160285Y-44326542D01*
X139088857Y-44397971D01*
X138981714Y-44433685D01*
X138910285Y-44433685D01*
X139517428Y-43755114D02*
X139553142Y-43719400D01*
X139624571Y-43683685D01*
X139803142Y-43683685D01*
X139874571Y-43719400D01*
X139910285Y-43755114D01*
X139946000Y-43826542D01*
X139946000Y-43897971D01*
X139910285Y-44005114D01*
X139481714Y-44433685D01*
X139946000Y-44433685D01*
X128101285Y-53846000D02*
X127744142Y-54096000D01*
X128101285Y-54274571D02*
X127351285Y-54274571D01*
X127351285Y-53988857D01*
X127387000Y-53917428D01*
X127422714Y-53881714D01*
X127494142Y-53846000D01*
X127601285Y-53846000D01*
X127672714Y-53881714D01*
X127708428Y-53917428D01*
X127744142Y-53988857D01*
X127744142Y-54274571D01*
X127601285Y-53203142D02*
X128101285Y-53203142D01*
X127315571Y-53381714D02*
X127851285Y-53560285D01*
X127851285Y-53096000D01*
X115401285Y-77338171D02*
X114651285Y-77338171D01*
X114651285Y-77159600D01*
X114687000Y-77052457D01*
X114758428Y-76981028D01*
X114829857Y-76945314D01*
X114972714Y-76909600D01*
X115079857Y-76909600D01*
X115222714Y-76945314D01*
X115294142Y-76981028D01*
X115365571Y-77052457D01*
X115401285Y-77159600D01*
X115401285Y-77338171D01*
X114722714Y-76623885D02*
X114687000Y-76588171D01*
X114651285Y-76516742D01*
X114651285Y-76338171D01*
X114687000Y-76266742D01*
X114722714Y-76231028D01*
X114794142Y-76195314D01*
X114865571Y-76195314D01*
X114972714Y-76231028D01*
X115401285Y-76659600D01*
X115401285Y-76195314D01*
X131022285Y-60807142D02*
X130665142Y-61057142D01*
X131022285Y-61235714D02*
X130272285Y-61235714D01*
X130272285Y-60950000D01*
X130308000Y-60878571D01*
X130343714Y-60842857D01*
X130415142Y-60807142D01*
X130522285Y-60807142D01*
X130593714Y-60842857D01*
X130629428Y-60878571D01*
X130665142Y-60950000D01*
X130665142Y-61235714D01*
X131022285Y-60092857D02*
X131022285Y-60521428D01*
X131022285Y-60307142D02*
X130272285Y-60307142D01*
X130379428Y-60378571D01*
X130450857Y-60450000D01*
X130486571Y-60521428D01*
X130522285Y-59450000D02*
X131022285Y-59450000D01*
X130236571Y-59628571D02*
X130772285Y-59807142D01*
X130772285Y-59342857D01*
X129140785Y-47267400D02*
X128783642Y-47517400D01*
X129140785Y-47695971D02*
X128390785Y-47695971D01*
X128390785Y-47410257D01*
X128426500Y-47338828D01*
X128462214Y-47303114D01*
X128533642Y-47267400D01*
X128640785Y-47267400D01*
X128712214Y-47303114D01*
X128747928Y-47338828D01*
X128783642Y-47410257D01*
X128783642Y-47695971D01*
X128390785Y-46588828D02*
X128390785Y-46945971D01*
X128747928Y-46981685D01*
X128712214Y-46945971D01*
X128676500Y-46874542D01*
X128676500Y-46695971D01*
X128712214Y-46624542D01*
X128747928Y-46588828D01*
X128819357Y-46553114D01*
X128997928Y-46553114D01*
X129069357Y-46588828D01*
X129105071Y-46624542D01*
X129140785Y-46695971D01*
X129140785Y-46874542D01*
X129105071Y-46945971D01*
X129069357Y-46981685D01*
X111785857Y-58632285D02*
X111535857Y-58275142D01*
X111357285Y-58632285D02*
X111357285Y-57882285D01*
X111643000Y-57882285D01*
X111714428Y-57918000D01*
X111750142Y-57953714D01*
X111785857Y-58025142D01*
X111785857Y-58132285D01*
X111750142Y-58203714D01*
X111714428Y-58239428D01*
X111643000Y-58275142D01*
X111357285Y-58275142D01*
X112500142Y-58632285D02*
X112071571Y-58632285D01*
X112285857Y-58632285D02*
X112285857Y-57882285D01*
X112214428Y-57989428D01*
X112143000Y-58060857D01*
X112071571Y-58096571D01*
X113214428Y-58632285D02*
X112785857Y-58632285D01*
X113000142Y-58632285D02*
X113000142Y-57882285D01*
X112928714Y-57989428D01*
X112857285Y-58060857D01*
X112785857Y-58096571D01*
X131348628Y-67623885D02*
X131348628Y-66873885D01*
X131777200Y-67623885D02*
X131455771Y-67195314D01*
X131777200Y-66873885D02*
X131348628Y-67302457D01*
X132491485Y-67623885D02*
X132062914Y-67623885D01*
X132277200Y-67623885D02*
X132277200Y-66873885D01*
X132205771Y-66981028D01*
X132134342Y-67052457D01*
X132062914Y-67088171D01*
X128863285Y-61132571D02*
X128113285Y-61132571D01*
X128113285Y-60954000D01*
X128149000Y-60846857D01*
X128220428Y-60775428D01*
X128291857Y-60739714D01*
X128434714Y-60704000D01*
X128541857Y-60704000D01*
X128684714Y-60739714D01*
X128756142Y-60775428D01*
X128827571Y-60846857D01*
X128863285Y-60954000D01*
X128863285Y-61132571D01*
X128113285Y-60025428D02*
X128113285Y-60382571D01*
X128470428Y-60418285D01*
X128434714Y-60382571D01*
X128399000Y-60311142D01*
X128399000Y-60132571D01*
X128434714Y-60061142D01*
X128470428Y-60025428D01*
X128541857Y-59989714D01*
X128720428Y-59989714D01*
X128791857Y-60025428D01*
X128827571Y-60061142D01*
X128863285Y-60132571D01*
X128863285Y-60311142D01*
X128827571Y-60382571D01*
X128791857Y-60418285D01*
X136681714Y-52776428D02*
X136646000Y-52847857D01*
X136574571Y-52919285D01*
X136467428Y-53026428D01*
X136431714Y-53097857D01*
X136431714Y-53169285D01*
X136610285Y-53133571D02*
X136574571Y-53205000D01*
X136503142Y-53276428D01*
X136360285Y-53312142D01*
X136110285Y-53312142D01*
X135967428Y-53276428D01*
X135896000Y-53205000D01*
X135860285Y-53133571D01*
X135860285Y-52990714D01*
X135896000Y-52919285D01*
X135967428Y-52847857D01*
X136110285Y-52812142D01*
X136360285Y-52812142D01*
X136503142Y-52847857D01*
X136574571Y-52919285D01*
X136610285Y-52990714D01*
X136610285Y-53133571D01*
X136610285Y-52097857D02*
X136610285Y-52526428D01*
X136610285Y-52312142D02*
X135860285Y-52312142D01*
X135967428Y-52383571D01*
X136038857Y-52455000D01*
X136074571Y-52526428D01*
X141332785Y-47670571D02*
X140582785Y-47670571D01*
X140582785Y-47492000D01*
X140618500Y-47384857D01*
X140689928Y-47313428D01*
X140761357Y-47277714D01*
X140904214Y-47242000D01*
X141011357Y-47242000D01*
X141154214Y-47277714D01*
X141225642Y-47313428D01*
X141297071Y-47384857D01*
X141332785Y-47492000D01*
X141332785Y-47670571D01*
X141332785Y-46527714D02*
X141332785Y-46956285D01*
X141332785Y-46742000D02*
X140582785Y-46742000D01*
X140689928Y-46813428D01*
X140761357Y-46884857D01*
X140797071Y-46956285D01*
X140720000Y-66950085D02*
X140720000Y-67485800D01*
X140684285Y-67592942D01*
X140612857Y-67664371D01*
X140505714Y-67700085D01*
X140434285Y-67700085D01*
X141398571Y-67200085D02*
X141398571Y-67700085D01*
X141220000Y-66914371D02*
X141041428Y-67450085D01*
X141505714Y-67450085D01*
X121541000Y-53298285D02*
X121291000Y-52941142D01*
X121112428Y-53298285D02*
X121112428Y-52548285D01*
X121398142Y-52548285D01*
X121469571Y-52584000D01*
X121505285Y-52619714D01*
X121541000Y-52691142D01*
X121541000Y-52798285D01*
X121505285Y-52869714D01*
X121469571Y-52905428D01*
X121398142Y-52941142D01*
X121112428Y-52941142D01*
X122255285Y-53298285D02*
X121826714Y-53298285D01*
X122041000Y-53298285D02*
X122041000Y-52548285D01*
X121969571Y-52655428D01*
X121898142Y-52726857D01*
X121826714Y-52762571D01*
D13*
X109186600Y-40193000D02*
X109186600Y-39443000D01*
X112486600Y-40193000D02*
X112486600Y-39443000D01*
X105636600Y-41693000D02*
X105636600Y-44643000D01*
X108186600Y-39443000D02*
X108186600Y-40193000D01*
X104886600Y-41693000D02*
X105636600Y-41693000D01*
X108186600Y-40193000D02*
X109186600Y-40193000D01*
X112486600Y-41693000D02*
X111736600Y-41693000D01*
X112496600Y-45403000D02*
X112496600Y-39433000D01*
X106686600Y-40193000D02*
X106686600Y-39443000D01*
X105836600Y-39143000D02*
X104586600Y-39143000D01*
X111736600Y-44643000D02*
X108686600Y-44643000D01*
X105636600Y-44643000D02*
X108686600Y-44643000D01*
X106686600Y-39443000D02*
X104886600Y-39443000D01*
X109186600Y-39443000D02*
X108186600Y-39443000D01*
X104876600Y-39433000D02*
X104876600Y-45403000D01*
X111736600Y-41693000D02*
X111736600Y-44643000D01*
X112486600Y-39443000D02*
X110686600Y-39443000D01*
X110686600Y-39443000D02*
X110686600Y-40193000D01*
X112496600Y-39433000D02*
X104876600Y-39433000D01*
X104876600Y-45403000D02*
X112496600Y-45403000D01*
X104886600Y-39443000D02*
X104886600Y-40193000D01*
X104886600Y-40193000D02*
X106686600Y-40193000D01*
X104586600Y-39143000D02*
X104586600Y-40393000D01*
X110686600Y-40193000D02*
X112486600Y-40193000D01*
X129797436Y-52424000D02*
X130251564Y-52424000D01*
X129797436Y-50954000D02*
X130251564Y-50954000D01*
X109641000Y-77611000D02*
X109641000Y-77591000D01*
X109641000Y-67601000D02*
X109641000Y-67581000D01*
X105051000Y-79031000D02*
X108126000Y-79031000D01*
X109141000Y-77611000D02*
X109641000Y-77611000D01*
X109141000Y-67581000D02*
X109141000Y-77611000D01*
X105051000Y-66161000D02*
X105051000Y-79031000D01*
X109641000Y-67581000D02*
X109141000Y-67581000D01*
X108126000Y-66161000D02*
X105051000Y-66161000D01*
X142232200Y-40768000D02*
X141932200Y-40768000D01*
X144732200Y-40768000D02*
X144732200Y-44068000D01*
X144732200Y-44068000D02*
X144432200Y-44068000D01*
X141932200Y-44068000D02*
X142232200Y-44068000D01*
X141932200Y-40768000D02*
X141932200Y-44068000D01*
X144432200Y-40768000D02*
X144732200Y-40768000D01*
X131980000Y-63394564D02*
X131980000Y-62940436D01*
X133450000Y-63394564D02*
X133450000Y-62940436D01*
X142670000Y-63517000D02*
X143420000Y-63517000D01*
X143420000Y-54217000D02*
X142670000Y-54217000D01*
X141170000Y-51667000D02*
X138220000Y-51667000D01*
X143420000Y-50917000D02*
X142670000Y-50917000D01*
X143420000Y-52717000D02*
X143420000Y-50917000D01*
X141170000Y-50917000D02*
X141170000Y-51667000D01*
X142670000Y-54217000D02*
X142670000Y-60217000D01*
X141170000Y-62767000D02*
X138220000Y-62767000D01*
X137460000Y-63527000D02*
X143430000Y-63527000D01*
X143420000Y-63517000D02*
X143420000Y-61717000D01*
X143430000Y-63527000D02*
X143430000Y-50907000D01*
X137460000Y-50907000D02*
X137460000Y-63527000D01*
X142670000Y-50917000D02*
X142670000Y-52717000D01*
X138220000Y-51667000D02*
X138220000Y-57217000D01*
X138220000Y-62767000D02*
X138220000Y-57217000D01*
X142670000Y-60217000D02*
X143420000Y-60217000D01*
X143720000Y-50617000D02*
X142470000Y-50617000D01*
X143430000Y-50907000D02*
X137460000Y-50907000D01*
X143420000Y-61717000D02*
X142670000Y-61717000D01*
X143720000Y-51867000D02*
X143720000Y-50617000D01*
X142670000Y-61717000D02*
X142670000Y-63517000D01*
X142670000Y-52717000D02*
X143420000Y-52717000D01*
X143420000Y-60217000D02*
X143420000Y-54217000D01*
X141170000Y-63517000D02*
X141170000Y-62767000D01*
X126010936Y-78459000D02*
X126465064Y-78459000D01*
X126010936Y-76989000D02*
X126465064Y-76989000D01*
X134897500Y-46573000D02*
X133222500Y-46573000D01*
X134897500Y-49693000D02*
X134247500Y-49693000D01*
X134897500Y-46573000D02*
X135547500Y-46573000D01*
X134897500Y-49693000D02*
X135547500Y-49693000D01*
X133724750Y-58583000D02*
X133074750Y-58583000D01*
X133724750Y-55463000D02*
X132049750Y-55463000D01*
X133724750Y-58583000D02*
X134374750Y-58583000D01*
X133724750Y-55463000D02*
X134374750Y-55463000D01*
X138583936Y-49884000D02*
X139038064Y-49884000D01*
X138583936Y-48414000D02*
X139038064Y-48414000D01*
D14*
X127025810Y-64424000D02*
X127044810Y-47205000D01*
X126517810Y-64805000D02*
X104665191Y-64805000D01*
X103972298Y-60832106D02*
X103578085Y-60437893D01*
X104665191Y-46805000D02*
X126644810Y-46805000D01*
X104265191Y-64405000D02*
X104265191Y-61539212D01*
X104265191Y-50090788D02*
X104265191Y-47205000D01*
X103578085Y-51192107D02*
X103972298Y-50797894D01*
X103285191Y-59730787D02*
X103285191Y-51899213D01*
X126625810Y-64824000D02*
G75*
G03*
X127025810Y-64424000I0J400000D01*
G01*
X104265190Y-64405000D02*
G75*
G03*
X104665191Y-64805000I400000J0D01*
G01*
X127044810Y-47205000D02*
G75*
G03*
X126644810Y-46805000I-400000J0D01*
G01*
X103578073Y-51192096D02*
G75*
G03*
X103285191Y-51899213I707137J-707104D01*
G01*
X104265187Y-61539212D02*
G75*
G03*
X103972298Y-60832107I-999977J12D01*
G01*
X103285194Y-59730787D02*
G75*
G03*
X103578085Y-60437893I1000116J47D01*
G01*
X103972300Y-50797896D02*
G75*
G03*
X104265191Y-50090789I-707090J707096D01*
G01*
X104665191Y-46804981D02*
G75*
G03*
X104265191Y-47205000I19J-400019D01*
G01*
D13*
X113598200Y-39134600D02*
X113598200Y-40384600D01*
X123198200Y-40184600D02*
X123198200Y-39434600D01*
X113898200Y-41684600D02*
X114648200Y-41684600D01*
X126498200Y-40184600D02*
X126498200Y-39434600D01*
X126498200Y-39434600D02*
X124698200Y-39434600D01*
X126498200Y-41684600D02*
X125748200Y-41684600D01*
X124698200Y-40184600D02*
X126498200Y-40184600D01*
X126508200Y-39424600D02*
X113888200Y-39424600D01*
X125748200Y-41684600D02*
X125748200Y-44634600D01*
X114848200Y-39134600D02*
X113598200Y-39134600D01*
X115698200Y-40184600D02*
X115698200Y-39434600D01*
X113888200Y-45394600D02*
X126508200Y-45394600D01*
X113898200Y-39434600D02*
X113898200Y-40184600D01*
X113898200Y-40184600D02*
X115698200Y-40184600D01*
X115698200Y-39434600D02*
X113898200Y-39434600D01*
X126508200Y-45394600D02*
X126508200Y-39424600D01*
X124698200Y-39434600D02*
X124698200Y-40184600D01*
X114648200Y-41684600D02*
X114648200Y-44634600D01*
X123198200Y-39434600D02*
X117198200Y-39434600D01*
X125748200Y-44634600D02*
X120198200Y-44634600D01*
X114648200Y-44634600D02*
X120198200Y-44634600D01*
X117198200Y-40184600D02*
X123198200Y-40184600D01*
X113888200Y-39424600D02*
X113888200Y-45394600D01*
X117198200Y-39434600D02*
X117198200Y-40184600D01*
X135834000Y-61482500D02*
X133914000Y-61482500D01*
X135834000Y-64167500D02*
X135834000Y-61482500D01*
X133914000Y-61482500D02*
X133914000Y-64167500D01*
X129791186Y-58774000D02*
X130245314Y-58774000D01*
X129791186Y-57304000D02*
X130245314Y-57304000D01*
X118312436Y-76427000D02*
X118766564Y-76427000D01*
X118312436Y-74957000D02*
X118766564Y-74957000D01*
X131314564Y-49884000D02*
X130860436Y-49884000D01*
X131314564Y-48414000D02*
X130860436Y-48414000D01*
X130245314Y-55272000D02*
X129791186Y-55272000D01*
X130245314Y-56742000D02*
X129791186Y-56742000D01*
X126465064Y-76427000D02*
X126010936Y-76427000D01*
X126465064Y-74957000D02*
X126010936Y-74957000D01*
X122349500Y-75148000D02*
X122999500Y-75148000D01*
X122349500Y-78268000D02*
X124024500Y-78268000D01*
X122349500Y-75148000D02*
X121699500Y-75148000D01*
X122349500Y-78268000D02*
X121699500Y-78268000D01*
X120152500Y-76764000D02*
X117467500Y-76764000D01*
X120152500Y-78684000D02*
X120152500Y-76764000D01*
X117467500Y-78684000D02*
X120152500Y-78684000D01*
X141047000Y-41723000D02*
X140297000Y-41723000D01*
X140297000Y-41723000D02*
X140297000Y-44673000D01*
X128437000Y-39463000D02*
X128437000Y-45433000D01*
X128447000Y-39473000D02*
X128447000Y-40223000D01*
X130247000Y-40223000D02*
X130247000Y-39473000D01*
X137747000Y-40223000D02*
X137747000Y-39473000D01*
X139247000Y-39473000D02*
X139247000Y-40223000D01*
X130247000Y-39473000D02*
X128447000Y-39473000D01*
X131747000Y-40223000D02*
X137747000Y-40223000D01*
X131747000Y-39473000D02*
X131747000Y-40223000D01*
X141057000Y-45433000D02*
X141057000Y-39463000D01*
X141057000Y-39463000D02*
X128437000Y-39463000D01*
X128147000Y-39173000D02*
X128147000Y-40423000D01*
X129197000Y-41723000D02*
X129197000Y-44673000D01*
X140297000Y-44673000D02*
X134747000Y-44673000D01*
X137747000Y-39473000D02*
X131747000Y-39473000D01*
X141047000Y-39473000D02*
X139247000Y-39473000D01*
X128447000Y-40223000D02*
X130247000Y-40223000D01*
X129397000Y-39173000D02*
X128147000Y-39173000D01*
X128447000Y-41723000D02*
X129197000Y-41723000D01*
X128437000Y-45433000D02*
X141057000Y-45433000D01*
X141047000Y-40223000D02*
X141047000Y-39473000D01*
X139247000Y-40223000D02*
X141047000Y-40223000D01*
X129197000Y-44673000D02*
X134747000Y-44673000D01*
X130251564Y-52986000D02*
X129797436Y-52986000D01*
X130251564Y-54456000D02*
X129797436Y-54456000D01*
X112284000Y-79034600D02*
X114284000Y-79034600D01*
X114284000Y-79034600D02*
X114284000Y-75134600D01*
X112284000Y-79034600D02*
X112284000Y-75134600D01*
X131418000Y-63394564D02*
X131418000Y-62940436D01*
X129948000Y-63394564D02*
X129948000Y-62940436D01*
X130860436Y-47852000D02*
X131314564Y-47852000D01*
X130860436Y-46382000D02*
X131314564Y-46382000D01*
X112040936Y-60679000D02*
X112495064Y-60679000D01*
X112040936Y-59209000D02*
X112495064Y-59209000D01*
X130510200Y-72212600D02*
X128783000Y-72212600D01*
X113289000Y-68656600D02*
X113289000Y-71196600D01*
D14*
X112273000Y-73426600D02*
X112273000Y-66426600D01*
X132773000Y-73426600D02*
X112273000Y-73426600D01*
X112273000Y-66426600D02*
X132773000Y-66426600D01*
D13*
X127767000Y-72212600D02*
X126192200Y-72212600D01*
X127767000Y-72212600D02*
X128783000Y-71704600D01*
D14*
X132773000Y-66426600D02*
X132773000Y-73426600D01*
D15*
X130561000Y-72212600D02*
G75*
G03*
X130561000Y-72212600I-50800J0D01*
G01*
X113339800Y-68656600D02*
G75*
G03*
X113339800Y-68656600I-50800J0D01*
G01*
X113339800Y-71196600D02*
G75*
G03*
X113339800Y-71196600I-50800J0D01*
G01*
X126243000Y-72212600D02*
G75*
G03*
X126243000Y-72212600I-50800J0D01*
G01*
D14*
X111779000Y-67520600D02*
G75*
G03*
X111779000Y-67520600I-102000J0D01*
G01*
G36*
X113797000Y-70434600D02*
G01*
X112781000Y-70434600D01*
X112781000Y-69418600D01*
X113797000Y-69418600D01*
X113797000Y-70434600D01*
G37*
D16*
X113797000Y-70434600D02*
X112781000Y-70434600D01*
X112781000Y-69418600D01*
X113797000Y-69418600D01*
X113797000Y-70434600D01*
D13*
X129484000Y-64167500D02*
X129484000Y-61482500D01*
X127564000Y-61482500D02*
X127564000Y-64167500D01*
X129484000Y-61482500D02*
X127564000Y-61482500D01*
X133731000Y-54265000D02*
X134381000Y-54265000D01*
X133731000Y-54265000D02*
X133081000Y-54265000D01*
X133731000Y-51145000D02*
X134381000Y-51145000D01*
X133731000Y-51145000D02*
X132056000Y-51145000D01*
X139786000Y-46157000D02*
X137101000Y-46157000D01*
X137101000Y-48077000D02*
X139786000Y-48077000D01*
X137101000Y-46157000D02*
X137101000Y-48077000D01*
X138855000Y-76436000D02*
X141930000Y-76436000D01*
X137840000Y-75016000D02*
X137840000Y-67986000D01*
X141930000Y-76436000D02*
X141930000Y-66566000D01*
X137840000Y-67986000D02*
X137340000Y-67986000D01*
X141930000Y-66566000D02*
X138855000Y-66566000D01*
X137340000Y-75016000D02*
X137840000Y-75016000D01*
X137340000Y-74996000D02*
X137340000Y-75016000D01*
X137340000Y-67986000D02*
X137340000Y-68006000D01*
X121438936Y-52043000D02*
X121893064Y-52043000D01*
X121438936Y-50573000D02*
X121893064Y-50573000D01*
%LPC*%
D17*
X107436600Y-41893000D03*
D18*
X109936600Y-41893000D03*
D19*
X129112000Y-51689000D03*
X130937000Y-51689000D03*
D20*
X109021000Y-78596000D03*
X109021000Y-66596000D03*
D21*
X107061000Y-69596000D03*
D22*
X107061000Y-72596000D03*
X107061000Y-75596000D03*
D23*
X143332200Y-40418000D03*
X143332200Y-44418000D03*
D24*
X132715000Y-64080000D03*
X132715000Y-62255000D03*
D25*
X140970000Y-53467000D03*
D26*
X140970000Y-55967000D03*
X140970000Y-58467000D03*
X140970000Y-60967000D03*
D19*
X125325500Y-77724000D03*
X127150500Y-77724000D03*
D27*
X133960000Y-47183000D03*
X133960000Y-49083000D03*
X135835000Y-48133000D03*
X132787250Y-56073000D03*
X132787250Y-57973000D03*
X134662250Y-57023000D03*
D19*
X137898500Y-49149000D03*
X139723500Y-49149000D03*
D28*
X105535191Y-48185000D03*
X108075191Y-48185000D03*
X110615191Y-48185000D03*
X113155191Y-48185000D03*
X115695191Y-48185000D03*
X118235191Y-48185000D03*
X120775191Y-48185000D03*
X123315191Y-48185000D03*
X125855191Y-48185000D03*
X125855191Y-63425000D03*
X123315191Y-63425000D03*
X120775191Y-63425000D03*
X118235191Y-63425000D03*
X115695191Y-63425000D03*
X113155191Y-63425000D03*
X110615191Y-63425000D03*
X108075191Y-63425000D03*
X105535191Y-63425000D03*
D29*
X116448200Y-41884600D03*
D30*
X118948200Y-41884600D03*
X121448200Y-41884600D03*
X123948200Y-41884600D03*
D31*
X134874000Y-62230000D03*
X134874000Y-64105000D03*
D19*
X129105750Y-58039000D03*
X130930750Y-58039000D03*
X117627000Y-75692000D03*
X119452000Y-75692000D03*
D32*
X117500000Y-55500000D03*
D33*
X132000000Y-49149000D03*
X130175000Y-49149000D03*
X130930750Y-56007000D03*
X129105750Y-56007000D03*
X127150500Y-75692000D03*
X125325500Y-75692000D03*
D34*
X123287000Y-77658000D03*
X123287000Y-75758000D03*
X121412000Y-76708000D03*
D35*
X119405000Y-77724000D03*
X117530000Y-77724000D03*
D29*
X130997000Y-41923000D03*
D30*
X133497000Y-41923000D03*
X135997000Y-41923000D03*
X138497000Y-41923000D03*
D33*
X130937000Y-53721000D03*
X129112000Y-53721000D03*
D36*
X113284000Y-78434600D03*
X113284000Y-75134600D03*
D24*
X130683000Y-64080000D03*
X130683000Y-62255000D03*
D19*
X130175000Y-47117000D03*
X132000000Y-47117000D03*
X111355500Y-59944000D03*
X113180500Y-59944000D03*
D37*
X113323000Y-67576600D03*
X113323000Y-72276600D03*
X124823000Y-72276600D03*
X131823000Y-72276600D03*
D31*
X128524000Y-62230000D03*
X128524000Y-64105000D03*
D27*
X132793500Y-51755000D03*
X132793500Y-53655000D03*
X134668500Y-52705000D03*
D38*
X137848500Y-47117000D03*
X139723500Y-47117000D03*
D20*
X137960000Y-76001000D03*
X137960000Y-67001000D03*
D39*
X139920000Y-73001000D03*
D22*
X139920000Y-70001000D03*
D19*
X120753500Y-51308000D03*
X122578500Y-51308000D03*
M02*
