G04 #@! TF.GenerationSoftware,KiCad,Pcbnew,(6.0.7)*
G04 #@! TF.CreationDate,2022-12-11T16:42:55+01:00*
G04 #@! TF.ProjectId,StartStop_PCB,53746172-7453-4746-9f70-5f5043422e6b,rev?*
G04 #@! TF.SameCoordinates,Original*
G04 #@! TF.FileFunction,Copper,L4,Bot*
G04 #@! TF.FilePolarity,Positive*
%FSLAX46Y46*%
G04 Gerber Fmt 4.6, Leading zero omitted, Abs format (unit mm)*
G04 Created by KiCad (PCBNEW (6.0.7)) date 2022-12-11 16:42:55*
%MOMM*%
%LPD*%
G01*
G04 APERTURE LIST*
G04 Aperture macros list*
%AMRoundRect*
0 Rectangle with rounded corners*
0 $1 Rounding radius*
0 $2 $3 $4 $5 $6 $7 $8 $9 X,Y pos of 4 corners*
0 Add a 4 corners polygon primitive as box body*
4,1,4,$2,$3,$4,$5,$6,$7,$8,$9,$2,$3,0*
0 Add four circle primitives for the rounded corners*
1,1,$1+$1,$2,$3*
1,1,$1+$1,$4,$5*
1,1,$1+$1,$6,$7*
1,1,$1+$1,$8,$9*
0 Add four rect primitives between the rounded corners*
20,1,$1+$1,$2,$3,$4,$5,0*
20,1,$1+$1,$4,$5,$6,$7,0*
20,1,$1+$1,$6,$7,$8,$9,0*
20,1,$1+$1,$8,$9,$2,$3,0*%
G04 Aperture macros list end*
G04 #@! TA.AperFunction,Profile*
%ADD10C,0.100000*%
G04 #@! TD*
G04 #@! TA.AperFunction,ComponentPad*
%ADD11RoundRect,0.250000X-0.600000X-0.750000X0.600000X-0.750000X0.600000X0.750000X-0.600000X0.750000X0*%
G04 #@! TD*
G04 #@! TA.AperFunction,ComponentPad*
%ADD12O,1.700000X2.000000*%
G04 #@! TD*
G04 #@! TA.AperFunction,ComponentPad*
%ADD13RoundRect,0.250001X-0.759999X0.499999X-0.759999X-0.499999X0.759999X-0.499999X0.759999X0.499999X0*%
G04 #@! TD*
G04 #@! TA.AperFunction,ComponentPad*
%ADD14O,2.020000X1.500000*%
G04 #@! TD*
G04 #@! TA.AperFunction,ComponentPad*
%ADD15RoundRect,0.250000X-0.725000X0.600000X-0.725000X-0.600000X0.725000X-0.600000X0.725000X0.600000X0*%
G04 #@! TD*
G04 #@! TA.AperFunction,ComponentPad*
%ADD16O,1.950000X1.700000*%
G04 #@! TD*
G04 #@! TA.AperFunction,ComponentPad*
%ADD17C,1.752600*%
G04 #@! TD*
G04 #@! TA.AperFunction,ComponentPad*
%ADD18RoundRect,0.250000X-0.600000X-0.725000X0.600000X-0.725000X0.600000X0.725000X-0.600000X0.725000X0*%
G04 #@! TD*
G04 #@! TA.AperFunction,ComponentPad*
%ADD19O,1.700000X1.950000*%
G04 #@! TD*
G04 #@! TA.AperFunction,ComponentPad*
%ADD20C,1.650000*%
G04 #@! TD*
G04 #@! TA.AperFunction,ComponentPad*
%ADD21RoundRect,0.250001X0.759999X-0.499999X0.759999X0.499999X-0.759999X0.499999X-0.759999X-0.499999X0*%
G04 #@! TD*
G04 #@! TA.AperFunction,ViaPad*
%ADD22C,0.800000*%
G04 #@! TD*
G04 #@! TA.AperFunction,Conductor*
%ADD23C,0.400000*%
G04 #@! TD*
G04 #@! TA.AperFunction,Conductor*
%ADD24C,1.200000*%
G04 #@! TD*
G04 APERTURE END LIST*
D10*
X144000000Y-81000000D02*
G75*
G03*
X146000000Y-79000000I0J2000000D01*
G01*
X103000000Y-37000000D02*
G75*
G03*
X101000000Y-39000000I0J-2000000D01*
G01*
X146000000Y-79000000D02*
X146000000Y-39000000D01*
X144000000Y-37000000D02*
X103000000Y-37000000D01*
X101000000Y-39000000D02*
X101000000Y-79000000D01*
X146000000Y-39000000D02*
G75*
G03*
X144000000Y-37000000I-2000000J0D01*
G01*
X101000000Y-79000000D02*
G75*
G03*
X103000000Y-81000000I2000000J0D01*
G01*
X103000000Y-81000000D02*
X144000000Y-81000000D01*
D11*
X107436600Y-41893000D03*
D12*
X109936600Y-41893000D03*
D13*
X107061000Y-69596000D03*
D14*
X107061000Y-72596000D03*
X107061000Y-75596000D03*
D15*
X140970000Y-53467000D03*
D16*
X140970000Y-55967000D03*
X140970000Y-58467000D03*
X140970000Y-60967000D03*
D17*
X105535191Y-48185000D03*
X108075191Y-48185000D03*
X110615191Y-48185000D03*
X113155191Y-48185000D03*
X115695191Y-48185000D03*
X118235191Y-48185000D03*
X120775191Y-48185000D03*
X123315191Y-48185000D03*
X125855191Y-48185000D03*
X125855191Y-63425000D03*
X123315191Y-63425000D03*
X120775191Y-63425000D03*
X118235191Y-63425000D03*
X115695191Y-63425000D03*
X113155191Y-63425000D03*
X110615191Y-63425000D03*
X108075191Y-63425000D03*
X105535191Y-63425000D03*
D18*
X116448200Y-41884600D03*
D19*
X118948200Y-41884600D03*
X121448200Y-41884600D03*
X123948200Y-41884600D03*
D18*
X130997000Y-41923000D03*
D19*
X133497000Y-41923000D03*
X135997000Y-41923000D03*
X138497000Y-41923000D03*
D20*
X113323000Y-67576600D03*
X113323000Y-72276600D03*
X124823000Y-72276600D03*
X131823000Y-72276600D03*
D21*
X139920000Y-73001000D03*
D14*
X139920000Y-70001000D03*
D22*
X130658000Y-65659000D03*
X115316000Y-75692000D03*
X134366000Y-58420000D03*
X123698000Y-74676000D03*
X127762000Y-79121000D03*
X134239000Y-54102000D03*
X132334000Y-50546000D03*
X127762000Y-54864000D03*
X136017000Y-60452000D03*
X137930500Y-55967000D03*
D23*
X139920000Y-70001000D02*
X139168000Y-70001000D01*
D24*
X106172000Y-40005000D02*
X103632000Y-42545000D01*
X116448200Y-41884600D02*
X114568600Y-40005000D01*
X129079000Y-40005000D02*
X118327800Y-40005000D01*
X118327800Y-40005000D02*
X116448200Y-41884600D01*
X130997000Y-41923000D02*
X129079000Y-40005000D01*
X114568600Y-40005000D02*
X106172000Y-40005000D01*
X110615191Y-59688191D02*
X110615191Y-63425000D01*
X103632000Y-52705000D02*
X110615191Y-59688191D01*
X103632000Y-42545000D02*
X103632000Y-52705000D01*
D23*
X137930500Y-55967000D02*
X137930500Y-58538500D01*
X137930500Y-58538500D02*
X136017000Y-60452000D01*
G04 #@! TA.AperFunction,Conductor*
G36*
X144786482Y-37734413D02*
G01*
X144798459Y-37740953D01*
X144813582Y-37750672D01*
X144969514Y-37867402D01*
X144983100Y-37879175D01*
X145120825Y-38016900D01*
X145132598Y-38030486D01*
X145249328Y-38186418D01*
X145259048Y-38201542D01*
X145352396Y-38372498D01*
X145359864Y-38388850D01*
X145427937Y-38571359D01*
X145433001Y-38588607D01*
X145474404Y-38778936D01*
X145476961Y-38796715D01*
X145488540Y-38958601D01*
X145487793Y-38976565D01*
X145487692Y-38984845D01*
X145486309Y-38993724D01*
X145487766Y-39004865D01*
X145490436Y-39025283D01*
X145491500Y-39041621D01*
X145491500Y-78950633D01*
X145490000Y-78970018D01*
X145487690Y-78984851D01*
X145487690Y-78984855D01*
X145486309Y-78993724D01*
X145488136Y-79007693D01*
X145488304Y-79008976D01*
X145489047Y-79034302D01*
X145482758Y-79122245D01*
X145476962Y-79203279D01*
X145474404Y-79221064D01*
X145456598Y-79302919D01*
X145433001Y-79411392D01*
X145427937Y-79428641D01*
X145359864Y-79611150D01*
X145352396Y-79627502D01*
X145259048Y-79798458D01*
X145249328Y-79813582D01*
X145132598Y-79969514D01*
X145120825Y-79983100D01*
X144983100Y-80120825D01*
X144969514Y-80132598D01*
X144813582Y-80249328D01*
X144798458Y-80259048D01*
X144627502Y-80352396D01*
X144611150Y-80359864D01*
X144428641Y-80427937D01*
X144411393Y-80433001D01*
X144221064Y-80474404D01*
X144203285Y-80476961D01*
X144041395Y-80488540D01*
X144023435Y-80487793D01*
X144015155Y-80487692D01*
X144006276Y-80486309D01*
X143974714Y-80490436D01*
X143958379Y-80491500D01*
X103049367Y-80491500D01*
X103029982Y-80490000D01*
X103015149Y-80487690D01*
X103015145Y-80487690D01*
X103006276Y-80486309D01*
X102991019Y-80488304D01*
X102965698Y-80489047D01*
X102796715Y-80476961D01*
X102778936Y-80474404D01*
X102588607Y-80433001D01*
X102571359Y-80427937D01*
X102388850Y-80359864D01*
X102372498Y-80352396D01*
X102201542Y-80259048D01*
X102186418Y-80249328D01*
X102030486Y-80132598D01*
X102016900Y-80120825D01*
X101879175Y-79983100D01*
X101867402Y-79969514D01*
X101750672Y-79813582D01*
X101740952Y-79798458D01*
X101647604Y-79627502D01*
X101640136Y-79611150D01*
X101572063Y-79428641D01*
X101566999Y-79411392D01*
X101543402Y-79302919D01*
X101525596Y-79221064D01*
X101523038Y-79203278D01*
X101516894Y-79117362D01*
X101511719Y-79045011D01*
X101512805Y-79022245D01*
X101512334Y-79022203D01*
X101512770Y-79017345D01*
X101513576Y-79012552D01*
X101513729Y-79000000D01*
X101509773Y-78972376D01*
X101508500Y-78954514D01*
X101508500Y-78686102D01*
X107876141Y-78686102D01*
X107911732Y-78893228D01*
X107984472Y-79090399D01*
X108091926Y-79271012D01*
X108230494Y-79429019D01*
X108395537Y-79559128D01*
X108400653Y-79561819D01*
X108400655Y-79561821D01*
X108576410Y-79654290D01*
X108581527Y-79656982D01*
X108782234Y-79719304D01*
X108787969Y-79719983D01*
X108787970Y-79719983D01*
X108818532Y-79723600D01*
X108952874Y-79739500D01*
X109074316Y-79739500D01*
X109230279Y-79725169D01*
X109235841Y-79723600D01*
X109235843Y-79723600D01*
X109331414Y-79696646D01*
X109432549Y-79668123D01*
X109621037Y-79575171D01*
X109789429Y-79449427D01*
X109808294Y-79429019D01*
X109928167Y-79299341D01*
X109928169Y-79299338D01*
X109932086Y-79295101D01*
X110044231Y-79117362D01*
X110122108Y-78922163D01*
X110123233Y-78916506D01*
X110123235Y-78916500D01*
X110161981Y-78721707D01*
X110161981Y-78721705D01*
X110163108Y-78716040D01*
X110163426Y-78691800D01*
X110165783Y-78511680D01*
X110165859Y-78505898D01*
X110130268Y-78298772D01*
X110057528Y-78101601D01*
X109950074Y-77920988D01*
X109811506Y-77762981D01*
X109646463Y-77632872D01*
X109641347Y-77630181D01*
X109641345Y-77630179D01*
X109465590Y-77537710D01*
X109465588Y-77537709D01*
X109460473Y-77535018D01*
X109259766Y-77472696D01*
X109254031Y-77472017D01*
X109254030Y-77472017D01*
X109205742Y-77466302D01*
X109089126Y-77452500D01*
X108967684Y-77452500D01*
X108811721Y-77466831D01*
X108806159Y-77468400D01*
X108806157Y-77468400D01*
X108710586Y-77495354D01*
X108609451Y-77523877D01*
X108420963Y-77616829D01*
X108252571Y-77742573D01*
X108109914Y-77896899D01*
X107997769Y-78074638D01*
X107919892Y-78269837D01*
X107918767Y-78275494D01*
X107918765Y-78275500D01*
X107913003Y-78304469D01*
X107878892Y-78475960D01*
X107878816Y-78481735D01*
X107878816Y-78481739D01*
X107878500Y-78505898D01*
X107876141Y-78686102D01*
X101508500Y-78686102D01*
X101508500Y-75635690D01*
X105538037Y-75635690D01*
X105565025Y-75858715D01*
X105631082Y-76073435D01*
X105633652Y-76078415D01*
X105633654Y-76078419D01*
X105698852Y-76204738D01*
X105734118Y-76273064D01*
X105870877Y-76451292D01*
X106037036Y-76602485D01*
X106041783Y-76605463D01*
X106041786Y-76605465D01*
X106199410Y-76704341D01*
X106227344Y-76721864D01*
X106435783Y-76805656D01*
X106655767Y-76851213D01*
X106660378Y-76851479D01*
X106660379Y-76851479D01*
X106710952Y-76854395D01*
X106710956Y-76854395D01*
X106712775Y-76854500D01*
X107377999Y-76854500D01*
X107380786Y-76854251D01*
X107380792Y-76854251D01*
X107450929Y-76847991D01*
X107544762Y-76839617D01*
X107550176Y-76838136D01*
X107550181Y-76838135D01*
X107677912Y-76803191D01*
X107761451Y-76780337D01*
X107766509Y-76777925D01*
X107766513Y-76777923D01*
X107884042Y-76721864D01*
X107964218Y-76683622D01*
X108146654Y-76552529D01*
X108302992Y-76391201D01*
X108428290Y-76204738D01*
X108518588Y-75999033D01*
X108538360Y-75916680D01*
X108569722Y-75786046D01*
X108569722Y-75786045D01*
X108571032Y-75780589D01*
X108576140Y-75692000D01*
X114402496Y-75692000D01*
X114403186Y-75698565D01*
X114421761Y-75875293D01*
X114422458Y-75881928D01*
X114481473Y-76063556D01*
X114484776Y-76069278D01*
X114484777Y-76069279D01*
X114490054Y-76078419D01*
X114576960Y-76228944D01*
X114581378Y-76233851D01*
X114581379Y-76233852D01*
X114700325Y-76365955D01*
X114704747Y-76370866D01*
X114859248Y-76483118D01*
X114865276Y-76485802D01*
X114865278Y-76485803D01*
X114958359Y-76527245D01*
X115033712Y-76560794D01*
X115127113Y-76580647D01*
X115214056Y-76599128D01*
X115214061Y-76599128D01*
X115220513Y-76600500D01*
X115411487Y-76600500D01*
X115417939Y-76599128D01*
X115417944Y-76599128D01*
X115504887Y-76580647D01*
X115598288Y-76560794D01*
X115673641Y-76527245D01*
X115766722Y-76485803D01*
X115766724Y-76485802D01*
X115772752Y-76483118D01*
X115927253Y-76370866D01*
X115931675Y-76365955D01*
X116050621Y-76233852D01*
X116050622Y-76233851D01*
X116055040Y-76228944D01*
X116134623Y-76091102D01*
X136815141Y-76091102D01*
X136850732Y-76298228D01*
X136923472Y-76495399D01*
X136926424Y-76500360D01*
X136926424Y-76500361D01*
X136985185Y-76599128D01*
X137030926Y-76676012D01*
X137169494Y-76834019D01*
X137334537Y-76964128D01*
X137339653Y-76966819D01*
X137339655Y-76966821D01*
X137515410Y-77059290D01*
X137520527Y-77061982D01*
X137721234Y-77124304D01*
X137726969Y-77124983D01*
X137726970Y-77124983D01*
X137757532Y-77128600D01*
X137891874Y-77144500D01*
X138013316Y-77144500D01*
X138169279Y-77130169D01*
X138174841Y-77128600D01*
X138174843Y-77128600D01*
X138270414Y-77101646D01*
X138371549Y-77073123D01*
X138560037Y-76980171D01*
X138728429Y-76854427D01*
X138751305Y-76829680D01*
X138867167Y-76704341D01*
X138867169Y-76704338D01*
X138871086Y-76700101D01*
X138983231Y-76522362D01*
X139061108Y-76327163D01*
X139062233Y-76321506D01*
X139062235Y-76321500D01*
X139100981Y-76126707D01*
X139100981Y-76126705D01*
X139102108Y-76121040D01*
X139102426Y-76096800D01*
X139104783Y-75916680D01*
X139104859Y-75910898D01*
X139069268Y-75703772D01*
X138996528Y-75506601D01*
X138993576Y-75501639D01*
X138892028Y-75330953D01*
X138892027Y-75330952D01*
X138889074Y-75325988D01*
X138750506Y-75167981D01*
X138585463Y-75037872D01*
X138580347Y-75035181D01*
X138580345Y-75035179D01*
X138404590Y-74942710D01*
X138404588Y-74942709D01*
X138399473Y-74940018D01*
X138198766Y-74877696D01*
X138193031Y-74877017D01*
X138193030Y-74877017D01*
X138144742Y-74871302D01*
X138028126Y-74857500D01*
X137906684Y-74857500D01*
X137750721Y-74871831D01*
X137745159Y-74873400D01*
X137745157Y-74873400D01*
X137657234Y-74898197D01*
X137548451Y-74928877D01*
X137359963Y-75021829D01*
X137355337Y-75025283D01*
X137355336Y-75025284D01*
X137223237Y-75123927D01*
X137191571Y-75147573D01*
X137187657Y-75151807D01*
X137187655Y-75151809D01*
X137144567Y-75198422D01*
X137048914Y-75301899D01*
X136936769Y-75479638D01*
X136858892Y-75674837D01*
X136857767Y-75680494D01*
X136857765Y-75680500D01*
X136836771Y-75786046D01*
X136817892Y-75880960D01*
X136817816Y-75886735D01*
X136817816Y-75886739D01*
X136817500Y-75910898D01*
X136815141Y-76091102D01*
X116134623Y-76091102D01*
X116141946Y-76078419D01*
X116147223Y-76069279D01*
X116147224Y-76069278D01*
X116150527Y-76063556D01*
X116209542Y-75881928D01*
X116210240Y-75875293D01*
X116228814Y-75698565D01*
X116229504Y-75692000D01*
X116209542Y-75502072D01*
X116150527Y-75320444D01*
X116142641Y-75306784D01*
X116062502Y-75167981D01*
X116055040Y-75155056D01*
X116027012Y-75123927D01*
X115931675Y-75018045D01*
X115931674Y-75018044D01*
X115927253Y-75013134D01*
X115772752Y-74900882D01*
X115766724Y-74898198D01*
X115766722Y-74898197D01*
X115604319Y-74825891D01*
X115604318Y-74825891D01*
X115598288Y-74823206D01*
X115492872Y-74800799D01*
X115417944Y-74784872D01*
X115417939Y-74784872D01*
X115411487Y-74783500D01*
X115220513Y-74783500D01*
X115214061Y-74784872D01*
X115214056Y-74784872D01*
X115139128Y-74800799D01*
X115033712Y-74823206D01*
X115027682Y-74825891D01*
X115027681Y-74825891D01*
X114865278Y-74898197D01*
X114865276Y-74898198D01*
X114859248Y-74900882D01*
X114704747Y-75013134D01*
X114700326Y-75018044D01*
X114700325Y-75018045D01*
X114604989Y-75123927D01*
X114576960Y-75155056D01*
X114569498Y-75167981D01*
X114489360Y-75306784D01*
X114481473Y-75320444D01*
X114422458Y-75502072D01*
X114402496Y-75692000D01*
X108576140Y-75692000D01*
X108583963Y-75556310D01*
X108556975Y-75333285D01*
X108490918Y-75118565D01*
X108449270Y-75037872D01*
X108390454Y-74923919D01*
X108390454Y-74923918D01*
X108387882Y-74918936D01*
X108251123Y-74740708D01*
X108084964Y-74589515D01*
X108080217Y-74586537D01*
X108080214Y-74586535D01*
X107899405Y-74473115D01*
X107894656Y-74470136D01*
X107686217Y-74386344D01*
X107466233Y-74340787D01*
X107461622Y-74340521D01*
X107461621Y-74340521D01*
X107411048Y-74337605D01*
X107411044Y-74337605D01*
X107409225Y-74337500D01*
X106744001Y-74337500D01*
X106741214Y-74337749D01*
X106741208Y-74337749D01*
X106671071Y-74344009D01*
X106577238Y-74352383D01*
X106571824Y-74353864D01*
X106571819Y-74353865D01*
X106457262Y-74385205D01*
X106360549Y-74411663D01*
X106355491Y-74414075D01*
X106355487Y-74414077D01*
X106259166Y-74460020D01*
X106157782Y-74508378D01*
X105975346Y-74639471D01*
X105819008Y-74800799D01*
X105693710Y-74987262D01*
X105603412Y-75192967D01*
X105602103Y-75198418D01*
X105602102Y-75198422D01*
X105576087Y-75306784D01*
X105550968Y-75411411D01*
X105538037Y-75635690D01*
X101508500Y-75635690D01*
X101508500Y-72635690D01*
X105538037Y-72635690D01*
X105565025Y-72858715D01*
X105631082Y-73073435D01*
X105633652Y-73078415D01*
X105633654Y-73078419D01*
X105698852Y-73204738D01*
X105734118Y-73273064D01*
X105870877Y-73451292D01*
X106037036Y-73602485D01*
X106041783Y-73605463D01*
X106041786Y-73605465D01*
X106170229Y-73686036D01*
X106227344Y-73721864D01*
X106435783Y-73805656D01*
X106655767Y-73851213D01*
X106660378Y-73851479D01*
X106660379Y-73851479D01*
X106710952Y-73854395D01*
X106710956Y-73854395D01*
X106712775Y-73854500D01*
X107377999Y-73854500D01*
X107380786Y-73854251D01*
X107380792Y-73854251D01*
X107450929Y-73847991D01*
X107544762Y-73839617D01*
X107550176Y-73838136D01*
X107550181Y-73838135D01*
X107677912Y-73803191D01*
X107761451Y-73780337D01*
X107766509Y-73777925D01*
X107766513Y-73777923D01*
X107884042Y-73721864D01*
X107964218Y-73683622D01*
X108146654Y-73552529D01*
X108302992Y-73391201D01*
X108428290Y-73204738D01*
X108518588Y-72999033D01*
X108530263Y-72950406D01*
X108569722Y-72786046D01*
X108569722Y-72786045D01*
X108571032Y-72780589D01*
X108583963Y-72556310D01*
X108556975Y-72333285D01*
X108539536Y-72276600D01*
X111984406Y-72276600D01*
X112004742Y-72509044D01*
X112065133Y-72734426D01*
X112067455Y-72739406D01*
X112067456Y-72739408D01*
X112161418Y-72940910D01*
X112161421Y-72940915D01*
X112163744Y-72945897D01*
X112166900Y-72950404D01*
X112166901Y-72950406D01*
X112256537Y-73078419D01*
X112297578Y-73137032D01*
X112462568Y-73302022D01*
X112467076Y-73305179D01*
X112467079Y-73305181D01*
X112649194Y-73432699D01*
X112653703Y-73435856D01*
X112658685Y-73438179D01*
X112658690Y-73438182D01*
X112860192Y-73532144D01*
X112865174Y-73534467D01*
X112870482Y-73535889D01*
X112870484Y-73535890D01*
X113085241Y-73593434D01*
X113085243Y-73593434D01*
X113090556Y-73594858D01*
X113323000Y-73615194D01*
X113555444Y-73594858D01*
X113560757Y-73593434D01*
X113560759Y-73593434D01*
X113775516Y-73535890D01*
X113775518Y-73535889D01*
X113780826Y-73534467D01*
X113785808Y-73532144D01*
X113987310Y-73438182D01*
X113987315Y-73438179D01*
X113992297Y-73435856D01*
X113996806Y-73432699D01*
X114178921Y-73305181D01*
X114178924Y-73305179D01*
X114183432Y-73302022D01*
X114348422Y-73137032D01*
X114389464Y-73078419D01*
X114479099Y-72950406D01*
X114479100Y-72950404D01*
X114482256Y-72945897D01*
X114484579Y-72940915D01*
X114484582Y-72940910D01*
X114578544Y-72739408D01*
X114578545Y-72739406D01*
X114580867Y-72734426D01*
X114641258Y-72509044D01*
X114661594Y-72276600D01*
X123484406Y-72276600D01*
X123504742Y-72509044D01*
X123565133Y-72734426D01*
X123567455Y-72739406D01*
X123567456Y-72739408D01*
X123661418Y-72940910D01*
X123661421Y-72940915D01*
X123663744Y-72945897D01*
X123666900Y-72950404D01*
X123666901Y-72950406D01*
X123756537Y-73078419D01*
X123797578Y-73137032D01*
X123962568Y-73302022D01*
X123967076Y-73305179D01*
X123967079Y-73305181D01*
X124149194Y-73432699D01*
X124153703Y-73435856D01*
X124158685Y-73438179D01*
X124158690Y-73438182D01*
X124360192Y-73532144D01*
X124365174Y-73534467D01*
X124370482Y-73535889D01*
X124370484Y-73535890D01*
X124585241Y-73593434D01*
X124585243Y-73593434D01*
X124590556Y-73594858D01*
X124823000Y-73615194D01*
X125055444Y-73594858D01*
X125060757Y-73593434D01*
X125060759Y-73593434D01*
X125275516Y-73535890D01*
X125275518Y-73535889D01*
X125280826Y-73534467D01*
X125285808Y-73532144D01*
X125487310Y-73438182D01*
X125487315Y-73438179D01*
X125492297Y-73435856D01*
X125496806Y-73432699D01*
X125678921Y-73305181D01*
X125678924Y-73305179D01*
X125683432Y-73302022D01*
X125848422Y-73137032D01*
X125889464Y-73078419D01*
X125979099Y-72950406D01*
X125979100Y-72950404D01*
X125982256Y-72945897D01*
X125984579Y-72940915D01*
X125984582Y-72940910D01*
X126078544Y-72739408D01*
X126078545Y-72739406D01*
X126080867Y-72734426D01*
X126141258Y-72509044D01*
X126161594Y-72276600D01*
X130484406Y-72276600D01*
X130504742Y-72509044D01*
X130565133Y-72734426D01*
X130567455Y-72739406D01*
X130567456Y-72739408D01*
X130661418Y-72940910D01*
X130661421Y-72940915D01*
X130663744Y-72945897D01*
X130666900Y-72950404D01*
X130666901Y-72950406D01*
X130756537Y-73078419D01*
X130797578Y-73137032D01*
X130962568Y-73302022D01*
X130967076Y-73305179D01*
X130967079Y-73305181D01*
X131149194Y-73432699D01*
X131153703Y-73435856D01*
X131158685Y-73438179D01*
X131158690Y-73438182D01*
X131360192Y-73532144D01*
X131365174Y-73534467D01*
X131370482Y-73535889D01*
X131370484Y-73535890D01*
X131585241Y-73593434D01*
X131585243Y-73593434D01*
X131590556Y-73594858D01*
X131823000Y-73615194D01*
X132055444Y-73594858D01*
X132060757Y-73593434D01*
X132060759Y-73593434D01*
X132217632Y-73551400D01*
X138401500Y-73551400D01*
X138401837Y-73554646D01*
X138401837Y-73554650D01*
X138407110Y-73605465D01*
X138412474Y-73657165D01*
X138468450Y-73824945D01*
X138561522Y-73975348D01*
X138686697Y-74100305D01*
X138692927Y-74104145D01*
X138692928Y-74104146D01*
X138830090Y-74188694D01*
X138837262Y-74193115D01*
X138917005Y-74219564D01*
X138998611Y-74246632D01*
X138998613Y-74246632D01*
X139005139Y-74248797D01*
X139011975Y-74249497D01*
X139011978Y-74249498D01*
X139055031Y-74253909D01*
X139109600Y-74259500D01*
X140730400Y-74259500D01*
X140733646Y-74259163D01*
X140733650Y-74259163D01*
X140829307Y-74249238D01*
X140829311Y-74249237D01*
X140836165Y-74248526D01*
X140842701Y-74246345D01*
X140842703Y-74246345D01*
X140974805Y-74202272D01*
X141003945Y-74192550D01*
X141154348Y-74099478D01*
X141279305Y-73974303D01*
X141353218Y-73854395D01*
X141368275Y-73829968D01*
X141368276Y-73829966D01*
X141372115Y-73823738D01*
X141406893Y-73718885D01*
X141425632Y-73662389D01*
X141425632Y-73662387D01*
X141427797Y-73655861D01*
X141438500Y-73551400D01*
X141438500Y-72450600D01*
X141438163Y-72447350D01*
X141428238Y-72351693D01*
X141428237Y-72351689D01*
X141427526Y-72344835D01*
X141371550Y-72177055D01*
X141278478Y-72026652D01*
X141153303Y-71901695D01*
X141147072Y-71897854D01*
X141008968Y-71812725D01*
X141008966Y-71812724D01*
X141002738Y-71808885D01*
X140842254Y-71755655D01*
X140841389Y-71755368D01*
X140841387Y-71755368D01*
X140834861Y-71753203D01*
X140828025Y-71752503D01*
X140828022Y-71752502D01*
X140784969Y-71748091D01*
X140730400Y-71742500D01*
X139109600Y-71742500D01*
X139106354Y-71742837D01*
X139106350Y-71742837D01*
X139010693Y-71752762D01*
X139010689Y-71752763D01*
X139003835Y-71753474D01*
X138997299Y-71755655D01*
X138997297Y-71755655D01*
X138874058Y-71796771D01*
X138836055Y-71809450D01*
X138685652Y-71902522D01*
X138560695Y-72027697D01*
X138556855Y-72033927D01*
X138556854Y-72033928D01*
X138547172Y-72049636D01*
X138467885Y-72178262D01*
X138412203Y-72346139D01*
X138401500Y-72450600D01*
X138401500Y-73551400D01*
X132217632Y-73551400D01*
X132275516Y-73535890D01*
X132275518Y-73535889D01*
X132280826Y-73534467D01*
X132285808Y-73532144D01*
X132487310Y-73438182D01*
X132487315Y-73438179D01*
X132492297Y-73435856D01*
X132496806Y-73432699D01*
X132678921Y-73305181D01*
X132678924Y-73305179D01*
X132683432Y-73302022D01*
X132848422Y-73137032D01*
X132889464Y-73078419D01*
X132979099Y-72950406D01*
X132979100Y-72950404D01*
X132982256Y-72945897D01*
X132984579Y-72940915D01*
X132984582Y-72940910D01*
X133078544Y-72739408D01*
X133078545Y-72739406D01*
X133080867Y-72734426D01*
X133141258Y-72509044D01*
X133161594Y-72276600D01*
X133141258Y-72044156D01*
X133139834Y-72038841D01*
X133082290Y-71824084D01*
X133082289Y-71824082D01*
X133080867Y-71818774D01*
X133042707Y-71736939D01*
X132984582Y-71612290D01*
X132984579Y-71612285D01*
X132982256Y-71607303D01*
X132886211Y-71470136D01*
X132851581Y-71420679D01*
X132851579Y-71420676D01*
X132848422Y-71416168D01*
X132683432Y-71251178D01*
X132678924Y-71248021D01*
X132678921Y-71248019D01*
X132496806Y-71120501D01*
X132496804Y-71120500D01*
X132492297Y-71117344D01*
X132487315Y-71115021D01*
X132487310Y-71115018D01*
X132285808Y-71021056D01*
X132285806Y-71021055D01*
X132280826Y-71018733D01*
X132275518Y-71017311D01*
X132275516Y-71017310D01*
X132060759Y-70959766D01*
X132060757Y-70959766D01*
X132055444Y-70958342D01*
X131823000Y-70938006D01*
X131590556Y-70958342D01*
X131585243Y-70959766D01*
X131585241Y-70959766D01*
X131370484Y-71017310D01*
X131370482Y-71017311D01*
X131365174Y-71018733D01*
X131360194Y-71021055D01*
X131360192Y-71021056D01*
X131158690Y-71115018D01*
X131158685Y-71115021D01*
X131153703Y-71117344D01*
X131149196Y-71120500D01*
X131149194Y-71120501D01*
X130967079Y-71248019D01*
X130967076Y-71248021D01*
X130962568Y-71251178D01*
X130797578Y-71416168D01*
X130794421Y-71420676D01*
X130794419Y-71420679D01*
X130759789Y-71470136D01*
X130663744Y-71607303D01*
X130661421Y-71612285D01*
X130661418Y-71612290D01*
X130603293Y-71736939D01*
X130565133Y-71818774D01*
X130563711Y-71824082D01*
X130563710Y-71824084D01*
X130506166Y-72038841D01*
X130504742Y-72044156D01*
X130484406Y-72276600D01*
X126161594Y-72276600D01*
X126141258Y-72044156D01*
X126139834Y-72038841D01*
X126082290Y-71824084D01*
X126082289Y-71824082D01*
X126080867Y-71818774D01*
X126042707Y-71736939D01*
X125984582Y-71612290D01*
X125984579Y-71612285D01*
X125982256Y-71607303D01*
X125886211Y-71470136D01*
X125851581Y-71420679D01*
X125851579Y-71420676D01*
X125848422Y-71416168D01*
X125683432Y-71251178D01*
X125678924Y-71248021D01*
X125678921Y-71248019D01*
X125496806Y-71120501D01*
X125496804Y-71120500D01*
X125492297Y-71117344D01*
X125487315Y-71115021D01*
X125487310Y-71115018D01*
X125285808Y-71021056D01*
X125285806Y-71021055D01*
X125280826Y-71018733D01*
X125275518Y-71017311D01*
X125275516Y-71017310D01*
X125060759Y-70959766D01*
X125060757Y-70959766D01*
X125055444Y-70958342D01*
X124823000Y-70938006D01*
X124590556Y-70958342D01*
X124585243Y-70959766D01*
X124585241Y-70959766D01*
X124370484Y-71017310D01*
X124370482Y-71017311D01*
X124365174Y-71018733D01*
X124360194Y-71021055D01*
X124360192Y-71021056D01*
X124158690Y-71115018D01*
X124158685Y-71115021D01*
X124153703Y-71117344D01*
X124149196Y-71120500D01*
X124149194Y-71120501D01*
X123967079Y-71248019D01*
X123967076Y-71248021D01*
X123962568Y-71251178D01*
X123797578Y-71416168D01*
X123794421Y-71420676D01*
X123794419Y-71420679D01*
X123759789Y-71470136D01*
X123663744Y-71607303D01*
X123661421Y-71612285D01*
X123661418Y-71612290D01*
X123603293Y-71736939D01*
X123565133Y-71818774D01*
X123563711Y-71824082D01*
X123563710Y-71824084D01*
X123506166Y-72038841D01*
X123504742Y-72044156D01*
X123484406Y-72276600D01*
X114661594Y-72276600D01*
X114641258Y-72044156D01*
X114639834Y-72038841D01*
X114582290Y-71824084D01*
X114582289Y-71824082D01*
X114580867Y-71818774D01*
X114542707Y-71736939D01*
X114484582Y-71612290D01*
X114484579Y-71612285D01*
X114482256Y-71607303D01*
X114386211Y-71470136D01*
X114351581Y-71420679D01*
X114351579Y-71420676D01*
X114348422Y-71416168D01*
X114183432Y-71251178D01*
X114178924Y-71248021D01*
X114178921Y-71248019D01*
X113996806Y-71120501D01*
X113996804Y-71120500D01*
X113992297Y-71117344D01*
X113987315Y-71115021D01*
X113987310Y-71115018D01*
X113785808Y-71021056D01*
X113785806Y-71021055D01*
X113780826Y-71018733D01*
X113775518Y-71017311D01*
X113775516Y-71017310D01*
X113560759Y-70959766D01*
X113560757Y-70959766D01*
X113555444Y-70958342D01*
X113323000Y-70938006D01*
X113090556Y-70958342D01*
X113085243Y-70959766D01*
X113085241Y-70959766D01*
X112870484Y-71017310D01*
X112870482Y-71017311D01*
X112865174Y-71018733D01*
X112860194Y-71021055D01*
X112860192Y-71021056D01*
X112658690Y-71115018D01*
X112658685Y-71115021D01*
X112653703Y-71117344D01*
X112649196Y-71120500D01*
X112649194Y-71120501D01*
X112467079Y-71248019D01*
X112467076Y-71248021D01*
X112462568Y-71251178D01*
X112297578Y-71416168D01*
X112294421Y-71420676D01*
X112294419Y-71420679D01*
X112259789Y-71470136D01*
X112163744Y-71607303D01*
X112161421Y-71612285D01*
X112161418Y-71612290D01*
X112103293Y-71736939D01*
X112065133Y-71818774D01*
X112063711Y-71824082D01*
X112063710Y-71824084D01*
X112006166Y-72038841D01*
X112004742Y-72044156D01*
X111984406Y-72276600D01*
X108539536Y-72276600D01*
X108490918Y-72118565D01*
X108449770Y-72038841D01*
X108390454Y-71923919D01*
X108390454Y-71923918D01*
X108387882Y-71918936D01*
X108251123Y-71740708D01*
X108084964Y-71589515D01*
X108080217Y-71586537D01*
X108080214Y-71586535D01*
X107899405Y-71473115D01*
X107894656Y-71470136D01*
X107686217Y-71386344D01*
X107466233Y-71340787D01*
X107461622Y-71340521D01*
X107461621Y-71340521D01*
X107411048Y-71337605D01*
X107411044Y-71337605D01*
X107409225Y-71337500D01*
X106744001Y-71337500D01*
X106741214Y-71337749D01*
X106741208Y-71337749D01*
X106671071Y-71344009D01*
X106577238Y-71352383D01*
X106571824Y-71353864D01*
X106571819Y-71353865D01*
X106457262Y-71385205D01*
X106360549Y-71411663D01*
X106355491Y-71414075D01*
X106355487Y-71414077D01*
X106259165Y-71460021D01*
X106157782Y-71508378D01*
X105975346Y-71639471D01*
X105971439Y-71643503D01*
X105862756Y-71755655D01*
X105819008Y-71800799D01*
X105693710Y-71987262D01*
X105603412Y-72192967D01*
X105602103Y-72198418D01*
X105602102Y-72198422D01*
X105552278Y-72405954D01*
X105550968Y-72411411D01*
X105538037Y-72635690D01*
X101508500Y-72635690D01*
X101508500Y-70143096D01*
X105543000Y-70143096D01*
X105543337Y-70149611D01*
X105553256Y-70245203D01*
X105556150Y-70258602D01*
X105607588Y-70412783D01*
X105613762Y-70425962D01*
X105699063Y-70563807D01*
X105708099Y-70575208D01*
X105822830Y-70689739D01*
X105834241Y-70698751D01*
X105972245Y-70783818D01*
X105985423Y-70789962D01*
X106139716Y-70841139D01*
X106153081Y-70844005D01*
X106247439Y-70853672D01*
X106253855Y-70854000D01*
X106788885Y-70854000D01*
X106804124Y-70849525D01*
X106805329Y-70848135D01*
X106807000Y-70840452D01*
X106807000Y-70835885D01*
X107315000Y-70835885D01*
X107319475Y-70851124D01*
X107320865Y-70852329D01*
X107328548Y-70854000D01*
X107868096Y-70854000D01*
X107874611Y-70853663D01*
X107970203Y-70843744D01*
X107983602Y-70840850D01*
X108137783Y-70789412D01*
X108150962Y-70783238D01*
X108288807Y-70697937D01*
X108300208Y-70688901D01*
X108414739Y-70574170D01*
X108423751Y-70562759D01*
X108508818Y-70424755D01*
X108514962Y-70411577D01*
X108562343Y-70268728D01*
X138426114Y-70268728D01*
X138426166Y-70268973D01*
X138488898Y-70472883D01*
X138493119Y-70483229D01*
X138590971Y-70672814D01*
X138596957Y-70682245D01*
X138726832Y-70851501D01*
X138734393Y-70859724D01*
X138892194Y-71003312D01*
X138901094Y-71010067D01*
X139081815Y-71123434D01*
X139091781Y-71128511D01*
X139289714Y-71208080D01*
X139300429Y-71211315D01*
X139510301Y-71254777D01*
X139519438Y-71255980D01*
X139569990Y-71258895D01*
X139573637Y-71259000D01*
X139647885Y-71259000D01*
X139663124Y-71254525D01*
X139664329Y-71253135D01*
X139666000Y-71245452D01*
X139666000Y-71240885D01*
X140174000Y-71240885D01*
X140178475Y-71256124D01*
X140179865Y-71257329D01*
X140187548Y-71259000D01*
X140234175Y-71259000D01*
X140239770Y-71258751D01*
X140398078Y-71244622D01*
X140409092Y-71242640D01*
X140614860Y-71186349D01*
X140625341Y-71182451D01*
X140817903Y-71090603D01*
X140827516Y-71084918D01*
X141000767Y-70960425D01*
X141009233Y-70953117D01*
X141157692Y-70799918D01*
X141164735Y-70791221D01*
X141283719Y-70614156D01*
X141289105Y-70604358D01*
X141374857Y-70409010D01*
X141378422Y-70398418D01*
X141408624Y-70272616D01*
X141407919Y-70258530D01*
X141399040Y-70255000D01*
X140192115Y-70255000D01*
X140176876Y-70259475D01*
X140175671Y-70260865D01*
X140174000Y-70268548D01*
X140174000Y-71240885D01*
X139666000Y-71240885D01*
X139666000Y-70273115D01*
X139661525Y-70257876D01*
X139660135Y-70256671D01*
X139652452Y-70255000D01*
X138441589Y-70255000D01*
X138427607Y-70259105D01*
X138426114Y-70268728D01*
X108562343Y-70268728D01*
X108566139Y-70257284D01*
X108569005Y-70243919D01*
X108578672Y-70149561D01*
X108579000Y-70143144D01*
X108579000Y-69868115D01*
X108574525Y-69852876D01*
X108573135Y-69851671D01*
X108565452Y-69850000D01*
X107333115Y-69850000D01*
X107317876Y-69854475D01*
X107316671Y-69855865D01*
X107315000Y-69863548D01*
X107315000Y-70835885D01*
X106807000Y-70835885D01*
X106807000Y-69868115D01*
X106802525Y-69852876D01*
X106801135Y-69851671D01*
X106793452Y-69850000D01*
X105561115Y-69850000D01*
X105545876Y-69854475D01*
X105544671Y-69855865D01*
X105543000Y-69863548D01*
X105543000Y-70143096D01*
X101508500Y-70143096D01*
X101508500Y-69729384D01*
X138431376Y-69729384D01*
X138432081Y-69743470D01*
X138440960Y-69747000D01*
X139647885Y-69747000D01*
X139663124Y-69742525D01*
X139664329Y-69741135D01*
X139666000Y-69733452D01*
X139666000Y-69728885D01*
X140174000Y-69728885D01*
X140178475Y-69744124D01*
X140179865Y-69745329D01*
X140187548Y-69747000D01*
X141398411Y-69747000D01*
X141412393Y-69742895D01*
X141413886Y-69733272D01*
X141413834Y-69733027D01*
X141351102Y-69529117D01*
X141346881Y-69518771D01*
X141249029Y-69329186D01*
X141243043Y-69319755D01*
X141113168Y-69150499D01*
X141105607Y-69142276D01*
X140947806Y-68998688D01*
X140938906Y-68991933D01*
X140758185Y-68878566D01*
X140748219Y-68873489D01*
X140550286Y-68793920D01*
X140539571Y-68790685D01*
X140329699Y-68747223D01*
X140320562Y-68746020D01*
X140270010Y-68743105D01*
X140266363Y-68743000D01*
X140192115Y-68743000D01*
X140176876Y-68747475D01*
X140175671Y-68748865D01*
X140174000Y-68756548D01*
X140174000Y-69728885D01*
X139666000Y-69728885D01*
X139666000Y-68761115D01*
X139661525Y-68745876D01*
X139660135Y-68744671D01*
X139652452Y-68743000D01*
X139605825Y-68743000D01*
X139600230Y-68743249D01*
X139441922Y-68757378D01*
X139430908Y-68759360D01*
X139225140Y-68815651D01*
X139214659Y-68819549D01*
X139022097Y-68911397D01*
X139012484Y-68917082D01*
X138839233Y-69041575D01*
X138830767Y-69048883D01*
X138682308Y-69202082D01*
X138675265Y-69210779D01*
X138556281Y-69387844D01*
X138550895Y-69397642D01*
X138465143Y-69592990D01*
X138461578Y-69603582D01*
X138431376Y-69729384D01*
X101508500Y-69729384D01*
X101508500Y-69323885D01*
X105543000Y-69323885D01*
X105547475Y-69339124D01*
X105548865Y-69340329D01*
X105556548Y-69342000D01*
X106788885Y-69342000D01*
X106804124Y-69337525D01*
X106805329Y-69336135D01*
X106807000Y-69328452D01*
X106807000Y-69323885D01*
X107315000Y-69323885D01*
X107319475Y-69339124D01*
X107320865Y-69340329D01*
X107328548Y-69342000D01*
X108560885Y-69342000D01*
X108576124Y-69337525D01*
X108577329Y-69336135D01*
X108579000Y-69328452D01*
X108579000Y-69048904D01*
X108578663Y-69042389D01*
X108568744Y-68946797D01*
X108565850Y-68933398D01*
X108514412Y-68779217D01*
X108508238Y-68766038D01*
X108422937Y-68628193D01*
X108413901Y-68616792D01*
X108299170Y-68502261D01*
X108287759Y-68493249D01*
X108149755Y-68408182D01*
X108136577Y-68402038D01*
X107982284Y-68350861D01*
X107968919Y-68347995D01*
X107874561Y-68338328D01*
X107868144Y-68338000D01*
X107333115Y-68338000D01*
X107317876Y-68342475D01*
X107316671Y-68343865D01*
X107315000Y-68351548D01*
X107315000Y-69323885D01*
X106807000Y-69323885D01*
X106807000Y-68356115D01*
X106802525Y-68340876D01*
X106801135Y-68339671D01*
X106793452Y-68338000D01*
X106253904Y-68338000D01*
X106247389Y-68338337D01*
X106151797Y-68348256D01*
X106138398Y-68351150D01*
X105984217Y-68402588D01*
X105971038Y-68408762D01*
X105833193Y-68494063D01*
X105821792Y-68503099D01*
X105707261Y-68617830D01*
X105698249Y-68629241D01*
X105613182Y-68767245D01*
X105607038Y-68780423D01*
X105555861Y-68934716D01*
X105552995Y-68948081D01*
X105543328Y-69042439D01*
X105543000Y-69048856D01*
X105543000Y-69323885D01*
X101508500Y-69323885D01*
X101508500Y-66686102D01*
X107876141Y-66686102D01*
X107911732Y-66893228D01*
X107984472Y-67090399D01*
X107987424Y-67095360D01*
X107987424Y-67095361D01*
X108004513Y-67124084D01*
X108091926Y-67271012D01*
X108230494Y-67429019D01*
X108395537Y-67559128D01*
X108400653Y-67561819D01*
X108400655Y-67561821D01*
X108439152Y-67582075D01*
X108581527Y-67656982D01*
X108782234Y-67719304D01*
X108787969Y-67719983D01*
X108787970Y-67719983D01*
X108818532Y-67723600D01*
X108952874Y-67739500D01*
X109074316Y-67739500D01*
X109230279Y-67725169D01*
X109235841Y-67723600D01*
X109235843Y-67723600D01*
X109389174Y-67680356D01*
X109432549Y-67668123D01*
X109618139Y-67576600D01*
X111984406Y-67576600D01*
X112004742Y-67809044D01*
X112006166Y-67814357D01*
X112006166Y-67814359D01*
X112049670Y-67976716D01*
X112065133Y-68034426D01*
X112067455Y-68039406D01*
X112067456Y-68039408D01*
X112161418Y-68240910D01*
X112161421Y-68240915D01*
X112163744Y-68245897D01*
X112166900Y-68250404D01*
X112166901Y-68250406D01*
X112237722Y-68351548D01*
X112297578Y-68437032D01*
X112462568Y-68602022D01*
X112467076Y-68605179D01*
X112467079Y-68605181D01*
X112649194Y-68732699D01*
X112653703Y-68735856D01*
X112658685Y-68738179D01*
X112658690Y-68738182D01*
X112824823Y-68815651D01*
X112865174Y-68834467D01*
X112870482Y-68835889D01*
X112870484Y-68835890D01*
X113085241Y-68893434D01*
X113085243Y-68893434D01*
X113090556Y-68894858D01*
X113323000Y-68915194D01*
X113555444Y-68894858D01*
X113560757Y-68893434D01*
X113560759Y-68893434D01*
X113775516Y-68835890D01*
X113775518Y-68835889D01*
X113780826Y-68834467D01*
X113821177Y-68815651D01*
X113987310Y-68738182D01*
X113987315Y-68738179D01*
X113992297Y-68735856D01*
X113996806Y-68732699D01*
X114178921Y-68605181D01*
X114178924Y-68605179D01*
X114183432Y-68602022D01*
X114348422Y-68437032D01*
X114408279Y-68351548D01*
X114479099Y-68250406D01*
X114479100Y-68250404D01*
X114482256Y-68245897D01*
X114484579Y-68240915D01*
X114484582Y-68240910D01*
X114578544Y-68039408D01*
X114578545Y-68039406D01*
X114580867Y-68034426D01*
X114596331Y-67976716D01*
X114639834Y-67814359D01*
X114639834Y-67814357D01*
X114641258Y-67809044D01*
X114661594Y-67576600D01*
X114641258Y-67344156D01*
X114580867Y-67118774D01*
X114567963Y-67091102D01*
X136815141Y-67091102D01*
X136850732Y-67298228D01*
X136923472Y-67495399D01*
X136926424Y-67500360D01*
X136926424Y-67500361D01*
X137026233Y-67668123D01*
X137030926Y-67676012D01*
X137169494Y-67834019D01*
X137334537Y-67964128D01*
X137339653Y-67966819D01*
X137339655Y-67966821D01*
X137515410Y-68059290D01*
X137520527Y-68061982D01*
X137721234Y-68124304D01*
X137726969Y-68124983D01*
X137726970Y-68124983D01*
X137757532Y-68128600D01*
X137891874Y-68144500D01*
X138013316Y-68144500D01*
X138169279Y-68130169D01*
X138174841Y-68128600D01*
X138174843Y-68128600D01*
X138270414Y-68101646D01*
X138371549Y-68073123D01*
X138560037Y-67980171D01*
X138728429Y-67854427D01*
X138751305Y-67829680D01*
X138867167Y-67704341D01*
X138867169Y-67704338D01*
X138871086Y-67700101D01*
X138983231Y-67522362D01*
X139061108Y-67327163D01*
X139062233Y-67321506D01*
X139062235Y-67321500D01*
X139100981Y-67126707D01*
X139100981Y-67126705D01*
X139102108Y-67121040D01*
X139102227Y-67111998D01*
X139104641Y-66927526D01*
X139104859Y-66910898D01*
X139103467Y-66902794D01*
X139070247Y-66709469D01*
X139070247Y-66709468D01*
X139069268Y-66703772D01*
X138996528Y-66506601D01*
X138980487Y-66479638D01*
X138892028Y-66330953D01*
X138892027Y-66330952D01*
X138889074Y-66325988D01*
X138750506Y-66167981D01*
X138585463Y-66037872D01*
X138580347Y-66035181D01*
X138580345Y-66035179D01*
X138404590Y-65942710D01*
X138404588Y-65942709D01*
X138399473Y-65940018D01*
X138198766Y-65877696D01*
X138193031Y-65877017D01*
X138193030Y-65877017D01*
X138144742Y-65871302D01*
X138028126Y-65857500D01*
X137906684Y-65857500D01*
X137750721Y-65871831D01*
X137745159Y-65873400D01*
X137745157Y-65873400D01*
X137649586Y-65900354D01*
X137548451Y-65928877D01*
X137359963Y-66021829D01*
X137191571Y-66147573D01*
X137187657Y-66151807D01*
X137187655Y-66151809D01*
X137056818Y-66293349D01*
X137048914Y-66301899D01*
X136936769Y-66479638D01*
X136858892Y-66674837D01*
X136857767Y-66680494D01*
X136857765Y-66680500D01*
X136849569Y-66721707D01*
X136817892Y-66880960D01*
X136817816Y-66886735D01*
X136817816Y-66886739D01*
X136817282Y-66927526D01*
X136815141Y-67091102D01*
X114567963Y-67091102D01*
X114484582Y-66912290D01*
X114484579Y-66912285D01*
X114482256Y-66907303D01*
X114467857Y-66886739D01*
X114351581Y-66720679D01*
X114351579Y-66720676D01*
X114348422Y-66716168D01*
X114183432Y-66551178D01*
X114178924Y-66548021D01*
X114178921Y-66548019D01*
X113996806Y-66420501D01*
X113996804Y-66420500D01*
X113992297Y-66417344D01*
X113987315Y-66415021D01*
X113987310Y-66415018D01*
X113785808Y-66321056D01*
X113785806Y-66321055D01*
X113780826Y-66318733D01*
X113775518Y-66317311D01*
X113775516Y-66317310D01*
X113560759Y-66259766D01*
X113560757Y-66259766D01*
X113555444Y-66258342D01*
X113323000Y-66238006D01*
X113090556Y-66258342D01*
X113085243Y-66259766D01*
X113085241Y-66259766D01*
X112870484Y-66317310D01*
X112870482Y-66317311D01*
X112865174Y-66318733D01*
X112860194Y-66321055D01*
X112860192Y-66321056D01*
X112658690Y-66415018D01*
X112658685Y-66415021D01*
X112653703Y-66417344D01*
X112649196Y-66420500D01*
X112649194Y-66420501D01*
X112467079Y-66548019D01*
X112467076Y-66548021D01*
X112462568Y-66551178D01*
X112297578Y-66716168D01*
X112294421Y-66720676D01*
X112294419Y-66720679D01*
X112178143Y-66886739D01*
X112163744Y-66907303D01*
X112161421Y-66912285D01*
X112161418Y-66912290D01*
X112078037Y-67091102D01*
X112065133Y-67118774D01*
X112004742Y-67344156D01*
X111984406Y-67576600D01*
X109618139Y-67576600D01*
X109621037Y-67575171D01*
X109789429Y-67449427D01*
X109881675Y-67349636D01*
X109928167Y-67299341D01*
X109928169Y-67299338D01*
X109932086Y-67295101D01*
X110044231Y-67117362D01*
X110122108Y-66922163D01*
X110123233Y-66916506D01*
X110123235Y-66916500D01*
X110161981Y-66721707D01*
X110161981Y-66721705D01*
X110163108Y-66716040D01*
X110163426Y-66691800D01*
X110164562Y-66605001D01*
X110165859Y-66505898D01*
X110133454Y-66317310D01*
X110131247Y-66304469D01*
X110131247Y-66304468D01*
X110130268Y-66298772D01*
X110057528Y-66101601D01*
X110018011Y-66035179D01*
X109953028Y-65925953D01*
X109953027Y-65925952D01*
X109950074Y-65920988D01*
X109811506Y-65762981D01*
X109687934Y-65665565D01*
X109679606Y-65659000D01*
X129744496Y-65659000D01*
X129764458Y-65848928D01*
X129823473Y-66030556D01*
X129918960Y-66195944D01*
X129923378Y-66200851D01*
X129923379Y-66200852D01*
X130042325Y-66332955D01*
X130046747Y-66337866D01*
X130201248Y-66450118D01*
X130207276Y-66452802D01*
X130207278Y-66452803D01*
X130339519Y-66511680D01*
X130375712Y-66527794D01*
X130469112Y-66547647D01*
X130556056Y-66566128D01*
X130556061Y-66566128D01*
X130562513Y-66567500D01*
X130753487Y-66567500D01*
X130759939Y-66566128D01*
X130759944Y-66566128D01*
X130846888Y-66547647D01*
X130940288Y-66527794D01*
X130976481Y-66511680D01*
X131108722Y-66452803D01*
X131108724Y-66452802D01*
X131114752Y-66450118D01*
X131269253Y-66337866D01*
X131273675Y-66332955D01*
X131392621Y-66200852D01*
X131392622Y-66200851D01*
X131397040Y-66195944D01*
X131492527Y-66030556D01*
X131551542Y-65848928D01*
X131571504Y-65659000D01*
X131551542Y-65469072D01*
X131492527Y-65287444D01*
X131397040Y-65122056D01*
X131269253Y-64980134D01*
X131114752Y-64867882D01*
X131108724Y-64865198D01*
X131108722Y-64865197D01*
X130946319Y-64792891D01*
X130946318Y-64792891D01*
X130940288Y-64790206D01*
X130846888Y-64770353D01*
X130759944Y-64751872D01*
X130759939Y-64751872D01*
X130753487Y-64750500D01*
X130562513Y-64750500D01*
X130556061Y-64751872D01*
X130556056Y-64751872D01*
X130469112Y-64770353D01*
X130375712Y-64790206D01*
X130369682Y-64792891D01*
X130369681Y-64792891D01*
X130207278Y-64865197D01*
X130207276Y-64865198D01*
X130201248Y-64867882D01*
X130046747Y-64980134D01*
X129918960Y-65122056D01*
X129823473Y-65287444D01*
X129764458Y-65469072D01*
X129744496Y-65659000D01*
X109679606Y-65659000D01*
X109651002Y-65636450D01*
X109651000Y-65636449D01*
X109646463Y-65632872D01*
X109641347Y-65630181D01*
X109641345Y-65630179D01*
X109465590Y-65537710D01*
X109465588Y-65537709D01*
X109460473Y-65535018D01*
X109259766Y-65472696D01*
X109254031Y-65472017D01*
X109254030Y-65472017D01*
X109205742Y-65466302D01*
X109089126Y-65452500D01*
X108967684Y-65452500D01*
X108811721Y-65466831D01*
X108806159Y-65468400D01*
X108806157Y-65468400D01*
X108780504Y-65475635D01*
X108609451Y-65523877D01*
X108420963Y-65616829D01*
X108252571Y-65742573D01*
X108248657Y-65746807D01*
X108248655Y-65746809D01*
X108126081Y-65879410D01*
X108109914Y-65896899D01*
X107997769Y-66074638D01*
X107919892Y-66269837D01*
X107918767Y-66275494D01*
X107918765Y-66275500D01*
X107910449Y-66317310D01*
X107878892Y-66475960D01*
X107878816Y-66481735D01*
X107878816Y-66481739D01*
X107878213Y-66527794D01*
X107876141Y-66686102D01*
X101508500Y-66686102D01*
X101508500Y-63391050D01*
X104146060Y-63391050D01*
X104146357Y-63396202D01*
X104146357Y-63396206D01*
X104148570Y-63434580D01*
X104159168Y-63618387D01*
X104160303Y-63623424D01*
X104160304Y-63623430D01*
X104199425Y-63797022D01*
X104209230Y-63840531D01*
X104211174Y-63845317D01*
X104211175Y-63845322D01*
X104292958Y-64046728D01*
X104294902Y-64051515D01*
X104368479Y-64171582D01*
X104411181Y-64241264D01*
X104413883Y-64245674D01*
X104562977Y-64417793D01*
X104738180Y-64563249D01*
X104742632Y-64565851D01*
X104742637Y-64565854D01*
X104836731Y-64620838D01*
X104934788Y-64678138D01*
X105147520Y-64759372D01*
X105152586Y-64760403D01*
X105152587Y-64760403D01*
X105204821Y-64771030D01*
X105370663Y-64804771D01*
X105498479Y-64809458D01*
X105593061Y-64812927D01*
X105593066Y-64812927D01*
X105598225Y-64813116D01*
X105603345Y-64812460D01*
X105603347Y-64812460D01*
X105675535Y-64803212D01*
X105824094Y-64784181D01*
X105829043Y-64782696D01*
X105829049Y-64782695D01*
X105955395Y-64744789D01*
X106042204Y-64718745D01*
X106246698Y-64618564D01*
X106250902Y-64615566D01*
X106250906Y-64615563D01*
X106316072Y-64569080D01*
X107295941Y-64569080D01*
X107301222Y-64576134D01*
X107470544Y-64675078D01*
X107479831Y-64679528D01*
X107682829Y-64757045D01*
X107692731Y-64759922D01*
X107905647Y-64803240D01*
X107915899Y-64804463D01*
X108133038Y-64812425D01*
X108143324Y-64811958D01*
X108358861Y-64784347D01*
X108368939Y-64782205D01*
X108577068Y-64719763D01*
X108586666Y-64716002D01*
X108781806Y-64620404D01*
X108790645Y-64615135D01*
X108843295Y-64577580D01*
X108851695Y-64566881D01*
X108844706Y-64553725D01*
X108088003Y-63797022D01*
X108074059Y-63789408D01*
X108072226Y-63789539D01*
X108065611Y-63793790D01*
X107302701Y-64556700D01*
X107295941Y-64569080D01*
X106316072Y-64569080D01*
X106337599Y-64553725D01*
X106432084Y-64486330D01*
X106593384Y-64325592D01*
X106684190Y-64199222D01*
X106704036Y-64171603D01*
X106760031Y-64127955D01*
X106830734Y-64121509D01*
X106893699Y-64154312D01*
X106913792Y-64179295D01*
X106922524Y-64193545D01*
X106932981Y-64203006D01*
X106941759Y-64199222D01*
X107703169Y-63437812D01*
X107710783Y-63423868D01*
X107710652Y-63422035D01*
X107706401Y-63415420D01*
X106946113Y-62655132D01*
X106934577Y-62648832D01*
X106922292Y-62658457D01*
X106909269Y-62677548D01*
X106854358Y-62722551D01*
X106783833Y-62730722D01*
X106720086Y-62699468D01*
X106699391Y-62674987D01*
X106662607Y-62618126D01*
X106638922Y-62581515D01*
X106638920Y-62581512D01*
X106636114Y-62577175D01*
X106482859Y-62408750D01*
X106323175Y-62282640D01*
X107297627Y-62282640D01*
X107304371Y-62294970D01*
X108062379Y-63052978D01*
X108076323Y-63060592D01*
X108078156Y-63060461D01*
X108084771Y-63056210D01*
X108847306Y-62293675D01*
X108854327Y-62280819D01*
X108846798Y-62270486D01*
X108839347Y-62265536D01*
X108649123Y-62160526D01*
X108639714Y-62156298D01*
X108434888Y-62083765D01*
X108424925Y-62081133D01*
X108211001Y-62043027D01*
X108200748Y-62042058D01*
X107983465Y-62039403D01*
X107973182Y-62040123D01*
X107758396Y-62072990D01*
X107748368Y-62075379D01*
X107541829Y-62142886D01*
X107532332Y-62146878D01*
X107339591Y-62247211D01*
X107330863Y-62252708D01*
X107306080Y-62271315D01*
X107297627Y-62282640D01*
X106323175Y-62282640D01*
X106304154Y-62267618D01*
X106104798Y-62157567D01*
X105905033Y-62086826D01*
X105895020Y-62083280D01*
X105895016Y-62083279D01*
X105890145Y-62081554D01*
X105885052Y-62080647D01*
X105885049Y-62080646D01*
X105671048Y-62042527D01*
X105671042Y-62042526D01*
X105665959Y-62041621D01*
X105578889Y-62040557D01*
X105443430Y-62038902D01*
X105443428Y-62038902D01*
X105438261Y-62038839D01*
X105213167Y-62073283D01*
X104996720Y-62144029D01*
X104992128Y-62146419D01*
X104992129Y-62146419D01*
X104886174Y-62201576D01*
X104794735Y-62249176D01*
X104790602Y-62252279D01*
X104790599Y-62252281D01*
X104616770Y-62382795D01*
X104612635Y-62385900D01*
X104455311Y-62550530D01*
X104452402Y-62554795D01*
X104452396Y-62554803D01*
X104429146Y-62588887D01*
X104326988Y-62738645D01*
X104231112Y-62945192D01*
X104170258Y-63164625D01*
X104146060Y-63391050D01*
X101508500Y-63391050D01*
X101508500Y-42517793D01*
X102518790Y-42517793D01*
X102519213Y-42523768D01*
X102519213Y-42523771D01*
X102523185Y-42579863D01*
X102523500Y-42588762D01*
X102523500Y-52600743D01*
X102522589Y-52611532D01*
X102522893Y-52611554D01*
X102522454Y-52617528D01*
X102521448Y-52623446D01*
X102521579Y-52629447D01*
X102523470Y-52716099D01*
X102523500Y-52718848D01*
X102523500Y-52757846D01*
X102523784Y-52760825D01*
X102523785Y-52760843D01*
X102524203Y-52765222D01*
X102524743Y-52774436D01*
X102526063Y-52834917D01*
X102527324Y-52840775D01*
X102527325Y-52840782D01*
X102533115Y-52867674D01*
X102535367Y-52882226D01*
X102538548Y-52915566D01*
X102540238Y-52921326D01*
X102540238Y-52921327D01*
X102555576Y-52973613D01*
X102557848Y-52982561D01*
X102569318Y-53035836D01*
X102569321Y-53035847D01*
X102570582Y-53041702D01*
X102572929Y-53047218D01*
X102572930Y-53047221D01*
X102583700Y-53072532D01*
X102588659Y-53086381D01*
X102598092Y-53118534D01*
X102625797Y-53172326D01*
X102629710Y-53180660D01*
X102653400Y-53236336D01*
X102672112Y-53264130D01*
X102679603Y-53276797D01*
X102692194Y-53301246D01*
X102692198Y-53301253D01*
X102694942Y-53306580D01*
X102715459Y-53332700D01*
X102732303Y-53354143D01*
X102737737Y-53361609D01*
X102768991Y-53408033D01*
X102769002Y-53408048D01*
X102771528Y-53411799D01*
X102775269Y-53415924D01*
X102795874Y-53436529D01*
X102805865Y-53447791D01*
X102821898Y-53468203D01*
X102821902Y-53468208D01*
X102825604Y-53472920D01*
X102830135Y-53476852D01*
X102830140Y-53476857D01*
X102872616Y-53513716D01*
X102879131Y-53519786D01*
X109469786Y-60110441D01*
X109503812Y-60172753D01*
X109506691Y-60199536D01*
X109506691Y-62553602D01*
X109484779Y-62624607D01*
X109448669Y-62677542D01*
X109393758Y-62722544D01*
X109323233Y-62730715D01*
X109259486Y-62699461D01*
X109238789Y-62674977D01*
X109227274Y-62657178D01*
X109216589Y-62647975D01*
X109207022Y-62652379D01*
X108447213Y-63412188D01*
X108439599Y-63426132D01*
X108439730Y-63427965D01*
X108443981Y-63434580D01*
X109204511Y-64195110D01*
X109216521Y-64201669D01*
X109228262Y-64192700D01*
X109243436Y-64171582D01*
X109299430Y-64127934D01*
X109370133Y-64121487D01*
X109433098Y-64154289D01*
X109453191Y-64179271D01*
X109461938Y-64193545D01*
X109491181Y-64241264D01*
X109493883Y-64245674D01*
X109642977Y-64417793D01*
X109818180Y-64563249D01*
X109822632Y-64565851D01*
X109822637Y-64565854D01*
X109916731Y-64620838D01*
X110014788Y-64678138D01*
X110227520Y-64759372D01*
X110232586Y-64760403D01*
X110232587Y-64760403D01*
X110284821Y-64771030D01*
X110450663Y-64804771D01*
X110578479Y-64809458D01*
X110673061Y-64812927D01*
X110673066Y-64812927D01*
X110678225Y-64813116D01*
X110683345Y-64812460D01*
X110683347Y-64812460D01*
X110755535Y-64803212D01*
X110904094Y-64784181D01*
X110909043Y-64782696D01*
X110909049Y-64782695D01*
X111035395Y-64744789D01*
X111122204Y-64718745D01*
X111326698Y-64618564D01*
X111330902Y-64615566D01*
X111330906Y-64615563D01*
X111417599Y-64553725D01*
X111512084Y-64486330D01*
X111673384Y-64325592D01*
X111783719Y-64172044D01*
X111839714Y-64128396D01*
X111910417Y-64121950D01*
X111973382Y-64154753D01*
X111993474Y-64179735D01*
X112031180Y-64241264D01*
X112031183Y-64241269D01*
X112033883Y-64245674D01*
X112182977Y-64417793D01*
X112358180Y-64563249D01*
X112362632Y-64565851D01*
X112362637Y-64565854D01*
X112456731Y-64620838D01*
X112554788Y-64678138D01*
X112767520Y-64759372D01*
X112772586Y-64760403D01*
X112772587Y-64760403D01*
X112824821Y-64771030D01*
X112990663Y-64804771D01*
X113118479Y-64809458D01*
X113213061Y-64812927D01*
X113213066Y-64812927D01*
X113218225Y-64813116D01*
X113223345Y-64812460D01*
X113223347Y-64812460D01*
X113295535Y-64803212D01*
X113444094Y-64784181D01*
X113449043Y-64782696D01*
X113449049Y-64782695D01*
X113575395Y-64744789D01*
X113662204Y-64718745D01*
X113866698Y-64618564D01*
X113870902Y-64615566D01*
X113870906Y-64615563D01*
X113957599Y-64553725D01*
X114052084Y-64486330D01*
X114213384Y-64325592D01*
X114323719Y-64172044D01*
X114379714Y-64128396D01*
X114450417Y-64121950D01*
X114513382Y-64154753D01*
X114533474Y-64179735D01*
X114571180Y-64241264D01*
X114571183Y-64241269D01*
X114573883Y-64245674D01*
X114722977Y-64417793D01*
X114898180Y-64563249D01*
X114902632Y-64565851D01*
X114902637Y-64565854D01*
X114996731Y-64620838D01*
X115094788Y-64678138D01*
X115307520Y-64759372D01*
X115312586Y-64760403D01*
X115312587Y-64760403D01*
X115364821Y-64771030D01*
X115530663Y-64804771D01*
X115658479Y-64809458D01*
X115753061Y-64812927D01*
X115753066Y-64812927D01*
X115758225Y-64813116D01*
X115763345Y-64812460D01*
X115763347Y-64812460D01*
X115835535Y-64803212D01*
X115984094Y-64784181D01*
X115989043Y-64782696D01*
X115989049Y-64782695D01*
X116115395Y-64744789D01*
X116202204Y-64718745D01*
X116406698Y-64618564D01*
X116410902Y-64615566D01*
X116410906Y-64615563D01*
X116497599Y-64553725D01*
X116592084Y-64486330D01*
X116753384Y-64325592D01*
X116863719Y-64172044D01*
X116919714Y-64128396D01*
X116990417Y-64121950D01*
X117053382Y-64154753D01*
X117073474Y-64179735D01*
X117111180Y-64241264D01*
X117111183Y-64241269D01*
X117113883Y-64245674D01*
X117262977Y-64417793D01*
X117438180Y-64563249D01*
X117442632Y-64565851D01*
X117442637Y-64565854D01*
X117536731Y-64620838D01*
X117634788Y-64678138D01*
X117847520Y-64759372D01*
X117852586Y-64760403D01*
X117852587Y-64760403D01*
X117904821Y-64771030D01*
X118070663Y-64804771D01*
X118198479Y-64809458D01*
X118293061Y-64812927D01*
X118293066Y-64812927D01*
X118298225Y-64813116D01*
X118303345Y-64812460D01*
X118303347Y-64812460D01*
X118375535Y-64803212D01*
X118524094Y-64784181D01*
X118529043Y-64782696D01*
X118529049Y-64782695D01*
X118655395Y-64744789D01*
X118742204Y-64718745D01*
X118946698Y-64618564D01*
X118950902Y-64615566D01*
X118950906Y-64615563D01*
X119037599Y-64553725D01*
X119132084Y-64486330D01*
X119293384Y-64325592D01*
X119403719Y-64172044D01*
X119459714Y-64128396D01*
X119530417Y-64121950D01*
X119593382Y-64154753D01*
X119613474Y-64179735D01*
X119651180Y-64241264D01*
X119651183Y-64241269D01*
X119653883Y-64245674D01*
X119802977Y-64417793D01*
X119978180Y-64563249D01*
X119982632Y-64565851D01*
X119982637Y-64565854D01*
X120076731Y-64620838D01*
X120174788Y-64678138D01*
X120387520Y-64759372D01*
X120392586Y-64760403D01*
X120392587Y-64760403D01*
X120444821Y-64771030D01*
X120610663Y-64804771D01*
X120738479Y-64809458D01*
X120833061Y-64812927D01*
X120833066Y-64812927D01*
X120838225Y-64813116D01*
X120843345Y-64812460D01*
X120843347Y-64812460D01*
X120915535Y-64803212D01*
X121064094Y-64784181D01*
X121069043Y-64782696D01*
X121069049Y-64782695D01*
X121195395Y-64744789D01*
X121282204Y-64718745D01*
X121486698Y-64618564D01*
X121490902Y-64615566D01*
X121490906Y-64615563D01*
X121577599Y-64553725D01*
X121672084Y-64486330D01*
X121833384Y-64325592D01*
X121943719Y-64172044D01*
X121999714Y-64128396D01*
X122070417Y-64121950D01*
X122133382Y-64154753D01*
X122153474Y-64179735D01*
X122191180Y-64241264D01*
X122191183Y-64241269D01*
X122193883Y-64245674D01*
X122342977Y-64417793D01*
X122518180Y-64563249D01*
X122522632Y-64565851D01*
X122522637Y-64565854D01*
X122616731Y-64620838D01*
X122714788Y-64678138D01*
X122927520Y-64759372D01*
X122932586Y-64760403D01*
X122932587Y-64760403D01*
X122984821Y-64771030D01*
X123150663Y-64804771D01*
X123278479Y-64809458D01*
X123373061Y-64812927D01*
X123373066Y-64812927D01*
X123378225Y-64813116D01*
X123383345Y-64812460D01*
X123383347Y-64812460D01*
X123455535Y-64803212D01*
X123604094Y-64784181D01*
X123609043Y-64782696D01*
X123609049Y-64782695D01*
X123735395Y-64744789D01*
X123822204Y-64718745D01*
X124026698Y-64618564D01*
X124030902Y-64615566D01*
X124030906Y-64615563D01*
X124117599Y-64553725D01*
X124212084Y-64486330D01*
X124373384Y-64325592D01*
X124483719Y-64172044D01*
X124539714Y-64128396D01*
X124610417Y-64121950D01*
X124673382Y-64154753D01*
X124693474Y-64179735D01*
X124731180Y-64241264D01*
X124731183Y-64241269D01*
X124733883Y-64245674D01*
X124882977Y-64417793D01*
X125058180Y-64563249D01*
X125062632Y-64565851D01*
X125062637Y-64565854D01*
X125156731Y-64620838D01*
X125254788Y-64678138D01*
X125467520Y-64759372D01*
X125472586Y-64760403D01*
X125472587Y-64760403D01*
X125524821Y-64771030D01*
X125690663Y-64804771D01*
X125818479Y-64809458D01*
X125913061Y-64812927D01*
X125913066Y-64812927D01*
X125918225Y-64813116D01*
X125923345Y-64812460D01*
X125923347Y-64812460D01*
X125995535Y-64803212D01*
X126144094Y-64784181D01*
X126149043Y-64782696D01*
X126149049Y-64782695D01*
X126275395Y-64744789D01*
X126362204Y-64718745D01*
X126566698Y-64618564D01*
X126570902Y-64615566D01*
X126570906Y-64615563D01*
X126657599Y-64553725D01*
X126752084Y-64486330D01*
X126913384Y-64325592D01*
X127046264Y-64140669D01*
X127055734Y-64121509D01*
X127144864Y-63941168D01*
X127144865Y-63941166D01*
X127147158Y-63936526D01*
X127213355Y-63718646D01*
X127225891Y-63623430D01*
X127242641Y-63496201D01*
X127242642Y-63496194D01*
X127243078Y-63492879D01*
X127244737Y-63425000D01*
X127237370Y-63335393D01*
X127226502Y-63203202D01*
X127226501Y-63203196D01*
X127226078Y-63198051D01*
X127191518Y-63060461D01*
X127171863Y-62982208D01*
X127171862Y-62982204D01*
X127170604Y-62977197D01*
X127168545Y-62972461D01*
X127081863Y-62773106D01*
X127081861Y-62773103D01*
X127079803Y-62768369D01*
X126983900Y-62620125D01*
X126958922Y-62581515D01*
X126958920Y-62581512D01*
X126956114Y-62577175D01*
X126802859Y-62408750D01*
X126624154Y-62267618D01*
X126424798Y-62157567D01*
X126225033Y-62086826D01*
X126215020Y-62083280D01*
X126215016Y-62083279D01*
X126210145Y-62081554D01*
X126205052Y-62080647D01*
X126205049Y-62080646D01*
X125991048Y-62042527D01*
X125991042Y-62042526D01*
X125985959Y-62041621D01*
X125898889Y-62040557D01*
X125763430Y-62038902D01*
X125763428Y-62038902D01*
X125758261Y-62038839D01*
X125533167Y-62073283D01*
X125316720Y-62144029D01*
X125312128Y-62146419D01*
X125312129Y-62146419D01*
X125206174Y-62201576D01*
X125114735Y-62249176D01*
X125110602Y-62252279D01*
X125110599Y-62252281D01*
X124936770Y-62382795D01*
X124932635Y-62385900D01*
X124775311Y-62550530D01*
X124727837Y-62620125D01*
X124688975Y-62677094D01*
X124634064Y-62722096D01*
X124563539Y-62730267D01*
X124499792Y-62699013D01*
X124479095Y-62674529D01*
X124418922Y-62581515D01*
X124418920Y-62581512D01*
X124416114Y-62577175D01*
X124262859Y-62408750D01*
X124084154Y-62267618D01*
X123884798Y-62157567D01*
X123685033Y-62086826D01*
X123675020Y-62083280D01*
X123675016Y-62083279D01*
X123670145Y-62081554D01*
X123665052Y-62080647D01*
X123665049Y-62080646D01*
X123451048Y-62042527D01*
X123451042Y-62042526D01*
X123445959Y-62041621D01*
X123358889Y-62040557D01*
X123223430Y-62038902D01*
X123223428Y-62038902D01*
X123218261Y-62038839D01*
X122993167Y-62073283D01*
X122776720Y-62144029D01*
X122772128Y-62146419D01*
X122772129Y-62146419D01*
X122666174Y-62201576D01*
X122574735Y-62249176D01*
X122570602Y-62252279D01*
X122570599Y-62252281D01*
X122396770Y-62382795D01*
X122392635Y-62385900D01*
X122235311Y-62550530D01*
X122187837Y-62620125D01*
X122148975Y-62677094D01*
X122094064Y-62722096D01*
X122023539Y-62730267D01*
X121959792Y-62699013D01*
X121939095Y-62674529D01*
X121878922Y-62581515D01*
X121878920Y-62581512D01*
X121876114Y-62577175D01*
X121722859Y-62408750D01*
X121544154Y-62267618D01*
X121344798Y-62157567D01*
X121145033Y-62086826D01*
X121135020Y-62083280D01*
X121135016Y-62083279D01*
X121130145Y-62081554D01*
X121125052Y-62080647D01*
X121125049Y-62080646D01*
X120911048Y-62042527D01*
X120911042Y-62042526D01*
X120905959Y-62041621D01*
X120818889Y-62040557D01*
X120683430Y-62038902D01*
X120683428Y-62038902D01*
X120678261Y-62038839D01*
X120453167Y-62073283D01*
X120236720Y-62144029D01*
X120232128Y-62146419D01*
X120232129Y-62146419D01*
X120126174Y-62201576D01*
X120034735Y-62249176D01*
X120030602Y-62252279D01*
X120030599Y-62252281D01*
X119856770Y-62382795D01*
X119852635Y-62385900D01*
X119695311Y-62550530D01*
X119647837Y-62620125D01*
X119608975Y-62677094D01*
X119554064Y-62722096D01*
X119483539Y-62730267D01*
X119419792Y-62699013D01*
X119399095Y-62674529D01*
X119338922Y-62581515D01*
X119338920Y-62581512D01*
X119336114Y-62577175D01*
X119182859Y-62408750D01*
X119004154Y-62267618D01*
X118804798Y-62157567D01*
X118605033Y-62086826D01*
X118595020Y-62083280D01*
X118595016Y-62083279D01*
X118590145Y-62081554D01*
X118585052Y-62080647D01*
X118585049Y-62080646D01*
X118371048Y-62042527D01*
X118371042Y-62042526D01*
X118365959Y-62041621D01*
X118278889Y-62040557D01*
X118143430Y-62038902D01*
X118143428Y-62038902D01*
X118138261Y-62038839D01*
X117913167Y-62073283D01*
X117696720Y-62144029D01*
X117692128Y-62146419D01*
X117692129Y-62146419D01*
X117586174Y-62201576D01*
X117494735Y-62249176D01*
X117490602Y-62252279D01*
X117490599Y-62252281D01*
X117316770Y-62382795D01*
X117312635Y-62385900D01*
X117155311Y-62550530D01*
X117107837Y-62620125D01*
X117068975Y-62677094D01*
X117014064Y-62722096D01*
X116943539Y-62730267D01*
X116879792Y-62699013D01*
X116859095Y-62674529D01*
X116798922Y-62581515D01*
X116798920Y-62581512D01*
X116796114Y-62577175D01*
X116642859Y-62408750D01*
X116464154Y-62267618D01*
X116264798Y-62157567D01*
X116065033Y-62086826D01*
X116055020Y-62083280D01*
X116055016Y-62083279D01*
X116050145Y-62081554D01*
X116045052Y-62080647D01*
X116045049Y-62080646D01*
X115831048Y-62042527D01*
X115831042Y-62042526D01*
X115825959Y-62041621D01*
X115738889Y-62040557D01*
X115603430Y-62038902D01*
X115603428Y-62038902D01*
X115598261Y-62038839D01*
X115373167Y-62073283D01*
X115156720Y-62144029D01*
X115152128Y-62146419D01*
X115152129Y-62146419D01*
X115046174Y-62201576D01*
X114954735Y-62249176D01*
X114950602Y-62252279D01*
X114950599Y-62252281D01*
X114776770Y-62382795D01*
X114772635Y-62385900D01*
X114615311Y-62550530D01*
X114567837Y-62620125D01*
X114528975Y-62677094D01*
X114474064Y-62722096D01*
X114403539Y-62730267D01*
X114339792Y-62699013D01*
X114319095Y-62674529D01*
X114258922Y-62581515D01*
X114258920Y-62581512D01*
X114256114Y-62577175D01*
X114102859Y-62408750D01*
X113924154Y-62267618D01*
X113724798Y-62157567D01*
X113525033Y-62086826D01*
X113515020Y-62083280D01*
X113515016Y-62083279D01*
X113510145Y-62081554D01*
X113505052Y-62080647D01*
X113505049Y-62080646D01*
X113291048Y-62042527D01*
X113291042Y-62042526D01*
X113285959Y-62041621D01*
X113198889Y-62040557D01*
X113063430Y-62038902D01*
X113063428Y-62038902D01*
X113058261Y-62038839D01*
X112833167Y-62073283D01*
X112616720Y-62144029D01*
X112612128Y-62146419D01*
X112612129Y-62146419D01*
X112506174Y-62201576D01*
X112414735Y-62249176D01*
X112410602Y-62252279D01*
X112410599Y-62252281D01*
X112236770Y-62382795D01*
X112232635Y-62385900D01*
X112075311Y-62550530D01*
X111988974Y-62677095D01*
X111934065Y-62722096D01*
X111863540Y-62730267D01*
X111799793Y-62699013D01*
X111779097Y-62674530D01*
X111743900Y-62620125D01*
X111723691Y-62551684D01*
X111723691Y-60452000D01*
X135103496Y-60452000D01*
X135123458Y-60641928D01*
X135182473Y-60823556D01*
X135277960Y-60988944D01*
X135405747Y-61130866D01*
X135504843Y-61202864D01*
X135535965Y-61225475D01*
X135560248Y-61243118D01*
X135566276Y-61245802D01*
X135566278Y-61245803D01*
X135728681Y-61318109D01*
X135734712Y-61320794D01*
X135828113Y-61340647D01*
X135915056Y-61359128D01*
X135915061Y-61359128D01*
X135921513Y-61360500D01*
X136112487Y-61360500D01*
X136118939Y-61359128D01*
X136118944Y-61359128D01*
X136205887Y-61340647D01*
X136299288Y-61320794D01*
X136305319Y-61318109D01*
X136467722Y-61245803D01*
X136467724Y-61245802D01*
X136473752Y-61243118D01*
X136484127Y-61235580D01*
X139513752Y-61235580D01*
X139538477Y-61353421D01*
X139541537Y-61363617D01*
X139622263Y-61568029D01*
X139626994Y-61577561D01*
X139741016Y-61765462D01*
X139747280Y-61774052D01*
X139891327Y-61940052D01*
X139898958Y-61947472D01*
X140068911Y-62086826D01*
X140077678Y-62092850D01*
X140268682Y-62201576D01*
X140278346Y-62206041D01*
X140484941Y-62281031D01*
X140495208Y-62283802D01*
X140698174Y-62320504D01*
X140711414Y-62319085D01*
X140716000Y-62304450D01*
X140716000Y-62300849D01*
X141224000Y-62300849D01*
X141228310Y-62315527D01*
X141240193Y-62317590D01*
X141319325Y-62310876D01*
X141329797Y-62309086D01*
X141542535Y-62253870D01*
X141552575Y-62250335D01*
X141752970Y-62160063D01*
X141762256Y-62154894D01*
X141944575Y-62032150D01*
X141952870Y-62025481D01*
X142111900Y-61873772D01*
X142118941Y-61865814D01*
X142250141Y-61689475D01*
X142255745Y-61680438D01*
X142355357Y-61484516D01*
X142359357Y-61474665D01*
X142424534Y-61264760D01*
X142426817Y-61254376D01*
X142428861Y-61238957D01*
X142426665Y-61224793D01*
X142413478Y-61221000D01*
X141242115Y-61221000D01*
X141226876Y-61225475D01*
X141225671Y-61226865D01*
X141224000Y-61234548D01*
X141224000Y-62300849D01*
X140716000Y-62300849D01*
X140716000Y-61239115D01*
X140711525Y-61223876D01*
X140710135Y-61222671D01*
X140702452Y-61221000D01*
X139528808Y-61221000D01*
X139515277Y-61224973D01*
X139513752Y-61235580D01*
X136484127Y-61235580D01*
X136498036Y-61225475D01*
X136529157Y-61202864D01*
X136628253Y-61130866D01*
X136756040Y-60988944D01*
X136851527Y-60823556D01*
X136888740Y-60709027D01*
X136908502Y-60648207D01*
X136908502Y-60648205D01*
X136910542Y-60641928D01*
X136915450Y-60595230D01*
X136942463Y-60529573D01*
X136951665Y-60519305D01*
X138411020Y-59059950D01*
X138417285Y-59054096D01*
X138455160Y-59021055D01*
X138460885Y-59016061D01*
X138497614Y-58963800D01*
X138501546Y-58958505D01*
X138536291Y-58914194D01*
X138540977Y-58908218D01*
X138544102Y-58901296D01*
X138545464Y-58899048D01*
X138553868Y-58884315D01*
X138555122Y-58881976D01*
X138559490Y-58875761D01*
X138562249Y-58868685D01*
X138562251Y-58868681D01*
X138582700Y-58816231D01*
X138585249Y-58810166D01*
X138611545Y-58751927D01*
X138612929Y-58744462D01*
X138613726Y-58741918D01*
X138618359Y-58725652D01*
X138619021Y-58723072D01*
X138621782Y-58715991D01*
X138630122Y-58652643D01*
X138631153Y-58646129D01*
X138633558Y-58633158D01*
X138642796Y-58583313D01*
X138639209Y-58521102D01*
X138639000Y-58513849D01*
X138639000Y-58402774D01*
X139483102Y-58402774D01*
X139491751Y-58633158D01*
X139539093Y-58858791D01*
X139541051Y-58863750D01*
X139541052Y-58863752D01*
X139603175Y-59021055D01*
X139623776Y-59073221D01*
X139743377Y-59270317D01*
X139746874Y-59274347D01*
X139869054Y-59415147D01*
X139894477Y-59444445D01*
X139898608Y-59447832D01*
X140068627Y-59587240D01*
X140068633Y-59587244D01*
X140072755Y-59590624D01*
X140077398Y-59593267D01*
X140104735Y-59608829D01*
X140154041Y-59659912D01*
X140167902Y-59729542D01*
X140141918Y-59795613D01*
X140112768Y-59822851D01*
X139995422Y-59901852D01*
X139987130Y-59908519D01*
X139828100Y-60060228D01*
X139821059Y-60068186D01*
X139689859Y-60244525D01*
X139684255Y-60253562D01*
X139584643Y-60449484D01*
X139580643Y-60459335D01*
X139515466Y-60669240D01*
X139513183Y-60679624D01*
X139511139Y-60695043D01*
X139513335Y-60709207D01*
X139526522Y-60713000D01*
X142411192Y-60713000D01*
X142424723Y-60709027D01*
X142426248Y-60698420D01*
X142401523Y-60580579D01*
X142398463Y-60570383D01*
X142317737Y-60365971D01*
X142313006Y-60356439D01*
X142198984Y-60168538D01*
X142192720Y-60159948D01*
X142048673Y-59993948D01*
X142041042Y-59986528D01*
X141871089Y-59847174D01*
X141862326Y-59841152D01*
X141835289Y-59825762D01*
X141785982Y-59774680D01*
X141772120Y-59705049D01*
X141798103Y-59638978D01*
X141827253Y-59611739D01*
X141906668Y-59558273D01*
X141949319Y-59529559D01*
X141962943Y-59516563D01*
X142112278Y-59374103D01*
X142116135Y-59370424D01*
X142253754Y-59185458D01*
X142270826Y-59151881D01*
X142317565Y-59059950D01*
X142358240Y-58979949D01*
X142387936Y-58884315D01*
X142425024Y-58764871D01*
X142426607Y-58759773D01*
X142441669Y-58646129D01*
X142456198Y-58536511D01*
X142456198Y-58536506D01*
X142456898Y-58531226D01*
X142448249Y-58300842D01*
X142400907Y-58075209D01*
X142316224Y-57860779D01*
X142196623Y-57663683D01*
X142109755Y-57563576D01*
X142049023Y-57493588D01*
X142049021Y-57493586D01*
X142045523Y-57489555D01*
X141984607Y-57439607D01*
X141871373Y-57346760D01*
X141871367Y-57346756D01*
X141867245Y-57343376D01*
X141835750Y-57325448D01*
X141786445Y-57274368D01*
X141772583Y-57204738D01*
X141798566Y-57138667D01*
X141827716Y-57111427D01*
X141863642Y-57087240D01*
X141949319Y-57029559D01*
X142116135Y-56870424D01*
X142253754Y-56685458D01*
X142358240Y-56479949D01*
X142363453Y-56463163D01*
X142425024Y-56264871D01*
X142426607Y-56259773D01*
X142441108Y-56150365D01*
X142456198Y-56036511D01*
X142456198Y-56036506D01*
X142456898Y-56031226D01*
X142453292Y-55935159D01*
X142448449Y-55806173D01*
X142448249Y-55800842D01*
X142400907Y-55575209D01*
X142316224Y-55360779D01*
X142196623Y-55163683D01*
X142138615Y-55096834D01*
X142049023Y-54993588D01*
X142049021Y-54993586D01*
X142045523Y-54989555D01*
X142009880Y-54960330D01*
X141969886Y-54901671D01*
X141967954Y-54830701D01*
X142004698Y-54769952D01*
X142023468Y-54755752D01*
X142163120Y-54669332D01*
X142169348Y-54665478D01*
X142294305Y-54540303D01*
X142387115Y-54389738D01*
X142424929Y-54275732D01*
X142440632Y-54228389D01*
X142440632Y-54228387D01*
X142442797Y-54221861D01*
X142453500Y-54117400D01*
X142453500Y-52816600D01*
X142442526Y-52710834D01*
X142409404Y-52611554D01*
X142388868Y-52550002D01*
X142386550Y-52543054D01*
X142293478Y-52392652D01*
X142168303Y-52267695D01*
X142162072Y-52263854D01*
X142023968Y-52178725D01*
X142023966Y-52178724D01*
X142017738Y-52174885D01*
X141857254Y-52121655D01*
X141856389Y-52121368D01*
X141856387Y-52121368D01*
X141849861Y-52119203D01*
X141843025Y-52118503D01*
X141843022Y-52118502D01*
X141799969Y-52114091D01*
X141745400Y-52108500D01*
X140194600Y-52108500D01*
X140191354Y-52108837D01*
X140191350Y-52108837D01*
X140095692Y-52118762D01*
X140095688Y-52118763D01*
X140088834Y-52119474D01*
X140082298Y-52121655D01*
X140082296Y-52121655D01*
X139950194Y-52165728D01*
X139921054Y-52175450D01*
X139770652Y-52268522D01*
X139645695Y-52393697D01*
X139552885Y-52544262D01*
X139497203Y-52712139D01*
X139486500Y-52816600D01*
X139486500Y-54117400D01*
X139497474Y-54223166D01*
X139499655Y-54229702D01*
X139499655Y-54229704D01*
X139519936Y-54290492D01*
X139553450Y-54390946D01*
X139646522Y-54541348D01*
X139771697Y-54666305D01*
X139917340Y-54756081D01*
X139964832Y-54808852D01*
X139976256Y-54878924D01*
X139947982Y-54944048D01*
X139938195Y-54954510D01*
X139823865Y-55063576D01*
X139686246Y-55248542D01*
X139683830Y-55253293D01*
X139683828Y-55253297D01*
X139639256Y-55340964D01*
X139581760Y-55454051D01*
X139580178Y-55459145D01*
X139580177Y-55459148D01*
X139539633Y-55589721D01*
X139513393Y-55674227D01*
X139512692Y-55679516D01*
X139497304Y-55795623D01*
X139483102Y-55902774D01*
X139491751Y-56133158D01*
X139539093Y-56358791D01*
X139541051Y-56363750D01*
X139541052Y-56363752D01*
X139585069Y-56475208D01*
X139623776Y-56573221D01*
X139743377Y-56770317D01*
X139746874Y-56774347D01*
X139884958Y-56933475D01*
X139894477Y-56944445D01*
X139936030Y-56978516D01*
X140068627Y-57087240D01*
X140068633Y-57087244D01*
X140072755Y-57090624D01*
X140104250Y-57108552D01*
X140153555Y-57159632D01*
X140167417Y-57229262D01*
X140141434Y-57295333D01*
X140112284Y-57322573D01*
X139990681Y-57404441D01*
X139986824Y-57408120D01*
X139986822Y-57408122D01*
X139917464Y-57474287D01*
X139823865Y-57563576D01*
X139820682Y-57567854D01*
X139764790Y-57642975D01*
X139686246Y-57748542D01*
X139581760Y-57954051D01*
X139580178Y-57959145D01*
X139580177Y-57959148D01*
X139518115Y-58159020D01*
X139513393Y-58174227D01*
X139512692Y-58179516D01*
X139497304Y-58295623D01*
X139483102Y-58402774D01*
X138639000Y-58402774D01*
X138639000Y-56585744D01*
X138659002Y-56517623D01*
X138663064Y-56511683D01*
X138665121Y-56508852D01*
X138669540Y-56503944D01*
X138683394Y-56479949D01*
X138761723Y-56344279D01*
X138761724Y-56344278D01*
X138765027Y-56338556D01*
X138824042Y-56156928D01*
X138844004Y-55967000D01*
X138824042Y-55777072D01*
X138765027Y-55595444D01*
X138756358Y-55580428D01*
X138686336Y-55459148D01*
X138669540Y-55430056D01*
X138541753Y-55288134D01*
X138387252Y-55175882D01*
X138381224Y-55173198D01*
X138381222Y-55173197D01*
X138218819Y-55100891D01*
X138218818Y-55100891D01*
X138212788Y-55098206D01*
X138118310Y-55078124D01*
X138032444Y-55059872D01*
X138032439Y-55059872D01*
X138025987Y-55058500D01*
X137835013Y-55058500D01*
X137828561Y-55059872D01*
X137828556Y-55059872D01*
X137742690Y-55078124D01*
X137648212Y-55098206D01*
X137642182Y-55100891D01*
X137642181Y-55100891D01*
X137479778Y-55173197D01*
X137479776Y-55173198D01*
X137473748Y-55175882D01*
X137319247Y-55288134D01*
X137191460Y-55430056D01*
X137174664Y-55459148D01*
X137104643Y-55580428D01*
X137095973Y-55595444D01*
X137036958Y-55777072D01*
X137016996Y-55967000D01*
X137036958Y-56156928D01*
X137095973Y-56338556D01*
X137099276Y-56344278D01*
X137099277Y-56344279D01*
X137177606Y-56479949D01*
X137191460Y-56503944D01*
X137195879Y-56508852D01*
X137197936Y-56511683D01*
X137221795Y-56578551D01*
X137222000Y-56585744D01*
X137222000Y-58192839D01*
X137201998Y-58260960D01*
X137185095Y-58281934D01*
X135950467Y-59516563D01*
X135887569Y-59550715D01*
X135734712Y-59583206D01*
X135728682Y-59585891D01*
X135728681Y-59585891D01*
X135566278Y-59658197D01*
X135566276Y-59658198D01*
X135560248Y-59660882D01*
X135554907Y-59664762D01*
X135554906Y-59664763D01*
X135504843Y-59701136D01*
X135405747Y-59773134D01*
X135401326Y-59778044D01*
X135401325Y-59778045D01*
X135358361Y-59825762D01*
X135277960Y-59915056D01*
X135182473Y-60080444D01*
X135123458Y-60262072D01*
X135103496Y-60452000D01*
X111723691Y-60452000D01*
X111723691Y-59792443D01*
X111724601Y-59781660D01*
X111724297Y-59781638D01*
X111724736Y-59775662D01*
X111725742Y-59769745D01*
X111723721Y-59677117D01*
X111723691Y-59674369D01*
X111723691Y-59635345D01*
X111722986Y-59627960D01*
X111722447Y-59618747D01*
X111721259Y-59564270D01*
X111721259Y-59564268D01*
X111721128Y-59558273D01*
X111717948Y-59543500D01*
X111714076Y-59525516D01*
X111711824Y-59510965D01*
X111709213Y-59483601D01*
X111708643Y-59477625D01*
X111699903Y-59447832D01*
X111691615Y-59419579D01*
X111689343Y-59410631D01*
X111677874Y-59357359D01*
X111677870Y-59357347D01*
X111676609Y-59351489D01*
X111663495Y-59320669D01*
X111658530Y-59306805D01*
X111650785Y-59280405D01*
X111649099Y-59274657D01*
X111621395Y-59220866D01*
X111617474Y-59212514D01*
X111605961Y-59185458D01*
X111593790Y-59156854D01*
X111575080Y-59129063D01*
X111567589Y-59116396D01*
X111554996Y-59091943D01*
X111554992Y-59091936D01*
X111552249Y-59086611D01*
X111514882Y-59039041D01*
X111509448Y-59031576D01*
X111478193Y-58985150D01*
X111475663Y-58981392D01*
X111471922Y-58977266D01*
X111451314Y-58956658D01*
X111441323Y-58945396D01*
X111425293Y-58924988D01*
X111425289Y-58924984D01*
X111421587Y-58920271D01*
X111380152Y-58884315D01*
X111374582Y-58879482D01*
X111368068Y-58873412D01*
X108127359Y-55632703D01*
X115390743Y-55632703D01*
X115391302Y-55636947D01*
X115391302Y-55636951D01*
X115396210Y-55674227D01*
X115428268Y-55917734D01*
X115504129Y-56195036D01*
X115616923Y-56459476D01*
X115628693Y-56479142D01*
X115752171Y-56685458D01*
X115764561Y-56706161D01*
X115944313Y-56930528D01*
X116152851Y-57128423D01*
X116386317Y-57296186D01*
X116390112Y-57298195D01*
X116390113Y-57298196D01*
X116411869Y-57309715D01*
X116640392Y-57430712D01*
X116910373Y-57529511D01*
X117191264Y-57590755D01*
X117219841Y-57593004D01*
X117414282Y-57608307D01*
X117414291Y-57608307D01*
X117416739Y-57608500D01*
X117572271Y-57608500D01*
X117574407Y-57608354D01*
X117574418Y-57608354D01*
X117782548Y-57594165D01*
X117782554Y-57594164D01*
X117786825Y-57593873D01*
X117791020Y-57593004D01*
X117791022Y-57593004D01*
X117950890Y-57559897D01*
X118068342Y-57535574D01*
X118339343Y-57439607D01*
X118594812Y-57307750D01*
X118598313Y-57305289D01*
X118598317Y-57305287D01*
X118741473Y-57204675D01*
X118830023Y-57142441D01*
X118908403Y-57069606D01*
X119037479Y-56949661D01*
X119037481Y-56949658D01*
X119040622Y-56946740D01*
X119222713Y-56724268D01*
X119372927Y-56479142D01*
X119488483Y-56215898D01*
X119510566Y-56138377D01*
X119542607Y-56025895D01*
X119567244Y-55939406D01*
X119604984Y-55674227D01*
X119607146Y-55659036D01*
X119607146Y-55659034D01*
X119607751Y-55654784D01*
X119607845Y-55636951D01*
X119609235Y-55371583D01*
X119609235Y-55371576D01*
X119609257Y-55367297D01*
X119607799Y-55356217D01*
X119574184Y-55100891D01*
X119571732Y-55082266D01*
X119495871Y-54804964D01*
X119434522Y-54661134D01*
X119384763Y-54544476D01*
X119384761Y-54544472D01*
X119383077Y-54540524D01*
X119235439Y-54293839D01*
X119055687Y-54069472D01*
X118847149Y-53871577D01*
X118613683Y-53703814D01*
X118591843Y-53692250D01*
X118568654Y-53679972D01*
X118359608Y-53569288D01*
X118207750Y-53513716D01*
X118093658Y-53471964D01*
X118093656Y-53471963D01*
X118089627Y-53470489D01*
X117808736Y-53409245D01*
X117777685Y-53406801D01*
X117585718Y-53391693D01*
X117585709Y-53391693D01*
X117583261Y-53391500D01*
X117427729Y-53391500D01*
X117425593Y-53391646D01*
X117425582Y-53391646D01*
X117217452Y-53405835D01*
X117217446Y-53405836D01*
X117213175Y-53406127D01*
X117208980Y-53406996D01*
X117208978Y-53406996D01*
X117072416Y-53435277D01*
X116931658Y-53464426D01*
X116660657Y-53560393D01*
X116405188Y-53692250D01*
X116401687Y-53694711D01*
X116401683Y-53694713D01*
X116391594Y-53701804D01*
X116169977Y-53857559D01*
X115959378Y-54053260D01*
X115777287Y-54275732D01*
X115627073Y-54520858D01*
X115625347Y-54524791D01*
X115625346Y-54524792D01*
X115517728Y-54769952D01*
X115511517Y-54784102D01*
X115510342Y-54788229D01*
X115510341Y-54788230D01*
X115477237Y-54904441D01*
X115432756Y-55060594D01*
X115392249Y-55345216D01*
X115392227Y-55349505D01*
X115392226Y-55349512D01*
X115390968Y-55589721D01*
X115390743Y-55632703D01*
X108127359Y-55632703D01*
X104777405Y-52282749D01*
X104743379Y-52220437D01*
X104740500Y-52193654D01*
X104740500Y-49544170D01*
X104760502Y-49476049D01*
X104814158Y-49429556D01*
X104884432Y-49419452D01*
X104925435Y-49433762D01*
X104925659Y-49433295D01*
X104929853Y-49435304D01*
X104930064Y-49435378D01*
X104930325Y-49435531D01*
X104930334Y-49435535D01*
X104934788Y-49438138D01*
X105147520Y-49519372D01*
X105152586Y-49520403D01*
X105152587Y-49520403D01*
X105204821Y-49531030D01*
X105370663Y-49564771D01*
X105498479Y-49569458D01*
X105593061Y-49572927D01*
X105593066Y-49572927D01*
X105598225Y-49573116D01*
X105603345Y-49572460D01*
X105603347Y-49572460D01*
X105675535Y-49563212D01*
X105824094Y-49544181D01*
X105829043Y-49542696D01*
X105829049Y-49542695D01*
X105955395Y-49504789D01*
X106042204Y-49478745D01*
X106246698Y-49378564D01*
X106250902Y-49375566D01*
X106250906Y-49375563D01*
X106328874Y-49319949D01*
X106432084Y-49246330D01*
X106593384Y-49085592D01*
X106703719Y-48932044D01*
X106759714Y-48888396D01*
X106830417Y-48881950D01*
X106893382Y-48914753D01*
X106913474Y-48939735D01*
X106951180Y-49001264D01*
X106951183Y-49001269D01*
X106953883Y-49005674D01*
X107102977Y-49177793D01*
X107278180Y-49323249D01*
X107282632Y-49325851D01*
X107282637Y-49325854D01*
X107376731Y-49380838D01*
X107474788Y-49438138D01*
X107687520Y-49519372D01*
X107692586Y-49520403D01*
X107692587Y-49520403D01*
X107744821Y-49531030D01*
X107910663Y-49564771D01*
X108038479Y-49569458D01*
X108133061Y-49572927D01*
X108133066Y-49572927D01*
X108138225Y-49573116D01*
X108143345Y-49572460D01*
X108143347Y-49572460D01*
X108215535Y-49563212D01*
X108364094Y-49544181D01*
X108369043Y-49542696D01*
X108369049Y-49542695D01*
X108495395Y-49504789D01*
X108582204Y-49478745D01*
X108786698Y-49378564D01*
X108790902Y-49375566D01*
X108790906Y-49375563D01*
X108868874Y-49319949D01*
X108972084Y-49246330D01*
X109133384Y-49085592D01*
X109243719Y-48932044D01*
X109299714Y-48888396D01*
X109370417Y-48881950D01*
X109433382Y-48914753D01*
X109453474Y-48939735D01*
X109491180Y-49001264D01*
X109491183Y-49001269D01*
X109493883Y-49005674D01*
X109642977Y-49177793D01*
X109818180Y-49323249D01*
X109822632Y-49325851D01*
X109822637Y-49325854D01*
X109916731Y-49380838D01*
X110014788Y-49438138D01*
X110227520Y-49519372D01*
X110232586Y-49520403D01*
X110232587Y-49520403D01*
X110284821Y-49531030D01*
X110450663Y-49564771D01*
X110578479Y-49569458D01*
X110673061Y-49572927D01*
X110673066Y-49572927D01*
X110678225Y-49573116D01*
X110683345Y-49572460D01*
X110683347Y-49572460D01*
X110755535Y-49563212D01*
X110904094Y-49544181D01*
X110909043Y-49542696D01*
X110909049Y-49542695D01*
X111035395Y-49504789D01*
X111122204Y-49478745D01*
X111326698Y-49378564D01*
X111330902Y-49375566D01*
X111330906Y-49375563D01*
X111408874Y-49319949D01*
X111512084Y-49246330D01*
X111673384Y-49085592D01*
X111783719Y-48932044D01*
X111839714Y-48888396D01*
X111910417Y-48881950D01*
X111973382Y-48914753D01*
X111993474Y-48939735D01*
X112031180Y-49001264D01*
X112031183Y-49001269D01*
X112033883Y-49005674D01*
X112182977Y-49177793D01*
X112358180Y-49323249D01*
X112362632Y-49325851D01*
X112362637Y-49325854D01*
X112456731Y-49380838D01*
X112554788Y-49438138D01*
X112767520Y-49519372D01*
X112772586Y-49520403D01*
X112772587Y-49520403D01*
X112824821Y-49531030D01*
X112990663Y-49564771D01*
X113118479Y-49569458D01*
X113213061Y-49572927D01*
X113213066Y-49572927D01*
X113218225Y-49573116D01*
X113223345Y-49572460D01*
X113223347Y-49572460D01*
X113295535Y-49563212D01*
X113444094Y-49544181D01*
X113449043Y-49542696D01*
X113449049Y-49542695D01*
X113575395Y-49504789D01*
X113662204Y-49478745D01*
X113866698Y-49378564D01*
X113870902Y-49375566D01*
X113870906Y-49375563D01*
X113948874Y-49319949D01*
X114052084Y-49246330D01*
X114213384Y-49085592D01*
X114323719Y-48932044D01*
X114379714Y-48888396D01*
X114450417Y-48881950D01*
X114513382Y-48914753D01*
X114533474Y-48939735D01*
X114571180Y-49001264D01*
X114571183Y-49001269D01*
X114573883Y-49005674D01*
X114722977Y-49177793D01*
X114898180Y-49323249D01*
X114902632Y-49325851D01*
X114902637Y-49325854D01*
X114996731Y-49380838D01*
X115094788Y-49438138D01*
X115307520Y-49519372D01*
X115312586Y-49520403D01*
X115312587Y-49520403D01*
X115364821Y-49531030D01*
X115530663Y-49564771D01*
X115658479Y-49569458D01*
X115753061Y-49572927D01*
X115753066Y-49572927D01*
X115758225Y-49573116D01*
X115763345Y-49572460D01*
X115763347Y-49572460D01*
X115835535Y-49563212D01*
X115984094Y-49544181D01*
X115989043Y-49542696D01*
X115989049Y-49542695D01*
X116115395Y-49504789D01*
X116202204Y-49478745D01*
X116406698Y-49378564D01*
X116410902Y-49375566D01*
X116410906Y-49375563D01*
X116488874Y-49319949D01*
X116592084Y-49246330D01*
X116753384Y-49085592D01*
X116863719Y-48932044D01*
X116919714Y-48888396D01*
X116990417Y-48881950D01*
X117053382Y-48914753D01*
X117073474Y-48939735D01*
X117111180Y-49001264D01*
X117111183Y-49001269D01*
X117113883Y-49005674D01*
X117262977Y-49177793D01*
X117438180Y-49323249D01*
X117442632Y-49325851D01*
X117442637Y-49325854D01*
X117536731Y-49380838D01*
X117634788Y-49438138D01*
X117847520Y-49519372D01*
X117852586Y-49520403D01*
X117852587Y-49520403D01*
X117904821Y-49531030D01*
X118070663Y-49564771D01*
X118198479Y-49569458D01*
X118293061Y-49572927D01*
X118293066Y-49572927D01*
X118298225Y-49573116D01*
X118303345Y-49572460D01*
X118303347Y-49572460D01*
X118375535Y-49563212D01*
X118524094Y-49544181D01*
X118529043Y-49542696D01*
X118529049Y-49542695D01*
X118655395Y-49504789D01*
X118742204Y-49478745D01*
X118946698Y-49378564D01*
X118950902Y-49375566D01*
X118950906Y-49375563D01*
X119028874Y-49319949D01*
X119132084Y-49246330D01*
X119293384Y-49085592D01*
X119403719Y-48932044D01*
X119459714Y-48888396D01*
X119530417Y-48881950D01*
X119593382Y-48914753D01*
X119613474Y-48939735D01*
X119651180Y-49001264D01*
X119651183Y-49001269D01*
X119653883Y-49005674D01*
X119802977Y-49177793D01*
X119978180Y-49323249D01*
X119982632Y-49325851D01*
X119982637Y-49325854D01*
X120076731Y-49380838D01*
X120174788Y-49438138D01*
X120387520Y-49519372D01*
X120392586Y-49520403D01*
X120392587Y-49520403D01*
X120444821Y-49531030D01*
X120610663Y-49564771D01*
X120738479Y-49569458D01*
X120833061Y-49572927D01*
X120833066Y-49572927D01*
X120838225Y-49573116D01*
X120843345Y-49572460D01*
X120843347Y-49572460D01*
X120915535Y-49563212D01*
X121064094Y-49544181D01*
X121069043Y-49542696D01*
X121069049Y-49542695D01*
X121195395Y-49504789D01*
X121282204Y-49478745D01*
X121486698Y-49378564D01*
X121490902Y-49375566D01*
X121490906Y-49375563D01*
X121568874Y-49319949D01*
X121672084Y-49246330D01*
X121833384Y-49085592D01*
X121943719Y-48932044D01*
X121999714Y-48888396D01*
X122070417Y-48881950D01*
X122133382Y-48914753D01*
X122153474Y-48939735D01*
X122191180Y-49001264D01*
X122191183Y-49001269D01*
X122193883Y-49005674D01*
X122342977Y-49177793D01*
X122518180Y-49323249D01*
X122522632Y-49325851D01*
X122522637Y-49325854D01*
X122616731Y-49380838D01*
X122714788Y-49438138D01*
X122927520Y-49519372D01*
X122932586Y-49520403D01*
X122932587Y-49520403D01*
X122984821Y-49531030D01*
X123150663Y-49564771D01*
X123278479Y-49569458D01*
X123373061Y-49572927D01*
X123373066Y-49572927D01*
X123378225Y-49573116D01*
X123383345Y-49572460D01*
X123383347Y-49572460D01*
X123455535Y-49563212D01*
X123604094Y-49544181D01*
X123609043Y-49542696D01*
X123609049Y-49542695D01*
X123735395Y-49504789D01*
X123822204Y-49478745D01*
X124026698Y-49378564D01*
X124030902Y-49375566D01*
X124030906Y-49375563D01*
X124108874Y-49319949D01*
X124212084Y-49246330D01*
X124373384Y-49085592D01*
X124483719Y-48932044D01*
X124539714Y-48888396D01*
X124610417Y-48881950D01*
X124673382Y-48914753D01*
X124693474Y-48939735D01*
X124731180Y-49001264D01*
X124731183Y-49001269D01*
X124733883Y-49005674D01*
X124882977Y-49177793D01*
X125058180Y-49323249D01*
X125062632Y-49325851D01*
X125062637Y-49325854D01*
X125156731Y-49380838D01*
X125254788Y-49438138D01*
X125467520Y-49519372D01*
X125472586Y-49520403D01*
X125472587Y-49520403D01*
X125524821Y-49531030D01*
X125690663Y-49564771D01*
X125818479Y-49569458D01*
X125913061Y-49572927D01*
X125913066Y-49572927D01*
X125918225Y-49573116D01*
X125923345Y-49572460D01*
X125923347Y-49572460D01*
X125995535Y-49563212D01*
X126144094Y-49544181D01*
X126149043Y-49542696D01*
X126149049Y-49542695D01*
X126275395Y-49504789D01*
X126362204Y-49478745D01*
X126566698Y-49378564D01*
X126570902Y-49375566D01*
X126570906Y-49375563D01*
X126648874Y-49319949D01*
X126752084Y-49246330D01*
X126913384Y-49085592D01*
X127046264Y-48900669D01*
X127147158Y-48696526D01*
X127213355Y-48478646D01*
X127243078Y-48252879D01*
X127244737Y-48185000D01*
X127237370Y-48095393D01*
X127226502Y-47963202D01*
X127226501Y-47963196D01*
X127226078Y-47958051D01*
X127170604Y-47737197D01*
X127168545Y-47732461D01*
X127081863Y-47533106D01*
X127081861Y-47533103D01*
X127079803Y-47528369D01*
X126956114Y-47337175D01*
X126802859Y-47168750D01*
X126624154Y-47027618D01*
X126424798Y-46917567D01*
X126294571Y-46871451D01*
X126215020Y-46843280D01*
X126215016Y-46843279D01*
X126210145Y-46841554D01*
X126205052Y-46840647D01*
X126205049Y-46840646D01*
X125991048Y-46802527D01*
X125991042Y-46802526D01*
X125985959Y-46801621D01*
X125898889Y-46800557D01*
X125763430Y-46798902D01*
X125763428Y-46798902D01*
X125758261Y-46798839D01*
X125533167Y-46833283D01*
X125316720Y-46904029D01*
X125114735Y-47009176D01*
X125110602Y-47012279D01*
X125110599Y-47012281D01*
X124936770Y-47142795D01*
X124932635Y-47145900D01*
X124775311Y-47310530D01*
X124772400Y-47314798D01*
X124688975Y-47437094D01*
X124634064Y-47482096D01*
X124563539Y-47490267D01*
X124499792Y-47459013D01*
X124479095Y-47434529D01*
X124418922Y-47341515D01*
X124418920Y-47341512D01*
X124416114Y-47337175D01*
X124262859Y-47168750D01*
X124084154Y-47027618D01*
X123884798Y-46917567D01*
X123754571Y-46871451D01*
X123675020Y-46843280D01*
X123675016Y-46843279D01*
X123670145Y-46841554D01*
X123665052Y-46840647D01*
X123665049Y-46840646D01*
X123451048Y-46802527D01*
X123451042Y-46802526D01*
X123445959Y-46801621D01*
X123358889Y-46800557D01*
X123223430Y-46798902D01*
X123223428Y-46798902D01*
X123218261Y-46798839D01*
X122993167Y-46833283D01*
X122776720Y-46904029D01*
X122574735Y-47009176D01*
X122570602Y-47012279D01*
X122570599Y-47012281D01*
X122396770Y-47142795D01*
X122392635Y-47145900D01*
X122235311Y-47310530D01*
X122232400Y-47314798D01*
X122148975Y-47437094D01*
X122094064Y-47482096D01*
X122023539Y-47490267D01*
X121959792Y-47459013D01*
X121939095Y-47434529D01*
X121878922Y-47341515D01*
X121878920Y-47341512D01*
X121876114Y-47337175D01*
X121722859Y-47168750D01*
X121544154Y-47027618D01*
X121344798Y-46917567D01*
X121214571Y-46871451D01*
X121135020Y-46843280D01*
X121135016Y-46843279D01*
X121130145Y-46841554D01*
X121125052Y-46840647D01*
X121125049Y-46840646D01*
X120911048Y-46802527D01*
X120911042Y-46802526D01*
X120905959Y-46801621D01*
X120818889Y-46800557D01*
X120683430Y-46798902D01*
X120683428Y-46798902D01*
X120678261Y-46798839D01*
X120453167Y-46833283D01*
X120236720Y-46904029D01*
X120034735Y-47009176D01*
X120030602Y-47012279D01*
X120030599Y-47012281D01*
X119856770Y-47142795D01*
X119852635Y-47145900D01*
X119695311Y-47310530D01*
X119692400Y-47314798D01*
X119608975Y-47437094D01*
X119554064Y-47482096D01*
X119483539Y-47490267D01*
X119419792Y-47459013D01*
X119399095Y-47434529D01*
X119338922Y-47341515D01*
X119338920Y-47341512D01*
X119336114Y-47337175D01*
X119182859Y-47168750D01*
X119004154Y-47027618D01*
X118804798Y-46917567D01*
X118674571Y-46871451D01*
X118595020Y-46843280D01*
X118595016Y-46843279D01*
X118590145Y-46841554D01*
X118585052Y-46840647D01*
X118585049Y-46840646D01*
X118371048Y-46802527D01*
X118371042Y-46802526D01*
X118365959Y-46801621D01*
X118278889Y-46800557D01*
X118143430Y-46798902D01*
X118143428Y-46798902D01*
X118138261Y-46798839D01*
X117913167Y-46833283D01*
X117696720Y-46904029D01*
X117494735Y-47009176D01*
X117490602Y-47012279D01*
X117490599Y-47012281D01*
X117316770Y-47142795D01*
X117312635Y-47145900D01*
X117155311Y-47310530D01*
X117152400Y-47314798D01*
X117068975Y-47437094D01*
X117014064Y-47482096D01*
X116943539Y-47490267D01*
X116879792Y-47459013D01*
X116859095Y-47434529D01*
X116798922Y-47341515D01*
X116798920Y-47341512D01*
X116796114Y-47337175D01*
X116642859Y-47168750D01*
X116464154Y-47027618D01*
X116264798Y-46917567D01*
X116134571Y-46871451D01*
X116055020Y-46843280D01*
X116055016Y-46843279D01*
X116050145Y-46841554D01*
X116045052Y-46840647D01*
X116045049Y-46840646D01*
X115831048Y-46802527D01*
X115831042Y-46802526D01*
X115825959Y-46801621D01*
X115738889Y-46800557D01*
X115603430Y-46798902D01*
X115603428Y-46798902D01*
X115598261Y-46798839D01*
X115373167Y-46833283D01*
X115156720Y-46904029D01*
X114954735Y-47009176D01*
X114950602Y-47012279D01*
X114950599Y-47012281D01*
X114776770Y-47142795D01*
X114772635Y-47145900D01*
X114615311Y-47310530D01*
X114612400Y-47314798D01*
X114528975Y-47437094D01*
X114474064Y-47482096D01*
X114403539Y-47490267D01*
X114339792Y-47459013D01*
X114319095Y-47434529D01*
X114258922Y-47341515D01*
X114258920Y-47341512D01*
X114256114Y-47337175D01*
X114102859Y-47168750D01*
X113924154Y-47027618D01*
X113724798Y-46917567D01*
X113594571Y-46871451D01*
X113515020Y-46843280D01*
X113515016Y-46843279D01*
X113510145Y-46841554D01*
X113505052Y-46840647D01*
X113505049Y-46840646D01*
X113291048Y-46802527D01*
X113291042Y-46802526D01*
X113285959Y-46801621D01*
X113198889Y-46800557D01*
X113063430Y-46798902D01*
X113063428Y-46798902D01*
X113058261Y-46798839D01*
X112833167Y-46833283D01*
X112616720Y-46904029D01*
X112414735Y-47009176D01*
X112410602Y-47012279D01*
X112410599Y-47012281D01*
X112236770Y-47142795D01*
X112232635Y-47145900D01*
X112075311Y-47310530D01*
X112072400Y-47314798D01*
X111988975Y-47437094D01*
X111934064Y-47482096D01*
X111863539Y-47490267D01*
X111799792Y-47459013D01*
X111779095Y-47434529D01*
X111718922Y-47341515D01*
X111718920Y-47341512D01*
X111716114Y-47337175D01*
X111562859Y-47168750D01*
X111384154Y-47027618D01*
X111184798Y-46917567D01*
X111054571Y-46871451D01*
X110975020Y-46843280D01*
X110975016Y-46843279D01*
X110970145Y-46841554D01*
X110965052Y-46840647D01*
X110965049Y-46840646D01*
X110751048Y-46802527D01*
X110751042Y-46802526D01*
X110745959Y-46801621D01*
X110658889Y-46800557D01*
X110523430Y-46798902D01*
X110523428Y-46798902D01*
X110518261Y-46798839D01*
X110293167Y-46833283D01*
X110076720Y-46904029D01*
X109874735Y-47009176D01*
X109870602Y-47012279D01*
X109870599Y-47012281D01*
X109696770Y-47142795D01*
X109692635Y-47145900D01*
X109535311Y-47310530D01*
X109532400Y-47314798D01*
X109448975Y-47437094D01*
X109394064Y-47482096D01*
X109323539Y-47490267D01*
X109259792Y-47459013D01*
X109239095Y-47434529D01*
X109178922Y-47341515D01*
X109178920Y-47341512D01*
X109176114Y-47337175D01*
X109022859Y-47168750D01*
X108844154Y-47027618D01*
X108644798Y-46917567D01*
X108514571Y-46871451D01*
X108435020Y-46843280D01*
X108435016Y-46843279D01*
X108430145Y-46841554D01*
X108425052Y-46840647D01*
X108425049Y-46840646D01*
X108211048Y-46802527D01*
X108211042Y-46802526D01*
X108205959Y-46801621D01*
X108118889Y-46800557D01*
X107983430Y-46798902D01*
X107983428Y-46798902D01*
X107978261Y-46798839D01*
X107753167Y-46833283D01*
X107536720Y-46904029D01*
X107334735Y-47009176D01*
X107330602Y-47012279D01*
X107330599Y-47012281D01*
X107156770Y-47142795D01*
X107152635Y-47145900D01*
X106995311Y-47310530D01*
X106992400Y-47314798D01*
X106908975Y-47437094D01*
X106854064Y-47482096D01*
X106783539Y-47490267D01*
X106719792Y-47459013D01*
X106699095Y-47434529D01*
X106638922Y-47341515D01*
X106638920Y-47341512D01*
X106636114Y-47337175D01*
X106482859Y-47168750D01*
X106304154Y-47027618D01*
X106104798Y-46917567D01*
X105974571Y-46871451D01*
X105895020Y-46843280D01*
X105895016Y-46843279D01*
X105890145Y-46841554D01*
X105885052Y-46840647D01*
X105885049Y-46840646D01*
X105671048Y-46802527D01*
X105671042Y-46802526D01*
X105665959Y-46801621D01*
X105578889Y-46800557D01*
X105443430Y-46798902D01*
X105443428Y-46798902D01*
X105438261Y-46798839D01*
X105213167Y-46833283D01*
X104996720Y-46904029D01*
X104924679Y-46941531D01*
X104855021Y-46955244D01*
X104789006Y-46929119D01*
X104747594Y-46871451D01*
X104740500Y-46829768D01*
X104740500Y-43056345D01*
X104760502Y-42988224D01*
X104777405Y-42967250D01*
X105863005Y-41881650D01*
X105925317Y-41847624D01*
X105996132Y-41852689D01*
X106052968Y-41895236D01*
X106077779Y-41961756D01*
X106078100Y-41970745D01*
X106078100Y-42693400D01*
X106078437Y-42696646D01*
X106078437Y-42696650D01*
X106087676Y-42785689D01*
X106089074Y-42799166D01*
X106091255Y-42805702D01*
X106091255Y-42805704D01*
X106122012Y-42897892D01*
X106145050Y-42966946D01*
X106238122Y-43117348D01*
X106363297Y-43242305D01*
X106369527Y-43246145D01*
X106369528Y-43246146D01*
X106506690Y-43330694D01*
X106513862Y-43335115D01*
X106581041Y-43357397D01*
X106675211Y-43388632D01*
X106675213Y-43388632D01*
X106681739Y-43390797D01*
X106688575Y-43391497D01*
X106688578Y-43391498D01*
X106724263Y-43395154D01*
X106786200Y-43401500D01*
X108087000Y-43401500D01*
X108090246Y-43401163D01*
X108090250Y-43401163D01*
X108185908Y-43391238D01*
X108185912Y-43391237D01*
X108192766Y-43390526D01*
X108199302Y-43388345D01*
X108199304Y-43388345D01*
X108346806Y-43339134D01*
X108360546Y-43334550D01*
X108510948Y-43241478D01*
X108635905Y-43116303D01*
X108725681Y-42970660D01*
X108778452Y-42923168D01*
X108848524Y-42911744D01*
X108913648Y-42940018D01*
X108924110Y-42949805D01*
X108965815Y-42993523D01*
X109033176Y-43064135D01*
X109037454Y-43067318D01*
X109065363Y-43088083D01*
X109218142Y-43201754D01*
X109222893Y-43204170D01*
X109222897Y-43204172D01*
X109297900Y-43242305D01*
X109423651Y-43306240D01*
X109428745Y-43307822D01*
X109428748Y-43307823D01*
X109580689Y-43355002D01*
X109643827Y-43374607D01*
X109649116Y-43375308D01*
X109867089Y-43404198D01*
X109867094Y-43404198D01*
X109872374Y-43404898D01*
X109877703Y-43404698D01*
X109877705Y-43404698D01*
X109998740Y-43400154D01*
X110102758Y-43396249D01*
X110125402Y-43391498D01*
X110304561Y-43353907D01*
X110328391Y-43348907D01*
X110333350Y-43346949D01*
X110333352Y-43346948D01*
X110537856Y-43266185D01*
X110537858Y-43266184D01*
X110542821Y-43264224D01*
X110565715Y-43250332D01*
X110735357Y-43147390D01*
X110735356Y-43147390D01*
X110739917Y-43144623D01*
X110775219Y-43113990D01*
X110910012Y-42997023D01*
X110910014Y-42997021D01*
X110914045Y-42993523D01*
X110992458Y-42897892D01*
X111056840Y-42819373D01*
X111056844Y-42819367D01*
X111060224Y-42815245D01*
X111067274Y-42802861D01*
X111171632Y-42619529D01*
X111174275Y-42614886D01*
X111252937Y-42398175D01*
X111258094Y-42369659D01*
X111293223Y-42175392D01*
X111293224Y-42175385D01*
X111293961Y-42171308D01*
X111295100Y-42147156D01*
X111295100Y-41685110D01*
X111289101Y-41614407D01*
X111280971Y-41518591D01*
X111280970Y-41518587D01*
X111280520Y-41513280D01*
X111279182Y-41508125D01*
X111279181Y-41508119D01*
X111223943Y-41295297D01*
X111223942Y-41295293D01*
X111222601Y-41290128D01*
X111220408Y-41285259D01*
X111219032Y-41281353D01*
X111215271Y-41210457D01*
X111250437Y-41148781D01*
X111313364Y-41115908D01*
X111337878Y-41113500D01*
X114057255Y-41113500D01*
X114125376Y-41133502D01*
X114146346Y-41150401D01*
X115052797Y-42056853D01*
X115086821Y-42119163D01*
X115089700Y-42145946D01*
X115089700Y-42660000D01*
X115090037Y-42663246D01*
X115090037Y-42663250D01*
X115099201Y-42751566D01*
X115100674Y-42765766D01*
X115102855Y-42772302D01*
X115102855Y-42772304D01*
X115134605Y-42867470D01*
X115156650Y-42933546D01*
X115249722Y-43083948D01*
X115374897Y-43208905D01*
X115381127Y-43212745D01*
X115381128Y-43212746D01*
X115518290Y-43297294D01*
X115525462Y-43301715D01*
X115561138Y-43313548D01*
X115686811Y-43355232D01*
X115686813Y-43355232D01*
X115693339Y-43357397D01*
X115700175Y-43358097D01*
X115700178Y-43358098D01*
X115735863Y-43361754D01*
X115797800Y-43368100D01*
X117098600Y-43368100D01*
X117101846Y-43367763D01*
X117101850Y-43367763D01*
X117197508Y-43357838D01*
X117197512Y-43357837D01*
X117204366Y-43357126D01*
X117210902Y-43354945D01*
X117210904Y-43354945D01*
X117356889Y-43306240D01*
X117372146Y-43301150D01*
X117522548Y-43208078D01*
X117647505Y-43082903D01*
X117737281Y-42937260D01*
X117790052Y-42889768D01*
X117860124Y-42878344D01*
X117925248Y-42906618D01*
X117935710Y-42916405D01*
X117977296Y-42959998D01*
X118044776Y-43030735D01*
X118229742Y-43168354D01*
X118234493Y-43170770D01*
X118234497Y-43170772D01*
X118295435Y-43201754D01*
X118435251Y-43272840D01*
X118440345Y-43274422D01*
X118440348Y-43274423D01*
X118605783Y-43325792D01*
X118655427Y-43341207D01*
X118660716Y-43341908D01*
X118878689Y-43370798D01*
X118878694Y-43370798D01*
X118883974Y-43371498D01*
X118889303Y-43371298D01*
X118889305Y-43371298D01*
X118999166Y-43367173D01*
X119114358Y-43362849D01*
X119137002Y-43358098D01*
X119334772Y-43316602D01*
X119339991Y-43315507D01*
X119344950Y-43313549D01*
X119344952Y-43313548D01*
X119549456Y-43232785D01*
X119549458Y-43232784D01*
X119554421Y-43230824D01*
X119559725Y-43227606D01*
X119726369Y-43126483D01*
X119751517Y-43111223D01*
X119814759Y-43056345D01*
X119921612Y-42963623D01*
X119921614Y-42963621D01*
X119925645Y-42960123D01*
X119992700Y-42878344D01*
X120068440Y-42785973D01*
X120068444Y-42785967D01*
X120071824Y-42781845D01*
X120089752Y-42750350D01*
X120140832Y-42701045D01*
X120210462Y-42687183D01*
X120276533Y-42713166D01*
X120303773Y-42742316D01*
X120385641Y-42863919D01*
X120544776Y-43030735D01*
X120729742Y-43168354D01*
X120734493Y-43170770D01*
X120734497Y-43170772D01*
X120795435Y-43201754D01*
X120935251Y-43272840D01*
X120940345Y-43274422D01*
X120940348Y-43274423D01*
X121105783Y-43325792D01*
X121155427Y-43341207D01*
X121160716Y-43341908D01*
X121378689Y-43370798D01*
X121378694Y-43370798D01*
X121383974Y-43371498D01*
X121389303Y-43371298D01*
X121389305Y-43371298D01*
X121499166Y-43367173D01*
X121614358Y-43362849D01*
X121637002Y-43358098D01*
X121834772Y-43316602D01*
X121839991Y-43315507D01*
X121844950Y-43313549D01*
X121844952Y-43313548D01*
X122049456Y-43232785D01*
X122049458Y-43232784D01*
X122054421Y-43230824D01*
X122059725Y-43227606D01*
X122226369Y-43126483D01*
X122251517Y-43111223D01*
X122314759Y-43056345D01*
X122421612Y-42963623D01*
X122421614Y-42963621D01*
X122425645Y-42960123D01*
X122492700Y-42878344D01*
X122568440Y-42785973D01*
X122568444Y-42785967D01*
X122571824Y-42781845D01*
X122577255Y-42772304D01*
X122590029Y-42749865D01*
X122641112Y-42700559D01*
X122710742Y-42686698D01*
X122776813Y-42712682D01*
X122804051Y-42741832D01*
X122883052Y-42859178D01*
X122889719Y-42867470D01*
X123041428Y-43026500D01*
X123049386Y-43033541D01*
X123225725Y-43164741D01*
X123234762Y-43170345D01*
X123430684Y-43269957D01*
X123440535Y-43273957D01*
X123650440Y-43339134D01*
X123660824Y-43341417D01*
X123676243Y-43343461D01*
X123690407Y-43341265D01*
X123694200Y-43328078D01*
X123694200Y-43325792D01*
X124202200Y-43325792D01*
X124206173Y-43339323D01*
X124216780Y-43340848D01*
X124334621Y-43316123D01*
X124344817Y-43313063D01*
X124549229Y-43232337D01*
X124558761Y-43227606D01*
X124746662Y-43113584D01*
X124755252Y-43107320D01*
X124921252Y-42963273D01*
X124928672Y-42955642D01*
X125068026Y-42785689D01*
X125074050Y-42776922D01*
X125182776Y-42585918D01*
X125187241Y-42576254D01*
X125262231Y-42369659D01*
X125265002Y-42359392D01*
X125301704Y-42156426D01*
X125300285Y-42143186D01*
X125285650Y-42138600D01*
X124220315Y-42138600D01*
X124205076Y-42143075D01*
X124203871Y-42144465D01*
X124202200Y-42152148D01*
X124202200Y-43325792D01*
X123694200Y-43325792D01*
X123694200Y-41756600D01*
X123714202Y-41688479D01*
X123767858Y-41641986D01*
X123820200Y-41630600D01*
X125282049Y-41630600D01*
X125296727Y-41626290D01*
X125298790Y-41614407D01*
X125292076Y-41535275D01*
X125290286Y-41524803D01*
X125235070Y-41312065D01*
X125231534Y-41302025D01*
X125226682Y-41291253D01*
X125216939Y-41220928D01*
X125246764Y-41156499D01*
X125306686Y-41118423D01*
X125341563Y-41113500D01*
X128567655Y-41113500D01*
X128635776Y-41133502D01*
X128656746Y-41150401D01*
X129601597Y-42095253D01*
X129635621Y-42157563D01*
X129638500Y-42184346D01*
X129638500Y-42698400D01*
X129638837Y-42701646D01*
X129638837Y-42701650D01*
X129648244Y-42792308D01*
X129649474Y-42804166D01*
X129651655Y-42810702D01*
X129651655Y-42810704D01*
X129683508Y-42906178D01*
X129705450Y-42971946D01*
X129798522Y-43122348D01*
X129923697Y-43247305D01*
X129929927Y-43251145D01*
X129929928Y-43251146D01*
X130067090Y-43335694D01*
X130074262Y-43340115D01*
X130139502Y-43361754D01*
X130235611Y-43393632D01*
X130235613Y-43393632D01*
X130242139Y-43395797D01*
X130248975Y-43396497D01*
X130248978Y-43396498D01*
X130284663Y-43400154D01*
X130346600Y-43406500D01*
X131647400Y-43406500D01*
X131650646Y-43406163D01*
X131650650Y-43406163D01*
X131746308Y-43396238D01*
X131746312Y-43396237D01*
X131753166Y-43395526D01*
X131759702Y-43393345D01*
X131759704Y-43393345D01*
X131909223Y-43343461D01*
X131920946Y-43339550D01*
X132071348Y-43246478D01*
X132196305Y-43121303D01*
X132202519Y-43111223D01*
X132231544Y-43064135D01*
X132286081Y-42975660D01*
X132338852Y-42928168D01*
X132408924Y-42916744D01*
X132474048Y-42945018D01*
X132484510Y-42954805D01*
X132524784Y-42997023D01*
X132593576Y-43069135D01*
X132778542Y-43206754D01*
X132783293Y-43209170D01*
X132783297Y-43209172D01*
X132854419Y-43245332D01*
X132984051Y-43311240D01*
X132989145Y-43312822D01*
X132989148Y-43312823D01*
X133134120Y-43357838D01*
X133204227Y-43379607D01*
X133209516Y-43380308D01*
X133427489Y-43409198D01*
X133427494Y-43409198D01*
X133432774Y-43409898D01*
X133438103Y-43409698D01*
X133438105Y-43409698D01*
X133565959Y-43404898D01*
X133663158Y-43401249D01*
X133685802Y-43396498D01*
X133851392Y-43361754D01*
X133888791Y-43353907D01*
X133893750Y-43351949D01*
X133893752Y-43351948D01*
X134098256Y-43271185D01*
X134098258Y-43271184D01*
X134103221Y-43269224D01*
X134108230Y-43266185D01*
X134295757Y-43152390D01*
X134295756Y-43152390D01*
X134300317Y-43149623D01*
X134326984Y-43126483D01*
X134470412Y-43002023D01*
X134470414Y-43002021D01*
X134474445Y-42998523D01*
X134527723Y-42933546D01*
X134617240Y-42824373D01*
X134617244Y-42824367D01*
X134620624Y-42820245D01*
X134638552Y-42788750D01*
X134689632Y-42739445D01*
X134759262Y-42725583D01*
X134825333Y-42751566D01*
X134852573Y-42780716D01*
X134934441Y-42902319D01*
X134938120Y-42906176D01*
X134938122Y-42906178D01*
X134984510Y-42954805D01*
X135093576Y-43069135D01*
X135278542Y-43206754D01*
X135283293Y-43209170D01*
X135283297Y-43209172D01*
X135354419Y-43245332D01*
X135484051Y-43311240D01*
X135489145Y-43312822D01*
X135489148Y-43312823D01*
X135634120Y-43357838D01*
X135704227Y-43379607D01*
X135709516Y-43380308D01*
X135927489Y-43409198D01*
X135927494Y-43409198D01*
X135932774Y-43409898D01*
X135938103Y-43409698D01*
X135938105Y-43409698D01*
X136065959Y-43404898D01*
X136163158Y-43401249D01*
X136185802Y-43396498D01*
X136351392Y-43361754D01*
X136388791Y-43353907D01*
X136393750Y-43351949D01*
X136393752Y-43351948D01*
X136598256Y-43271185D01*
X136598258Y-43271184D01*
X136603221Y-43269224D01*
X136608230Y-43266185D01*
X136795757Y-43152390D01*
X136795756Y-43152390D01*
X136800317Y-43149623D01*
X136826984Y-43126483D01*
X136970412Y-43002023D01*
X136970414Y-43002021D01*
X136974445Y-42998523D01*
X137027723Y-42933546D01*
X137117240Y-42824373D01*
X137117244Y-42824367D01*
X137120624Y-42820245D01*
X137138552Y-42788750D01*
X137189632Y-42739445D01*
X137259262Y-42725583D01*
X137325333Y-42751566D01*
X137352573Y-42780716D01*
X137434441Y-42902319D01*
X137438120Y-42906176D01*
X137438122Y-42906178D01*
X137484510Y-42954805D01*
X137593576Y-43069135D01*
X137778542Y-43206754D01*
X137783293Y-43209170D01*
X137783297Y-43209172D01*
X137854419Y-43245332D01*
X137984051Y-43311240D01*
X137989145Y-43312822D01*
X137989148Y-43312823D01*
X138134120Y-43357838D01*
X138204227Y-43379607D01*
X138209516Y-43380308D01*
X138427489Y-43409198D01*
X138427494Y-43409198D01*
X138432774Y-43409898D01*
X138438103Y-43409698D01*
X138438105Y-43409698D01*
X138565959Y-43404898D01*
X138663158Y-43401249D01*
X138685802Y-43396498D01*
X138851392Y-43361754D01*
X138888791Y-43353907D01*
X138893750Y-43351949D01*
X138893752Y-43351948D01*
X139098256Y-43271185D01*
X139098258Y-43271184D01*
X139103221Y-43269224D01*
X139108230Y-43266185D01*
X139295757Y-43152390D01*
X139295756Y-43152390D01*
X139300317Y-43149623D01*
X139326984Y-43126483D01*
X139470412Y-43002023D01*
X139470414Y-43002021D01*
X139474445Y-42998523D01*
X139527723Y-42933546D01*
X139617240Y-42824373D01*
X139617244Y-42824367D01*
X139620624Y-42820245D01*
X139628902Y-42805704D01*
X139732032Y-42624529D01*
X139734675Y-42619886D01*
X139813337Y-42403175D01*
X139818076Y-42376967D01*
X139853623Y-42180392D01*
X139853624Y-42180385D01*
X139854361Y-42176308D01*
X139855500Y-42152156D01*
X139855500Y-41740110D01*
X139840920Y-41568280D01*
X139839582Y-41563125D01*
X139839581Y-41563119D01*
X139784343Y-41350297D01*
X139784342Y-41350293D01*
X139783001Y-41345128D01*
X139768108Y-41312065D01*
X139690507Y-41139798D01*
X139688312Y-41134925D01*
X139559559Y-40943681D01*
X139400424Y-40776865D01*
X139215458Y-40639246D01*
X139210707Y-40636830D01*
X139210703Y-40636828D01*
X139088731Y-40574815D01*
X139009949Y-40534760D01*
X139004855Y-40533178D01*
X139004852Y-40533177D01*
X138794871Y-40467976D01*
X138789773Y-40466393D01*
X138784484Y-40465692D01*
X138566511Y-40436802D01*
X138566506Y-40436802D01*
X138561226Y-40436102D01*
X138555897Y-40436302D01*
X138555895Y-40436302D01*
X138461976Y-40439828D01*
X138330842Y-40444751D01*
X138325623Y-40445846D01*
X138294539Y-40452368D01*
X138105209Y-40492093D01*
X138100250Y-40494051D01*
X138100248Y-40494052D01*
X137895744Y-40574815D01*
X137895742Y-40574816D01*
X137890779Y-40576776D01*
X137886220Y-40579543D01*
X137886217Y-40579544D01*
X137787832Y-40639246D01*
X137693683Y-40696377D01*
X137689653Y-40699874D01*
X137596484Y-40780722D01*
X137519555Y-40847477D01*
X137516168Y-40851608D01*
X137376760Y-41021627D01*
X137376756Y-41021633D01*
X137373376Y-41025755D01*
X137355448Y-41057250D01*
X137304368Y-41106555D01*
X137234738Y-41120417D01*
X137168667Y-41094434D01*
X137141427Y-41065284D01*
X137062539Y-40948108D01*
X137059559Y-40943681D01*
X136900424Y-40776865D01*
X136715458Y-40639246D01*
X136710707Y-40636830D01*
X136710703Y-40636828D01*
X136588731Y-40574815D01*
X136509949Y-40534760D01*
X136504855Y-40533178D01*
X136504852Y-40533177D01*
X136294871Y-40467976D01*
X136289773Y-40466393D01*
X136284484Y-40465692D01*
X136066511Y-40436802D01*
X136066506Y-40436802D01*
X136061226Y-40436102D01*
X136055897Y-40436302D01*
X136055895Y-40436302D01*
X135961976Y-40439828D01*
X135830842Y-40444751D01*
X135825623Y-40445846D01*
X135794539Y-40452368D01*
X135605209Y-40492093D01*
X135600250Y-40494051D01*
X135600248Y-40494052D01*
X135395744Y-40574815D01*
X135395742Y-40574816D01*
X135390779Y-40576776D01*
X135386220Y-40579543D01*
X135386217Y-40579544D01*
X135287832Y-40639246D01*
X135193683Y-40696377D01*
X135189653Y-40699874D01*
X135096484Y-40780722D01*
X135019555Y-40847477D01*
X135016168Y-40851608D01*
X134876760Y-41021627D01*
X134876756Y-41021633D01*
X134873376Y-41025755D01*
X134855448Y-41057250D01*
X134804368Y-41106555D01*
X134734738Y-41120417D01*
X134668667Y-41094434D01*
X134641427Y-41065284D01*
X134562539Y-40948108D01*
X134559559Y-40943681D01*
X134400424Y-40776865D01*
X134215458Y-40639246D01*
X134210707Y-40636830D01*
X134210703Y-40636828D01*
X134088731Y-40574815D01*
X134009949Y-40534760D01*
X134004855Y-40533178D01*
X134004852Y-40533177D01*
X133794871Y-40467976D01*
X133789773Y-40466393D01*
X133784484Y-40465692D01*
X133566511Y-40436802D01*
X133566506Y-40436802D01*
X133561226Y-40436102D01*
X133555897Y-40436302D01*
X133555895Y-40436302D01*
X133461976Y-40439828D01*
X133330842Y-40444751D01*
X133325623Y-40445846D01*
X133294539Y-40452368D01*
X133105209Y-40492093D01*
X133100250Y-40494051D01*
X133100248Y-40494052D01*
X132895744Y-40574815D01*
X132895742Y-40574816D01*
X132890779Y-40576776D01*
X132886220Y-40579543D01*
X132886217Y-40579544D01*
X132787832Y-40639246D01*
X132693683Y-40696377D01*
X132689653Y-40699874D01*
X132596484Y-40780722D01*
X132519555Y-40847477D01*
X132490330Y-40883120D01*
X132431671Y-40923114D01*
X132360701Y-40925046D01*
X132299952Y-40888302D01*
X132285752Y-40869532D01*
X132199332Y-40729880D01*
X132195478Y-40723652D01*
X132070303Y-40598695D01*
X132064072Y-40594854D01*
X131925968Y-40509725D01*
X131925966Y-40509724D01*
X131919738Y-40505885D01*
X131839995Y-40479436D01*
X131758389Y-40452368D01*
X131758387Y-40452368D01*
X131751861Y-40450203D01*
X131745025Y-40449503D01*
X131745022Y-40449502D01*
X131701969Y-40445091D01*
X131647400Y-40439500D01*
X131133346Y-40439500D01*
X131065225Y-40419498D01*
X131044251Y-40402595D01*
X129936551Y-39294895D01*
X129929565Y-39286621D01*
X129929335Y-39286820D01*
X129925412Y-39282275D01*
X129921946Y-39277389D01*
X129854983Y-39213286D01*
X129853020Y-39211364D01*
X129825460Y-39183804D01*
X129823145Y-39181892D01*
X129819739Y-39179079D01*
X129812855Y-39172957D01*
X129769150Y-39131119D01*
X129764114Y-39127867D01*
X129764110Y-39127864D01*
X129741008Y-39112947D01*
X129729126Y-39104251D01*
X129707919Y-39086738D01*
X129707916Y-39086736D01*
X129703295Y-39082920D01*
X129650203Y-39053913D01*
X129642283Y-39049202D01*
X129591452Y-39016380D01*
X129585884Y-39014136D01*
X129585882Y-39014135D01*
X129560381Y-39003858D01*
X129547068Y-38997565D01*
X129542695Y-38995176D01*
X129517671Y-38981504D01*
X129511959Y-38979676D01*
X129511953Y-38979673D01*
X129460049Y-38963059D01*
X129451375Y-38959928D01*
X129395263Y-38937314D01*
X129362392Y-38930895D01*
X129348125Y-38927232D01*
X129321927Y-38918846D01*
X129321925Y-38918846D01*
X129316219Y-38917019D01*
X129310272Y-38916305D01*
X129310265Y-38916303D01*
X129256154Y-38909802D01*
X129247033Y-38908366D01*
X129220473Y-38903179D01*
X129187663Y-38896772D01*
X129182101Y-38896500D01*
X129152960Y-38896500D01*
X129137932Y-38895601D01*
X129112155Y-38892504D01*
X129112149Y-38892504D01*
X129106207Y-38891790D01*
X129100232Y-38892213D01*
X129100229Y-38892213D01*
X129044137Y-38896185D01*
X129035238Y-38896500D01*
X118432057Y-38896500D01*
X118421268Y-38895589D01*
X118421246Y-38895893D01*
X118415272Y-38895454D01*
X118409354Y-38894448D01*
X118316701Y-38896470D01*
X118313952Y-38896500D01*
X118274954Y-38896500D01*
X118271975Y-38896784D01*
X118271957Y-38896785D01*
X118267578Y-38897203D01*
X118258364Y-38897743D01*
X118229526Y-38898372D01*
X118203879Y-38898932D01*
X118203878Y-38898932D01*
X118197883Y-38899063D01*
X118165127Y-38906115D01*
X118150601Y-38908365D01*
X118117234Y-38911548D01*
X118070481Y-38925264D01*
X118059195Y-38928575D01*
X118050248Y-38930848D01*
X117991099Y-38943582D01*
X117960263Y-38956702D01*
X117946412Y-38961661D01*
X117920024Y-38969402D01*
X117920017Y-38969405D01*
X117914266Y-38971092D01*
X117860480Y-38998794D01*
X117852130Y-39002714D01*
X117801986Y-39024050D01*
X117801983Y-39024052D01*
X117796464Y-39026400D01*
X117768670Y-39045112D01*
X117756003Y-39052603D01*
X117731554Y-39065194D01*
X117731547Y-39065198D01*
X117726220Y-39067942D01*
X117721501Y-39071649D01*
X117678657Y-39105303D01*
X117671191Y-39110737D01*
X117624767Y-39141991D01*
X117624752Y-39142002D01*
X117621001Y-39144528D01*
X117616876Y-39148269D01*
X117596271Y-39168874D01*
X117585010Y-39178864D01*
X117583264Y-39180236D01*
X117564597Y-39194898D01*
X117564592Y-39194902D01*
X117559880Y-39198604D01*
X117555948Y-39203135D01*
X117555943Y-39203140D01*
X117519084Y-39245616D01*
X117513028Y-39252117D01*
X116537293Y-40227851D01*
X116474983Y-40261875D01*
X116404167Y-40256810D01*
X116359105Y-40227849D01*
X115426151Y-39294895D01*
X115419165Y-39286621D01*
X115418935Y-39286820D01*
X115415012Y-39282275D01*
X115411546Y-39277389D01*
X115344583Y-39213286D01*
X115342619Y-39211363D01*
X115315060Y-39183804D01*
X115312745Y-39181892D01*
X115309339Y-39179079D01*
X115302455Y-39172957D01*
X115258750Y-39131119D01*
X115253714Y-39127867D01*
X115253710Y-39127864D01*
X115230608Y-39112947D01*
X115218726Y-39104251D01*
X115197519Y-39086738D01*
X115197516Y-39086736D01*
X115192895Y-39082920D01*
X115139803Y-39053913D01*
X115131883Y-39049202D01*
X115081052Y-39016380D01*
X115075484Y-39014136D01*
X115075482Y-39014135D01*
X115049981Y-39003858D01*
X115036668Y-38997565D01*
X115032295Y-38995176D01*
X115007271Y-38981504D01*
X115001559Y-38979676D01*
X115001553Y-38979673D01*
X114949649Y-38963059D01*
X114940975Y-38959928D01*
X114884863Y-38937314D01*
X114851992Y-38930895D01*
X114837725Y-38927232D01*
X114811527Y-38918846D01*
X114811525Y-38918846D01*
X114805819Y-38917019D01*
X114799872Y-38916305D01*
X114799865Y-38916303D01*
X114745754Y-38909802D01*
X114736633Y-38908366D01*
X114710073Y-38903179D01*
X114677263Y-38896772D01*
X114671701Y-38896500D01*
X114642560Y-38896500D01*
X114627532Y-38895601D01*
X114601755Y-38892504D01*
X114601749Y-38892504D01*
X114595807Y-38891790D01*
X114589832Y-38892213D01*
X114589829Y-38892213D01*
X114533737Y-38896185D01*
X114524838Y-38896500D01*
X106276252Y-38896500D01*
X106265469Y-38895590D01*
X106265447Y-38895894D01*
X106259471Y-38895455D01*
X106253554Y-38894449D01*
X106160926Y-38896470D01*
X106158178Y-38896500D01*
X106119154Y-38896500D01*
X106111769Y-38897205D01*
X106102561Y-38897744D01*
X106074127Y-38898364D01*
X106048079Y-38898932D01*
X106048077Y-38898932D01*
X106042082Y-38899063D01*
X106036223Y-38900324D01*
X106036218Y-38900325D01*
X106009325Y-38906115D01*
X105994774Y-38908367D01*
X105981405Y-38909643D01*
X105961434Y-38911548D01*
X105955674Y-38913238D01*
X105955673Y-38913238D01*
X105903388Y-38928576D01*
X105894440Y-38930848D01*
X105841168Y-38942317D01*
X105841156Y-38942321D01*
X105835298Y-38943582D01*
X105829776Y-38945931D01*
X105829778Y-38945931D01*
X105804479Y-38956696D01*
X105790615Y-38961661D01*
X105758466Y-38971092D01*
X105704689Y-38998789D01*
X105704679Y-38998794D01*
X105696326Y-39002716D01*
X105640663Y-39026401D01*
X105616419Y-39042723D01*
X105612879Y-39045106D01*
X105600208Y-39052600D01*
X105570420Y-39067942D01*
X105546492Y-39086738D01*
X105522858Y-39105303D01*
X105515390Y-39110739D01*
X105485118Y-39131119D01*
X105465200Y-39144528D01*
X105461075Y-39148269D01*
X105440467Y-39168877D01*
X105429205Y-39178868D01*
X105408797Y-39194898D01*
X105408793Y-39194902D01*
X105404080Y-39198604D01*
X105400149Y-39203134D01*
X105400148Y-39203135D01*
X105363291Y-39245609D01*
X105357221Y-39252123D01*
X102921895Y-41687449D01*
X102913621Y-41694435D01*
X102913820Y-41694665D01*
X102909275Y-41698588D01*
X102904389Y-41702054D01*
X102900247Y-41706381D01*
X102840287Y-41769016D01*
X102838364Y-41770980D01*
X102810804Y-41798540D01*
X102808894Y-41800852D01*
X102808892Y-41800855D01*
X102806079Y-41804261D01*
X102799957Y-41811145D01*
X102758119Y-41854850D01*
X102754867Y-41859886D01*
X102754864Y-41859890D01*
X102739947Y-41882992D01*
X102731252Y-41894873D01*
X102709920Y-41920705D01*
X102707046Y-41925966D01*
X102680913Y-41973797D01*
X102676202Y-41981717D01*
X102643380Y-42032548D01*
X102641136Y-42038116D01*
X102641135Y-42038118D01*
X102630858Y-42063619D01*
X102624565Y-42076932D01*
X102608504Y-42106329D01*
X102606676Y-42112041D01*
X102606673Y-42112047D01*
X102590059Y-42163951D01*
X102586928Y-42172625D01*
X102564314Y-42228737D01*
X102563164Y-42234627D01*
X102557895Y-42261608D01*
X102554232Y-42275875D01*
X102544019Y-42307781D01*
X102543305Y-42313728D01*
X102543303Y-42313735D01*
X102536802Y-42367846D01*
X102535366Y-42376967D01*
X102523772Y-42436337D01*
X102523500Y-42441899D01*
X102523500Y-42471040D01*
X102522601Y-42486068D01*
X102519504Y-42511845D01*
X102519504Y-42511851D01*
X102518790Y-42517793D01*
X101508500Y-42517793D01*
X101508500Y-39053250D01*
X101510246Y-39032345D01*
X101512770Y-39017344D01*
X101512770Y-39017341D01*
X101513576Y-39012552D01*
X101513729Y-39000000D01*
X101513040Y-38995186D01*
X101513039Y-38995176D01*
X101512157Y-38989017D01*
X101511206Y-38962172D01*
X101523038Y-38796723D01*
X101525596Y-38778934D01*
X101566999Y-38588607D01*
X101572063Y-38571359D01*
X101640136Y-38388850D01*
X101647604Y-38372498D01*
X101740952Y-38201542D01*
X101750672Y-38186418D01*
X101867402Y-38030486D01*
X101879175Y-38016900D01*
X102016900Y-37879175D01*
X102030486Y-37867402D01*
X102186418Y-37750672D01*
X102201541Y-37740953D01*
X102213518Y-37734413D01*
X102273904Y-37719000D01*
X144726096Y-37719000D01*
X144786482Y-37734413D01*
G37*
G04 #@! TD.AperFunction*
M02*
