G04 #@! TF.GenerationSoftware,KiCad,Pcbnew,(6.0.7)*
G04 #@! TF.CreationDate,2022-12-11T16:42:55+01:00*
G04 #@! TF.ProjectId,StartStop_PCB,53746172-7453-4746-9f70-5f5043422e6b,rev?*
G04 #@! TF.SameCoordinates,Original*
G04 #@! TF.FileFunction,Paste,Top*
G04 #@! TF.FilePolarity,Positive*
%FSLAX46Y46*%
G04 Gerber Fmt 4.6, Leading zero omitted, Abs format (unit mm)*
G04 Created by KiCad (PCBNEW (6.0.7)) date 2022-12-11 16:42:55*
%MOMM*%
%LPD*%
G01*
G04 APERTURE LIST*
G04 Aperture macros list*
%AMRoundRect*
0 Rectangle with rounded corners*
0 $1 Rounding radius*
0 $2 $3 $4 $5 $6 $7 $8 $9 X,Y pos of 4 corners*
0 Add a 4 corners polygon primitive as box body*
4,1,4,$2,$3,$4,$5,$6,$7,$8,$9,$2,$3,0*
0 Add four circle primitives for the rounded corners*
1,1,$1+$1,$2,$3*
1,1,$1+$1,$4,$5*
1,1,$1+$1,$6,$7*
1,1,$1+$1,$8,$9*
0 Add four rect primitives between the rounded corners*
20,1,$1+$1,$2,$3,$4,$5,0*
20,1,$1+$1,$4,$5,$6,$7,0*
20,1,$1+$1,$6,$7,$8,$9,0*
20,1,$1+$1,$8,$9,$2,$3,0*%
G04 Aperture macros list end*
G04 #@! TA.AperFunction,Profile*
%ADD10C,0.100000*%
G04 #@! TD*
%ADD11RoundRect,0.250000X-0.262500X-0.450000X0.262500X-0.450000X0.262500X0.450000X-0.262500X0.450000X0*%
%ADD12R,2.000000X1.200000*%
%ADD13RoundRect,0.250000X0.450000X-0.262500X0.450000X0.262500X-0.450000X0.262500X-0.450000X-0.262500X0*%
%ADD14RoundRect,0.150000X-0.587500X-0.150000X0.587500X-0.150000X0.587500X0.150000X-0.587500X0.150000X0*%
%ADD15RoundRect,0.243750X-0.456250X0.243750X-0.456250X-0.243750X0.456250X-0.243750X0.456250X0.243750X0*%
%ADD16RoundRect,0.250000X0.262500X0.450000X-0.262500X0.450000X-0.262500X-0.450000X0.262500X-0.450000X0*%
%ADD17RoundRect,0.150000X0.587500X0.150000X-0.587500X0.150000X-0.587500X-0.150000X0.587500X-0.150000X0*%
%ADD18RoundRect,0.243750X0.243750X0.456250X-0.243750X0.456250X-0.243750X-0.456250X0.243750X-0.456250X0*%
%ADD19R,1.200000X0.900000*%
%ADD20RoundRect,0.243750X-0.243750X-0.456250X0.243750X-0.456250X0.243750X0.456250X-0.243750X0.456250X0*%
G04 APERTURE END LIST*
D10*
X144000000Y-81000000D02*
G75*
G03*
X146000000Y-79000000I0J2000000D01*
G01*
X103000000Y-37000000D02*
G75*
G03*
X101000000Y-39000000I0J-2000000D01*
G01*
X146000000Y-79000000D02*
X146000000Y-39000000D01*
X144000000Y-37000000D02*
X103000000Y-37000000D01*
X101000000Y-39000000D02*
X101000000Y-79000000D01*
X146000000Y-39000000D02*
G75*
G03*
X144000000Y-37000000I-2000000J0D01*
G01*
X101000000Y-79000000D02*
G75*
G03*
X103000000Y-81000000I2000000J0D01*
G01*
X103000000Y-81000000D02*
X144000000Y-81000000D01*
D11*
X129112000Y-51689000D03*
X130937000Y-51689000D03*
D12*
X143332200Y-40418000D03*
X143332200Y-44418000D03*
D13*
X132715000Y-64080000D03*
X132715000Y-62255000D03*
D11*
X125325500Y-77724000D03*
X127150500Y-77724000D03*
D14*
X133960000Y-47183000D03*
X133960000Y-49083000D03*
X135835000Y-48133000D03*
X132787250Y-56073000D03*
X132787250Y-57973000D03*
X134662250Y-57023000D03*
D11*
X137898500Y-49149000D03*
X139723500Y-49149000D03*
D15*
X134874000Y-62230000D03*
X134874000Y-64105000D03*
D11*
X129105750Y-58039000D03*
X130930750Y-58039000D03*
X117627000Y-75692000D03*
X119452000Y-75692000D03*
D16*
X132000000Y-49149000D03*
X130175000Y-49149000D03*
X130930750Y-56007000D03*
X129105750Y-56007000D03*
X127150500Y-75692000D03*
X125325500Y-75692000D03*
D17*
X123287000Y-77658000D03*
X123287000Y-75758000D03*
X121412000Y-76708000D03*
D18*
X119405000Y-77724000D03*
X117530000Y-77724000D03*
D16*
X130937000Y-53721000D03*
X129112000Y-53721000D03*
D19*
X113284000Y-78434600D03*
X113284000Y-75134600D03*
D13*
X130683000Y-64080000D03*
X130683000Y-62255000D03*
D11*
X130175000Y-47117000D03*
X132000000Y-47117000D03*
X111355500Y-59944000D03*
X113180500Y-59944000D03*
D15*
X128524000Y-62230000D03*
X128524000Y-64105000D03*
D14*
X132793500Y-51755000D03*
X132793500Y-53655000D03*
X134668500Y-52705000D03*
D20*
X137848500Y-47117000D03*
X139723500Y-47117000D03*
D11*
X120753500Y-51308000D03*
X122578500Y-51308000D03*
M02*
